<svg width="195" height="146" viewBox="0 0 195 146" fill="none" xmlns="http://www.w3.org/2000/svg">
<path d="M194.171 128.538H0.829193V128.634H194.171V128.538Z" fill="#E6E6E6"/>
<path d="M31.0755 132.852H20.8014V132.948H31.0755V132.852Z" fill="#E6E6E6"/>
<path d="M34.7916 130.919H25.9365V131.016H34.7916V130.919Z" fill="#E6E6E6"/>
<path d="M126.66 131.204H102.898V131.301H126.66V131.204Z" fill="#E6E6E6"/>
<path d="M134.587 131.204H128.887V131.301H134.587V131.204Z" fill="#E6E6E6"/>
<path d="M166.995 131.867H148.179V131.964H166.995V131.867Z" fill="#E6E6E6"/>
<path d="M75.5248 133.409H42.0264V133.506H75.5248V133.409Z" fill="#E6E6E6"/>
<path d="M173.131 131.867H170.39V131.964H173.131V131.867Z" fill="#E6E6E6"/>
<path d="M92.4732 111.29H17.8085C17.2236 111.289 16.663 111.056 16.2497 110.642C15.8365 110.228 15.6044 109.667 15.6044 109.082V4.12466C15.6095 3.5431 15.8438 2.98703 16.2565 2.57724C16.6692 2.16745 17.2269 1.93703 17.8085 1.93604H92.4732C93.0587 1.93604 93.6204 2.16866 94.0344 2.58273C94.4485 2.99681 94.6811 3.55841 94.6811 4.144V109.082C94.6811 109.668 94.4485 110.229 94.0344 110.643C93.6204 111.057 93.0587 111.29 92.4732 111.29ZM17.8085 2.01337C17.2492 2.0144 16.7132 2.23729 16.3181 2.63312C15.923 3.02895 15.7011 3.56538 15.7011 4.12466V109.082C15.7011 109.641 15.923 110.178 16.3181 110.574C16.7132 110.969 17.2492 111.192 17.8085 111.193H92.4732C93.0328 111.192 93.5692 110.97 93.9649 110.574C94.3607 110.178 94.5834 109.642 94.5845 109.082V4.12466C94.5834 3.56503 94.3607 3.02861 93.9649 2.63288C93.5692 2.23716 93.0328 2.01439 92.4732 2.01337H17.8085Z" fill="#E6E6E6"/>
<path d="M176.117 111.29H101.448C100.863 111.289 100.302 111.056 99.8879 110.642C99.474 110.228 99.2411 109.667 99.2401 109.082V4.12466C99.2462 3.54275 99.4814 2.98668 99.8947 2.577C100.308 2.16731 100.866 1.93702 101.448 1.93604H176.117C176.697 1.93805 177.254 2.16891 177.666 2.5786C178.078 2.98828 178.312 3.54377 178.317 4.12466V109.082C178.317 109.666 178.085 110.227 177.673 110.641C177.26 111.054 176.701 111.288 176.117 111.29ZM101.448 2.01337C100.888 2.01439 100.352 2.23716 99.9562 2.63288C99.5605 3.02861 99.3378 3.56503 99.3367 4.12466V109.082C99.3378 109.642 99.5605 110.178 99.9562 110.574C100.352 110.97 100.888 111.192 101.448 111.193H176.117C176.676 111.192 177.213 110.97 177.608 110.574C178.004 110.178 178.227 109.642 178.228 109.082V4.12466C178.227 3.56503 178.004 3.02861 177.608 2.63288C177.213 2.23716 176.676 2.01439 176.117 2.01337H101.448Z" fill="#E6E6E6"/>
<path d="M60.1575 62.037C61.2339 57.3672 58.3209 52.709 53.651 51.6326C48.9812 50.5562 44.323 53.4692 43.2466 58.139C42.1702 62.8088 45.0832 67.4671 49.7531 68.5435C54.4229 69.6199 59.0811 66.7068 60.1575 62.037Z" fill="#F0F0F0"/>
<path d="M110.872 58.2922C109.793 55.9721 110.651 54.29 113.296 54.29C114.951 54.29 117.008 54.9474 119.011 56.0108C119.239 55.4037 119.873 55.0402 120.898 55.0402C122.704 55.0402 125.19 56.1655 127.139 57.747C127.741 57.3446 128.45 57.133 129.173 57.1399C130.902 57.0703 132.99 57.7161 134.807 58.7678C134.914 58.6667 135.04 58.588 135.177 58.5362C135.314 58.4844 135.461 58.4606 135.608 58.4662C136.184 58.4856 136.749 58.6253 137.268 58.8763C137.787 59.1274 138.247 59.4843 138.62 59.924C138.662 59.9743 138.697 60.0284 138.736 60.0787H109.53C108.606 59.2551 109.626 58.3347 110.872 58.2922Z" fill="#F5F5F5"/>
<path d="M53.9749 76.2452L77.9029 70.7659V128.536H53.9749V76.2452Z" fill="#FAFAFA"/>
<path d="M90.3193 70.7659H77.9029V128.536H90.3193V70.7659Z" fill="#6C6868"/>
<path d="M86.263 128.538H106.63L106.63 56.9509H86.263V128.538Z" fill="#FAFAFA"/>
<path d="M117.198 56.9495H106.63V128.536H117.198V56.9495Z" fill="#6C6868"/>
<path d="M89.0046 56.9495H106.63V51.6287H89.0046V56.9495Z" fill="#FAFAFA"/>
<path d="M89.0046 56.9495H106.63V55.7546H89.0046V56.9495Z" fill="#6C6868"/>
<path d="M114.46 51.6311H106.63V56.9519H114.46V51.6311Z" fill="#6C6868"/>
<path d="M91.7423 51.6311H106.626V46.3103H91.7423V51.6311Z" fill="#FAFAFA"/>
<path d="M91.7423 51.6311H106.626V50.4362H91.7423V51.6311Z" fill="#6C6868"/>
<path d="M111.718 46.313H106.63V51.6338H111.718V46.313Z" fill="#6C6868"/>
<path d="M102.225 38.8806H101.235V46.3127H102.225V38.8806Z" fill="#6C6868"/>
<path d="M113.822 128.538H128.694V66.2545H113.822V128.538Z" fill="#FAFAFA"/>
<path d="M136.416 66.2532H128.698V128.536H136.416V66.2532Z" fill="#6C6868"/>
<path d="M132.557 78.8865L143.832 88.5536V128.537H132.557V78.8865Z" fill="#FAFAFA"/>
<path d="M149.687 88.5537H143.832V128.537H149.687V88.5537Z" fill="#6C6868"/>
<path d="M149.687 88.5536H143.832L132.557 78.8865H138.407L149.687 88.5536Z" fill="#6C6868"/>
<path d="M170.931 128.537C171.097 127.608 171.492 126.735 172.08 125.997C172.668 125.259 173.431 124.679 174.299 124.31C173.537 125.581 173.191 127.059 173.309 128.537H170.931Z" fill="#6C6868"/>
<path d="M72.8683 128.537C72.7024 127.608 72.3076 126.735 71.7195 125.997C71.1315 125.259 70.3687 124.679 69.5003 124.31C70.2627 125.581 70.6088 127.059 70.4902 128.537H72.8683Z" fill="#6C6868"/>
<path d="M23.5932 128.538C23.5932 128.538 23.4037 123.588 21.335 122.15C22.1818 124.172 22.0001 128.538 22.0001 128.538H23.5932Z" fill="#6C6868"/>
<path d="M22.816 128.538C22.816 128.538 23.0093 125.696 25.0781 124.872C24.2274 126.032 24.413 128.538 24.413 128.538H22.816Z" fill="#6C6868"/>
<path d="M74.6393 128.538C74.6393 128.538 74.4305 123.851 70.6797 122.15C72.3579 124.555 72.2612 128.538 72.2612 128.538H74.6393Z" fill="#6C6868"/>
<path d="M37.0537 96.9873L39.7837 116.244L40.0543 118.17H41.806L41.5315 116.244L38.8015 96.9873H37.0537Z" fill="#6C6868"/>
<path d="M112.066 96.9873L114.796 116.244L115.067 118.17H116.819L116.544 116.244L113.814 96.9873H112.066Z" fill="#6C6868"/>
<path d="M48.2637 116.245L48.5382 118.171L50.0115 128.553H51.7631L50.2899 118.171L50.0192 116.245H48.2637Z" fill="#E6E6E6"/>
<path d="M123.28 116.245L123.555 118.171L125.024 128.553H126.772L125.303 118.171L125.032 116.245H123.28Z" fill="#6C6868"/>
<path d="M114.441 116.245L114.166 118.171L112.693 128.553H110.941L112.414 118.171L112.685 116.245H114.441Z" fill="#6C6868"/>
<path d="M39.424 116.245L39.1494 118.171L37.6801 128.553H35.9322L37.4016 118.171L37.6762 116.245H39.424Z" fill="#6C6868"/>
<path d="M34.5364 99.668H114.707L113.219 94.3047H33.0477L34.5364 99.668Z" fill="#F5F5F5"/>
<path d="M36.3654 99.668H116.54L115.052 94.3047H34.8767L36.3654 99.668Z" fill="#6C6868"/>
<path d="M35.6539 106.353H115.825L114.336 100.993H34.1613L35.6539 106.353Z" fill="#F5F5F5"/>
<path d="M37.4829 106.353H117.654L116.165 100.993H35.9941L37.4829 106.353Z" fill="#6C6868"/>
<path d="M36.7676 113.052H116.942L115.454 107.693H35.2788L36.7676 113.052Z" fill="#F5F5F5"/>
<path d="M38.6004 113.052H118.771L117.283 107.693H37.1116L38.6004 113.052Z" fill="#6C6868"/>
<path d="M126.068 116.245H46.249V118.171H126.068V116.245Z" fill="#6C6868"/>
<path d="M46.249 116.245H35.2788V118.171H46.249V116.245Z" fill="#6C6868"/>
<path d="M29.2504 37.6948C27.754 34.4621 28.945 32.1614 32.603 32.1614C34.896 32.1614 37.7381 33.0662 40.5107 34.5395C40.8239 33.7004 41.7055 33.1977 43.1208 33.1977C45.6187 33.1977 49.0563 34.7444 51.7554 36.9524C52.5861 36.395 53.5663 36.1025 54.5666 36.1133C56.9563 36.0127 59.8487 36.9098 62.3621 38.3638C62.6609 38.0836 63.0586 37.9334 63.468 37.9462C64.8446 37.8882 66.7084 38.793 67.6326 39.9608C67.6906 40.0342 67.7409 40.1039 67.7911 40.1773H27.3944C26.1183 39.0289 27.5297 37.7528 29.2504 37.6948Z" fill="#F5F5F5"/>
<path d="M135.36 44.3594C135.462 44.3535 135.564 44.3535 135.666 44.3594C135.573 43.3037 136.118 42.627 137.29 42.627C138.331 42.6974 139.339 43.0228 140.225 43.5744C139.923 41.525 140.894 40.1909 143.082 40.1909C144.849 40.1909 147.088 41.0571 149.3 42.4724C149.493 41.6681 150.143 41.1847 151.234 41.1847C153.167 41.1847 155.874 42.6773 158.078 44.7809C158.657 44.2543 159.414 43.9669 160.197 43.9765C162.026 43.8799 164.3 44.7499 166.314 46.1342C166.411 46.0073 166.537 45.9057 166.682 45.8384C166.827 45.771 166.986 45.7399 167.146 45.7476C168.147 45.6973 169.524 46.4668 170.328 47.4954H133.752C132.889 45.9022 133.574 44.5372 135.36 44.3594Z" fill="#F5F5F5"/>
<path d="M73.8273 20.9726C73.9277 20.9667 74.0284 20.9667 74.1289 20.9726C74.0361 19.9131 74.5852 19.2403 75.7529 19.2403C76.7954 19.3101 77.8047 19.6354 78.6917 20.1876C78.3901 18.1343 79.3568 16.8003 81.5455 16.8003C83.3165 16.8003 85.5515 17.6703 87.7633 19.0856C87.9567 18.2813 88.6063 17.7979 89.6967 17.7979C91.6302 17.7979 94.3369 19.2867 96.541 21.3941C97.1214 20.8691 97.8775 20.5808 98.6601 20.5859C100.489 20.4931 102.763 21.3593 104.777 22.7436C104.875 22.6169 105.001 22.5155 105.146 22.4482C105.29 22.3809 105.449 22.3496 105.609 22.3569C106.61 22.3028 107.991 23.0723 108.791 24.1047H72.2148C71.3564 22.5155 72.0408 21.1505 73.8273 20.9726Z" fill="#F5F5F5"/>
<path d="M165.081 121.849L158.209 114.977H152.858L158.797 120.917H157.165V128.538H163.449V121.849H165.081Z" fill="#6C6868"/>
<path d="M159.729 121.849L152.858 114.977L145.986 121.849H148.55V128.538H157.165V121.849H159.729Z" fill="#FAFAFA"/>
<path d="M97.5 146C138.907 146 172.474 144.04 172.474 141.623C172.474 139.205 138.907 137.246 97.5 137.246C56.093 137.246 22.526 139.205 22.526 141.623C22.526 144.04 56.093 146 97.5 146Z" fill="#F5F5F5"/>
<path d="M155.951 22.3232L145.646 12.0181H137.618L146.528 20.9272H144.076V32.3537H153.499V22.3232H155.951Z" fill="#0A0A0C"/>
<path opacity="0.4" d="M155.951 22.3232L145.646 12.0181H137.618L146.528 20.9272H144.076V32.3537H153.499V22.3232H155.951Z" fill="#6C6868"/>
<path d="M147.923 22.3232L137.618 12.0181L127.313 22.3232H131.161V32.3537H144.076V22.3232H147.923Z" fill="#0A0A0C"/>
<path opacity="0.7" d="M147.923 22.3232L137.618 12.0181L127.313 22.3232H131.161V32.3537H144.076V22.3232H147.923Z" fill="#EDF4FF"/>
<path d="M162.587 63.4589L152.281 53.1499H144.254L153.163 62.0591H150.711V73.4856H160.135V63.4589H162.587Z" fill="#0A0A0C"/>
<path opacity="0.4" d="M162.587 63.4589L152.281 53.1499H144.254L153.163 62.0591H150.711V73.4856H160.135V63.4589H162.587Z" fill="#6C6868"/>
<path d="M154.559 63.4589L144.254 53.1499L133.949 63.4589H137.792V73.4856H150.711V63.4589H154.559Z" fill="#0A0A0C"/>
<path opacity="0.7" d="M154.559 63.4589L144.254 53.1499L133.949 63.4589H137.792V73.4856H150.711V63.4589H154.559Z" fill="#EDF4FF"/>
<path d="M116.208 74.1742L105.899 63.8691H97.8751L106.784 72.7745H104.333V84.2048H113.756V74.1742H116.208Z" fill="#0A0A0C"/>
<path opacity="0.4" d="M116.208 74.1742L105.899 63.8691H97.8751L106.784 72.7745H104.333V84.2048H113.756V74.1742H116.208Z" fill="#6C6868"/>
<path d="M108.18 74.1742L97.8751 63.8691L87.57 74.1742H91.4136V84.2009H104.333V74.1742H108.18Z" fill="#0A0A0C"/>
<path opacity="0.7" d="M108.18 74.1742L97.8751 63.8691L87.57 74.1742H91.4136V84.2009H104.333V74.1742H108.18Z" fill="#EDF4FF"/>
<path d="M115.593 39.5473H110.048L109.255 38.7584L102.817 26.7712L115.593 39.5473Z" fill="#2F54C6"/>
<path d="M110.029 51.1897H121.71V37.0216H110.029V51.1897Z" fill="#0A0A0C"/>
<path opacity="0.3" d="M110.029 51.1897H121.71V37.0216H110.029V51.1897Z" fill="black"/>
<path d="M114.8 38.7577H124.753L111.974 25.9778H102.024L114.8 38.7577Z" fill="#0A0A0C"/>
<path opacity="0.3" d="M114.8 38.7577H124.753L111.974 25.9778H102.024L114.8 38.7577Z" fill="black"/>
<path d="M110.029 35.1732V51.1896H94.016V35.1732L102.024 27.397L102.105 27.4782L102.817 28.1665L110.029 35.1732Z" fill="#0A0A0C"/>
<path opacity="0.3" d="M102.817 26.7712V32.3163L95.5821 39.5473H94.016V35.5721L102.105 27.4789L102.817 26.7712Z" fill="black"/>
<path d="M114.8 38.7577H109.255L102.024 31.5228V25.9778L114.8 38.7577Z" fill="#0A0A0C"/>
<path d="M89.2443 38.7577H94.7894L102.024 31.5228V25.9778L89.2443 38.7577Z" fill="#0A0A0C"/>
<path d="M87.4462 55.0607C84.1478 57.7365 80.745 60.2539 77.3228 62.7286C73.9007 65.2034 70.4321 67.6086 66.952 69.9944C63.4719 72.3802 59.9337 74.6771 56.3801 76.9547C54.6129 78.1147 52.8187 79.2129 51.0361 80.342C50.1569 80.948 49.1853 81.4077 48.1592 81.7032C47.6029 81.8532 47.0329 81.9465 46.4578 81.9816C45.8116 82.035 45.1611 81.9999 44.5244 81.8772C44.0259 81.7758 43.5523 81.577 43.1308 81.2922C42.7092 81.0075 42.348 80.6423 42.0679 80.2178C41.7877 79.7932 41.594 79.3175 41.498 78.8179C41.402 78.3184 41.4055 77.8048 41.5082 77.3066C41.5082 77.2486 41.5353 77.1751 41.5508 77.1132C41.7243 76.4871 41.9846 75.8884 42.3241 75.3345C42.6098 74.8413 42.9454 74.3787 43.3257 73.954C44.0419 73.1619 44.8816 72.4907 45.812 71.9665C47.6101 70.8606 49.3927 69.7353 51.1985 68.6526C54.7985 66.4524 58.4334 64.314 62.0875 62.2027C65.7417 60.0914 69.4345 58.0459 73.1583 56.0506C76.882 54.0553 80.6367 52.1103 84.4881 50.3161C85.1095 50.0466 85.8069 50.0093 86.4536 50.2107C87.1002 50.4122 87.6529 50.8392 88.0113 51.4139C88.3696 51.9887 88.5097 52.6729 88.406 53.3422C88.3022 54.0115 87.9617 54.6214 87.4462 55.0607Z" fill="#0A0A0C"/>
<path d="M87.4462 55.0607C84.1478 57.7365 80.745 60.2539 77.3228 62.7286C73.9007 65.2034 70.4321 67.6086 66.952 69.9944C63.4719 72.3802 59.9337 74.6771 56.3801 76.9547C54.6129 78.1147 52.8187 79.2129 51.0361 80.342C50.1569 80.948 49.1853 81.4077 48.1592 81.7032C47.6029 81.8532 47.0329 81.9465 46.4578 81.9816C45.8116 82.035 45.1611 81.9999 44.5244 81.8772C44.0259 81.7758 43.5523 81.577 43.1308 81.2922C42.7092 81.0075 42.348 80.6423 42.0679 80.2178C41.7877 79.7932 41.594 79.3175 41.498 78.8179C41.402 78.3184 41.4055 77.8048 41.5082 77.3066C41.5082 77.2486 41.5353 77.1751 41.5508 77.1132C41.7243 76.4871 41.9846 75.8884 42.3241 75.3345C42.6098 74.8413 42.9454 74.3787 43.3257 73.954C44.0419 73.1619 44.8816 72.4907 45.812 71.9665C47.6101 70.8606 49.3927 69.7353 51.1985 68.6526C54.7985 66.4524 58.4334 64.314 62.0875 62.2027C65.7417 60.0914 69.4345 58.0459 73.1583 56.0506C76.882 54.0553 80.6367 52.1103 84.4881 50.3161C85.1095 50.0466 85.8069 50.0093 86.4536 50.2107C87.1002 50.4122 87.6529 50.8392 88.0113 51.4139C88.3696 51.9887 88.5097 52.6729 88.406 53.3422C88.3022 54.0115 87.9617 54.6214 87.4462 55.0607Z" fill="#0A0A0C"/>
<path opacity="0.5" d="M87.4462 55.0607C84.1478 57.7365 80.745 60.2539 77.3228 62.7286C73.9007 65.2034 70.4321 67.6086 66.952 69.9944C63.4719 72.3802 59.9337 74.6771 56.3801 76.9547C54.6129 78.1147 52.8187 79.2129 51.0361 80.342C50.1569 80.948 49.1853 81.4077 48.1592 81.7032C47.6029 81.8532 47.0329 81.9465 46.4578 81.9816C45.8116 82.035 45.1611 81.9999 44.5244 81.8772C44.0259 81.7758 43.5523 81.577 43.1308 81.2922C42.7092 81.0075 42.348 80.6423 42.0679 80.2178C41.7877 79.7932 41.594 79.3175 41.498 78.8179C41.402 78.3184 41.4055 77.8048 41.5082 77.3066C41.5082 77.2486 41.5353 77.1751 41.5508 77.1132C41.7243 76.4871 41.9846 75.8884 42.3241 75.3345C42.6098 74.8413 42.9454 74.3787 43.3257 73.954C44.0419 73.1619 44.8816 72.4907 45.812 71.9665C47.6101 70.8606 49.3927 69.7353 51.1985 68.6526C54.7985 66.4524 58.4334 64.314 62.0875 62.2027C65.7417 60.0914 69.4345 58.0459 73.1583 56.0506C76.882 54.0553 80.6367 52.1103 84.4881 50.3161C85.1095 50.0466 85.8069 50.0093 86.4536 50.2107C87.1002 50.4122 87.6529 50.8392 88.0113 51.4139C88.3696 51.9887 88.5097 52.6729 88.406 53.3422C88.3022 54.0115 87.9617 54.6214 87.4462 55.0607Z" fill="#0A0A0C"/>
<path d="M73.1776 138.294L76.333 137.564L74.8558 130.205L71.7005 130.936L73.1776 138.294Z" fill="#EBB376"/>
<path d="M51.9024 50.3626C51.4654 51.9093 51.0439 53.5372 50.6418 55.1304C50.2396 56.7235 49.8684 58.3399 49.559 59.9485C49.3889 60.7489 49.242 61.5687 49.1144 62.3227C48.9868 63.0767 48.9133 63.8694 48.8669 64.6621C48.8263 65.4504 48.8263 66.2403 48.8669 67.0286C48.8669 67.4153 48.9172 67.802 48.9558 68.2119C48.9945 68.6218 49.0641 69.0123 49.1182 69.3487L47.5715 69.9326C47.3685 69.517 47.1941 69.0881 47.0495 68.6488C46.8982 68.2267 46.7691 67.7969 46.6628 67.3612C46.4512 66.4919 46.3064 65.6077 46.2297 64.7163C46.1581 63.8158 46.1452 62.9116 46.191 62.0095C46.2529 61.0969 46.3612 60.2578 46.4811 59.4071C46.7247 57.7096 47.0379 56.0275 47.4091 54.3802C47.7803 52.7329 48.1825 51.0741 48.7045 49.4075L51.9024 50.3626Z" fill="#FFD2A2"/>
<path d="M47.351 50.8955L50.603 53.4862L52.5558 55.033C52.5558 55.033 52.7607 54.4877 53.0082 53.7066C53.48 52.1986 54.0948 49.8089 53.6694 48.7107C53.0005 46.9706 51.736 45.4007 50.1352 45.7487C48.7779 46.0542 47.351 50.8955 47.351 50.8955Z" fill="#6C6868"/>
<path d="M51.8443 138.317H55.0808L54.8295 130.815H51.5891L51.8443 138.317Z" fill="#EBB376"/>
<path d="M74.8558 130.207L75.6485 134.147L72.4623 134.727L71.6966 130.938L74.8558 130.207Z" fill="#DA9D62"/>
<path d="M51.5891 130.815H54.8295L54.9571 134.682H51.7167L51.5891 130.815Z" fill="#DA9D62"/>
<path d="M62.1456 65.4015C62.1456 65.4015 60.2663 87.6319 58.3174 100.16C56.7436 110.28 55.4985 133.937 55.4985 133.937H51.098C51.098 133.937 48.9945 111.092 49.7949 101.069C51.8173 75.7453 48.2482 71.2597 52.4823 65.3899L62.1456 65.4015Z" fill="#0A0A0C"/>
<path opacity="0.6" d="M62.1456 65.4015C62.1456 65.4015 60.2663 87.6319 58.3174 100.16C56.7436 110.28 55.4985 133.937 55.4985 133.937H51.098C51.098 133.937 48.9945 111.092 49.7949 101.069C51.8173 75.7453 48.2482 71.2597 52.4823 65.3899L62.1456 65.4015Z" fill="#0A0A0C"/>
<path d="M47.7842 69.6801L45.8739 70.9794L46.1446 72.0892C46.1446 72.0892 50.1236 70.0243 49.0602 69.1968L47.7842 69.6801Z" fill="#FFD2A2"/>
<path d="M56.4458 138.506C56.1576 138.499 55.871 138.46 55.5913 138.39C55.577 138.385 55.5642 138.377 55.554 138.367C55.5438 138.356 55.5367 138.342 55.5333 138.328C55.5309 138.313 55.5329 138.298 55.5391 138.284C55.5453 138.27 55.5554 138.259 55.5681 138.251C55.6802 138.177 56.6585 137.543 57.0375 137.713C57.0804 137.732 57.1175 137.762 57.1447 137.8C57.172 137.838 57.1883 137.883 57.1921 137.93C57.2072 138.003 57.2034 138.078 57.1811 138.149C57.1588 138.22 57.1186 138.284 57.0645 138.336C56.8854 138.465 56.6658 138.525 56.4458 138.506ZM55.8078 138.278C56.3724 138.394 56.7977 138.37 56.9679 138.224C57.0034 138.188 57.0294 138.145 57.0436 138.097C57.0578 138.049 57.0597 137.998 57.0491 137.949C57.0476 137.928 57.0408 137.909 57.0293 137.892C57.0177 137.875 57.0019 137.861 56.9833 137.852C56.7784 137.763 56.21 138.049 55.8078 138.278Z" fill="#0A0A0C"/>
<path d="M55.6106 138.39C55.598 138.394 55.5845 138.394 55.5719 138.39C55.5606 138.383 55.5511 138.373 55.5444 138.362C55.5377 138.35 55.5338 138.337 55.5333 138.324C55.5333 138.281 55.5333 137.35 55.889 137.036C55.9319 136.996 55.9835 136.966 56.0398 136.948C56.0961 136.931 56.1556 136.927 56.2138 136.936C56.2748 136.936 56.3338 136.958 56.3809 136.996C56.4281 137.035 56.4605 137.089 56.4729 137.148C56.5464 137.535 55.9548 138.216 55.6493 138.39C55.6366 138.393 55.6232 138.393 55.6106 138.39ZM56.1597 137.079C56.0971 137.08 56.0369 137.104 55.9895 137.145C55.7867 137.446 55.6826 137.802 55.6918 138.165C55.9973 137.918 56.3685 137.392 56.3221 137.172C56.3221 137.137 56.295 137.09 56.1945 137.079H56.1597Z" fill="#0A0A0C"/>
<path d="M76.6191 137.076C76.6047 137.076 76.5907 137.071 76.5787 137.063C76.5667 137.055 76.557 137.044 76.5507 137.031C76.5444 137.018 76.5417 137.003 76.5428 136.989C76.544 136.975 76.549 136.961 76.5572 136.949C76.6617 136.825 77.5626 135.766 78.0228 135.766H78.0537C78.0957 135.769 78.1361 135.783 78.1707 135.806C78.2054 135.83 78.2331 135.863 78.2509 135.901C78.2821 135.961 78.2984 136.027 78.2984 136.094C78.2984 136.162 78.2821 136.228 78.2509 136.288C78.0498 136.713 77.1411 136.953 76.6153 137.061L76.6191 137.076ZM78.0189 135.916C77.7676 135.916 77.2107 136.442 76.8279 136.872C77.5356 136.705 78.015 136.485 78.1272 136.234C78.1499 136.194 78.1619 136.149 78.1619 136.104C78.1619 136.058 78.1499 136.014 78.1272 135.974C78.1205 135.959 78.1099 135.945 78.0963 135.935C78.0827 135.925 78.0667 135.918 78.0498 135.916H78.0189Z" fill="#0A0A0C"/>
<path d="M76.6191 137.075C76.6061 137.073 76.5939 137.067 76.5843 137.058C76.5746 137.049 76.5679 137.037 76.565 137.025C76.565 136.99 76.2865 136.155 76.534 135.687C76.568 135.618 76.6158 135.557 76.6744 135.508C76.7329 135.459 76.801 135.422 76.8743 135.4C77.0792 135.339 77.1798 135.4 77.2223 135.489C77.4195 135.806 76.9826 136.742 76.6926 137.036C76.6849 137.049 76.6741 137.059 76.6611 137.066C76.6482 137.072 76.6337 137.076 76.6191 137.075ZM77.0058 135.528C76.9763 135.523 76.9463 135.523 76.9168 135.528C76.8628 135.544 76.8125 135.57 76.7692 135.606C76.726 135.642 76.6906 135.687 76.6655 135.737C76.5532 136.089 76.5532 136.467 76.6655 136.82C76.94 136.433 77.2069 135.741 77.0908 135.551C77.0781 135.536 77.0604 135.525 77.0408 135.521C77.0211 135.517 77.0006 135.519 76.9826 135.528H77.0058Z" fill="#0A0A0C"/>
<path d="M55.8929 37.9263C56.2796 39.8597 57.0529 43.7265 55.7189 45.0219C55.7189 45.0219 56.2448 46.9553 59.8177 46.9553C63.7426 46.9553 61.6931 45.0219 61.6931 45.0219C59.5509 44.5115 59.605 42.9222 59.9801 41.4257L55.8929 37.9263Z" fill="#FFD2A2"/>
<path d="M55.3515 137.941H51.7128C51.6499 137.939 51.5883 137.96 51.5404 138.001C51.4924 138.042 51.4615 138.099 51.4538 138.162L51.04 141.038C51.0312 141.111 51.038 141.185 51.0601 141.255C51.0822 141.325 51.1191 141.39 51.1682 141.444C51.2172 141.499 51.2774 141.542 51.3447 141.572C51.412 141.601 51.4848 141.616 51.5582 141.615C52.8265 141.595 53.4374 141.518 55.0383 141.518C56.0244 141.518 57.459 141.622 58.8201 141.622C60.1812 141.622 60.2508 140.277 59.6862 140.157C57.1496 139.608 56.7475 138.858 55.8929 138.138C55.7407 138.012 55.5494 137.942 55.3515 137.941Z" fill="#263238"/>
<path d="M76.2711 136.731L72.9108 138.127C72.8526 138.15 72.8047 138.193 72.7762 138.249C72.7477 138.304 72.7405 138.368 72.7561 138.429L73.4754 141.248C73.4958 141.318 73.5309 141.383 73.5783 141.439C73.6258 141.495 73.6845 141.54 73.7506 141.571C73.8167 141.603 73.8888 141.62 73.962 141.621C74.0352 141.623 74.1079 141.609 74.1753 141.58C75.3353 141.074 75.8767 140.772 77.3538 140.157C78.2625 139.771 80.1843 139.094 81.4411 138.572C82.6978 138.05 82.2454 136.781 81.6769 136.886C79.1248 137.358 77.9106 137.044 76.8473 136.708C76.6584 136.648 76.4545 136.656 76.2711 136.731Z" fill="#263238"/>
<path d="M68.955 49.0312C69.5853 50.5161 70.2659 52.0358 70.9542 53.5129C71.3022 54.2553 71.6644 54.9849 72.0408 55.7015C72.4275 56.4208 72.8141 57.1245 73.2008 57.7974C73.4058 58.1299 73.6107 58.4625 73.8234 58.7679L74.1405 59.2088C74.2055 59.3008 74.2793 59.3862 74.3609 59.464C74.7826 59.8303 75.3088 60.0549 75.8651 60.1059C77.1837 60.2953 78.8387 60.0285 80.3197 59.6302L81.008 61.119C80.6167 61.354 80.2112 61.5645 79.7938 61.7493C79.383 61.9405 78.9607 62.1058 78.5293 62.2442C77.6199 62.5538 76.6671 62.7169 75.7065 62.7276C75.1709 62.7324 74.6372 62.6621 74.1211 62.5188C73.5482 62.3611 73.0094 62.0989 72.5319 61.7454C72.2873 61.5595 72.0608 61.3511 71.8552 61.1228C71.6812 60.9256 71.5535 60.7594 71.3989 60.5737C71.1089 60.2103 70.8498 59.8429 70.5907 59.4756C69.6272 58.0256 68.7591 56.5143 67.9922 54.9514C67.2188 53.4046 66.5228 51.8579 65.8809 50.257L68.955 49.0312Z" fill="#FFD2A2"/>
<path d="M79.9871 61.3006L83.5214 60.7437L82.5818 58.7407C82.5818 58.7407 79.844 59.2163 79.3181 60.4537L79.9871 61.3006Z" fill="#FFD2A2"/>
<path d="M83.5175 59.1812L83.1308 58.3267L82.5818 58.7404L83.5175 60.7434V59.1812Z" fill="#FFD2A2"/>
<path d="M55.599 33.9502C55.6686 37.1635 55.6299 38.5246 57.1844 40.2338C59.5045 42.8052 63.4564 42.0164 64.3458 38.8456C65.1462 35.9918 64.8948 31.2163 61.8091 29.8165C61.1297 29.505 60.3819 29.3723 59.6368 29.431C58.8917 29.4898 58.174 29.738 57.5518 30.1522C56.9296 30.5663 56.4235 31.1327 56.0818 31.7974C55.74 32.4621 55.5738 33.2031 55.599 33.9502Z" fill="#FFD2A2"/>
<path d="M53.0082 28.1464C56.3105 25.7528 59.9994 27.11 62.0179 28.7651C64.1292 30.4974 63.7928 33.8267 62.5013 35.2033C62.6353 35.4069 62.7239 35.6369 62.7613 35.8778C62.7986 36.1186 62.7838 36.3646 62.7178 36.5993C62.8808 37.6294 62.6543 38.6834 62.0823 39.5556C61.5104 40.4278 60.6341 41.0556 59.6244 41.3168L59.4426 41.3632C55.3167 42.3454 50.5489 39.5535 49.8297 35.3773C49.3927 32.8291 50.0888 30.2577 53.0082 28.1464Z" fill="#6C6868"/>
<path d="M61.7628 35.4395C61.8156 36.0453 62.075 36.6146 62.4974 37.052C63.0697 37.6436 63.6575 37.3033 63.7619 36.6034C63.8508 35.9731 63.6614 34.9059 62.9653 34.5695C62.2693 34.2331 61.7125 34.7242 61.7628 35.4395Z" fill="#EBB376"/>
<path opacity="0.3" d="M57.6716 75.7931C57.3043 82.4363 58.9051 87.4516 59.636 90.3865C60.1541 86.0479 60.6298 81.5199 61.028 77.5254C59.663 73.0012 57.9384 70.7933 57.6716 75.7931Z" fill="black"/>
<path d="M56.1056 134.02H50.4793L50.1816 132.048L56.1365 131.847L56.1056 134.02Z" fill="#0A0A0C"/>
<path opacity="0.3" d="M50.6031 53.4874L52.5558 55.0341C52.5558 55.0341 52.7608 54.4889 53.0083 53.7078L51.8482 47.9656L50.6031 53.4874Z" fill="black"/>
<path d="M54.8488 28.6838C55.8581 27.5663 59.288 25.8611 62.2306 27.199C63.07 27.5813 63.7813 28.1976 64.2792 28.974C64.7771 29.7504 65.0406 30.6539 65.0379 31.5762L62.3853 33.355L54.8488 28.6838Z" fill="#6C6868"/>
<path d="M52.142 31.6186C53.5998 30.4238 55.2355 26.0929 52.142 27.601C49.0486 29.109 48.1089 34.9247 52.142 31.6186Z" fill="#0A0A0C"/>
<path d="M52.4707 28.8439C53.101 27.0033 48.9442 23.3414 46.1407 26.8215C43.3373 30.3017 50.6572 34.1414 52.4707 28.8439Z" fill="#6C6868"/>
<path d="M58.9747 31.4113C56.558 30.3827 55.3554 26.485 59.5045 26.5971C63.6536 26.7092 63.5337 33.3563 58.9747 31.4113Z" fill="#0A0A0C"/>
<path d="M58.1936 29.3914C56.7281 27.5624 58.3483 22.8603 62.5516 24.3645C66.7548 25.8687 61.5578 33.5714 58.1936 29.3914Z" fill="#6C6868"/>
<path d="M65.6218 65.3994C65.6218 65.3994 69.2721 90.3405 70.5559 100.155C71.89 110.344 75.7877 133.189 75.7877 133.189L71.4569 133.85C71.4569 133.85 64.6126 112.061 62.7063 102.142C60.6259 91.3343 56.5193 65.4071 56.5193 65.4071L65.6218 65.3994Z" fill="#0A0A0C"/>
<path opacity="0.6" d="M65.6218 65.3994C65.6218 65.3994 69.2721 90.3405 70.5559 100.155C71.89 110.344 75.7877 133.189 75.7877 133.189L71.4569 133.85C71.4569 133.85 64.6126 112.061 62.7063 102.142C60.6259 91.3343 56.5193 65.4071 56.5193 65.4071L65.6218 65.3994Z" fill="#0A0A0C"/>
<path d="M67.1686 45.8537C68.7772 46.2404 70.7609 50.6641 70.7609 50.6641L66.9288 55.575C66.9288 55.575 62.9692 49.9719 63.4989 48.2628C64.048 46.4802 65.2158 45.3781 67.1686 45.8537Z" fill="#6C6868"/>
<path d="M61.9251 45.6526C62.4549 45.7299 61.9638 44.5196 61.7434 44.392C61.2368 44.0904 54.7831 43.4833 54.8566 44.1639C54.8956 44.57 55.0699 44.9513 55.3515 45.2466C55.6415 45.4399 57.2849 44.9063 61.9251 45.6526Z" fill="#0A0A0C"/>
<path opacity="0.6" d="M61.9251 45.6526C62.4549 45.7299 61.9638 44.5196 61.7434 44.392C61.2368 44.0904 54.7831 43.4833 54.8566 44.1639C54.8956 44.57 55.0699 44.9513 55.3515 45.2466C55.6415 45.4399 57.2849 44.9063 61.9251 45.6526Z" fill="white"/>
<path d="M67.1685 45.8546C67.1685 45.8546 68.7153 46.3959 65.6218 65.4014H52.4746C52.695 60.0497 52.7027 56.7474 50.1545 45.7579C51.9955 45.378 53.8616 45.1324 55.7382 45.0232C57.727 44.88 59.7236 44.88 61.7124 45.0232C64.2452 45.2475 67.1685 45.8546 67.1685 45.8546Z" fill="#6C6868"/>
<path d="M52.2581 64.6303L51.6664 65.7903C51.62 65.8832 51.7283 65.976 51.8791 65.976H65.676C65.792 65.976 65.8925 65.9179 65.9002 65.8406L66.0162 64.6806C66.0162 64.5994 65.9234 64.5298 65.792 64.5298H52.4823C52.4393 64.5238 52.3954 64.5301 52.3558 64.5479C52.3161 64.5657 52.2823 64.5942 52.2581 64.6303Z" fill="#0A0A0C"/>
<path opacity="0.6" d="M52.2581 64.6303L51.6664 65.7903C51.62 65.8832 51.7283 65.976 51.8791 65.976H65.676C65.792 65.976 65.8925 65.9179 65.9002 65.8406L66.0162 64.6806C66.0162 64.5994 65.9234 64.5298 65.792 64.5298H52.4823C52.4393 64.5238 52.3954 64.5301 52.3558 64.5479C52.3161 64.5657 52.2823 64.5942 52.2581 64.6303Z" fill="white"/>
<path d="M54.06 66.1276H53.7004C53.6308 66.1276 53.5766 66.0889 53.5805 66.0464L53.7507 64.4997C53.7507 64.4533 53.8164 64.4185 53.886 64.4185H54.2456C54.3152 64.4185 54.3693 64.4533 54.3655 64.4997L54.1953 66.0464C54.1915 66.0812 54.1296 66.1276 54.06 66.1276Z" fill="#0A0A0C"/>
<path d="M62.6985 66.1276H62.3428C62.2693 66.1276 62.2152 66.0889 62.2229 66.0464L62.3892 64.4997C62.3892 64.4533 62.4549 64.4185 62.5284 64.4185H62.8841C62.9537 64.4185 63.0079 64.4533 63.004 64.4997L62.8377 66.0464C62.8377 66.0812 62.7758 66.1276 62.6985 66.1276Z" fill="#0A0A0C"/>
<path opacity="0.6" d="M54.06 66.1276H53.7004C53.6308 66.1276 53.5766 66.0889 53.5805 66.0464L53.7507 64.4997C53.7507 64.4533 53.8164 64.4185 53.886 64.4185H54.2456C54.3152 64.4185 54.3693 64.4533 54.3655 64.4997L54.1953 66.0464C54.1915 66.0812 54.1296 66.1276 54.06 66.1276Z" fill="black"/>
<path opacity="0.6" d="M62.6985 66.1276H62.3428C62.2693 66.1276 62.2152 66.0889 62.2229 66.0464L62.3892 64.4997C62.3892 64.4533 62.4549 64.4185 62.5284 64.4185H62.8841C62.9537 64.4185 63.0079 64.4533 63.004 64.4997L62.8377 66.0464C62.8377 66.0812 62.7758 66.1276 62.6985 66.1276Z" fill="black"/>
<path d="M76.4258 133.19L70.8807 134.134L70.2504 132.042L76.186 131.025L76.4258 133.19Z" fill="#0A0A0C"/>
<path d="M131.687 25.2388C128.737 20.5159 124.454 16.7736 119.377 14.4852C114.301 12.1968 108.66 11.4649 103.168 12.3823C97.676 13.2996 92.5792 15.8249 88.5222 19.6388C84.4653 23.4527 81.6303 28.384 80.3758 33.809C79.1213 39.2341 79.5037 44.9093 81.4745 50.1171C83.4454 55.3248 86.9162 59.8313 91.4481 63.0665C95.98 66.3018 101.369 68.1206 106.935 68.2929C112.501 68.4652 117.992 66.9834 122.716 64.0347C125.852 62.0766 128.573 59.5198 130.721 56.5103C132.869 53.5008 134.404 50.0976 135.237 46.4949C136.07 42.8923 136.185 39.1609 135.576 35.5137C134.967 31.8666 133.645 28.3751 131.687 25.2388ZM88.962 51.9199C86.6355 48.1929 85.4663 43.8596 85.6025 39.4681C85.7386 35.0766 87.1739 30.8241 89.7268 27.2483C92.2798 23.6724 95.8357 20.934 99.945 19.3791C104.054 17.8242 108.532 17.5228 112.813 18.5129C117.094 19.503 120.984 21.7402 123.994 24.9416C127.003 28.143 128.995 32.1648 129.718 36.4985C130.442 40.8321 129.864 45.283 128.058 49.2882C126.252 53.2935 123.299 56.6732 119.572 59.0001C117.097 60.545 114.342 61.5873 111.464 62.0674C108.586 62.5475 105.642 62.4561 102.8 61.7982C99.9572 61.1404 97.2722 59.9291 94.8979 58.2335C92.5237 56.5379 90.5066 54.3912 88.962 51.9161V51.9199Z" fill="#0A0A0C"/>
<path d="M131.687 25.2388C128.737 20.5159 124.454 16.7736 119.377 14.4852C114.301 12.1968 108.66 11.4649 103.168 12.3823C97.676 13.2996 92.5792 15.8249 88.5222 19.6388C84.4653 23.4527 81.6303 28.384 80.3758 33.809C79.1213 39.2341 79.5037 44.9093 81.4745 50.1171C83.4454 55.3248 86.9162 59.8313 91.4481 63.0665C95.98 66.3018 101.369 68.1206 106.935 68.2929C112.501 68.4652 117.992 66.9834 122.716 64.0347C125.852 62.0766 128.573 59.5198 130.721 56.5103C132.869 53.5008 134.404 50.0976 135.237 46.4949C136.07 42.8923 136.185 39.1609 135.576 35.5137C134.967 31.8666 133.645 28.3751 131.687 25.2388ZM88.962 51.9199C86.6355 48.1929 85.4663 43.8596 85.6025 39.4681C85.7386 35.0766 87.1739 30.8241 89.7268 27.2483C92.2798 23.6724 95.8357 20.934 99.945 19.3791C104.054 17.8242 108.532 17.5228 112.813 18.5129C117.094 19.503 120.984 21.7402 123.994 24.9416C127.003 28.143 128.995 32.1648 129.718 36.4985C130.442 40.8321 129.864 45.283 128.058 49.2882C126.252 53.2935 123.299 56.6732 119.572 59.0001C117.097 60.545 114.342 61.5873 111.464 62.0674C108.586 62.5475 105.642 62.4561 102.8 61.7982C99.9572 61.1404 97.2722 59.9291 94.8979 58.2335C92.5237 56.5379 90.5066 54.3912 88.962 51.9161V51.9199Z" fill="#0A0A0C"/>
<path opacity="0.5" d="M131.687 25.2388C128.737 20.5159 124.454 16.7736 119.377 14.4852C114.301 12.1968 108.66 11.4649 103.168 12.3823C97.676 13.2996 92.5792 15.8249 88.5222 19.6388C84.4653 23.4527 81.6303 28.384 80.3758 33.809C79.1213 39.2341 79.5037 44.9093 81.4745 50.1171C83.4454 55.3248 86.9162 59.8313 91.4481 63.0665C95.98 66.3018 101.369 68.1206 106.935 68.2929C112.501 68.4652 117.992 66.9834 122.716 64.0347C125.852 62.0766 128.573 59.5198 130.721 56.5103C132.869 53.5008 134.404 50.0976 135.237 46.4949C136.07 42.8923 136.185 39.1609 135.576 35.5137C134.967 31.8666 133.645 28.3751 131.687 25.2388ZM88.962 51.9199C86.6355 48.1929 85.4663 43.8596 85.6025 39.4681C85.7386 35.0766 87.1739 30.8241 89.7268 27.2483C92.2798 23.6724 95.8357 20.934 99.945 19.3791C104.054 17.8242 108.532 17.5228 112.813 18.5129C117.094 19.503 120.984 21.7402 123.994 24.9416C127.003 28.143 128.995 32.1648 129.718 36.4985C130.442 40.8321 129.864 45.283 128.058 49.2882C126.252 53.2935 123.299 56.6732 119.572 59.0001C117.097 60.545 114.342 61.5873 111.464 62.0674C108.586 62.5475 105.642 62.4561 102.8 61.7982C99.9572 61.1404 97.2722 59.9291 94.8979 58.2335C92.5237 56.5379 90.5066 54.3912 88.962 51.9161V51.9199Z" fill="#0A0A0C"/>
<path opacity="0.4" d="M128.512 27.2238C131.068 31.3194 132.352 36.0809 132.202 40.9063C132.052 45.7316 130.475 50.4042 127.67 54.3332C124.864 58.2622 120.957 61.2712 116.442 62.9797C111.926 64.6882 107.006 65.0195 102.302 63.9317C97.5989 62.8439 93.3234 60.3859 90.0167 56.8685C86.71 53.351 84.5205 48.9321 83.7251 44.1704C82.9296 39.4087 83.5639 34.518 85.5478 30.1167C87.5316 25.7155 90.7759 22.0013 94.8706 19.4437C97.5902 17.7451 100.618 16.5988 103.78 16.0705C106.943 15.5421 110.179 15.6421 113.303 16.3645C116.427 17.087 119.378 18.4179 121.988 20.2812C124.597 22.1444 126.814 24.5036 128.512 27.2238Z" fill="#FAFAFA"/>
<path opacity="0.08" d="M131.981 36.6968L94.0856 60.3541C90.9954 58.2572 88.4276 55.4791 86.58 52.2337L127.955 26.3994C130.066 29.479 131.444 33.0018 131.981 36.6968Z" fill="white"/>
</svg>
