<svg width="195" height="147" viewBox="0 0 195 147" fill="none" xmlns="http://www.w3.org/2000/svg">
<path d="M194.171 128.79H0.829193V128.886H194.171V128.79Z" fill="#E6E6E6"/>
<path d="M31.0755 133.104H20.8014V133.2H31.0755V133.104Z" fill="#E6E6E6"/>
<path d="M34.7916 131.171H25.9365V131.268H34.7916V131.171Z" fill="#E6E6E6"/>
<path d="M126.66 131.456H102.898V131.553H126.66V131.456Z" fill="#E6E6E6"/>
<path d="M134.587 131.456H128.887V131.553H134.587V131.456Z" fill="#E6E6E6"/>
<path d="M166.995 132.119H148.179V132.216H166.995V132.119Z" fill="#E6E6E6"/>
<path d="M75.5248 133.661H42.0264V133.758H75.5248V133.661Z" fill="#E6E6E6"/>
<path d="M173.131 132.119H170.39V132.216H173.131V132.119Z" fill="#E6E6E6"/>
<path d="M92.4732 111.542H17.8085C17.2236 111.541 16.663 111.308 16.2497 110.894C15.8365 110.48 15.6044 109.919 15.6044 109.334V4.37662C15.6095 3.79505 15.8438 3.23899 16.2565 2.82919C16.6692 2.4194 17.2269 2.18898 17.8085 2.18799H92.4732C93.0587 2.18799 93.6203 2.42061 94.0344 2.83469C94.4485 3.24876 94.6811 3.81036 94.6811 4.39595V109.334C94.6811 109.92 94.4485 110.481 94.0344 110.895C93.6203 111.309 93.0587 111.542 92.4732 111.542ZM17.8085 2.26533C17.2492 2.26635 16.7132 2.48924 16.3181 2.88507C15.923 3.28091 15.7011 3.81734 15.7011 4.37662V109.334C15.7011 109.893 15.923 110.43 16.3181 110.826C16.7132 111.221 17.2492 111.444 17.8085 111.445H92.4732C93.0328 111.444 93.5692 111.222 93.9649 110.826C94.3607 110.43 94.5834 109.894 94.5844 109.334V4.37662C94.5834 3.81698 94.3607 3.28056 93.9649 2.88484C93.5692 2.48911 93.0328 2.26635 92.4732 2.26533H17.8085Z" fill="#E6E6E6"/>
<path d="M176.117 111.542H101.448C100.863 111.541 100.302 111.308 99.8879 110.894C99.474 110.48 99.2411 109.919 99.2401 109.334V4.37662C99.2462 3.7947 99.4814 3.23864 99.8947 2.82895C100.308 2.41927 100.866 2.18897 101.448 2.18799H176.117C176.697 2.19 177.254 2.42087 177.666 2.83055C178.078 3.24023 178.312 3.79572 178.317 4.37662V109.334C178.317 109.918 178.085 110.479 177.673 110.893C177.26 111.306 176.701 111.54 176.117 111.542ZM101.448 2.26533C100.888 2.26635 100.352 2.48911 99.9562 2.88484C99.5605 3.28056 99.3378 3.81698 99.3367 4.37662V109.334C99.3378 109.894 99.5605 110.43 99.9562 110.826C100.352 111.222 100.888 111.444 101.448 111.445H176.117C176.676 111.444 177.213 111.222 177.608 110.826C178.004 110.43 178.227 109.894 178.228 109.334V4.37662C178.227 3.81698 178.004 3.28056 177.608 2.88484C177.213 2.48911 176.676 2.26635 176.117 2.26533H101.448Z" fill="#E6E6E6"/>
<path d="M60.1575 62.2892C61.2339 57.6194 58.3209 52.9612 53.651 51.8848C48.9812 50.8084 44.323 53.7214 43.2466 58.3912C42.1702 63.061 45.0832 67.7193 49.7531 68.7957C54.4229 69.8721 59.0811 66.959 60.1575 62.2892Z" fill="#F0F0F0"/>
<path d="M110.872 58.5442C109.793 56.2241 110.651 54.542 113.296 54.542C114.951 54.542 117.008 55.1994 119.011 56.2627C119.239 55.6556 119.873 55.2922 120.898 55.2922C122.704 55.2922 125.19 56.4174 127.139 57.9989C127.741 57.5965 128.45 57.385 129.173 57.3918C130.902 57.3222 132.99 57.968 134.807 59.0198C134.914 58.9187 135.04 58.8399 135.177 58.7882C135.314 58.7364 135.461 58.7126 135.608 58.7182C136.184 58.7375 136.749 58.8772 137.268 59.1283C137.787 59.3794 138.247 59.7362 138.62 60.176C138.662 60.2262 138.697 60.2804 138.736 60.3306H109.53C108.606 59.507 109.626 58.5867 110.872 58.5442Z" fill="#F5F5F5"/>
<path d="M53.9749 76.4974L77.9029 71.0181V128.789H53.9749V76.4974Z" fill="#FAFAFA"/>
<path d="M90.3193 71.0181H77.9029V128.789H90.3193V71.0181Z" fill="#B3BAC6"/>
<path d="M86.263 128.79H106.63L106.63 57.2029H86.263V128.79Z" fill="#FAFAFA"/>
<path d="M117.198 57.2012H106.63V128.788H117.198V57.2012Z" fill="#B3BAC6"/>
<path d="M89.0046 57.2012H106.63V51.8804H89.0046V57.2012Z" fill="#FAFAFA"/>
<path d="M89.0046 57.2012H106.63V56.0063H89.0046V57.2012Z" fill="#B3BAC6"/>
<path d="M114.46 51.8828H106.63V57.2036H114.46V51.8828Z" fill="#B3BAC6"/>
<path d="M91.7423 51.8828H106.626V46.562H91.7423V51.8828Z" fill="#FAFAFA"/>
<path d="M91.7423 51.8828H106.626V50.688H91.7423V51.8828Z" fill="#B3BAC6"/>
<path d="M111.718 46.5649H106.63V51.8857H111.718V46.5649Z" fill="#B3BAC6"/>
<path d="M102.225 39.1328H101.235V46.5649H102.225V39.1328Z" fill="#B3BAC6"/>
<path d="M113.822 128.79H128.694V66.5065H113.822V128.79Z" fill="#FAFAFA"/>
<path d="M136.416 66.5049H128.698V128.788H136.416V66.5049Z" fill="#B3BAC6"/>
<path d="M132.557 79.1387L143.832 88.8058V128.789H132.557V79.1387Z" fill="#FAFAFA"/>
<path d="M149.687 88.8057H143.832V128.789H149.687V88.8057Z" fill="#B3BAC6"/>
<path d="M149.687 88.8058H143.832L132.557 79.1387H138.407L149.687 88.8058Z" fill="#B3BAC6"/>
<path d="M170.931 128.788C171.097 127.86 171.492 126.987 172.08 126.249C172.668 125.511 173.431 124.931 174.299 124.562C173.537 125.833 173.191 127.311 173.309 128.788H170.931Z" fill="#B3BAC6"/>
<path d="M72.8683 128.788C72.7024 127.86 72.3076 126.987 71.7195 126.249C71.1315 125.511 70.3687 124.931 69.5003 124.562C70.2627 125.833 70.6088 127.311 70.4902 128.788H72.8683Z" fill="#B3BAC6"/>
<path d="M23.5932 128.79C23.5932 128.79 23.4037 123.84 21.335 122.402C22.1818 124.424 22.0001 128.79 22.0001 128.79H23.5932Z" fill="#B3BAC6"/>
<path d="M22.816 128.79C22.816 128.79 23.0093 125.948 25.0781 125.124C24.2274 126.284 24.413 128.79 24.413 128.79H22.816Z" fill="#B3BAC6"/>
<path d="M74.6393 128.79C74.6393 128.79 74.4305 124.103 70.6797 122.402C72.3579 124.807 72.2612 128.79 72.2612 128.79H74.6393Z" fill="#B3BAC6"/>
<path d="M37.0537 97.2393L39.7837 116.496L40.0543 118.422H41.806L41.5315 116.496L38.8015 97.2393H37.0537Z" fill="#1A4563"/>
<path d="M112.066 97.2393L114.796 116.496L115.067 118.422H116.819L116.544 116.496L113.814 97.2393H112.066Z" fill="#1A4563"/>
<path d="M48.2637 116.497L48.5382 118.423L50.0115 128.805H51.7631L50.2899 118.423L50.0192 116.497H48.2637Z" fill="#E6E6E6"/>
<path d="M123.28 116.497L123.555 118.423L125.024 128.805H126.772L125.303 118.423L125.032 116.497H123.28Z" fill="#1A4563"/>
<path d="M114.441 116.497L114.166 118.423L112.693 128.805H110.941L112.414 118.423L112.685 116.497H114.441Z" fill="#1A4563"/>
<path d="M39.424 116.497L39.1494 118.423L37.6801 128.805H35.9322L37.4016 118.423L37.6762 116.497H39.424Z" fill="#1A4563"/>
<path d="M34.5364 99.9199H114.707L113.219 94.5566H33.0477L34.5364 99.9199Z" fill="#F5F5F5"/>
<path d="M36.3654 99.9199H116.54L115.052 94.5566H34.8767L36.3654 99.9199Z" fill="#757F8E"/>
<path d="M35.6539 106.605H115.825L114.336 101.245H34.1613L35.6539 106.605Z" fill="#F5F5F5"/>
<path d="M37.4829 106.605H117.654L116.165 101.245H35.9941L37.4829 106.605Z" fill="#757F8E"/>
<path d="M36.7676 113.304H116.942L115.454 107.944H35.2788L36.7676 113.304Z" fill="#F5F5F5"/>
<path d="M38.6004 113.304H118.771L117.283 107.944H37.1116L38.6004 113.304Z" fill="#757F8E"/>
<path d="M126.068 116.497H46.249V118.423H126.068V116.497Z" fill="#1A4563"/>
<path d="M46.249 116.497H35.2788V118.423H46.249V116.497Z" fill="#1A4563"/>
<path d="M29.2504 37.947C27.754 34.7143 28.945 32.4136 32.603 32.4136C34.896 32.4136 37.7381 33.3184 40.5107 34.7917C40.8239 33.9526 41.7055 33.4499 43.1208 33.4499C45.6187 33.4499 49.0563 34.9966 51.7554 37.2046C52.5861 36.6472 53.5663 36.3547 54.5666 36.3655C56.9563 36.2649 59.8487 37.162 62.3621 38.616C62.6609 38.3358 63.0586 38.1856 63.468 38.1984C64.8446 38.1404 66.7084 39.0452 67.6326 40.213C67.6906 40.2864 67.7409 40.356 67.7911 40.4295H27.3944C26.1183 39.2811 27.5297 38.005 29.2504 37.947Z" fill="#F5F5F5"/>
<path d="M135.36 44.6113C135.462 44.6054 135.564 44.6054 135.666 44.6113C135.573 43.5557 136.118 42.879 137.29 42.879C138.331 42.9494 139.339 43.2747 140.225 43.8263C139.923 41.7769 140.894 40.4429 143.082 40.4429C144.849 40.4429 147.088 41.309 149.3 42.7243C149.493 41.92 150.143 41.4366 151.234 41.4366C153.167 41.4366 155.874 42.9292 158.078 45.0328C158.657 44.5063 159.414 44.2189 160.197 44.2285C162.026 44.1318 164.3 45.0019 166.314 46.3862C166.411 46.2592 166.537 46.1577 166.682 46.0903C166.827 46.023 166.986 45.9918 167.146 45.9995C168.147 45.9492 169.524 46.7187 170.328 47.7473H133.752C132.889 46.1542 133.574 44.7892 135.36 44.6113Z" fill="#F5F5F5"/>
<path d="M73.8273 21.2246C73.9277 21.2187 74.0284 21.2187 74.1289 21.2246C74.0361 20.165 74.5852 19.4922 75.7529 19.4922C76.7954 19.562 77.8047 19.8874 78.6917 20.4396C78.3901 18.3863 79.3568 17.0522 81.5455 17.0522C83.3165 17.0522 85.5515 17.9223 87.7633 19.3375C87.9567 18.5332 88.6063 18.0499 89.6967 18.0499C91.6302 18.0499 94.3369 19.5386 96.541 21.646C97.1214 21.1211 97.8775 20.8327 98.6601 20.8379C100.489 20.7451 102.763 21.6112 104.777 22.9956C104.875 22.8688 105.001 22.7675 105.146 22.7002C105.29 22.6328 105.449 22.6015 105.609 22.6089C106.61 22.5547 107.991 23.3242 108.791 24.3567H72.2148C71.3564 22.7674 72.0408 21.4024 73.8273 21.2246Z" fill="#F5F5F5"/>
<path d="M165.081 122.1L158.209 115.229H152.858L158.797 121.168H157.165V128.79H163.449V122.1H165.081Z" fill="#B3BAC6"/>
<path d="M159.729 122.1L152.858 115.229L145.986 122.1H148.55V128.79H157.165V122.1H159.729Z" fill="#FAFAFA"/>
<path d="M97.5 146.252C138.907 146.252 172.474 144.292 172.474 141.875C172.474 139.457 138.907 137.498 97.5 137.498C56.093 137.498 22.526 139.457 22.526 141.875C22.526 144.292 56.093 146.252 97.5 146.252Z" fill="#F5F5F5"/>
<path d="M155.951 22.5746L145.646 12.2695H137.618L146.528 21.1787H144.076V32.6052H153.499V22.5746H155.951Z" fill="#0060F7"/>
<path opacity="0.4" d="M155.951 22.5746L145.646 12.2695H137.618L146.528 21.1787H144.076V32.6052H153.499V22.5746H155.951Z" fill="#757F8E"/>
<path d="M147.923 22.5746L137.618 12.2695L127.313 22.5746H131.161V32.6052H144.076V22.5746H147.923Z" fill="#0060F7"/>
<path opacity="0.7" d="M147.923 22.5746L137.618 12.2695L127.313 22.5746H131.161V32.6052H144.076V22.5746H147.923Z" fill="#EDF4FF"/>
<path d="M162.587 63.7108L152.281 53.4019H144.254L153.163 62.311H150.711V73.7375H160.135V63.7108H162.587Z" fill="#0060F7"/>
<path opacity="0.4" d="M162.587 63.7108L152.281 53.4019H144.254L153.163 62.311H150.711V73.7375H160.135V63.7108H162.587Z" fill="#757F8E"/>
<path d="M154.559 63.7108L144.254 53.4019L133.949 63.7108H137.792V73.7375H150.711V63.7108H154.559Z" fill="#0060F7"/>
<path opacity="0.7" d="M154.559 63.7108L144.254 53.4019L133.949 63.7108H137.792V73.7375H150.711V63.7108H154.559Z" fill="#EDF4FF"/>
<path d="M116.208 74.4257L105.899 64.1206H97.8751L106.784 73.0259H104.333V84.4563H113.756V74.4257H116.208Z" fill="#0060F7"/>
<path opacity="0.4" d="M116.208 74.4257L105.899 64.1206H97.8751L106.784 73.0259H104.333V84.4563H113.756V74.4257H116.208Z" fill="#757F8E"/>
<path d="M108.18 74.4257L97.8751 64.1206L87.57 74.4257H91.4136V84.4524H104.333V74.4257H108.18Z" fill="#0060F7"/>
<path opacity="0.7" d="M108.18 74.4257L97.8751 64.1206L87.57 74.4257H91.4136V84.4524H104.333V74.4257H108.18Z" fill="#EDF4FF"/>
<path d="M115.593 39.799H110.048L109.255 39.0101L102.817 27.0229L115.593 39.799Z" fill="#2F54C6"/>
<path d="M110.029 51.4414H121.71V37.2733H110.029V51.4414Z" fill="#0060F7"/>
<path opacity="0.3" d="M110.029 51.4414H121.71V37.2733H110.029V51.4414Z" fill="black"/>
<path d="M114.8 39.0094H124.753L111.974 26.2295H102.024L114.8 39.0094Z" fill="#0060F7"/>
<path opacity="0.3" d="M114.8 39.0094H124.753L111.974 26.2295H102.024L114.8 39.0094Z" fill="black"/>
<path d="M110.029 35.4251V51.4416H94.016V35.4251L102.024 27.6489L102.105 27.7301L102.817 28.4184L110.029 35.4251Z" fill="#0060F7"/>
<path opacity="0.3" d="M102.817 27.0229V32.568L95.5821 39.799H94.016V35.8239L102.105 27.7306L102.817 27.0229Z" fill="black"/>
<path d="M114.8 39.0094H109.255L102.024 31.7745V26.2295L114.8 39.0094Z" fill="#0060F7"/>
<path d="M89.2443 39.0094H94.7894L102.024 31.7745V26.2295L89.2443 39.0094Z" fill="#0060F7"/>
<path d="M87.4462 55.3124C84.1478 57.9883 80.745 60.5056 77.3228 62.9803C73.9007 65.4551 70.4321 67.8603 66.952 70.2461C63.4719 72.6319 59.9337 74.9288 56.3801 77.2064C54.6129 78.3665 52.8187 79.4646 51.0361 80.5938C50.1569 81.1997 49.1853 81.6594 48.1592 81.9549C47.6029 82.1049 47.0329 82.1982 46.4578 82.2333C45.8116 82.2867 45.1611 82.2516 44.5244 82.1289C44.0259 82.0275 43.5523 81.8287 43.1308 81.5439C42.7092 81.2592 42.348 80.8941 42.0679 80.4695C41.7877 80.0449 41.594 79.5692 41.498 79.0696C41.402 78.5701 41.4055 78.0565 41.5082 77.5583C41.5082 77.5003 41.5353 77.4268 41.5508 77.3649C41.7243 76.7388 41.9846 76.1401 42.3241 75.5862C42.6098 75.093 42.9454 74.6304 43.3257 74.2057C44.0419 73.4136 44.8816 72.7424 45.812 72.2182C47.6101 71.1123 49.3927 69.987 51.1985 68.9043C54.7985 66.7041 58.4334 64.5657 62.0875 62.4544C65.7417 60.3432 69.4345 58.2976 73.1583 56.3023C76.882 54.307 80.6367 52.362 84.4881 50.5678C85.1095 50.2983 85.8069 50.261 86.4536 50.4625C87.1002 50.6639 87.6529 51.0909 88.0113 51.6656C88.3696 52.2404 88.5097 52.9247 88.406 53.594C88.3022 54.2633 87.9617 54.8731 87.4462 55.3124Z" fill="#0060F7"/>
<path d="M87.4462 55.3124C84.1478 57.9883 80.745 60.5056 77.3228 62.9803C73.9007 65.4551 70.4321 67.8603 66.952 70.2461C63.4719 72.6319 59.9337 74.9288 56.3801 77.2064C54.6129 78.3665 52.8187 79.4646 51.0361 80.5938C50.1569 81.1997 49.1853 81.6594 48.1592 81.9549C47.6029 82.1049 47.0329 82.1982 46.4578 82.2333C45.8116 82.2867 45.1611 82.2516 44.5244 82.1289C44.0259 82.0275 43.5523 81.8287 43.1308 81.5439C42.7092 81.2592 42.348 80.8941 42.0679 80.4695C41.7877 80.0449 41.594 79.5692 41.498 79.0696C41.402 78.5701 41.4055 78.0565 41.5082 77.5583C41.5082 77.5003 41.5353 77.4268 41.5508 77.3649C41.7243 76.7388 41.9846 76.1401 42.3241 75.5862C42.6098 75.093 42.9454 74.6304 43.3257 74.2057C44.0419 73.4136 44.8816 72.7424 45.812 72.2182C47.6101 71.1123 49.3927 69.987 51.1985 68.9043C54.7985 66.7041 58.4334 64.5657 62.0875 62.4544C65.7417 60.3432 69.4345 58.2976 73.1583 56.3023C76.882 54.307 80.6367 52.362 84.4881 50.5678C85.1095 50.2983 85.8069 50.261 86.4536 50.4625C87.1002 50.6639 87.6529 51.0909 88.0113 51.6656C88.3696 52.2404 88.5097 52.9247 88.406 53.594C88.3022 54.2633 87.9617 54.8731 87.4462 55.3124Z" fill="#0060F7"/>
<path opacity="0.5" d="M87.4462 55.3124C84.1478 57.9883 80.745 60.5056 77.3228 62.9803C73.9007 65.4551 70.4321 67.8603 66.952 70.2461C63.4719 72.6319 59.9337 74.9288 56.3801 77.2064C54.6129 78.3665 52.8187 79.4646 51.0361 80.5938C50.1569 81.1997 49.1853 81.6594 48.1592 81.9549C47.6029 82.1049 47.0329 82.1982 46.4578 82.2333C45.8116 82.2867 45.1611 82.2516 44.5244 82.1289C44.0259 82.0275 43.5523 81.8287 43.1308 81.5439C42.7092 81.2592 42.348 80.8941 42.0679 80.4695C41.7877 80.0449 41.594 79.5692 41.498 79.0696C41.402 78.5701 41.4055 78.0565 41.5082 77.5583C41.5082 77.5003 41.5353 77.4268 41.5508 77.3649C41.7243 76.7388 41.9846 76.1401 42.3241 75.5862C42.6098 75.093 42.9454 74.6304 43.3257 74.2057C44.0419 73.4136 44.8816 72.7424 45.812 72.2182C47.6101 71.1123 49.3927 69.987 51.1985 68.9043C54.7985 66.7041 58.4334 64.5657 62.0875 62.4544C65.7417 60.3432 69.4345 58.2976 73.1583 56.3023C76.882 54.307 80.6367 52.362 84.4881 50.5678C85.1095 50.2983 85.8069 50.261 86.4536 50.4625C87.1002 50.6639 87.6529 51.0909 88.0113 51.6656C88.3696 52.2404 88.5097 52.9247 88.406 53.594C88.3022 54.2633 87.9617 54.8731 87.4462 55.3124Z" fill="#0060F7"/>
<path d="M73.1776 138.546L76.333 137.815L74.8558 130.457L71.7005 131.187L73.1776 138.546Z" fill="#EBB376"/>
<path d="M51.9024 50.6143C51.4654 52.161 51.0439 53.789 50.6418 55.3821C50.2396 56.9752 49.8684 58.5916 49.559 60.2002C49.3889 61.0006 49.242 61.8204 49.1144 62.5744C48.9868 63.3284 48.9133 64.1211 48.8669 64.9138C48.8263 65.7021 48.8263 66.492 48.8669 67.2803C48.8669 67.667 48.9172 68.0537 48.9558 68.4636C48.9945 68.8735 49.0641 69.264 49.1182 69.6004L47.5715 70.1843C47.3685 69.7687 47.1941 69.3398 47.0495 68.9005C46.8982 68.4784 46.7691 68.0486 46.6628 67.6129C46.4512 66.7436 46.3064 65.8594 46.2297 64.968C46.1581 64.0675 46.1452 63.1633 46.191 62.2612C46.2529 61.3486 46.3612 60.5095 46.4811 59.6588C46.7247 57.9613 47.0379 56.2792 47.4091 54.6319C47.7803 52.9847 48.1825 51.3258 48.7045 49.6592L51.9024 50.6143Z" fill="#FFD2A2"/>
<path d="M47.351 51.1472L50.603 53.7379L52.5558 55.2847C52.5558 55.2847 52.7607 54.7395 53.0082 53.9584C53.48 52.4503 54.0948 50.0606 53.6694 48.9624C53.0005 47.2223 51.736 45.6524 50.1352 46.0004C48.7779 46.3059 47.351 51.1472 47.351 51.1472Z" fill="#1A4563"/>
<path d="M51.8443 138.568H55.0808L54.8295 131.066H51.5891L51.8443 138.568Z" fill="#EBB376"/>
<path d="M74.8558 130.458L75.6485 134.399L72.4623 134.979L71.6966 131.189L74.8558 130.458Z" fill="#DA9D62"/>
<path d="M51.5891 131.066H54.8295L54.9571 134.933H51.7167L51.5891 131.066Z" fill="#DA9D62"/>
<path d="M62.1456 65.6532C62.1456 65.6532 60.2663 87.8836 58.3174 100.412C56.7436 110.532 55.4985 134.189 55.4985 134.189H51.098C51.098 134.189 48.9945 111.344 49.7949 101.321C51.8173 75.997 48.2482 71.5115 52.4823 65.6416L62.1456 65.6532Z" fill="#0060F7"/>
<path opacity="0.6" d="M62.1456 65.6532C62.1456 65.6532 60.2663 87.8836 58.3174 100.412C56.7436 110.532 55.4985 134.189 55.4985 134.189H51.098C51.098 134.189 48.9945 111.344 49.7949 101.321C51.8173 75.997 48.2482 71.5115 52.4823 65.6416L62.1456 65.6532Z" fill="#0060F7"/>
<path d="M47.7842 69.9321L45.8739 71.2313L46.1446 72.3411C46.1446 72.3411 50.1236 70.2762 49.0602 69.4487L47.7842 69.9321Z" fill="#FFD2A2"/>
<path d="M56.4458 138.758C56.1576 138.75 55.871 138.711 55.5913 138.642C55.577 138.637 55.5642 138.629 55.554 138.618C55.5438 138.608 55.5367 138.594 55.5333 138.58C55.5309 138.565 55.5329 138.55 55.5391 138.536C55.5453 138.522 55.5554 138.51 55.5681 138.502C55.6802 138.429 56.6585 137.795 57.0375 137.965C57.0804 137.984 57.1175 138.014 57.1447 138.052C57.172 138.09 57.1883 138.135 57.1921 138.181C57.2072 138.254 57.2034 138.33 57.1811 138.401C57.1588 138.472 57.1186 138.536 57.0645 138.587C56.8854 138.717 56.6658 138.777 56.4458 138.758ZM55.8078 138.529C56.3724 138.645 56.7977 138.622 56.9679 138.475C57.0034 138.44 57.0294 138.396 57.0436 138.348C57.0578 138.3 57.0597 138.25 57.0491 138.201C57.0476 138.18 57.0408 138.161 57.0293 138.144C57.0177 138.127 57.0019 138.113 56.9833 138.104C56.7784 138.015 56.21 138.301 55.8078 138.529Z" fill="#0060F7"/>
<path d="M55.6106 138.642C55.598 138.646 55.5845 138.646 55.5719 138.642C55.5606 138.635 55.5511 138.625 55.5444 138.614C55.5377 138.602 55.5338 138.589 55.5333 138.576C55.5333 138.533 55.5333 137.601 55.889 137.288C55.9319 137.248 55.9835 137.218 56.0398 137.2C56.0961 137.183 56.1556 137.179 56.2138 137.188C56.2748 137.188 56.3338 137.21 56.3809 137.248C56.4281 137.287 56.4605 137.341 56.4729 137.4C56.5464 137.787 55.9548 138.468 55.6493 138.642C55.6366 138.645 55.6232 138.645 55.6106 138.642ZM56.1597 137.331C56.0971 137.332 56.0369 137.356 55.9895 137.397C55.7867 137.698 55.6826 138.054 55.6918 138.417C55.9973 138.17 56.3685 137.644 56.3221 137.424C56.3221 137.389 56.295 137.342 56.1945 137.331H56.1597Z" fill="#0060F7"/>
<path d="M76.6191 137.328C76.6047 137.327 76.5907 137.322 76.5787 137.314C76.5667 137.306 76.557 137.295 76.5507 137.282C76.5444 137.269 76.5417 137.255 76.5428 137.24C76.544 137.226 76.549 137.212 76.5572 137.2C76.6617 137.077 77.5626 136.017 78.0228 136.017H78.0537C78.0957 136.02 78.1361 136.034 78.1707 136.058C78.2054 136.082 78.2331 136.114 78.2509 136.152C78.2821 136.212 78.2984 136.278 78.2984 136.346C78.2984 136.413 78.2821 136.479 78.2509 136.539C78.0498 136.964 77.1411 137.204 76.6153 137.312L76.6191 137.328ZM78.0189 136.168C77.7676 136.168 77.2107 136.694 76.8279 137.123C77.5356 136.957 78.015 136.736 78.1272 136.485C78.1499 136.446 78.1619 136.401 78.1619 136.355C78.1619 136.31 78.1499 136.265 78.1272 136.226C78.1205 136.21 78.1099 136.197 78.0963 136.187C78.0827 136.176 78.0667 136.17 78.0498 136.168H78.0189Z" fill="#0060F7"/>
<path d="M76.6191 137.326C76.6061 137.324 76.5939 137.318 76.5843 137.309C76.5746 137.301 76.5679 137.289 76.565 137.276C76.565 137.241 76.2865 136.406 76.534 135.938C76.568 135.87 76.6158 135.809 76.6744 135.76C76.7329 135.71 76.801 135.674 76.8743 135.652C77.0792 135.59 77.1798 135.652 77.2223 135.741C77.4195 136.058 76.9826 136.994 76.6926 137.288C76.6849 137.3 76.6741 137.31 76.6611 137.317C76.6482 137.324 76.6337 137.327 76.6191 137.326ZM77.0058 135.78C76.9763 135.775 76.9463 135.775 76.9168 135.78C76.8628 135.795 76.8125 135.822 76.7692 135.858C76.726 135.894 76.6906 135.938 76.6655 135.988C76.5532 136.341 76.5532 136.719 76.6655 137.071C76.94 136.684 77.2069 135.992 77.0908 135.803C77.0781 135.787 77.0604 135.776 77.0408 135.772C77.0211 135.768 77.0006 135.771 76.9826 135.78H77.0058Z" fill="#0060F7"/>
<path d="M55.8929 38.1777C56.2796 40.1112 57.0529 43.978 55.7189 45.2734C55.7189 45.2734 56.2448 47.2068 59.8177 47.2068C63.7426 47.2068 61.6931 45.2734 61.6931 45.2734C59.5509 44.7629 59.605 43.1737 59.9801 41.6772L55.8929 38.1777Z" fill="#FFD2A2"/>
<path d="M55.3515 138.193H51.7128C51.6499 138.19 51.5883 138.211 51.5404 138.252C51.4924 138.293 51.4615 138.35 51.4538 138.413L51.04 141.29C51.0312 141.363 51.038 141.437 51.0601 141.507C51.0822 141.577 51.1191 141.641 51.1682 141.696C51.2172 141.75 51.2774 141.794 51.3447 141.823C51.412 141.853 51.4848 141.867 51.5582 141.866C52.8265 141.847 53.4374 141.769 55.0383 141.769C56.0244 141.769 57.459 141.874 58.8201 141.874C60.1812 141.874 60.2508 140.528 59.6862 140.408C57.1496 139.859 56.7475 139.109 55.8929 138.39C55.7407 138.263 55.5494 138.194 55.3515 138.193Z" fill="#263238"/>
<path d="M76.2711 136.983L72.9108 138.379C72.8526 138.402 72.8047 138.445 72.7762 138.5C72.7477 138.556 72.7405 138.62 72.7561 138.681L73.4754 141.499C73.4958 141.57 73.5309 141.635 73.5783 141.691C73.6258 141.746 73.6845 141.792 73.7506 141.823C73.8167 141.854 73.8888 141.871 73.962 141.873C74.0352 141.875 74.1079 141.861 74.1753 141.832C75.3353 141.325 75.8767 141.024 77.3538 140.409C78.2625 140.022 80.1843 139.346 81.4411 138.824C82.6978 138.302 82.2454 137.033 81.6769 137.138C79.1248 137.609 77.9106 137.296 76.8473 136.96C76.6584 136.9 76.4545 136.908 76.2711 136.983Z" fill="#263238"/>
<path d="M68.955 49.2827C69.5853 50.7676 70.2659 52.2872 70.9542 53.7644C71.3022 54.5068 71.6644 55.2363 72.0408 55.953C72.4275 56.6722 72.8141 57.376 73.2008 58.0488C73.4058 58.3814 73.6107 58.7139 73.8234 59.0194L74.1405 59.4602C74.2055 59.5522 74.2793 59.6377 74.3609 59.7154C74.7826 60.0818 75.3088 60.3063 75.8651 60.3573C77.1837 60.5468 78.8387 60.28 80.3197 59.8817L81.008 61.3704C80.6167 61.6055 80.2112 61.816 79.7938 62.0007C79.383 62.1919 78.9607 62.3573 78.5293 62.4957C77.6199 62.8053 76.6671 62.9684 75.7065 62.979C75.1709 62.9838 74.6372 62.9135 74.1211 62.7702C73.5482 62.6126 73.0094 62.3504 72.5319 61.9969C72.2873 61.8109 72.0608 61.6025 71.8552 61.3743C71.6812 61.1771 71.5535 61.0108 71.3989 60.8252C71.1089 60.4617 70.8498 60.0944 70.5907 59.727C69.6272 58.277 68.7591 56.7658 67.9922 55.2028C67.2188 53.6561 66.5228 52.1094 65.8809 50.5085L68.955 49.2827Z" fill="#FFD2A2"/>
<path d="M79.9871 61.552L83.5214 60.9952L82.5818 58.9922C82.5818 58.9922 79.844 59.4678 79.3182 60.7052L79.9871 61.552Z" fill="#FFD2A2"/>
<path d="M83.5175 59.4327L83.1308 58.5781L82.5818 58.9919L83.5175 60.9949V59.4327Z" fill="#FFD2A2"/>
<path d="M55.599 34.2016C55.6686 37.415 55.6299 38.7761 57.1844 40.4852C59.5045 43.0567 63.4564 42.2678 64.3458 39.097C65.1462 36.2433 64.8948 31.4678 61.8091 30.068C61.1297 29.7564 60.3819 29.6238 59.6368 29.6825C58.8917 29.7413 58.174 29.9895 57.5518 30.4037C56.9296 30.8178 56.4235 31.3841 56.0818 32.0488C55.74 32.7136 55.5738 33.4546 55.599 34.2016Z" fill="#FFD2A2"/>
<path d="M53.0082 28.3978C56.3105 26.0043 59.9994 27.3615 62.0179 29.0165C64.1292 30.7489 63.7928 34.0782 62.5013 35.4548C62.6353 35.6584 62.7239 35.8884 62.7613 36.1292C62.7986 36.3701 62.7838 36.6161 62.7178 36.8507C62.8808 37.8809 62.6543 38.9348 62.0823 39.807C61.5104 40.6792 60.6341 41.3071 59.6244 41.5683L59.4426 41.6147C55.3167 42.5968 50.5489 39.805 49.8297 35.6288C49.3927 33.0806 50.0888 30.5091 53.0082 28.3978Z" fill="#1A4563"/>
<path d="M61.7628 35.6912C61.8156 36.297 62.075 36.8663 62.4974 37.3037C63.0697 37.8953 63.6575 37.555 63.7619 36.8551C63.8508 36.2249 63.6614 35.1576 62.9653 34.8212C62.2693 34.4848 61.7125 34.9759 61.7628 35.6912Z" fill="#EBB376"/>
<path opacity="0.3" d="M57.6716 76.045C57.3043 82.6883 58.9051 87.7035 59.636 90.6385C60.1541 86.2999 60.6298 81.7718 61.028 77.7774C59.663 73.2532 57.9384 71.0452 57.6716 76.045Z" fill="black"/>
<path d="M56.1056 134.271H50.4793L50.1816 132.299L56.1365 132.098L56.1056 134.271Z" fill="#0060F7"/>
<path opacity="0.3" d="M50.6031 53.7391L52.5558 55.2859C52.5558 55.2859 52.7608 54.7406 53.0083 53.9595L51.8482 48.2173L50.6031 53.7391Z" fill="black"/>
<path d="M54.8488 28.9356C55.8581 27.818 59.288 26.1128 62.2306 27.4507C63.07 27.833 63.7813 28.4493 64.2792 29.2257C64.7771 30.0021 65.0406 30.9056 65.0379 31.8279L62.3853 33.6067L54.8488 28.9356Z" fill="#1A4563"/>
<path d="M52.142 31.8703C53.5998 30.6755 55.2355 26.3446 52.142 27.8527C49.0486 29.3607 48.1089 35.1765 52.142 31.8703Z" fill="#0060F7"/>
<path d="M52.4707 29.0956C53.101 27.255 48.9442 23.5931 46.1407 27.0732C43.3373 30.5534 50.6572 34.3931 52.4707 29.0956Z" fill="#1A4563"/>
<path d="M58.9747 31.6633C56.558 30.6347 55.3554 26.7369 59.5045 26.8491C63.6536 26.9612 63.5337 33.6083 58.9747 31.6633Z" fill="#0060F7"/>
<path d="M58.1936 29.6428C56.7281 27.8138 58.3483 23.1117 62.5516 24.6159C66.7548 26.1201 61.5578 33.8229 58.1936 29.6428Z" fill="#1A4563"/>
<path d="M65.6218 65.6514C65.6218 65.6514 69.2721 90.5924 70.5559 100.406C71.89 110.596 75.7877 133.441 75.7877 133.441L71.4569 134.102C71.4569 134.102 64.6126 112.312 62.7063 102.394C60.6259 91.5862 56.5193 65.6591 56.5193 65.6591L65.6218 65.6514Z" fill="#0060F7"/>
<path opacity="0.6" d="M65.6218 65.6514C65.6218 65.6514 69.2721 90.5924 70.5559 100.406C71.89 110.596 75.7877 133.441 75.7877 133.441L71.4569 134.102C71.4569 134.102 64.6126 112.312 62.7063 102.394C60.6259 91.5862 56.5193 65.6591 56.5193 65.6591L65.6218 65.6514Z" fill="#0060F7"/>
<path d="M67.1686 46.1055C68.7772 46.4921 70.7609 50.9158 70.7609 50.9158L66.9288 55.8267C66.9288 55.8267 62.9692 50.2236 63.4989 48.5145C64.048 46.7319 65.2158 45.6298 67.1686 46.1055Z" fill="#1A4563"/>
<path d="M61.9251 45.9046C62.4549 45.9819 61.9638 44.7716 61.7434 44.644C61.2368 44.3423 54.7831 43.7353 54.8566 44.4158C54.8956 44.822 55.0699 45.2033 55.3515 45.4985C55.6415 45.6919 57.2849 45.1583 61.9251 45.9046Z" fill="#0060F7"/>
<path opacity="0.6" d="M61.9251 45.9046C62.4549 45.9819 61.9638 44.7716 61.7434 44.644C61.2368 44.3423 54.7831 43.7353 54.8566 44.4158C54.8956 44.822 55.0699 45.2033 55.3515 45.4985C55.6415 45.6919 57.2849 45.1583 61.9251 45.9046Z" fill="white"/>
<path d="M67.1685 46.1063C67.1685 46.1063 68.7153 46.6476 65.6218 65.6531H52.4746C52.695 60.3014 52.7027 56.9991 50.1545 46.0096C51.9955 45.6297 53.8616 45.3841 55.7382 45.2749C57.727 45.1317 59.7236 45.1317 61.7124 45.2749C64.2452 45.4992 67.1685 46.1063 67.1685 46.1063Z" fill="#1A4563"/>
<path d="M52.2581 64.882L51.6664 66.0421C51.62 66.1349 51.7283 66.2277 51.8791 66.2277H65.676C65.792 66.2277 65.8925 66.1697 65.9002 66.0923L66.0162 64.9323C66.0162 64.8511 65.9234 64.7815 65.792 64.7815H52.4823C52.4393 64.7755 52.3954 64.7818 52.3558 64.7996C52.3161 64.8174 52.2823 64.8459 52.2581 64.882Z" fill="#0060F7"/>
<path opacity="0.6" d="M52.2581 64.882L51.6664 66.0421C51.62 66.1349 51.7283 66.2277 51.8791 66.2277H65.676C65.792 66.2277 65.8925 66.1697 65.9002 66.0923L66.0162 64.9323C66.0162 64.8511 65.9234 64.7815 65.792 64.7815H52.4823C52.4393 64.7755 52.3954 64.7818 52.3558 64.7996C52.3161 64.8174 52.2823 64.8459 52.2581 64.882Z" fill="white"/>
<path d="M54.06 66.3795H53.7004C53.6308 66.3795 53.5766 66.3409 53.5805 66.2983L53.7507 64.7516C53.7507 64.7052 53.8164 64.6704 53.886 64.6704H54.2456C54.3152 64.6704 54.3693 64.7052 54.3655 64.7516L54.1953 66.2983C54.1915 66.3331 54.1296 66.3795 54.06 66.3795Z" fill="#0060F7"/>
<path d="M62.6985 66.3795H62.3428C62.2693 66.3795 62.2152 66.3409 62.2229 66.2983L62.3892 64.7516C62.3892 64.7052 62.4549 64.6704 62.5284 64.6704H62.8841C62.9537 64.6704 63.0079 64.7052 63.004 64.7516L62.8377 66.2983C62.8377 66.3331 62.7758 66.3795 62.6985 66.3795Z" fill="#0060F7"/>
<path opacity="0.6" d="M54.06 66.3795H53.7004C53.6308 66.3795 53.5766 66.3409 53.5805 66.2983L53.7507 64.7516C53.7507 64.7052 53.8164 64.6704 53.886 64.6704H54.2456C54.3152 64.6704 54.3693 64.7052 54.3655 64.7516L54.1953 66.2983C54.1915 66.3331 54.1296 66.3795 54.06 66.3795Z" fill="black"/>
<path opacity="0.6" d="M62.6985 66.3795H62.3428C62.2693 66.3795 62.2152 66.3409 62.2229 66.2983L62.3892 64.7516C62.3892 64.7052 62.4549 64.6704 62.5284 64.6704H62.8841C62.9537 64.6704 63.0079 64.7052 63.004 64.7516L62.8377 66.2983C62.8377 66.3331 62.7758 66.3795 62.6985 66.3795Z" fill="black"/>
<path d="M76.4258 133.442L70.8807 134.385L70.2504 132.293L76.186 131.276L76.4258 133.442Z" fill="#0060F7"/>
<path d="M131.687 25.4903C128.737 20.7674 124.454 17.0251 119.377 14.7367C114.301 12.4482 108.66 11.7164 103.168 12.6337C97.676 13.5511 92.5792 16.0763 88.5222 19.8902C84.4653 23.7042 81.6303 28.6354 80.3758 34.0605C79.1213 39.4855 79.5037 45.1608 81.4745 50.3685C83.4454 55.5763 86.9162 60.0827 91.4481 63.318C95.98 66.5532 101.369 68.372 106.935 68.5444C112.501 68.7167 117.992 67.2349 122.716 64.2862C125.852 62.3281 128.573 59.7713 130.721 56.7618C132.869 53.7523 134.404 50.349 135.237 46.7464C136.07 43.1438 136.185 39.4124 135.576 35.7652C134.967 32.118 133.645 28.6266 131.687 25.4903ZM88.962 52.1714C86.6355 48.4443 85.4663 44.1111 85.6025 39.7196C85.7386 35.3281 87.1739 31.0755 89.7268 27.4997C92.2798 23.9239 95.8357 21.1854 99.945 19.6305C104.054 18.0757 108.532 17.7742 112.813 18.7643C117.094 19.7545 120.984 21.9917 123.994 25.1931C127.003 28.3945 128.995 32.4163 129.718 36.7499C130.442 41.0836 129.864 45.5344 128.058 49.5397C126.252 53.5449 123.299 56.9247 119.572 59.2516C117.097 60.7965 114.342 61.8388 111.464 62.3189C108.586 62.799 105.642 62.7075 102.8 62.0497C99.9572 61.3919 97.2722 60.1806 94.8979 58.485C92.5237 56.7894 90.5066 54.6427 88.962 52.1675V52.1714Z" fill="#0060F7"/>
<path d="M131.687 25.4903C128.737 20.7674 124.454 17.0251 119.377 14.7367C114.301 12.4482 108.66 11.7164 103.168 12.6337C97.676 13.5511 92.5792 16.0763 88.5222 19.8902C84.4653 23.7042 81.6303 28.6354 80.3758 34.0605C79.1213 39.4855 79.5037 45.1608 81.4745 50.3685C83.4454 55.5763 86.9162 60.0827 91.4481 63.318C95.98 66.5532 101.369 68.372 106.935 68.5444C112.501 68.7167 117.992 67.2349 122.716 64.2862C125.852 62.3281 128.573 59.7713 130.721 56.7618C132.869 53.7523 134.404 50.349 135.237 46.7464C136.07 43.1438 136.185 39.4124 135.576 35.7652C134.967 32.118 133.645 28.6266 131.687 25.4903ZM88.962 52.1714C86.6355 48.4443 85.4663 44.1111 85.6025 39.7196C85.7386 35.3281 87.1739 31.0755 89.7268 27.4997C92.2798 23.9239 95.8357 21.1854 99.945 19.6305C104.054 18.0757 108.532 17.7742 112.813 18.7643C117.094 19.7545 120.984 21.9917 123.994 25.1931C127.003 28.3945 128.995 32.4163 129.718 36.7499C130.442 41.0836 129.864 45.5344 128.058 49.5397C126.252 53.5449 123.299 56.9247 119.572 59.2516C117.097 60.7965 114.342 61.8388 111.464 62.3189C108.586 62.799 105.642 62.7075 102.8 62.0497C99.9572 61.3919 97.2722 60.1806 94.8979 58.485C92.5237 56.7894 90.5066 54.6427 88.962 52.1675V52.1714Z" fill="#0060F7"/>
<path opacity="0.5" d="M131.687 25.4903C128.737 20.7674 124.454 17.0251 119.377 14.7367C114.301 12.4482 108.66 11.7164 103.168 12.6337C97.676 13.5511 92.5792 16.0763 88.5222 19.8902C84.4653 23.7042 81.6303 28.6354 80.3758 34.0605C79.1213 39.4855 79.5037 45.1608 81.4745 50.3685C83.4454 55.5763 86.9162 60.0827 91.4481 63.318C95.98 66.5532 101.369 68.372 106.935 68.5444C112.501 68.7167 117.992 67.2349 122.716 64.2862C125.852 62.3281 128.573 59.7713 130.721 56.7618C132.869 53.7523 134.404 50.349 135.237 46.7464C136.07 43.1438 136.185 39.4124 135.576 35.7652C134.967 32.118 133.645 28.6266 131.687 25.4903ZM88.962 52.1714C86.6355 48.4443 85.4663 44.1111 85.6025 39.7196C85.7386 35.3281 87.1739 31.0755 89.7268 27.4997C92.2798 23.9239 95.8357 21.1854 99.945 19.6305C104.054 18.0757 108.532 17.7742 112.813 18.7643C117.094 19.7545 120.984 21.9917 123.994 25.1931C127.003 28.3945 128.995 32.4163 129.718 36.7499C130.442 41.0836 129.864 45.5344 128.058 49.5397C126.252 53.5449 123.299 56.9247 119.572 59.2516C117.097 60.7965 114.342 61.8388 111.464 62.3189C108.586 62.799 105.642 62.7075 102.8 62.0497C99.9572 61.3919 97.2722 60.1806 94.8979 58.485C92.5237 56.7894 90.5066 54.6427 88.962 52.1675V52.1714Z" fill="#0060F7"/>
<path opacity="0.4" d="M128.512 27.4758C131.068 31.5713 132.352 36.3328 132.202 41.1582C132.052 45.9836 130.475 50.6562 127.67 54.5852C124.864 58.5142 120.957 61.5231 116.442 63.2316C111.926 64.9401 107.006 65.2714 102.302 64.1837C97.5988 63.0959 93.3234 60.6379 90.0167 57.1205C86.71 53.603 84.5205 49.1841 83.725 44.4223C82.9296 39.6606 83.5639 34.7699 85.5477 30.3687C87.5316 25.9674 90.7759 22.2532 94.8705 19.6957C97.5901 17.997 100.618 16.8508 103.78 16.3224C106.943 15.7941 110.179 15.894 113.303 16.6165C116.427 17.339 119.378 18.6699 121.988 20.5331C124.597 22.3964 126.814 24.7555 128.512 27.4758Z" fill="#FAFAFA"/>
<path opacity="0.08" d="M131.981 36.9487L94.0856 60.606C90.9954 58.5092 88.4276 55.7311 86.5801 52.4857L127.955 26.6514C130.066 29.731 131.444 33.2537 131.981 36.9487Z" fill="white"/>
</svg>
