<svg width="37" height="24" viewBox="0 0 37 24" fill="none" xmlns="http://www.w3.org/2000/svg">
<path d="M34.0329 24H2.83286C2.19634 24 1.58589 23.7471 1.13581 23.297C0.685718 22.8469 0.432861 22.2365 0.432861 21.6L0.432861 11.504H2.16186L2.55186 10.56H3.42486L3.81386 11.5H7.21586V10.785L7.51986 11.505H9.28586L9.58986 10.773V11.503H18.0429V9.95895H18.2029C18.3169 9.96295 18.3499 9.97295 18.3499 10.163V11.505H22.7229V11.146C23.1699 11.373 23.6969 11.506 24.2559 11.506L24.3509 11.505H24.3459H26.1859L26.5799 10.565H27.4529L27.8379 11.505H31.3839V10.611L31.9199 11.505H34.7559V5.60095H31.9489V6.29795L31.5559 5.60095H28.6699V6.29795L28.3089 5.60095H24.4119C23.8214 5.57112 23.2332 5.69263 22.7029 5.95395L22.7239 5.94495V5.60095H20.0359V5.94495C19.7105 5.68851 19.2996 5.56583 18.8869 5.60195H18.8929H9.06986L8.41086 7.12695L7.73386 5.60195H4.63986V6.29895L4.29886 5.60195H1.65886L0.435861 8.40195V2.40195C0.435861 1.76543 0.688718 1.15498 1.13881 0.704897C1.58889 0.25481 2.19934 0.00195313 2.83586 0.00195312H34.0359C34.6724 0.00195313 35.2828 0.25481 35.7329 0.704897C36.183 1.15498 36.4359 1.76543 36.4359 2.40195V12.882H34.5629C34.5329 12.88 34.4969 12.88 34.4619 12.88C34.0279 12.88 33.6249 13.01 33.2889 13.233L33.2969 13.228V12.882H30.5269C30.0941 12.858 29.666 12.981 29.3119 13.231L29.3179 13.227V12.881H24.3719V13.227C23.967 12.9986 23.5097 12.8794 23.0449 12.881H23.0059H23.0079H19.7449V13.227C19.3186 12.9539 18.8127 12.8323 18.3089 12.882L18.3179 12.881H14.6669L13.8309 13.785L13.0489 12.881H7.59486V18.789H12.9469L13.8079 17.871L14.6189 18.789H17.9179V17.406H18.3779C18.8202 17.4232 19.2613 17.3494 19.6739 17.189L19.6519 17.197V18.791H22.3719V17.252H22.5029C22.6689 17.252 22.6859 17.258 22.6859 17.426V18.792H30.9519L31.0529 18.794C31.5269 18.794 31.9689 18.652 32.3369 18.409L32.3279 18.414V18.792H34.9499L35.0749 18.794C35.5659 18.794 36.0329 18.693 36.4569 18.51L36.4339 18.519V21.601C36.4339 22.2375 36.181 22.8479 35.7309 23.298C35.2808 23.7481 34.6704 24.001 34.0339 24.001L34.0329 24ZM21.5379 17.961H20.5199V13.726H22.8559C23.2778 13.6868 23.7026 13.7578 24.0889 13.932L24.0729 13.926C24.3859 14.098 24.5949 14.426 24.5949 14.802L24.5929 14.869V14.866L24.5939 14.904C24.5939 15.39 24.3009 15.808 23.8809 15.99L23.8729 15.993C24.0739 16.065 24.2419 16.188 24.3669 16.347L24.3689 16.349C24.51 16.5827 24.5692 16.8568 24.5369 17.128L24.5379 17.122V17.96H23.5219V17.43C23.57 17.1414 23.5121 16.8452 23.3589 16.596L23.3619 16.601C23.2563 16.5208 23.1356 16.4629 23.007 16.4308C22.8785 16.3987 22.7447 16.3929 22.6139 16.414L22.6199 16.413H21.5379V17.96V17.961ZM21.5379 14.601V15.552H22.7679C22.9416 15.568 23.1164 15.5369 23.2739 15.462L23.2679 15.465C23.3322 15.4234 23.3851 15.3664 23.4218 15.2992C23.4585 15.2319 23.4778 15.1566 23.4779 15.08L23.4769 15.057V15.058C23.4818 14.9815 23.465 14.9053 23.4284 14.838C23.3917 14.7707 23.3368 14.7152 23.2699 14.678L23.2679 14.677C23.1161 14.6091 22.9494 14.5815 22.7839 14.597H22.7879L21.5379 14.601ZM12.5129 17.96H8.50586V13.726H12.5759L13.8209 15.114L15.1079 13.726H18.3409C19.4889 13.726 20.0469 14.183 20.0469 15.121C20.0469 16.076 19.4699 16.54 18.2869 16.54H17.0219V17.959H15.0549L13.8089 16.56L12.5139 17.96H12.5129ZM16.0139 14.18L14.4599 15.85L16.0139 17.574V14.18ZM9.51486 16.235V17.077H12.0029L13.1529 15.835L12.0469 14.601H9.51386V15.371H11.7359V16.234L9.51486 16.235ZM17.0219 14.602V15.68H18.3289C18.7289 15.68 18.9589 15.476 18.9589 15.12C18.9589 14.78 18.7449 14.601 18.3399 14.601L17.0219 14.602ZM35.0599 17.962H33.1059V17.052H35.0519C35.1975 17.072 35.3451 17.0339 35.4629 16.946L35.4619 16.947C35.4994 16.9121 35.5294 16.8699 35.5499 16.8229C35.5704 16.7759 35.5809 16.7252 35.5809 16.674V16.658C35.5809 16.6073 35.57 16.5573 35.5487 16.5114C35.5275 16.4654 35.4965 16.4247 35.4579 16.392C35.3544 16.3172 35.2267 16.2836 35.0999 16.298H35.1019L34.9149 16.292C34.0009 16.268 32.9659 16.24 32.9659 14.987C32.9659 14.377 33.3479 13.726 34.4169 13.726H36.4339V14.628H34.5889C34.4464 14.612 34.3024 14.6407 34.1769 14.71L34.1809 14.708C34.1315 14.7404 34.0918 14.7856 34.0659 14.8388C34.0401 14.8919 34.029 14.9511 34.0339 15.01V15.009V15.02C34.0339 15.0873 34.0551 15.153 34.0946 15.2076C34.1341 15.2622 34.1899 15.3029 34.2539 15.324L34.2559 15.325C34.3827 15.364 34.5154 15.3803 34.6479 15.373H34.6449L35.1939 15.387C35.6077 15.3457 36.0211 15.4689 36.3449 15.73L36.3419 15.728C36.3719 15.752 36.3979 15.778 36.4209 15.807L36.4219 15.808L36.4339 17.42C36.2657 17.6165 36.0518 17.7686 35.8109 17.8629C35.5701 17.9573 35.3098 17.9909 35.0529 17.961L35.0599 17.962ZM31.1109 17.962H29.1389V17.052H31.1009C31.2477 17.0712 31.3963 17.0332 31.5159 16.946L31.5139 16.947C31.5512 16.912 31.5809 16.8697 31.6012 16.8227C31.6215 16.7758 31.632 16.7251 31.6319 16.674V16.664C31.6318 16.6125 31.6208 16.5616 31.5996 16.5147C31.5784 16.4678 31.5475 16.426 31.5089 16.392C31.4035 16.3171 31.2743 16.2836 31.1459 16.298H31.1479L30.9619 16.292C30.0509 16.268 29.0169 16.24 29.0169 14.987C29.0169 14.377 29.3969 13.726 30.4639 13.726H32.4919V14.628H30.6359C30.4943 14.6122 30.3514 14.6408 30.2269 14.71L30.2309 14.708C30.1783 14.7441 30.1365 14.7938 30.1099 14.8517C30.0833 14.9096 30.0728 14.9737 30.0795 15.0371C30.0863 15.1005 30.1101 15.1609 30.1483 15.2119C30.1866 15.263 30.2379 15.3027 30.2969 15.327L30.2989 15.328C30.4273 15.3673 30.5617 15.3836 30.6959 15.376H30.6929L31.2379 15.39C31.6539 15.3499 32.0692 15.4732 32.3959 15.734L32.3929 15.731C32.5028 15.8521 32.5863 15.9947 32.6383 16.1498C32.6903 16.3049 32.7095 16.4691 32.6949 16.632V16.627C32.6979 17.51 32.1629 17.96 31.1079 17.96L31.1109 17.962ZM28.5329 17.962H25.1529V13.725H28.5299V14.6H26.1629V15.37H28.4749V16.233H26.1629V17.075L28.5329 17.079V17.959V17.962ZM30.5029 10.676H28.4419L28.0479 9.73195H25.9459L25.5639 10.676H24.3799C23.8481 10.704 23.3245 10.5365 22.9079 10.205L22.9129 10.208C22.7149 9.98947 22.5646 9.73213 22.4717 9.45234C22.3787 9.17256 22.345 8.87647 22.3729 8.58295L22.3719 8.59095C22.3461 8.29203 22.3814 7.991 22.4756 7.70615C22.5698 7.4213 22.721 7.15858 22.9199 6.93395L22.9179 6.93595C23.1279 6.75234 23.3734 6.6139 23.6392 6.52926C23.905 6.44462 24.1854 6.41558 24.4629 6.44395L24.4549 6.44295H25.4349V7.34595H24.4749C24.3344 7.32786 24.1917 7.34097 24.0568 7.38436C23.922 7.42774 23.7984 7.50033 23.6949 7.59695L23.6959 7.59595C23.482 7.86976 23.3783 8.21358 23.4049 8.55995V8.55495C23.373 8.91082 23.473 9.26599 23.6859 9.55295L23.6829 9.54895C23.8817 9.71142 24.1361 9.78966 24.3919 9.76695H24.3879H24.8419L26.2729 6.43695H27.7929L29.5059 10.437V6.43695H31.0469L32.8249 9.38495V6.43695H33.8649V10.669H32.4209L30.5009 7.49095V10.669L30.5029 10.676ZM27.0039 7.15795L26.3069 8.84595H27.7039L27.0039 7.15795ZM17.2049 10.674H16.1929V6.43995H18.5209C18.9458 6.39586 19.3748 6.4681 19.7619 6.64895L19.7469 6.64295C19.9025 6.72902 20.0323 6.85519 20.1226 7.00836C20.213 7.16153 20.2608 7.3361 20.2609 7.51395L20.2589 7.58395V7.58095V7.61195C20.2589 7.84291 20.1924 8.06898 20.0671 8.26303C19.9419 8.45708 19.7633 8.61088 19.5529 8.70595L19.5449 8.70895C19.7459 8.78495 19.9149 8.90695 20.0439 9.06295L20.0459 9.06495C20.1885 9.29953 20.2474 9.57557 20.2129 9.84795L20.2139 9.84195V10.673H19.1929L19.1889 10.139V10.059C19.2252 9.79785 19.1674 9.53234 19.0259 9.30995L19.0289 9.31495C18.9229 9.23714 18.8027 9.18109 18.675 9.15002C18.5473 9.11895 18.4147 9.11349 18.2849 9.13395L18.2909 9.13295H17.2059V10.673L17.2049 10.674ZM17.2049 7.32095V8.26095H18.4329C18.6063 8.27977 18.7816 8.24854 18.9379 8.17095L18.9329 8.17295C18.9969 8.13401 19.0499 8.07925 19.0867 8.01393C19.1234 7.9486 19.1428 7.87492 19.1429 7.79995L19.1419 7.77195V7.77295C19.1469 7.69697 19.1297 7.62116 19.0922 7.55487C19.0547 7.48859 18.9986 7.43474 18.9309 7.39995L18.9289 7.39895C18.7767 7.33366 18.611 7.30621 18.4459 7.31895H18.4489L17.2049 7.32095ZM6.48886 10.674H4.43286L4.04386 9.72995H1.93586L1.54386 10.674H0.443861L2.25686 6.43995H3.75986L5.48086 10.447V6.43995H7.13186L8.45586 9.31095L9.67286 6.43995H11.3579V10.672H10.3179L10.3159 7.35995L8.84886 10.673H7.96086L6.48986 7.35495V10.673L6.48886 10.674ZM2.98486 7.15795L2.29586 8.84595H3.67786L2.98486 7.15795ZM21.8729 10.673H20.8409V6.43995H21.8739V10.672L21.8729 10.673ZM15.4869 10.673H12.1129V6.43995H15.4929V7.31995H13.1249V8.08295H15.4359V8.95195H13.1229V9.79795H15.4909V10.672L15.4869 10.673Z" fill="#016FD0"/>
</svg>
