<svg width="11" height="18" viewBox="0 0 11 18" fill="none" xmlns="http://www.w3.org/2000/svg">
<path d="M0 9.00004C0 9.35359 0.131319 9.65663 0.41416 9.91927L8.2731 17.6166C8.49533 17.8388 8.77817 17.96 9.11152 17.96C9.77822 17.96 10.3136 17.4348 10.3136 16.758C10.3136 16.4246 10.1722 16.1317 9.94994 15.8993L2.86882 9.00004L9.94994 2.10074C10.1722 1.8684 10.3136 1.56536 10.3136 1.24211C10.3136 0.565315 9.77822 0.0400391 9.11152 0.0400391C8.77817 0.0400391 8.49533 0.161257 8.2731 0.383489L0.41416 8.0707C0.131319 8.34344 0 8.64649 0 9.00004Z" fill="#1A4563"/>
</svg>
