<svg width="24" height="25" viewBox="0 0 24 25" fill="none" xmlns="http://www.w3.org/2000/svg">
<path d="M8 14.0078C7.71667 14.0078 7.479 13.9118 7.287 13.7198C7.095 13.5278 6.99934 13.2905 7 13.0078C7 12.7245 7.096 12.4868 7.288 12.2948C7.48 12.1028 7.71734 12.0071 8 12.0078C8.28334 12.0078 8.521 12.1038 8.713 12.2958C8.905 12.4878 9.00067 12.7251 9 13.0078C9 13.2911 8.904 13.5288 8.712 13.7208C8.52 13.9128 8.28267 14.0085 8 14.0078ZM12 14.0078C11.7167 14.0078 11.479 13.9118 11.287 13.7198C11.095 13.5278 10.9993 13.2905 11 13.0078C11 12.7245 11.096 12.4868 11.288 12.2948C11.48 12.1028 11.7173 12.0071 12 12.0078C12.2833 12.0078 12.521 12.1038 12.713 12.2958C12.905 12.4878 13.0007 12.7251 13 13.0078C13 13.2911 12.904 13.5288 12.712 13.7208C12.52 13.9128 12.2827 14.0085 12 14.0078ZM16 14.0078C15.7167 14.0078 15.479 13.9118 15.287 13.7198C15.095 13.5278 14.9993 13.2905 15 13.0078C15 12.7245 15.096 12.4868 15.288 12.2948C15.48 12.1028 15.7173 12.0071 16 12.0078C16.2833 12.0078 16.521 12.1038 16.713 12.2958C16.905 12.4878 17.0007 12.7251 17 13.0078C17 13.2911 16.904 13.5288 16.712 13.7208C16.52 13.9128 16.2827 14.0085 16 14.0078ZM5 22.0078C4.45 22.0078 3.979 21.8118 3.587 21.4198C3.195 21.0278 2.99934 20.5571 3 20.0078V6.00781C3 5.45781 3.196 4.98681 3.588 4.59481C3.98 4.20281 4.45067 4.00715 5 4.00781H6V2.00781H8V4.00781H16V2.00781H18V4.00781H19C19.55 4.00781 20.021 4.20381 20.413 4.59581C20.805 4.98781 21.0007 5.45848 21 6.00781V20.0078C21 20.5578 20.804 21.0288 20.412 21.4208C20.02 21.8128 19.5493 22.0085 19 22.0078H5ZM5 20.0078H19V10.0078H5V20.0078Z" fill="#0A0A0C"/>
</svg>
