<svg width="14" height="15" viewBox="0 0 14 15" fill="none" xmlns="http://www.w3.org/2000/svg">
<path d="M3.24931 5.3562C3.08263 4.2572 3.85875 3.26758 5.04438 2.90445C5.25489 2.84002 5.48205 2.85833 5.67953 2.95565C5.877 3.05296 6.02991 3.22195 6.10706 3.42814L6.48725 4.44314C6.54838 4.60641 6.55934 4.78422 6.51872 4.95376C6.47811 5.1233 6.38778 5.27685 6.25931 5.3947L5.12838 6.43202C5.0726 6.48326 5.03104 6.54807 5.00773 6.62013C4.98442 6.6922 4.98017 6.76907 4.99538 6.84327L5.00544 6.88877L5.03344 7.00295C5.05838 7.09921 5.096 7.23483 5.14894 7.3967C5.25394 7.71827 5.4215 8.15052 5.67088 8.58233C5.92025 9.01414 6.21075 9.37552 6.4365 9.62708C6.55407 9.75806 6.67697 9.88417 6.80488 10.0051L6.83988 10.0375C6.89644 10.0876 6.96502 10.1221 7.03893 10.1379C7.11284 10.1536 7.18957 10.1499 7.26163 10.1271L8.7255 9.66646C8.89182 9.61417 9.06997 9.61277 9.2371 9.66242C9.40422 9.71208 9.55271 9.81053 9.6635 9.94514L10.3561 10.786C10.6448 11.136 10.6107 11.6505 10.2786 11.9598C9.37125 12.8055 8.1235 12.9792 7.2555 12.281C6.19157 11.4228 5.29463 10.3763 4.6095 9.19352C3.91871 8.01154 3.45724 6.70936 3.24931 5.3562ZM5.91194 6.90058L6.85081 6.03958C7.10775 5.80387 7.28841 5.49678 7.36963 5.1577C7.45086 4.81861 7.42894 4.463 7.30669 4.13645L6.92606 3.12145C6.77078 2.70676 6.46319 2.3669 6.066 2.17114C5.6688 1.97539 5.2119 1.93849 4.78844 2.06795C3.31625 2.51858 2.13413 3.83852 2.38438 5.48745C2.60881 6.94959 3.10709 8.35625 3.85306 9.63364C4.59203 10.9091 5.55941 12.0377 6.70688 12.963C8.00844 14.0086 9.74706 13.6521 10.8754 12.5999C11.1982 12.299 11.3941 11.8863 11.4232 11.4459C11.4522 11.0055 11.3121 10.5706 11.0316 10.23L10.339 9.38908C10.1174 9.11976 9.82034 8.92281 9.486 8.8235C9.15166 8.72419 8.79527 8.72704 8.46256 8.83171L7.24763 9.21408C7.19324 9.15815 7.14 9.10112 7.08794 9.04302C6.83825 8.76678 6.61734 8.46583 6.42863 8.14483C6.24491 7.82084 6.09466 7.479 5.98019 7.12458C5.95591 7.05039 5.93316 6.9757 5.91194 6.90058Z" fill="#0A0A0C"/>
</svg>
