<svg width="20" height="21" viewBox="0 0 20 21" fill="none" xmlns="http://www.w3.org/2000/svg">
<circle cx="10" cy="10.1406" r="10" fill="#F51F1F"/>
<path d="M10 11.0713C10.2352 11.0713 10.4368 10.9839 10.6115 10.7958L15.7316 5.5682C15.8794 5.42038 15.96 5.23224 15.96 5.0105C15.96 4.56703 15.6106 4.21091 15.1604 4.21091C14.9387 4.21091 14.7438 4.30498 14.5893 4.4528L10 9.16301L5.41077 4.4528C5.25623 4.30498 5.05465 4.21091 4.83963 4.21091C4.38944 4.21091 4.04004 4.56703 4.04004 5.0105C4.04004 5.23224 4.12067 5.42038 4.26849 5.5682L9.38187 10.7958C9.56329 10.9839 9.76486 11.0713 10 11.0713Z" fill="white"/>
<path d="M10 9.20996C10.2352 9.20996 10.4368 9.29731 10.6115 9.48545L15.7316 14.713C15.8794 14.8609 15.96 15.049 15.96 15.2707C15.96 15.7142 15.6106 16.0703 15.1604 16.0703C14.9387 16.0703 14.7438 15.9763 14.5893 15.8284L10 11.1182L5.41077 15.8284C5.25623 15.9763 5.05465 16.0703 4.83963 16.0703C4.38944 16.0703 4.04004 15.7142 4.04004 15.2707C4.04004 15.049 4.12067 14.8609 4.26849 14.713L9.38187 9.48545C9.56329 9.29731 9.76486 9.20996 10 9.20996Z" fill="white"/>
</svg>
