<svg width="18" height="18" viewBox="0 0 18 18" fill="none" xmlns="http://www.w3.org/2000/svg">
<g clip-path="url(#clip0_575_1485)">
<path d="M7.81 10.53L5.9825 8.7025C5.82667 8.54667 5.62833 8.46875 5.3875 8.46875C5.14667 8.46875 4.94833 8.54667 4.7925 8.7025C4.63667 8.85833 4.55875 9.05667 4.55875 9.2975C4.55875 9.53833 4.63667 9.73667 4.7925 9.8925L7.215 12.315C7.385 12.485 7.58333 12.57 7.81 12.57C8.03667 12.57 8.235 12.485 8.405 12.315L13.2075 7.5125C13.3633 7.35667 13.4412 7.15833 13.4412 6.9175C13.4412 6.67667 13.3633 6.47833 13.2075 6.3225C13.0517 6.16667 12.8533 6.08875 12.6125 6.08875C12.3717 6.08875 12.1733 6.16667 12.0175 6.3225L7.81 10.53ZM9 17.5C7.82417 17.5 6.71917 17.2767 5.685 16.8302C4.65083 16.3837 3.75125 15.7782 2.98625 15.0137C2.22125 14.2487 1.61577 13.3492 1.1698 12.315C0.723833 11.2808 0.500567 10.1758 0.5 9C0.5 7.82417 0.723267 6.71917 1.1698 5.685C1.61633 4.65083 2.22182 3.75125 2.98625 2.98625C3.75125 2.22125 4.65083 1.61577 5.685 1.1698C6.71917 0.723833 7.82417 0.500567 9 0.5C10.1758 0.5 11.2808 0.723267 12.315 1.1698C13.3492 1.61633 14.2487 2.22182 15.0137 2.98625C15.7787 3.75125 16.3845 4.65083 16.831 5.685C17.2776 6.71917 17.5006 7.82417 17.5 9C17.5 10.1758 17.2767 11.2808 16.8302 12.315C16.3837 13.3492 15.7782 14.2487 15.0137 15.0137C14.2487 15.7787 13.3492 16.3845 12.315 16.831C11.2808 17.2776 10.1758 17.5006 9 17.5Z" fill="#0060F7"/>
</g>
<defs>
<clipPath id="clip0_575_1485">
<rect width="18" height="18" fill="white"/>
</clipPath>
</defs>
</svg>
