<svg width="37" height="20" viewBox="0 0 37 20" fill="none" xmlns="http://www.w3.org/2000/svg">
<path d="M19.2512 2.46622C19.2512 3.66854 18.2791 4.56389 16.8721 4.56389C15.5954 4.56389 14.6683 3.79905 14.5351 2.73391C14.5242 2.64661 14.5186 2.5573 14.5186 2.46622C14.5186 2.18853 14.5663 1.92841 14.6556 1.69172C14.9694 0.859973 15.7967 0.317383 16.8721 0.317383C18.2791 0.317383 19.2512 1.21273 19.2512 2.46622ZM19.2512 11.7005C19.2512 13.0812 18.1319 14.2005 16.7512 14.2005H15.1326V5.63831H19.2512V11.7005Z" fill="white"/>
<path fill-rule="evenodd" clip-rule="evenodd" d="M9.99078 19.6825C4.82335 19.6825 0.781494 15.4871 0.781494 10.0895C0.781494 4.71738 4.82335 0.547615 9.99078 0.547615L10.0419 4.02668C6.89544 4.02668 4.77219 6.50807 4.77219 10.0895C4.77219 13.6964 6.89544 16.2034 10.0419 16.2034C12.6512 16.2034 14.6722 14.3615 15.1326 11.7267H19.2512C18.6117 16.4848 14.8257 19.6825 9.99078 19.6825ZM14.5351 2.73391L15.1326 1.96947C14.977 1.87228 14.8179 1.77966 14.6556 1.69172C14.5663 1.92841 14.5186 2.18853 14.5186 2.46622C14.5186 2.5573 14.5242 2.64661 14.5351 2.73391Z" fill="white"/>
<path fill-rule="evenodd" clip-rule="evenodd" d="M11.8365 4.33669C11.282 4.13485 10.6787 4.02668 10.0419 4.02668L9.99078 0.547615C11.4926 0.547615 12.8932 0.85861 14.1298 1.42847L11.8365 4.33669Z" fill="white"/>
<path fill-rule="evenodd" clip-rule="evenodd" d="M9.99078 19.6825L26.8557 19.6822C32.5603 19.6822 36.2185 15.7427 36.2185 10.3962C36.2185 5.04969 32.6882 1.31481 26.8557 1.31481H20.9644V4.66597H24.8528H26.651C30.3092 4.66597 32.2278 6.73806 32.2278 10.3962C32.2278 14.2078 30.3092 16.3311 26.651 16.3311H24.2208H9.99078V19.6825Z" fill="white"/>
<path fill-rule="evenodd" clip-rule="evenodd" d="M24.8528 4.66597V14.2005H20.9644V4.66597H24.8528Z" fill="white"/>
</svg>
