<svg width="42" height="24" viewBox="0 0 42 24" fill="none" xmlns="http://www.w3.org/2000/svg">
<rect x="0.483328" y="0.15" width="41.0333" height="23.7" rx="11.85" stroke="#6C6868" stroke-width="0.3"/>
<path d="M21.5962 6.02052C21.5962 6.9748 20.8247 7.68544 19.708 7.68544C18.6946 7.68544 17.9588 7.07839 17.8531 6.23299C17.8444 6.1637 17.84 6.09281 17.84 6.02052C17.84 5.80012 17.8779 5.59367 17.9487 5.40581C18.1978 4.74565 18.8544 4.315 19.708 4.315C20.8247 4.315 21.5962 5.02564 21.5962 6.02052ZM21.5962 12.834C21.5962 14.2147 20.4769 15.334 19.0962 15.334H18.3273V8.5382H21.5962V12.834Z" fill="#0A0A0C"/>
<path fill-rule="evenodd" clip-rule="evenodd" d="M14.2463 19.685C10.1449 19.685 6.9369 16.3552 6.9369 12.0711C6.9369 7.80726 10.1449 4.49774 14.2463 4.49774L14.2869 7.25906C11.7895 7.25906 10.1043 9.22853 10.1043 12.0711C10.1043 14.9339 11.7895 16.9237 14.2869 16.9237C16.3579 16.9237 17.9619 15.4618 18.3273 13.3705H21.5963C21.0887 17.147 18.0837 19.685 14.2463 19.685Z" fill="#0A0A0C"/>
<path fill-rule="evenodd" clip-rule="evenodd" d="M15.7112 7.50511C15.2711 7.34491 14.7923 7.25906 14.2869 7.25906L14.2463 4.49774C15.4383 4.49774 16.5499 4.74457 17.5314 5.19686L15.7112 7.50511Z" fill="#0A0A0C"/>
<path fill-rule="evenodd" clip-rule="evenodd" d="M14.2463 19.685L27.6319 19.6848C32.1596 19.6848 35.0631 16.558 35.0631 12.3145C35.0631 8.07102 32.2612 5.10666 27.6319 5.10666H22.956V7.76646H26.0422H27.4694C30.3729 7.76646 31.8957 9.41107 31.8957 12.3145C31.8957 15.3398 30.3729 17.025 27.4694 17.025H25.5406H14.2463V19.685Z" fill="#0A0A0C"/>
<path fill-rule="evenodd" clip-rule="evenodd" d="M26.0422 7.76646V15.334H22.956V7.76646H26.0422Z" fill="#0A0A0C"/>
<path d="M21.5962 6.02052C21.5962 6.9748 20.8247 7.68544 19.708 7.68544C18.6946 7.68544 17.9588 7.07839 17.8531 6.23299C17.8444 6.1637 17.84 6.09281 17.84 6.02052C17.84 5.80012 17.8779 5.59367 17.9488 5.40581C18.1978 4.74565 18.8545 4.315 19.708 4.315C20.8247 4.315 21.5962 5.02564 21.5962 6.02052Z" fill="#0060F7"/>
</svg>
