<svg width="15" height="15" viewBox="0 0 15 15" fill="none" xmlns="http://www.w3.org/2000/svg">
<rect width="15" height="15" fill="#1E1E1E"/>
<g id="10-Property detail" clip-path="url(#clip0_1_2)">
<rect width="375" height="812" transform="translate(-272 -238.748)" fill="white"/>
<g id="Rectangle 187">
<mask id="path-1-inside-1_1_2" fill="white">
<path d="M-272 -150.748H103V49.252H-272V-150.748Z"/>
</mask>
<path d="M-272 -150.748H103V49.252H-272V-150.748Z" fill="#EDF4FF"/>
<path d="M103 48.252H-272V50.252H103V48.252Z" fill="#0060F7" mask="url(#path-1-inside-1_1_2)"/>
</g>
<g id="Component 2">
<g id="Button">
<g id="Frame 20554">
<rect x="-18.3543" y="-14.598" width="99.7" height="44.7" rx="3.85" fill="#FFEDED"/>
<g id="Frame 133">
<g id="raphael:edit" clip-path="url(#clip1_1_2)">
<path id="Vector" d="M4.02352 14.002C3.64158 14.002 3.31449 13.8658 3.04227 13.5936C2.77005 13.3214 2.63417 12.9945 2.63463 12.6131V3.58529C2.43787 3.58529 2.27283 3.51862 2.13949 3.38529C2.00616 3.25196 1.93972 3.08714 1.94019 2.89084C1.94019 2.69408 2.00685 2.52904 2.14019 2.39571C2.27352 2.26237 2.43834 2.19594 2.63463 2.1964H5.41241C5.41241 1.99964 5.47908 1.83459 5.61241 1.70126C5.74574 1.56793 5.91056 1.50149 6.10685 1.50196H8.88463C9.08139 1.50196 9.24644 1.56862 9.37977 1.70196C9.5131 1.83529 9.57954 2.0001 9.57907 2.1964H12.3569C12.5536 2.1964 12.7187 2.26307 12.852 2.3964C12.9853 2.52973 13.0518 2.69455 13.0513 2.89084C13.0513 3.0876 12.9846 3.25265 12.8513 3.38598C12.718 3.51932 12.5531 3.58575 12.3569 3.58529V12.6131C12.3569 12.995 12.2207 13.3221 11.9485 13.5943C11.6763 13.8665 11.3494 14.0024 10.968 14.002H4.02352ZM4.02352 3.58529V12.6131H10.968V3.58529H4.02352ZM5.41241 10.5297C5.41241 10.7265 5.47908 10.8915 5.61241 11.0249C5.74574 11.1582 5.91056 11.2246 6.10685 11.2242C6.30361 11.2242 6.46866 11.1575 6.60199 11.0242C6.73533 10.8908 6.80176 10.726 6.8013 10.5297V5.66862C6.8013 5.47186 6.73463 5.30682 6.6013 5.17348C6.46796 5.04015 6.30315 4.97371 6.10685 4.97418C5.91009 4.97418 5.74505 5.04084 5.61171 5.17418C5.47838 5.30751 5.41195 5.47232 5.41241 5.66862V10.5297ZM8.19019 10.5297C8.19019 10.7265 8.25685 10.8915 8.39019 11.0249C8.52352 11.1582 8.68833 11.2246 8.88463 11.2242C9.08139 11.2242 9.24644 11.1575 9.37977 11.0242C9.5131 10.8908 9.57954 10.726 9.57907 10.5297V5.66862C9.57907 5.47186 9.51241 5.30682 9.37907 5.17348C9.24574 5.04015 9.08093 4.97371 8.88463 4.97418C8.68787 4.97418 8.52282 5.04084 8.38949 5.17418C8.25616 5.30751 8.18972 5.47232 8.19019 5.66862V10.5297Z" fill="#F51F1F"/>
</g>
</g>
<rect x="-18.3543" y="-14.598" width="99.7" height="44.7" rx="3.85" stroke="#B3BAC6" stroke-width="0.3"/>
</g>
</g>
</g>
</g>
<defs>
<clipPath id="clip0_1_2">
<rect width="375" height="812" fill="white" transform="translate(-272 -238.748)"/>
</clipPath>
<clipPath id="clip1_1_2">
<rect width="14" height="14" fill="white" transform="translate(0.495728 0.751953)"/>
</clipPath>
</defs>
</svg>
