<svg width="34" height="35" viewBox="0 0 34 35" fill="none" xmlns="http://www.w3.org/2000/svg">
<rect x="0.15" y="0.55625" width="33.7" height="33.7" rx="3.85" fill="white" stroke="#B3BAC6" stroke-width="0.3"/>
<path d="M13.118 23.2461C12.7361 23.2461 12.409 23.11 12.1368 22.8378C11.8645 22.5655 11.7287 22.2387 11.7291 21.8572V12.8294C11.5324 12.8294 11.3673 12.7628 11.234 12.6294C11.1006 12.4961 11.0342 12.3313 11.0347 12.135C11.0347 11.9382 11.1013 11.7732 11.2347 11.6398C11.368 11.5065 11.5328 11.4401 11.7291 11.4405H14.5069C14.5069 11.2438 14.5736 11.0787 14.7069 10.9454C14.8402 10.8121 15.005 10.7456 15.2013 10.7461H17.9791C18.1759 10.7461 18.3409 10.8128 18.4743 10.9461C18.6076 11.0794 18.674 11.2442 18.6736 11.4405H21.4513C21.6481 11.4405 21.8131 11.5072 21.9465 11.6405C22.0798 11.7739 22.1462 11.9387 22.1458 12.135C22.1458 12.3317 22.0791 12.4968 21.9458 12.6301C21.8124 12.7635 21.6476 12.8299 21.4513 12.8294V21.8572C21.4513 22.2391 21.3152 22.5662 21.043 22.8385C20.7708 23.1107 20.4439 23.2466 20.0624 23.2461H13.118ZM13.118 12.8294V21.8572H20.0624V12.8294H13.118ZM14.5069 19.7739C14.5069 19.9706 14.5736 20.1357 14.7069 20.269C14.8402 20.4023 15.005 20.4688 15.2013 20.4683C15.3981 20.4683 15.5631 20.4016 15.6965 20.2683C15.8298 20.135 15.8962 19.9702 15.8958 19.7739V14.9128C15.8958 14.716 15.8291 14.551 15.6958 14.4176C15.5624 14.2843 15.3976 14.2179 15.2013 14.2183C15.0046 14.2183 14.8395 14.285 14.7062 14.4183C14.5729 14.5517 14.5064 14.7165 14.5069 14.9128V19.7739ZM17.2847 19.7739C17.2847 19.9706 17.3513 20.1357 17.4847 20.269C17.618 20.4023 17.7828 20.4688 17.9791 20.4683C18.1759 20.4683 18.3409 20.4016 18.4743 20.2683C18.6076 20.135 18.674 19.9702 18.6736 19.7739V14.9128C18.6736 14.716 18.6069 14.551 18.4736 14.4176C18.3402 14.2843 18.1754 14.2179 17.9791 14.2183C17.7824 14.2183 17.6173 14.285 17.484 14.4183C17.3506 14.5517 17.2842 14.7165 17.2847 14.9128V19.7739Z" fill="#1A4563"/>
</svg>
