<svg width="37" height="24" viewBox="0 0 37 24" fill="none" xmlns="http://www.w3.org/2000/svg">
<rect x="0.35" y="0.1" width="35.8" height="23.8" rx="2.9" fill="white" stroke="black" stroke-width="0.2"/>
<path d="M16.7622 9.85706C16.7767 9.8063 16.7913 9.75188 16.9981 9.75188C17.6402 9.75188 17.7634 10.198 17.7634 10.5644C17.7634 10.7856 17.6437 11.9028 16.5011 11.9028C16.3307 11.9028 16.2435 11.8811 16.2435 11.7614C16.2435 11.7033 16.2908 11.5437 16.3233 11.424L16.7622 9.85706ZM16.0986 9.70096C16.2836 9.71549 16.3779 9.73368 16.3779 9.85706C16.3779 9.92968 16.3488 10.042 16.338 10.0819L15.8919 11.6853C15.8303 11.9102 15.7759 11.921 15.5981 11.9536V12.0117H16.5158C17.5823 12.0117 18.1662 11.3406 18.1662 10.608C18.1662 10.2272 17.9414 9.64303 17.1071 9.64303H16.0988V9.70096H16.0986ZM18.9168 11.6381C18.7754 11.8521 18.6158 12.0516 18.4127 12.0516C18.2422 12.0516 18.2422 11.892 18.2422 11.8267C18.2422 11.6563 18.5287 10.7566 18.5287 10.6551C18.5287 10.5789 18.4996 10.5607 18.3001 10.5607V10.5026C18.438 10.4955 18.739 10.4374 18.8804 10.412L18.8913 10.4192L18.5721 11.5871C18.5576 11.6379 18.514 11.783 18.514 11.8265C18.514 11.8519 18.5394 11.881 18.5721 11.881C18.6157 11.881 18.7208 11.8083 18.8696 11.598L18.9168 11.6381ZM18.8444 10.0238C18.7537 10.0238 18.6703 9.96207 18.6703 9.83519C18.6703 9.70831 18.7537 9.63936 18.8407 9.63936C18.9604 9.63936 19.022 9.75906 19.022 9.83886C19.022 9.91132 18.9639 10.0238 18.8444 10.0238ZM20.6109 11.6344C20.4296 11.8775 20.3025 12.0442 20.1067 12.0442C19.9397 12.0442 19.9326 11.9354 19.9326 11.8302C19.9326 11.7432 20.201 10.8581 20.201 10.713C20.201 10.6477 20.1793 10.597 20.1104 10.597C19.9362 10.597 19.7077 10.909 19.5771 11.112C19.4103 11.3623 19.3631 11.5184 19.2145 12.0115H18.9426C19.0549 11.6017 19.298 10.7529 19.298 10.6766C19.298 10.6222 19.2618 10.5823 19.0659 10.5823V10.5242C19.2618 10.488 19.4576 10.4517 19.6536 10.4118L19.6644 10.419L19.4322 11.1771L19.4394 11.1843C19.6098 10.9158 19.9436 10.4117 20.2446 10.4117C20.4115 10.4117 20.4948 10.4986 20.4948 10.6511C20.4948 10.807 20.2047 11.703 20.2047 11.8118C20.2047 11.8663 20.2554 11.8736 20.2628 11.8736C20.3354 11.8736 20.4261 11.7576 20.5603 11.587L20.6109 11.6344ZM21.0751 11.0975C21.2094 10.7746 21.456 10.4955 21.6519 10.4955C21.7426 10.4955 21.7788 10.5644 21.7788 10.6405C21.7788 10.6696 21.7608 11.1048 21.0135 11.2572L21.0751 11.0975ZM21.8222 11.6162C21.6409 11.7649 21.4885 11.8883 21.2927 11.8883C21.1403 11.8883 20.9518 11.8048 20.9518 11.5581C20.9518 11.4855 20.97 11.413 20.988 11.3369L21.0895 11.3224C21.6772 11.2389 22.0181 10.9451 22.0181 10.6586C22.0181 10.499 21.9055 10.4118 21.7206 10.4118C21.2092 10.4118 20.6361 11.0212 20.6361 11.5399C20.6361 11.7684 20.7521 12.0513 21.1331 12.0513C21.4959 12.0513 21.8259 11.7175 21.8658 11.6594L21.8222 11.6162ZM22.0436 12.0115L22.3374 10.9524C22.3737 10.8182 22.3954 10.695 22.3954 10.6622C22.3954 10.6115 22.3773 10.5536 22.2648 10.5536C22.2249 10.5536 22.185 10.5644 22.1451 10.5716V10.51C22.3301 10.4846 22.5441 10.4374 22.7074 10.412L22.7182 10.4192L22.5406 11.1411L22.5478 11.1482L22.5768 11.0756C22.6965 10.8362 22.9723 10.4118 23.2007 10.4118C23.2842 10.4118 23.3749 10.4662 23.3749 10.5895C23.3749 10.7781 23.2443 10.7781 23.2044 10.7781C23.0485 10.7781 23.1029 10.6476 23.0157 10.6476C22.9034 10.6476 22.6857 11.0502 22.6566 11.1047C22.5187 11.3658 22.468 11.529 22.3192 12.0115H22.0436ZM23.1897 11.482C23.2151 11.6416 23.2732 11.9753 23.567 11.9753C23.77 11.9753 23.8281 11.8012 23.8281 11.6815C23.8281 11.4421 23.3966 11.0938 23.3966 10.8145C23.3966 10.7021 23.4473 10.4118 23.8318 10.4118C23.9951 10.4118 24.0675 10.4736 24.1764 10.4736C24.2381 10.4736 24.2598 10.4374 24.2779 10.4082H24.3286L24.256 10.9125H24.1979C24.1799 10.7057 24.0927 10.4953 23.857 10.4953C23.7772 10.4953 23.6612 10.5279 23.6612 10.7057C23.6612 10.9342 24.1036 11.2571 24.1036 11.5653C24.1036 11.9606 23.7662 12.0514 23.5632 12.0514C23.4543 12.0514 23.3092 11.9825 23.2041 11.9825C23.1533 11.9825 23.1388 12.0187 23.1171 12.0588H23.059L23.1316 11.482H23.1897ZM27.3285 10.314C27.3213 10.2125 27.2886 9.72634 26.7699 9.72634C26.0445 9.72634 25.6744 10.6041 25.6744 11.1374C25.6744 11.6127 25.8739 11.9137 26.3056 11.9137C26.7155 11.9137 26.9694 11.6561 27.1435 11.4856L27.2051 11.5364C27.0709 11.696 26.748 12.0768 26.2185 12.0768C25.7976 12.0768 25.2682 11.8229 25.2682 11.0975C25.2682 10.3975 25.9101 9.59578 26.7409 9.59578C27.002 9.59578 27.2233 9.68276 27.3066 9.68276C27.4118 9.68276 27.4335 9.63919 27.4517 9.60296H27.5278L27.3936 10.3248L27.3285 10.314ZM27.9958 11.598C27.8108 11.8773 27.6693 12.0514 27.4444 12.0514C27.2848 12.0514 27.2702 11.928 27.2702 11.8265C27.2702 11.7502 27.7963 9.85689 27.7963 9.78076C27.7963 9.6866 27.6439 9.6866 27.5495 9.69011V9.63201C27.7382 9.61031 27.9269 9.57759 28.1153 9.53418L28.1335 9.55221L27.5858 11.6524C27.5786 11.6851 27.5495 11.783 27.5495 11.8229C27.5495 11.8446 27.5496 11.8955 27.604 11.8955C27.6946 11.8955 27.7709 11.794 27.9486 11.5653L27.9958 11.598ZM29.6716 11.6199C29.4431 11.9499 29.3487 12.0442 29.1674 12.0442C29.0042 12.0442 28.997 11.91 28.997 11.8556C28.997 11.7903 29.0696 11.4856 29.1529 11.1881H29.1421C28.8953 11.598 28.627 12.0514 28.3005 12.0514C28.1699 12.0514 28.101 11.997 28.101 11.8374C28.101 11.6778 28.3766 10.7636 28.3766 10.6658C28.3766 10.5606 28.3077 10.5606 28.1591 10.5606V10.51C28.3422 10.4878 28.5238 10.4551 28.7032 10.412L28.714 10.4192L28.3838 11.7359C28.3729 11.783 28.3838 11.8591 28.4601 11.8591C28.616 11.8591 28.8446 11.5182 28.9679 11.3295C29.1457 11.0611 29.2255 10.8325 29.3669 10.4444H29.6354L29.3489 11.529C29.3272 11.6017 29.28 11.7613 29.28 11.8157C29.28 11.8337 29.2835 11.8738 29.3235 11.8738C29.3925 11.8738 29.494 11.7467 29.621 11.5871L29.6716 11.6199ZM30.9883 10.898C30.9883 11.2027 30.6438 11.9681 30.1468 11.9681C29.9763 11.9681 29.9763 11.8738 29.9763 11.8484C29.9763 11.4676 30.3246 10.5896 30.7236 10.5896C30.9521 10.5896 30.9883 10.7856 30.9883 10.898ZM29.98 9.67926C30.1903 9.68293 30.2157 9.70096 30.2157 9.78443C30.2157 9.83519 30.1832 9.92584 30.1578 10.0275L29.6644 11.8447V11.8593C29.6644 11.9391 29.9438 12.0516 30.1361 12.0516C30.691 12.0516 31.2967 11.424 31.2967 10.8509C31.2967 10.5861 31.1191 10.412 30.8651 10.412C30.5388 10.412 30.3102 10.7494 30.1905 10.9379L30.1833 10.9344C30.3067 10.5243 30.4735 9.84971 30.5533 9.55238L30.5352 9.53435C30.3466 9.57057 30.1616 9.59595 29.9803 9.61782V9.67926H29.98ZM15.5993 14.78C15.7771 14.7473 15.8315 14.7364 15.8931 14.5116L16.3392 12.9082C16.3609 12.8356 16.3791 12.7486 16.3791 12.6833C16.3791 12.5564 16.2812 12.5456 16.1251 12.5274V12.4693H17.0211V12.5274C16.8435 12.5601 16.7854 12.5673 16.7236 12.7958L16.2776 14.4027C16.2559 14.4753 16.2377 14.5478 16.2377 14.6349C16.2377 14.751 16.3283 14.762 16.4844 14.78V14.8381H15.5993V14.78Z" fill="black"/>
<path d="M18.229 14.4628C18.0475 14.7059 17.9207 14.8728 17.7247 14.8728C17.5579 14.8728 17.5505 14.764 17.5505 14.6588C17.5505 14.5718 17.819 13.6867 17.819 13.5416C17.819 13.4763 17.7973 13.4256 17.7283 13.4256C17.5542 13.4256 17.3257 13.7376 17.1951 13.9406C17.0282 14.1909 16.9811 14.3468 16.8323 14.8401H16.5604C16.6727 14.4303 16.9158 13.5813 16.9158 13.5052C16.9158 13.4508 16.8796 13.4109 16.6837 13.4109V13.3528C16.8796 13.3166 17.0754 13.2802 17.2714 13.2403L17.2822 13.2476L17.0502 14.0057L17.0574 14.0131C17.2278 13.7446 17.5615 13.2404 17.8626 13.2404C18.0295 13.2404 18.113 13.3276 18.113 13.48C18.113 13.6359 17.8228 14.5319 17.8228 14.6408C17.8228 14.6952 17.8736 14.7024 17.8809 14.7024C17.9535 14.7024 18.0442 14.5864 18.1783 14.4159L18.229 14.4628ZM19.1975 13.4035H18.8928L18.5736 14.6114C18.5699 14.6223 18.5699 14.6294 18.5699 14.6405C18.5699 14.673 18.5879 14.7021 18.628 14.7021C18.7006 14.7021 18.8275 14.5316 18.9182 14.4156L18.9652 14.441C18.7803 14.7203 18.6389 14.8799 18.4502 14.8799C18.3776 14.8799 18.2761 14.8436 18.2761 14.7348C18.2761 14.6804 18.345 14.4592 18.3596 14.4011L18.6207 13.4035H18.3522C18.3487 13.3818 18.3487 13.3636 18.3596 13.3454C18.3813 13.3127 18.4828 13.2873 18.5445 13.2548C18.6642 13.193 18.8384 13.0299 18.9399 12.9029C18.9544 12.8848 18.9689 12.8521 19.0015 12.8595C19.0269 12.8521 19.0342 12.8848 19.0269 12.9139L18.9253 13.2875H19.2155L19.1975 13.4035ZM19.5202 13.9259C19.6544 13.603 19.9012 13.3237 20.097 13.3237C20.1876 13.3237 20.224 13.3927 20.224 13.4688C20.224 13.4979 20.2058 13.9331 19.4587 14.0855L19.5202 13.9259ZM20.2674 14.4446C20.0861 14.5934 19.9337 14.7166 19.7379 14.7166C19.5855 14.7166 19.397 14.6331 19.397 14.3865C19.397 14.3139 19.415 14.2415 19.4332 14.1653L19.5347 14.1508C20.1224 14.0673 20.4633 13.7735 20.4633 13.4868C20.4633 13.3272 20.3507 13.2401 20.1658 13.2401C19.6544 13.2401 19.0811 13.8495 19.0811 14.3682C19.0811 14.5967 19.1971 14.8795 19.5781 14.8795C19.9409 14.8795 20.2709 14.5458 20.3108 14.4879L20.2674 14.4446ZM20.5613 14.84L20.8551 13.7808C20.8913 13.6466 20.9132 13.5232 20.9132 13.4907C20.9132 13.4399 20.895 13.3818 20.7826 13.3818C20.7427 13.3818 20.7028 13.3927 20.6629 13.4V13.3383C20.8479 13.3129 21.0619 13.2656 21.2252 13.2403L21.2361 13.2476L21.0584 13.9695L21.0656 13.9767L21.0947 13.904C21.2144 13.6646 21.49 13.2401 21.7186 13.2401C21.802 13.2401 21.8927 13.2945 21.8927 13.4179C21.8927 13.6065 21.7621 13.6065 21.7222 13.6065C21.5663 13.6065 21.6207 13.476 21.5337 13.476C21.4212 13.476 21.2035 13.8787 21.1746 13.9331C21.0367 14.1942 20.986 14.3575 20.8372 14.84H20.5613Z" fill="black"/>
<path d="M23.3469 14.4618C23.1656 14.7049 23.0386 14.8718 22.8428 14.8718C22.6758 14.8718 22.6686 14.763 22.6686 14.6578C22.6686 14.5708 22.9371 13.6857 22.9371 13.5406C22.9371 13.4753 22.9154 13.4246 22.8464 13.4246C22.6725 13.4246 22.4438 13.7366 22.3132 13.9396C22.1464 14.1899 22.0992 14.3458 21.9504 14.8391H21.6785C21.791 14.4293 22.0339 13.5803 22.0339 13.5042C22.0339 13.4498 21.9977 13.4099 21.8017 13.4099V13.3518C21.9975 13.3156 22.1935 13.2792 22.3893 13.2393L22.4002 13.2466L22.168 14.0047L22.1751 14.0121C22.3456 13.7436 22.6793 13.2394 22.9805 13.2394C23.1474 13.2394 23.2307 13.3266 23.2307 13.479C23.2307 13.6349 22.9406 14.5309 22.9406 14.6398C22.9406 14.6942 22.9913 14.7014 22.9987 14.7014C23.0713 14.7014 23.162 14.5854 23.2962 14.4149L23.3469 14.4618Z" fill="black"/>
<path d="M23.6262 14.4436C23.6262 14.1171 23.9527 13.3192 24.3771 13.3192C24.4823 13.3192 24.584 13.3882 24.584 13.5623C24.584 13.9177 24.2285 14.7012 23.8439 14.7012C23.7459 14.7012 23.6262 14.636 23.6262 14.4436ZM24.9429 14.44C24.7796 14.5996 24.707 14.6904 24.6527 14.6904C24.6237 14.6904 24.602 14.6687 24.602 14.6431C24.602 14.5308 24.9357 13.2937 24.9466 13.2503L24.9212 13.2394L24.7 13.2648L24.6891 13.2757L24.6529 13.4354H24.6457C24.6349 13.3338 24.5152 13.2394 24.3593 13.2394C23.8768 13.2394 23.3218 13.9177 23.3218 14.451C23.3218 14.5562 23.3327 14.8789 23.6955 14.8789C23.9132 14.8789 24.1053 14.77 24.4063 14.3276L24.4135 14.3348C24.3554 14.556 24.3374 14.6358 24.3374 14.7193C24.3374 14.7809 24.3374 14.8752 24.4898 14.8752C24.6457 14.8752 24.7691 14.7446 24.9868 14.4762L24.9429 14.44ZM26.0202 13.4025H25.7155L25.3963 14.6104C25.3927 14.6213 25.3927 14.6284 25.3927 14.6395C25.3927 14.672 25.4109 14.7011 25.4508 14.7011C25.5234 14.7011 25.6503 14.5306 25.7409 14.4146L25.788 14.44C25.603 14.7193 25.4616 14.8789 25.273 14.8789C25.2003 14.8789 25.0988 14.8426 25.0988 14.7338C25.0988 14.6794 25.1678 14.4582 25.1823 14.4001L25.4434 13.4025H25.175C25.1715 13.3808 25.1715 13.3626 25.1823 13.3444C25.204 13.3117 25.3055 13.2863 25.3673 13.2538C25.487 13.192 25.6611 13.0289 25.7626 12.9019C25.7771 12.8838 25.7917 12.8511 25.8244 12.8585C25.8498 12.8511 25.8569 12.8838 25.8498 12.9129L25.7483 13.2865H26.0384L26.0202 13.4025ZM26.7167 14.4655C26.5752 14.6795 26.4157 14.879 26.2125 14.879C26.0421 14.879 26.0421 14.7194 26.0421 14.6541C26.0421 14.4837 26.3286 13.5842 26.3286 13.4825C26.3286 13.4062 26.2995 13.3882 26.1 13.3882V13.3301C26.2378 13.3229 26.5388 13.2648 26.6803 13.2394L26.6912 13.2468L26.372 14.4147C26.3575 14.4655 26.3139 14.6106 26.3139 14.6541C26.3139 14.6795 26.3393 14.7086 26.372 14.7086C26.4155 14.7086 26.5207 14.636 26.6693 14.4256L26.7167 14.4655ZM26.6441 12.8513C26.5534 12.8513 26.47 12.7897 26.47 12.6626C26.47 12.5357 26.5534 12.4668 26.6404 12.4668C26.7601 12.4668 26.8217 12.5865 26.8217 12.6663C26.8219 12.7388 26.7638 12.8513 26.6441 12.8513ZM27.9029 13.3156C28.0768 13.3156 28.1568 13.4752 28.1568 13.6638C28.1568 14.052 27.8703 14.8027 27.4568 14.8027C27.2755 14.8027 27.1666 14.6722 27.1666 14.4653C27.1665 14.0374 27.4965 13.3156 27.9029 13.3156ZM27.9283 13.2393C27.3987 13.2393 26.8618 13.8234 26.8618 14.3565C26.8618 14.6575 27.0251 14.8787 27.4096 14.8787C27.9645 14.8787 28.4615 14.2223 28.4615 13.776C28.4613 13.5368 28.349 13.2393 27.9283 13.2393Z" fill="black"/>
<path d="M30.043 14.4625C29.8617 14.7055 29.7346 14.8725 29.5388 14.8725C29.3719 14.8725 29.3647 14.7636 29.3647 14.6585C29.3647 14.5715 29.6331 13.6863 29.6331 13.5412C29.6331 13.476 29.6114 13.4252 29.5425 13.4252C29.3684 13.4252 29.1398 13.7372 29.0092 13.9403C28.8423 14.1905 28.7952 14.3464 28.6465 14.8398H28.3745C28.487 14.4299 28.7299 13.581 28.7299 13.5049C28.7299 13.4504 28.6937 13.4105 28.4977 13.4105V13.3524C28.6936 13.3162 28.8895 13.2798 29.0854 13.2399L29.0962 13.2473L28.864 14.0054L28.8712 14.0127C29.0416 13.7443 29.3754 13.2401 29.6765 13.2401C29.8435 13.2401 29.9268 13.3272 29.9268 13.4796C29.9268 13.6356 29.6366 14.5316 29.6366 14.6404C29.6366 14.6949 29.6874 14.702 29.6947 14.702C29.7674 14.702 29.858 14.586 29.9922 14.4156L30.043 14.4625ZM30.3947 14.4443C30.3947 14.1177 30.7213 13.3199 31.1457 13.3199C31.2509 13.3199 31.3524 13.3888 31.3524 13.563C31.3524 13.9184 30.9969 14.7019 30.6124 14.7019C30.5145 14.7019 30.3947 14.6366 30.3947 14.4443ZM31.7115 14.4406C31.5482 14.6002 31.4756 14.691 31.4213 14.691C31.3923 14.691 31.3706 14.6693 31.3706 14.6438C31.3706 14.5314 31.7043 13.2943 31.7151 13.2509L31.6898 13.2401L31.4684 13.2655L31.4575 13.2763L31.4213 13.4361H31.4141C31.4033 13.3344 31.2836 13.2401 31.1277 13.2401C30.6452 13.2401 30.0902 13.9184 30.0902 14.4516C30.0902 14.5568 30.1011 14.8795 30.4639 14.8795C30.6814 14.8795 30.8737 14.7707 31.1747 14.3282L31.1819 14.3354C31.1238 14.5566 31.1058 14.6364 31.1058 14.7199C31.1058 14.7815 31.1058 14.8758 31.258 14.8758C31.4141 14.8758 31.5373 14.7453 31.755 14.4768L31.7115 14.4406ZM32.5349 14.4261C32.3499 14.7054 32.2085 14.8795 31.9836 14.8795C31.824 14.8795 31.8095 14.7563 31.8095 14.6546C31.8095 14.5785 32.3354 12.685 32.3354 12.6088C32.3354 12.5145 32.1829 12.5145 32.0886 12.5182V12.4601C32.2789 12.4381 32.4679 12.4054 32.6546 12.3621L32.6726 12.3803L32.1248 14.4805C32.1177 14.5131 32.0886 14.6111 32.0886 14.651C32.0886 14.6727 32.0886 14.7236 32.143 14.7236C32.2337 14.7236 32.3098 14.6221 32.4876 14.3935L32.5349 14.4261ZM33.0435 12.4439H33.0808C33.1153 12.4439 33.1434 12.4611 33.1434 12.5128C33.1434 12.5609 33.1262 12.5953 33.0816 12.5953H33.0435V12.4439ZM32.942 12.4402C32.9864 12.4447 32.9856 12.4439 32.9856 12.4838V12.7005C32.9856 12.7394 32.9864 12.7394 32.942 12.7441V12.7576H33.0871V12.7441C33.0419 12.7396 33.0435 12.7396 33.0435 12.7005V12.6117H33.0861C33.1432 12.696 33.1659 12.7576 33.195 12.7576H33.2521V12.7494C33.2347 12.7367 33.2077 12.706 33.1841 12.6733L33.1324 12.6025C33.1733 12.589 33.204 12.5544 33.204 12.5083C33.204 12.4521 33.1541 12.4267 33.1006 12.4267H32.9419V12.4402H32.942ZM33.3936 12.5972C33.3936 12.4257 33.2604 12.2861 33.088 12.2861C33.0472 12.286 33.0068 12.294 32.9691 12.3096C32.9314 12.3252 32.8972 12.3482 32.8684 12.3771C32.8397 12.406 32.8169 12.4404 32.8015 12.4781C32.7862 12.5159 32.7784 12.5564 32.7788 12.5972C32.7788 12.7684 32.914 12.9063 33.088 12.9063C33.2604 12.9063 33.3936 12.7684 33.3936 12.5972ZM33.3437 12.5972C33.3437 12.7412 33.2304 12.8683 33.088 12.8683C32.9429 12.8683 32.8287 12.7412 32.8287 12.5972C32.8287 12.4529 32.942 12.3242 33.088 12.3242C33.2314 12.3242 33.3437 12.4521 33.3437 12.5972Z" fill="black"/>
<path d="M11.0923 15.795C13.1673 15.8052 14.8688 14.1035 14.8543 12.033C14.8686 9.90594 13.1673 8.20441 11.0923 8.20508H6.93444C4.83457 8.20458 3.13303 9.90594 3.10632 12.033C3.13303 14.1035 4.83457 15.805 6.93427 15.795H11.0923Z" fill="#2D4F9E"/>
<path d="M3.37042 12.0336C3.39112 10.0491 4.97696 8.46307 6.93443 8.46975C8.88972 8.46307 10.4757 10.0491 10.4983 12.0338C10.4757 13.9618 8.88972 15.5478 6.93443 15.5316C4.97696 15.5478 3.39112 13.9617 3.37042 12.0336Z" fill="white"/>
<path d="M6.14225 9.9209C5.32204 10.291 4.70667 11.0824 4.69031 12.0328C4.70667 12.9475 5.29266 13.7532 6.14225 14.0787V9.9209ZM7.72625 14.0789C8.57385 13.7534 9.15967 12.9475 9.1782 12.033C9.15967 11.062 8.57368 10.2561 7.72625 9.92107V14.0789Z" fill="#2D4F9E"/>
</svg>
