<svg width="37" height="24" viewBox="0 0 37 24" fill="none" xmlns="http://www.w3.org/2000/svg">
<rect x="0.705225" y="0.1" width="35.8" height="23.8" fill="white" stroke="black" stroke-width="0.2"/>
<mask id="mask0_3457_669" style="mask-type:alpha" maskUnits="userSpaceOnUse" x="0" y="0" width="37" height="24">
<rect x="0.605225" width="36" height="24" fill="white"/>
</mask>
<g mask="url(#mask0_3457_669)">
<path d="M39.9812 11.5625C31.1074 18.9943 12.8052 23.9026 4.76337 25.4277L39.9812 26.537V11.5625Z" fill="#F98425"/>
</g>
<rect x="0.705225" y="0.1" width="35.8" height="23.8" stroke="black" stroke-width="0.2"/>
<g clip-path="url(#clip0_3457_669)">
<path d="M19.3903 9.66797C18.0788 9.66797 17.0147 10.6925 17.0147 11.957C17.0147 13.3015 18.0326 14.3064 19.3903 14.3064C20.7142 14.3064 21.7595 13.2881 21.7595 11.9834C21.7595 10.6865 20.7212 9.66797 19.3903 9.66797Z" fill="url(#paint0_linear_3457_669)"/>
<path d="M5.90383 9.75183H4.62671V14.2063H5.89715C6.57123 14.2063 7.05872 14.0467 7.48637 13.6924C7.99376 13.2716 8.29465 12.637 8.29465 11.9812C8.29465 10.6661 7.31219 9.75183 5.90383 9.75183ZM6.91948 13.0974C6.6449 13.3452 6.29134 13.4523 5.72948 13.4523H5.49608V10.5061H5.72948C6.29134 10.5061 6.63133 10.6064 6.91948 10.8666C7.21999 11.1338 7.3992 11.5476 7.3992 11.9749C7.3992 12.4031 7.21999 12.8313 6.91948 13.0974ZM8.69573 14.2063H9.56373V9.75183H8.69584V14.2063H8.69573ZM11.6887 11.4605C11.167 11.2673 11.0135 11.1398 11.0135 10.9002C11.0135 10.6194 11.2868 10.4059 11.6615 10.4059C11.922 10.4059 12.1357 10.5127 12.3635 10.7657L12.8171 10.1722C12.443 9.84425 11.9956 9.67751 11.5075 9.67751C10.7202 9.67751 10.1185 10.2255 10.1185 10.9528C10.1185 11.5678 10.3989 11.8815 11.214 12.1761C11.5549 12.2957 11.7281 12.3755 11.8152 12.43C11.9888 12.5436 12.076 12.7034 12.076 12.8902C12.076 13.2515 11.7885 13.5183 11.4006 13.5183C10.9864 13.5183 10.6528 13.3114 10.4523 12.9241L9.89186 13.4657C10.2918 14.0527 10.7729 14.314 11.4348 14.314C12.3365 14.314 12.9707 13.7121 12.9707 12.8507C12.9707 12.1425 12.6775 11.8217 11.6887 11.4605ZM13.2444 11.9813C13.2444 13.2919 14.2734 14.3069 15.5963 14.3069C15.9703 14.3069 16.2909 14.2329 16.6854 14.0466V13.0241C16.3376 13.3718 16.0303 13.5117 15.636 13.5117C14.7612 13.5117 14.1395 12.877 14.1395 11.9749C14.1395 11.1203 14.7806 10.4456 15.5963 10.4456C16.0098 10.4456 16.3243 10.5924 16.6854 10.9464V9.92404C16.3047 9.73099 15.9902 9.65137 15.6162 9.65137C14.3 9.65137 13.2444 10.6869 13.2444 11.9813ZM23.7254 12.7441L22.5363 9.75183H21.5877L23.4788 14.3201H23.946L25.8701 9.75177H24.9285L23.7254 12.7441ZM26.2651 14.2064H28.7296V13.4523H27.1333V12.2491H28.6685V11.4948H27.1333V10.5061H28.7296V9.75188H26.265V14.2064H26.2651ZM32.1688 11.0665C32.1688 10.232 31.5951 9.75183 30.5926 9.75183H29.3032V14.2063H30.1724V12.416H30.2862L31.488 14.2063H32.5568L31.1531 12.33C31.8087 12.1959 32.1688 11.7482 32.1688 11.0665ZM30.4253 11.8021H30.1724V10.4523H30.4392C30.9814 10.4523 31.2752 10.6801 31.2752 11.1136C31.2752 11.5608 30.9814 11.8021 30.4253 11.8021Z" fill="#0B1015"/>
</g>
<defs>
<linearGradient id="paint0_linear_3457_669" x1="109.13" y1="51.7061" x2="429.734" y2="390.323" gradientUnits="userSpaceOnUse">
<stop stop-color="#F34F26"/>
<stop offset="1" stop-color="#F69E35"/>
</linearGradient>
<clipPath id="clip0_3457_669">
<rect width="28" height="4.70312" fill="white" transform="translate(4.60522 9.64844)"/>
</clipPath>
</defs>
</svg>
