<svg width="17" height="17" viewBox="0 0 17 17" fill="none" xmlns="http://www.w3.org/2000/svg">
<g clip-path="url(#clip0_175_1485)">
<path d="M11.8333 6.90771C13.2833 6.91571 14.0686 6.98038 14.5806 7.49238C15.1666 8.07838 15.1666 9.02105 15.1666 10.9064V11.573C15.1666 13.4591 15.1666 14.4017 14.5806 14.9877C13.9953 15.5731 13.052 15.5731 11.1666 15.5731H5.83331C3.94798 15.5731 3.00465 15.5731 2.41931 14.9877C1.83331 14.4011 1.83331 13.4591 1.83331 11.573V10.9064C1.83331 9.02105 1.83331 8.07838 2.41931 7.49238C2.93131 6.98038 3.71665 6.91571 5.16665 6.90771" stroke="#0060F7" stroke-width="1.5" stroke-linecap="round"/>
<path d="M8.5 10.9064V2.23975M8.5 2.23975L10.5 4.57308M8.5 2.23975L6.5 4.57308" stroke="#0060F7" stroke-width="1.5" stroke-linecap="round" stroke-linejoin="round"/>
</g>
<defs>
<clipPath id="clip0_175_1485">
<rect width="16" height="16" fill="white" transform="translate(0.5 0.90625)"/>
</clipPath>
</defs>
</svg>
