<svg width="14" height="10" viewBox="0 0 14 10" fill="none" xmlns="http://www.w3.org/2000/svg">
<path d="M7.00012 9.02881C6.72391 9.02881 6.48716 8.92622 6.28197 8.70525L0.268443 2.56545C0.0948238 2.39183 0.000122609 2.17086 0.000122612 1.91043C0.000122618 1.38958 0.410495 0.971312 0.939243 0.971312C1.19967 0.971312 1.42853 1.0818 1.61004 1.25542L7.00012 6.78755L12.3902 1.25542C12.5717 1.0818 12.8085 0.971312 13.061 0.971312C13.5898 0.971312 14.0001 1.38958 14.0001 1.91043C14.0001 2.17086 13.9054 2.39183 13.7318 2.56545L7.72617 8.70525C7.51309 8.92622 7.27633 9.02881 7.00012 9.02881Z" fill="#1A4563"/>
</svg>
