<svg width="15" height="15" viewBox="0 0 15 15" fill="none" xmlns="http://www.w3.org/2000/svg">
<g clip-path="url(#clip0_120_283)">
<path d="M12.0043 12.252V5.12695L8.62927 1.75195H4.50427C4.10645 1.75195 3.72492 1.90999 3.44361 2.19129C3.16231 2.4726 3.00427 2.85413 3.00427 3.25195V12.252C3.00427 12.6498 3.16231 13.0313 3.44361 13.3126C3.72492 13.5939 4.10645 13.752 4.50427 13.752H10.5043C10.9021 13.752 11.2836 13.5939 11.5649 13.3126C11.8462 13.0313 12.0043 12.6498 12.0043 12.252ZM8.62927 4.00195C8.62927 4.30032 8.7478 4.58647 8.95878 4.79745C9.16976 5.00843 9.4559 5.12695 9.75427 5.12695H11.2543V12.252C11.2543 12.4509 11.1753 12.6416 11.0346 12.7823C10.8939 12.9229 10.7032 13.002 10.5043 13.002H4.50427C4.30536 13.002 4.11459 12.9229 3.97394 12.7823C3.83329 12.6416 3.75427 12.4509 3.75427 12.252V3.25195C3.75427 3.05304 3.83329 2.86228 3.97394 2.72162C4.11459 2.58097 4.30536 2.50195 4.50427 2.50195H8.62927V4.00195Z" fill="#1A4563" stroke="#1A4563" stroke-width="0.5"/>
<path d="M4.95628 12.3177C4.8101 12.2592 4.69233 12.1463 4.62778 12.0027C4.48153 11.7117 4.53028 11.4207 4.68778 11.1762C4.83628 10.9459 5.08228 10.7502 5.36053 10.5859C5.71298 10.386 6.08555 10.2239 6.47203 10.1022C6.77217 9.56263 7.03819 9.00478 7.26853 8.43193C7.13081 8.11901 7.02284 7.79383 6.94603 7.46068C6.88153 7.16068 6.85678 6.86368 6.91153 6.60868C6.96778 6.34318 7.11703 6.10468 7.39903 5.99143C7.54303 5.93368 7.69903 5.90143 7.85053 5.93368C7.92674 5.94991 7.99838 5.98289 8.06026 6.03024C8.12214 6.07759 8.1727 6.13812 8.20828 6.20743C8.27428 6.33043 8.29828 6.47443 8.30353 6.61093C8.30878 6.75193 8.29453 6.90793 8.26828 7.07143C8.20528 7.45393 8.06578 7.92193 7.87828 8.41693C8.0852 8.85945 8.33117 9.28262 8.61328 9.68143C8.9471 9.65507 9.28286 9.66765 9.61378 9.71893C9.88678 9.76843 10.1643 9.86518 10.3338 10.0677C10.4238 10.1757 10.4785 10.3077 10.4838 10.4562C10.489 10.6002 10.4485 10.7427 10.3803 10.8784C10.3212 11.0042 10.2295 11.1119 10.1148 11.1904C10.0014 11.2644 9.8675 11.3006 9.73228 11.2939C9.48403 11.2834 9.24178 11.1469 9.03253 10.9812C8.77809 10.7708 8.54881 10.5317 8.34928 10.2687C7.84209 10.3262 7.34093 10.4281 6.85153 10.5732C6.62741 10.9706 6.37158 11.3494 6.08653 11.7057C5.86753 11.9682 5.62978 12.1977 5.39128 12.2959C5.25425 12.3579 5.09881 12.3657 4.95628 12.3177ZM5.99053 10.8919C5.86603 10.9489 5.75053 11.0089 5.64628 11.0704C5.40028 11.2159 5.24053 11.3577 5.16103 11.4807C5.09053 11.5894 5.08903 11.6682 5.13103 11.7514C5.13853 11.7679 5.14603 11.7784 5.15053 11.7844C5.15948 11.782 5.16825 11.779 5.17678 11.7754C5.27953 11.7334 5.44303 11.5992 5.65303 11.3464C5.77246 11.2002 5.88508 11.0485 5.99053 10.8919ZM7.22053 9.89443C7.47097 9.83598 7.72368 9.7877 7.97803 9.74968C7.84147 9.5407 7.71385 9.32601 7.59553 9.10618C7.47789 9.37213 7.35284 9.63473 7.22053 9.89368V9.89443ZM9.05503 10.2319C9.16753 10.3542 9.27703 10.4569 9.38128 10.5394C9.56128 10.6819 9.68653 10.7292 9.75478 10.7314C9.77305 10.7338 9.79159 10.7298 9.80728 10.7202C9.83848 10.6955 9.86277 10.6632 9.87778 10.6264C9.90444 10.5807 9.91963 10.5293 9.92203 10.4764C9.9216 10.4588 9.91465 10.442 9.90253 10.4292C9.86353 10.3827 9.75253 10.3152 9.51403 10.2724C9.36232 10.2471 9.20884 10.2338 9.05503 10.2327V10.2319ZM7.56253 7.60243C7.62565 7.39882 7.67575 7.19141 7.71253 6.98143C7.73578 6.84043 7.74478 6.72418 7.74103 6.63268C7.74124 6.5822 7.73313 6.53203 7.71703 6.48418C7.67951 6.48883 7.64287 6.49894 7.60828 6.51418C7.54303 6.54043 7.48978 6.59368 7.46128 6.72643C7.43128 6.87043 7.43878 7.07818 7.49578 7.34293C7.51378 7.42618 7.53628 7.51318 7.56328 7.60243H7.56253Z" fill="#1A4563"/>
</g>
<defs>
<clipPath id="clip0_120_283">
<rect width="14" height="14" fill="white" transform="translate(0.504272 0.751953)"/>
</clipPath>
</defs>
</svg>
