<svg width="55" height="54" viewBox="0 0 55 54" fill="none" xmlns="http://www.w3.org/2000/svg">
<circle cx="27.5" cy="27" r="26.85" fill="white" stroke="#0060F7" stroke-width="0.3"/>
<path d="M27.5 34.5L29 31.5V23.787C31.5815 23.1165 33.5 20.787 33.5 18C33.5 14.691 30.809 12 27.5 12C24.191 12 21.5 14.691 21.5 18C21.5 20.787 23.4185 23.1165 26 23.787V31.5L27.5 34.5Z" fill="#0060F7"/>
<path d="M33.9005 24.8443L33.101 27.7363C36.9875 28.8103 39.5 30.8758 39.5 32.9998C39.5 35.8378 34.5725 38.9998 27.5 38.9998C20.4275 38.9998 15.5 35.8378 15.5 32.9998C15.5 30.8758 18.0125 28.8103 21.9005 27.7348L21.101 24.8428C15.7955 26.3098 12.5 29.4343 12.5 32.9998C12.5 38.0458 19.0895 41.9998 27.5 41.9998C35.9105 41.9998 42.5 38.0458 42.5 32.9998C42.5 29.4343 39.2045 26.3098 33.9005 24.8443Z" fill="#0060F7"/>
</svg>
