<svg width="14" height="15" viewBox="0 0 14 15" fill="none" xmlns="http://www.w3.org/2000/svg">
<g clip-path="url(#clip0_120_276)">
<path d="M12.1932 4.1921L10.073 2.86079L6.62117 8.35841L8.73998 9.68841L12.1932 4.1921ZM6.29786 10.0489L6.25105 11.298L7.35661 10.713L8.38473 10.1705L6.3403 8.88604L6.29786 10.0489ZM12.7589 2.16954L11.6507 1.4726C11.5166 1.38851 11.3547 1.36109 11.2005 1.39637C11.0462 1.43165 10.9123 1.52674 10.8282 1.66073L10.3907 2.35548L12.5095 3.68635L12.947 2.99248C13.122 2.71248 13.0389 2.34366 12.7589 2.16866V2.16954ZM11.0242 12.5908C11.0242 12.7111 10.9257 12.8095 10.8054 12.8095H2.49292C2.4349 12.8095 2.37926 12.7865 2.33824 12.7455C2.29722 12.7044 2.27417 12.6488 2.27417 12.5908V4.27829C2.27417 4.22027 2.29722 4.16463 2.33824 4.12361C2.37926 4.08258 2.4349 4.05954 2.49292 4.05954H8.28717L9.11142 2.74704H2.49292C1.64855 2.74704 0.96167 3.43391 0.96167 4.27829V12.5908C0.96167 13.4352 1.64855 14.122 2.49292 14.122H10.8054C11.6498 14.122 12.3367 13.4352 12.3367 12.5908V5.60698L11.0242 7.69648V12.5921V12.5908Z" fill="#04B301"/>
</g>
<defs>
<clipPath id="clip0_120_276">
<rect width="14" height="14" fill="white" transform="translate(0 0.751953)"/>
</clipPath>
</defs>
</svg>
