<svg width="14" height="15" viewBox="0 0 14 15" fill="none" xmlns="http://www.w3.org/2000/svg">
<path d="M1.75 3.70825V3.27075C1.63397 3.27075 1.52269 3.31685 1.44064 3.39889C1.35859 3.48094 1.3125 3.59222 1.3125 3.70825H1.75ZM12.25 3.70825H12.6875C12.6875 3.59222 12.6414 3.48094 12.5594 3.39889C12.4773 3.31685 12.366 3.27075 12.25 3.27075V3.70825ZM1.75 4.14575H12.25V3.27075H1.75V4.14575ZM11.8125 3.70825V10.7083H12.6875V3.70825H11.8125ZM11.0833 11.4374H2.91667V12.3124H11.0833V11.4374ZM2.1875 10.7083V3.70825H1.3125V10.7083H2.1875ZM2.91667 11.4374C2.51417 11.4374 2.1875 11.1108 2.1875 10.7083H1.3125C1.3125 11.1337 1.48151 11.5417 1.78235 11.8426C2.08319 12.1434 2.49122 12.3124 2.91667 12.3124V11.4374ZM11.8125 10.7083C11.8125 11.1108 11.4858 11.4374 11.0833 11.4374V12.3124C11.5088 12.3124 11.9168 12.1434 12.2177 11.8426C12.5185 11.5417 12.6875 11.1337 12.6875 10.7083H11.8125Z" fill="#0A0A0C"/>
<path d="M1.93469 3.89307L7 8.95832L12.0652 3.89325" stroke="#0A0A0C" stroke-linecap="round" stroke-linejoin="round"/>
</svg>
