<svg width="26" height="26" viewBox="0 0 26 26" fill="none" xmlns="http://www.w3.org/2000/svg">
<g clip-path="url(#clip0_575_1502)">
<path d="M0.8125 13C0.8125 15.3969 1.50312 17.6313 2.68125 19.5H23.2781C24.4563 17.6313 25.1469 15.3969 25.1469 13C25.1469 10.6031 24.4563 8.36875 23.2781 6.5H2.68125C1.50312 8.36875 0.8125 10.6031 0.8125 13Z" fill="#FFCE31"/>
<path d="M23.3187 6.5C21.1656 3.0875 17.3469 0.8125 13 0.8125C8.65312 0.8125 4.83437 3.0875 2.68124 6.5H23.3187ZM2.68124 19.5C4.83437 22.9125 8.65312 25.1875 13 25.1875C17.3469 25.1875 21.1656 22.9125 23.3187 19.5H2.68124Z" fill="#ED4C5C"/>
<path d="M3.73749 11.6592H5.03749V12.3904H3.73749V11.6592ZM3.73749 17.0217H5.07811V17.7123H3.73749V17.0217Z" fill="#C8B100"/>
<path d="M3.61563 15.8843C3.49376 15.9655 3.41251 16.0468 3.41251 16.0874C3.41251 16.128 3.45313 16.1687 3.53438 16.2093C3.61563 16.2499 3.69688 16.3312 3.65626 16.4124C3.73751 16.3312 3.77813 16.2499 3.77813 16.1687C3.77813 16.0468 3.69688 15.9249 3.61563 15.8843Z" fill="#ED4C5C"/>
<path d="M3.94061 12.3906H4.87499V17.0219H3.94061V12.3906Z" fill="white"/>
<path d="M5.84999 14.0969C5.64686 14.0156 5.28124 13.9344 4.87499 13.9344C4.75311 13.9344 4.59061 13.9344 4.42811 13.975C3.85936 14.0563 3.41249 14.3 3.45311 14.4625L3.24999 14.0156C3.20936 13.8125 3.69686 13.5687 4.30624 13.4469C4.50936 13.4062 4.71249 13.4062 4.87499 13.4062C5.28124 13.4062 5.64686 13.4469 5.84999 13.5281V14.0969Z" fill="#ED4C5C"/>
<path d="M3.94062 14.7063C3.69687 14.7063 3.49374 14.625 3.49374 14.5031C3.49374 14.4219 3.57499 14.3 3.73749 14.2188H3.98124L3.94062 14.7063ZM4.87499 14.3406C5.03749 14.3812 5.15937 14.4219 5.24062 14.4625C5.28124 14.5031 5.11874 14.6656 4.87499 14.7875V14.3406Z" fill="#ED4C5C"/>
<path d="M3.33123 15.5999C3.29061 15.5187 3.57498 15.3562 3.94061 15.2343C4.10311 15.1937 4.22498 15.1124 4.42811 15.0312C4.91561 14.828 5.32186 14.5437 5.24061 14.4624L5.32186 14.9499C5.36248 15.0312 5.03748 15.2749 4.54998 15.5187C4.38748 15.5999 4.10311 15.7218 3.94061 15.7624C3.65623 15.8437 3.41248 16.0062 3.41248 16.0468L3.33123 15.5999Z" fill="#ED4C5C"/>
<path d="M12.4719 11.6592H13.7719V12.3904H12.4719V11.6592ZM12.4312 17.0217H13.7719V17.7123H12.4312V17.0217Z" fill="#C8B100"/>
<path d="M13.8938 15.8843C14.0156 15.9655 14.0969 16.0468 14.0969 16.0874C14.0969 16.128 14.0563 16.1687 13.975 16.2093C13.8938 16.2905 13.8125 16.4124 13.8531 16.453C13.7719 16.3718 13.7313 16.2905 13.7313 16.2093C13.7313 16.0468 13.8125 15.9249 13.8938 15.8843Z" fill="#ED4C5C"/>
<path d="M12.6344 12.3906H13.5687V17.0219H12.6344V12.3906Z" fill="white"/>
<path d="M11.6594 14.0969C11.8625 14.0156 12.2281 13.9344 12.6344 13.9344C12.7563 13.9344 12.9188 13.9344 13.0813 13.975C13.65 14.0563 14.0969 14.3 14.0563 14.4625L14.2594 13.975C14.3 13.7719 13.8125 13.5281 13.2031 13.4062H12.6344C12.2281 13.4062 11.8625 13.4469 11.6594 13.5281V14.0969Z" fill="#ED4C5C"/>
<path d="M13.5688 14.7063C13.8125 14.7063 14.0156 14.625 14.0156 14.5031C14.0156 14.4219 13.9344 14.3 13.7719 14.2188H13.5281L13.5688 14.7063ZM12.6344 14.3406C12.4719 14.3812 12.35 14.4219 12.2688 14.4625C12.2281 14.5031 12.3906 14.6656 12.6344 14.7875V14.3406Z" fill="#ED4C5C"/>
<path d="M14.1781 15.6002C14.2188 15.5189 13.9344 15.3564 13.5688 15.2346C13.4063 15.1939 13.2844 15.1127 13.0813 15.0314C12.5938 14.8283 12.1875 14.5439 12.2688 14.4627L12.1875 14.9502C12.1469 15.0314 12.4719 15.2752 12.9594 15.5189C13.1219 15.6002 13.4063 15.7221 13.5688 15.7627C13.8531 15.8439 14.0969 16.0471 14.0563 16.0877L14.1781 15.6002ZM8.73439 9.05957C9.50626 9.05957 11.0906 9.22207 11.6594 9.79082C11.05 11.2533 10.075 10.6439 8.73439 10.6439C7.43439 10.6439 6.41876 11.2533 5.80939 9.79082C6.37814 9.22207 7.92189 9.05957 8.73439 9.05957Z" fill="#ED4C5C"/>
<path d="M10.725 10.6844C10.2375 10.4 9.50626 10.3594 8.73439 10.3594C7.96251 10.3594 7.23126 10.4406 6.74376 10.6844L6.90626 11.375C7.35314 11.4969 8.00314 11.5781 8.73439 11.5781C9.46564 11.5781 10.075 11.4969 10.5625 11.375L10.725 10.6844ZM11.4156 8.9375C11.2531 8.81562 10.9281 8.69375 10.6438 8.69375C10.5219 8.69375 10.4 8.69375 10.2781 8.73438C10.2781 8.73438 10.0344 8.40938 9.46564 8.40938C9.26251 8.40938 9.10001 8.45 8.93751 8.53125V8.49062C8.89689 8.40937 8.81564 8.32812 8.73439 8.32812C8.65314 8.32812 8.53126 8.45 8.53126 8.53125V8.57188C8.36876 8.49063 8.20626 8.45 8.00314 8.45C7.43439 8.45 7.19064 8.81563 7.19064 8.775C7.06876 8.73438 6.94689 8.73438 6.82501 8.73438C4.95626 8.73438 5.89064 9.99375 5.89064 9.99375L6.09376 9.75C5.64689 9.18125 6.05314 8.85625 6.86564 8.85625C6.98751 8.85625 7.06876 8.85625 7.15001 8.89687C6.86564 9.30312 7.39376 9.66875 7.39376 9.66875L7.51564 9.46562C7.23126 9.2625 7.19064 8.57188 8.00314 8.57188C8.20626 8.57188 8.36876 8.6125 8.53126 8.73438C8.53126 8.775 8.49064 9.34375 8.45001 9.425L8.77501 9.70937L9.10001 9.425C9.05939 9.30313 9.01876 8.775 9.01876 8.73438C9.14064 8.65312 9.34376 8.57188 9.54689 8.57188C10.4 8.57188 10.4 9.2625 10.0344 9.46562L10.1563 9.66875C10.1563 9.66875 10.6031 9.30312 10.4 8.89687C10.4813 8.89687 10.6031 8.85625 10.6844 8.85625C11.6594 8.85625 11.7 9.5875 11.4563 9.75L11.6188 9.99375C11.5375 9.99375 11.9844 9.425 11.4156 8.9375Z" fill="#C8B100"/>
<path d="M8.49063 8.16563C8.49063 8.04375 8.61251 7.92188 8.73438 7.92188C8.89688 7.92188 8.97813 8.04375 8.97813 8.16563C8.97813 8.2875 8.85626 8.40938 8.73438 8.40938C8.61251 8.40938 8.49063 8.2875 8.49063 8.16563Z" fill="#005BBF"/>
<path d="M8.65313 7.4751V7.59697H8.53126V7.71885H8.65313V8.1251H8.49063V8.24697H8.97813L9.01876 8.16572L8.97813 8.1251H8.81563V7.71885H8.93751V7.59697H8.81563V7.4751H8.65313Z" fill="#C8B100"/>
<path d="M8.73438 11.4971C8.08438 11.4971 7.51563 11.4158 7.06876 11.2939C7.51563 11.1721 8.08438 11.0908 8.73438 11.0908C9.38438 11.0908 9.95313 11.1721 10.4 11.2939C9.99376 11.4158 9.38438 11.4971 8.73438 11.4971Z" fill="#ED4C5C"/>
<path d="M8.77501 18.5249C8.00313 18.5249 7.27188 18.3218 6.62188 18.0374C6.13438 17.7937 5.85001 17.3468 5.85001 16.8187V14.8687H11.7V16.8187C11.7 17.3468 11.375 17.8343 10.9281 18.0374C10.2781 18.3624 9.54688 18.5249 8.77501 18.5249ZM8.73438 11.6187H11.6594V14.8687H8.73438V11.6187Z" fill="white"/>
<path d="M8.77501 16.8187C8.77501 17.5905 8.12501 18.1999 7.31251 18.1999C6.50001 18.1999 5.85001 17.5905 5.85001 16.8187V14.8687H8.77501V16.8187Z" fill="#ED4C5C"/>
<path d="M6.45939 17.9563C6.54064 17.997 6.66251 18.0782 6.82501 18.1188V14.7876H6.50001L6.45939 17.9563ZM5.80939 16.7782C5.80939 17.1845 5.97189 17.5095 6.13439 17.672V14.7876H5.80939V16.7782Z" fill="#C8B100"/>
<path d="M7.10938 18.2001H7.43437V14.7876H7.10938V18.2001Z" fill="#C7B500"/>
<path d="M7.75937 18.1188C7.88124 18.0782 8.04374 17.997 8.12499 17.9563V14.7876H7.79999L7.75937 18.1188Z" fill="#C8B100"/>
<path d="M5.80939 11.6187H8.73439V14.8687H5.80939V11.6187Z" fill="#ED4C5C"/>
<path d="M8.45001 17.6719C8.61251 17.55 8.73439 17.2656 8.77501 16.9406V14.8281H8.45001V17.6719Z" fill="#C8B100"/>
<path d="M11.7 14.8687V16.8187C11.7 17.5906 11.05 18.2 10.2375 18.2C9.42501 18.2 8.77501 17.5906 8.77501 16.8187V14.8687H11.7ZM10.6438 12.1875C10.7656 12.4312 10.7656 13.0406 10.4 12.9187C10.4813 12.9594 10.5219 13.2437 10.6438 13.4062C10.8469 13.65 11.0906 13.4469 11.05 13.1625C10.9688 12.7156 11.0094 12.4312 11.0906 11.9844C11.0906 12.025 11.2938 12.025 11.375 11.9437C11.3344 12.0656 11.2938 12.2281 11.375 12.2281C11.2938 12.35 11.0906 12.5531 11.05 12.675C11.0094 12.9594 11.4563 13.4875 10.9688 13.6094C10.6438 13.6906 10.8469 13.9344 10.9688 14.0562C10.9688 14.0562 10.8063 14.5844 10.8875 14.5437C10.5625 14.6656 10.6438 14.3812 10.6438 14.3812C10.8063 13.8937 10.3594 13.8531 10.4 13.7719C9.99376 13.7312 10.4406 14.1375 10.075 14.1375C9.99376 14.1375 9.83126 14.2187 9.83126 14.2187C9.38438 14.1781 9.62813 13.7719 9.79063 13.8125C9.91251 13.8531 10.0344 14.0562 10.0344 13.7719C10.0344 13.7719 9.83126 13.4469 10.3594 13.4469C10.1563 13.4469 10.0344 13.2844 9.95313 13.0812C9.87188 13.1219 9.75001 13.325 9.30313 13.3656C9.30313 13.3656 9.18126 12.9187 9.30313 13C9.46563 13.0812 9.54688 13.0812 9.70938 12.9187C9.62813 12.7969 9.14063 12.6344 9.22188 12.35C9.22188 12.2687 9.46563 12.1469 9.46563 12.1469C9.42501 12.35 9.54688 12.5531 9.79063 12.5531C10.1156 12.5937 9.99376 12.4719 10.0344 12.3906C10.075 12.3094 10.3188 12.4312 10.2375 12.2281C10.2375 12.1875 9.95313 12.1469 10.0344 12.025C10.1969 11.8219 10.4406 11.9844 10.6438 12.1875ZM8.77501 18.1187L8.69376 17.9156L8.77501 17.6719L8.85626 17.9156L8.77501 18.1187Z" fill="#ED4C5C"/>
<path d="M6.70313 12.3094V12.5125H6.78438V12.675H6.58126V13.0813H6.70313V13.975H6.45938V14.4219H8.12501V13.975H7.92188V13.0813H8.00313V12.675H7.80001V12.5125H7.92188V12.3094H7.51563V12.5125H7.59688V12.675H7.39376V12.1875H7.51563V11.9844H7.06876V12.1875H7.19063V12.675H6.98751V12.5125H7.06876V12.3094H6.70313ZM11.2938 17.3062V15.275H9.18126V17.3062L10.1563 17.7531H10.2781L11.2938 17.3062ZM10.1563 15.4375V16.1281L9.46563 15.4375H10.1563ZM9.30313 15.4781L10.1156 16.2906L9.30313 17.1031V15.4781ZM9.38438 17.2656L10.1563 16.4937V17.6313L9.38438 17.2656ZM10.2781 17.5906V16.4531L11.05 17.225L10.2781 17.5906ZM11.1313 17.1031L10.3188 16.2906L11.1313 15.4781V17.1031ZM10.2781 15.4375H10.9688L10.2781 16.1281V15.4375Z" fill="#C8B100"/>
<path d="M7.79999 14.8282C7.79999 14.2188 8.20624 13.772 8.73436 13.772C9.26249 13.772 9.66874 14.2595 9.66874 14.8282C9.66874 15.397 9.26249 15.8845 8.73436 15.8845C8.20624 15.8845 7.79999 15.4376 7.79999 14.8282Z" fill="#ED4C5C"/>
<path d="M8.08438 14.828C8.08438 14.3812 8.36876 14.0562 8.73438 14.0562C9.10001 14.0562 9.38438 14.4218 9.38438 14.828C9.38438 15.2749 9.10001 15.5999 8.73438 15.5999C8.40938 15.6405 8.08438 15.2749 8.08438 14.828Z" fill="#005BBF"/>
<path d="M8.45001 14.2998L8.28751 14.7467L8.40938 14.7873L8.32813 14.9498H8.57188L8.49063 14.7873L8.61251 14.7467L8.45001 14.2998ZM9.05938 14.2998L8.89688 14.7467L9.01876 14.7873L8.93751 14.9498H9.18126L9.14063 14.7873L9.26251 14.7467L9.05938 14.2998ZM8.77501 14.8279L8.57188 15.2748L8.69376 15.3154L8.65313 15.4779H8.85626L8.81563 15.3154L8.93751 15.2748L8.77501 14.8279Z" fill="#C8B100"/>
</g>
<defs>
<clipPath id="clip0_575_1502">
<rect width="26" height="26" fill="white"/>
</clipPath>
</defs>
</svg>
