<svg width="26" height="26" viewBox="0 0 26 26" fill="none" xmlns="http://www.w3.org/2000/svg">
<mask id="mask0_575_1501" style="mask-type:luminance" maskUnits="userSpaceOnUse" x="0" y="0" width="26" height="26">
<path d="M13 25.5C19.9036 25.5 25.5 19.9036 25.5 13C25.5 6.09644 19.9036 0.5 13 0.5C6.09644 0.5 0.5 6.09644 0.5 13C0.5 19.9036 6.09644 25.5 13 25.5Z" fill="white"/>
</mask>
<g mask="url(#mask0_575_1501)">
<path d="M13 0.5H25.5V3.625L23.9375 5.1875L25.5 6.75V9.875L23.9375 11.4375L25.5 13V16.125L23.9375 17.6875L25.5 19.25V22.375L13 23.9375L0.5 22.375V19.25L2.0625 17.6875L0.5 16.125V13L13 0.5Z" fill="#EEEEEE"/>
<path d="M11.4375 3.625H25.5V6.75H11.4375V3.625ZM11.4375 9.875H25.5V13H13L11.4375 9.875ZM0.5 16.125H25.5V19.25H0.5V16.125ZM0.5 22.375H25.5V25.5H0.5V22.375Z" fill="#D80027"/>
<path d="M0.5 0.5H13V13H0.5V0.5Z" fill="#0052B4"/>
<path d="M9.63086 12.3652L12.4141 10.3633H8.99609L11.7793 12.3652L10.7051 9.09375L9.63086 12.3652ZM5.67578 12.3652L8.45898 10.3633H5.04102L7.82422 12.3652L6.75 9.09375L5.67578 12.3652ZM1.7207 12.3652L4.50391 10.3633H1.08594L3.86914 12.3652L2.79492 9.09375L1.7207 12.3652ZM9.63086 8.41016L12.4141 6.4082H8.99609L11.7793 8.41016L10.7051 5.13867L9.63086 8.41016ZM5.67578 8.41016L8.45898 6.4082H5.04102L7.82422 8.41016L6.75 5.13867L5.67578 8.41016ZM1.7207 8.41016L4.50391 6.4082H1.08594L3.86914 8.41016L2.79492 5.13867L1.7207 8.41016ZM9.63086 4.40625L12.4141 2.4043H8.99609L11.7793 4.40625L10.7051 1.13477L9.63086 4.40625ZM5.67578 4.40625L8.45898 2.4043H5.04102L7.82422 4.40625L6.75 1.13477L5.67578 4.40625ZM1.7207 4.40625L4.50391 2.4043H1.08594L3.86914 4.40625L2.79492 1.13477L1.7207 4.40625Z" fill="#EEEEEE"/>
</g>
</svg>
