<svg width="11" height="19" viewBox="0 0 11 19" fill="none" xmlns="http://www.w3.org/2000/svg">
<path d="M10.3136 9.25199C10.3136 9.60554 10.1823 9.90859 9.89944 10.1712L2.0405 17.8685C1.81827 18.0908 1.53543 18.212 1.20208 18.212C0.535381 18.212 3.1511e-06 17.6867 3.1511e-06 17.0099C3.1511e-06 16.6766 0.141424 16.3836 0.363656 16.1513L7.44478 9.25199L0.363656 2.35269C0.141424 2.12036 3.1511e-06 1.81731 3.1511e-06 1.49407C3.1511e-06 0.817268 0.535381 0.291992 1.20208 0.291992C1.53543 0.291992 1.81827 0.41321 2.0405 0.635442L9.89944 8.32266C10.1823 8.5954 10.3136 8.89844 10.3136 9.25199Z" fill="#1A4563"/>
</svg>
