<svg width="14" height="15" viewBox="0 0 14 15" fill="none" xmlns="http://www.w3.org/2000/svg">
<g clip-path="url(#clip0_103_1055)">
<path d="M6.81411 6.37132H7.83252L7.5851 7.45535H6.54891L6.81411 6.37132ZM1.36115 2.62574C1.36115 2.17255 1.54117 1.73793 1.86163 1.41747C2.18208 1.09702 2.61671 0.916992 3.06989 0.916992H10.9301C11.1545 0.916992 11.3767 0.96119 11.5841 1.04706C11.7914 1.13294 11.9797 1.2588 12.1384 1.41747C12.2971 1.57615 12.4229 1.76452 12.5088 1.97183C12.5947 2.17915 12.6389 2.40135 12.6389 2.62574V12.3656C12.6389 12.5016 12.5849 12.632 12.4887 12.7281C12.3926 12.8242 12.2622 12.8782 12.1263 12.8782H2.38639C2.38639 13.0595 2.45841 13.2334 2.58659 13.3616C2.71477 13.4897 2.88862 13.5617 3.06989 13.5617H12.1263C12.2622 13.5617 12.3926 13.6158 12.4887 13.7119C12.5849 13.808 12.6389 13.9384 12.6389 14.0744C12.6389 14.2103 12.5849 14.3407 12.4887 14.4368C12.3926 14.533 12.2622 14.587 12.1263 14.587H3.06989C2.61671 14.587 2.18208 14.407 1.86163 14.0865C1.54117 13.7661 1.36115 13.3314 1.36115 12.8782V2.62574ZM6.16205 4.72409L6.00963 5.34607H5.2776L5.20788 5.35086C5.08516 5.3677 4.97268 5.42842 4.89126 5.52178C4.80984 5.61514 4.76498 5.73482 4.76497 5.8587L4.76976 5.92841C4.78661 6.05114 4.84732 6.16361 4.94068 6.24503C5.03404 6.32646 5.15372 6.37132 5.2776 6.37132H5.7581L5.4929 7.45535L4.94884 7.45604L4.87912 7.46082C4.75639 7.47767 4.64392 7.53838 4.5625 7.63174C4.48108 7.7251 4.43622 7.84479 4.43621 7.96866L4.441 8.03838C4.45784 8.1611 4.51856 8.27358 4.61192 8.355C4.70528 8.43642 4.82496 8.48128 4.94884 8.48129H5.24206L5.15799 8.82714L5.14568 8.89549C5.13272 9.01884 5.16491 9.1427 5.2363 9.24413C5.30769 9.34555 5.41342 9.41765 5.53391 9.44707L5.60226 9.45938C5.72561 9.47234 5.84948 9.44015 5.9509 9.36876C6.05232 9.29737 6.12443 9.19164 6.15385 9.07115L6.29738 8.4806H7.34929L7.26863 8.83466L7.2577 8.90301C7.24648 9.0266 7.28047 9.15007 7.35338 9.2505C7.42628 9.35093 7.53314 9.4215 7.65413 9.44912L7.72248 9.46006C7.84607 9.47128 7.96954 9.43728 8.06997 9.36438C8.1704 9.29148 8.24097 9.18462 8.2686 9.06363L8.40119 8.4806L9.04368 8.48129L9.1134 8.4765C9.23625 8.45981 9.34889 8.39915 9.43045 8.30578C9.51201 8.21241 9.55696 8.09264 9.55699 7.96866L9.55221 7.89894C9.53536 7.77622 9.47464 7.66375 9.38129 7.58232C9.28793 7.5009 9.16824 7.45604 9.04437 7.45604H8.63632L8.88443 6.37132H9.37655L9.44627 6.36654C9.56899 6.34969 9.68146 6.28897 9.76289 6.19562C9.84431 6.10226 9.88917 5.98257 9.88917 5.8587L9.88439 5.78966C9.86769 5.66681 9.80704 5.55418 9.71367 5.47262C9.6203 5.39106 9.50053 5.3461 9.37655 5.34607H9.11955L9.20841 4.96058L9.21934 4.89223C9.23039 4.76875 9.19632 4.64544 9.12343 4.54516C9.05054 4.44488 8.94378 4.3744 8.82291 4.3468L8.75456 4.33586C8.63108 4.32481 8.50778 4.35889 8.4075 4.43178C8.30721 4.50467 8.23674 4.61143 8.20913 4.73229L8.06765 5.34607H7.06427L7.15722 4.9681L7.16953 4.89975C7.18373 4.77013 7.148 4.63997 7.06962 4.53576C6.99123 4.43156 6.87609 4.36114 6.74761 4.33884C6.61914 4.31654 6.487 4.34404 6.37808 4.41574C6.26917 4.48744 6.19167 4.59795 6.16137 4.72477L6.16205 4.72409Z" fill="#1A4563"/>
</g>
<defs>
<clipPath id="clip0_103_1055">
<rect width="14" height="14" fill="white" transform="translate(0 0.751953)"/>
</clipPath>
</defs>
</svg>
