<svg width="115" height="109" viewBox="0 0 115 109" fill="none" xmlns="http://www.w3.org/2000/svg">
<g filter="url(#filter0_d_1888_1684)">
<circle cx="57.5" cy="35" r="35" fill="white"/>
</g>
<circle cx="57.5" cy="35" r="25" fill="#0A0A0C"/>
<path d="M58.2512 27.4662C58.2512 28.6685 57.2791 29.5639 55.8721 29.5639C54.5954 29.5639 53.6683 28.7991 53.5351 27.7339C53.5242 27.6466 53.5186 27.5573 53.5186 27.4662C53.5186 27.1885 53.5663 26.9284 53.6556 26.6917C53.9694 25.86 54.7967 25.3174 55.8721 25.3174C57.2791 25.3174 58.2512 26.2127 58.2512 27.4662ZM58.2512 36.7005C58.2512 38.0812 57.1319 39.2005 55.7512 39.2005H54.1326V30.6383H58.2512V36.7005Z" fill="white"/>
<path fill-rule="evenodd" clip-rule="evenodd" d="M48.9908 44.6825C43.8233 44.6825 39.7815 40.4871 39.7815 35.0895C39.7815 29.7174 43.8233 25.5476 48.9908 25.5476L49.0419 29.0267C45.8954 29.0267 43.7722 31.5081 43.7722 35.0895C43.7722 38.6964 45.8954 41.2034 49.0419 41.2034C51.6512 41.2034 53.6722 39.3615 54.1326 36.7267H58.2512C57.6117 41.4848 53.8257 44.6825 48.9908 44.6825ZM53.5351 27.7339L54.1326 26.9695C53.977 26.8723 53.8179 26.7797 53.6556 26.6917C53.5663 26.9284 53.5186 27.1885 53.5186 27.4662C53.5186 27.5573 53.5242 27.6466 53.5351 27.7339Z" fill="white"/>
<path fill-rule="evenodd" clip-rule="evenodd" d="M50.8365 29.3367C50.282 29.1348 49.6787 29.0267 49.0419 29.0267L48.9908 25.5476C50.4926 25.5476 51.8932 25.8586 53.1298 26.4285L50.8365 29.3367Z" fill="white"/>
<path fill-rule="evenodd" clip-rule="evenodd" d="M48.9908 44.6825L65.8557 44.6822C71.5603 44.6822 75.2185 40.7427 75.2185 35.3962C75.2185 30.0497 71.6882 26.3148 65.8557 26.3148H59.9644V29.666H63.8528H65.651C69.3092 29.666 71.2278 31.7381 71.2278 35.3962C71.2278 39.2078 69.3092 41.3311 65.651 41.3311H63.2208H48.9908V44.6825Z" fill="white"/>
<path fill-rule="evenodd" clip-rule="evenodd" d="M63.8528 29.666V39.2005H59.9644V29.666H63.8528Z" fill="white"/>
<path d="M5.37343 90.8195C3.84676 90.8195 2.63895 90.3388 1.75 89.3774C0.865886 88.4112 0.423828 87.0874 0.423828 85.4061C0.423828 83.7297 0.868301 82.4108 1.75725 81.4494C2.64619 80.4831 3.85159 80 5.37343 80C6.2044 80 6.95807 80.1643 7.63444 80.4928C8.31565 80.8213 8.86157 81.2851 9.27223 81.8842C9.68288 82.4833 9.91478 83.1669 9.96793 83.935H7.83735C7.7359 83.2925 7.4581 82.778 7.00397 82.3915C6.55466 82.005 6.01115 81.8117 5.37343 81.8117C4.54728 81.8117 3.88782 82.1354 3.39504 82.7828C2.90225 83.4302 2.65586 84.3022 2.65586 85.3989C2.65586 86.5149 2.89983 87.3966 3.38779 88.044C3.87574 88.6866 4.54004 89.0078 5.38067 89.0078C6.02806 89.0078 6.57157 88.8291 7.01121 88.4716C7.45085 88.1141 7.72865 87.6261 7.8446 87.0077H9.97517C9.85439 88.172 9.37852 89.0996 8.54754 89.7905C7.71657 90.4765 6.65853 90.8195 5.37343 90.8195Z" fill="#0A0A0C"/>
<path d="M12.3594 81.4566C13.2677 80.4855 14.4972 80 16.048 80C17.5989 80 18.826 80.4855 19.7294 81.4566C20.6377 82.4277 21.0918 83.7466 21.0918 85.4134C21.0918 87.0753 20.6377 88.3919 19.7294 89.3629C18.8212 90.334 17.594 90.8195 16.048 90.8195C14.4972 90.8195 13.2677 90.334 12.3594 89.3629C11.4559 88.3919 11.0042 87.0753 11.0042 85.4134C11.0042 83.7466 11.4559 82.4277 12.3594 81.4566ZM18.0916 82.7973C17.5844 82.1499 16.9032 81.8262 16.048 81.8262C15.1929 81.8262 14.5093 82.1499 13.9972 82.7973C13.4899 83.4447 13.2363 84.3167 13.2363 85.4134C13.2363 86.5053 13.4899 87.3749 13.9972 88.0223C14.5045 88.6648 15.1881 88.9861 16.048 88.9861C16.9032 88.9861 17.5844 88.6648 18.0916 88.0223C18.5989 87.3749 18.8526 86.5053 18.8526 85.4134C18.8526 84.3167 18.5989 83.4447 18.0916 82.7973Z" fill="#0A0A0C"/>
<path d="M24.5993 90.6384H22.505V80.1812H24.3312L29.2156 86.9932H29.2735V80.1812H31.3679V90.6384H29.5562L24.6645 83.7901H24.5993V90.6384Z" fill="#0A0A0C"/>
<path d="M32.723 87.6599H34.8319C34.8802 88.0851 35.1048 88.4305 35.5058 88.6962C35.9116 88.9571 36.4068 89.0875 36.9914 89.0875C37.5712 89.0875 38.0422 88.9644 38.4046 88.718C38.7717 88.4667 38.9553 88.1479 38.9553 87.7614C38.9553 87.4232 38.82 87.1502 38.5495 86.9425C38.2789 86.7347 37.8272 86.5608 37.1943 86.4207L35.8319 86.1236C33.9139 85.7129 32.9549 84.7394 32.9549 83.2031C32.9549 82.2465 33.3269 81.4735 34.0709 80.8841C34.8198 80.2947 35.7812 80 36.9552 80C38.163 80 39.1268 80.2875 39.8467 80.8624C40.5665 81.4325 40.9361 82.1934 40.9554 83.1451H38.9046C38.8708 82.7055 38.6751 82.3601 38.3176 82.1088C37.9649 81.8528 37.5132 81.7247 36.9624 81.7247C36.4213 81.7247 35.9841 81.8431 35.6508 82.0798C35.3222 82.3166 35.158 82.6282 35.158 83.0147C35.158 83.3336 35.2908 83.592 35.5565 83.7901C35.8271 83.9882 36.2643 84.1573 36.8682 84.2974L38.1364 84.5655C39.1848 84.7878 39.9481 85.1356 40.4264 85.6091C40.9047 86.0777 41.1439 86.7106 41.1439 87.5077C41.1439 88.5223 40.7622 89.3291 39.9989 89.9282C39.2355 90.5224 38.2041 90.8195 36.9045 90.8195C35.6435 90.8195 34.6386 90.5393 33.8898 89.9789C33.1458 89.4137 32.7568 88.6407 32.723 87.6599Z" fill="#0A0A0C"/>
<path d="M47.1805 90.6384H44.9919V81.9856H41.97V80.1812H50.2097V81.9856H47.1805V90.6384Z" fill="#0A0A0C"/>
<path d="M53.6084 81.8914V85.225H55.4926C56.0434 85.225 56.4709 85.0776 56.7753 84.7829C57.0845 84.4882 57.2391 84.08 57.2391 83.5582C57.2391 83.0509 57.0797 82.6475 56.7608 82.348C56.442 82.0436 56.012 81.8914 55.4709 81.8914H53.6084ZM53.6084 86.812V90.6384H51.4199V80.1812H55.7028C56.8961 80.1812 57.8237 80.4783 58.4856 81.0725C59.1523 81.6619 59.4856 82.476 59.4856 83.5147C59.4856 84.1959 59.3165 84.8047 58.9784 85.3409C58.645 85.8724 58.1812 86.254 57.587 86.4859L59.79 90.6384H57.3116L55.3622 86.812H53.6084Z" fill="#0A0A0C"/>
<path d="M63.1163 80.1812V86.7251C63.1163 87.4063 63.3071 87.9474 63.6888 88.3484C64.0753 88.7445 64.6164 88.9426 65.3121 88.9426C66.003 88.9426 66.5392 88.7445 66.9209 88.3484C67.3074 87.9474 67.5006 87.4063 67.5006 86.7251V80.1812H69.6892V86.9425C69.6892 88.102 69.2906 89.0392 68.4935 89.7543C67.7011 90.4644 66.6407 90.8195 65.3121 90.8195C63.9787 90.8195 62.9134 90.4644 62.1162 89.7543C61.3239 89.0392 60.9278 88.102 60.9278 86.9425V80.1812H63.1163Z" fill="#0A0A0C"/>
<path d="M76.0592 90.8195C74.5325 90.8195 73.3247 90.3388 72.4358 89.3774C71.5516 88.4112 71.1096 87.0874 71.1096 85.4061C71.1096 83.7297 71.5541 82.4108 72.443 81.4494C73.3319 80.4831 74.5373 80 76.0592 80C76.8901 80 77.6438 80.1643 78.3202 80.4928C79.0014 80.8213 79.5473 81.2851 79.958 81.8842C80.3686 82.4833 80.6005 83.1669 80.6537 83.935H78.5231C78.4216 83.2925 78.1439 82.778 77.6897 82.3915C77.2404 82.005 76.6969 81.8117 76.0592 81.8117C75.233 81.8117 74.5736 82.1354 74.0808 82.7828C73.588 83.4302 73.3416 84.3022 73.3416 85.3989C73.3416 86.5149 73.5856 87.3966 74.0735 88.044C74.5615 88.6866 75.2258 89.0078 76.0664 89.0078C76.7138 89.0078 77.2573 88.8291 77.697 88.4716C78.1366 88.1141 78.4144 87.6261 78.5303 87.0077H80.6609C80.5401 88.172 80.0643 89.0996 79.2333 89.7905C78.4023 90.4765 77.3443 90.8195 76.0592 90.8195Z" fill="#0A0A0C"/>
<path d="M86.3714 90.6384H84.1829V81.9856H81.161V80.1812H89.4006V81.9856H86.3714V90.6384Z" fill="#0A0A0C"/>
<path d="M92.7994 90.6384H90.6108V80.1812H92.7994V90.6384Z" fill="#0A0A0C"/>
<path d="M95.5677 81.4566C96.476 80.4855 97.7055 80 99.2563 80C100.807 80 102.034 80.4855 102.938 81.4566C103.846 82.4277 104.3 83.7466 104.3 85.4134C104.3 87.0753 103.846 88.3919 102.938 89.3629C102.029 90.334 100.802 90.8195 99.2563 90.8195C97.7055 90.8195 96.476 90.334 95.5677 89.3629C94.6642 88.3919 94.2125 87.0753 94.2125 85.4134C94.2125 83.7466 94.6642 82.4277 95.5677 81.4566ZM101.3 82.7973C100.793 82.1499 100.111 81.8262 99.2563 81.8262C98.4012 81.8262 97.7176 82.1499 97.2055 82.7973C96.6982 83.4447 96.4446 84.3167 96.4446 85.4134C96.4446 86.5053 96.6982 87.3749 97.2055 88.0223C97.7128 88.6648 98.3964 88.9861 99.2563 88.9861C100.111 88.9861 100.793 88.6648 101.3 88.0223C101.807 87.3749 102.061 86.5053 102.061 85.4134C102.061 84.3167 101.807 83.4447 101.3 82.7973Z" fill="#0A0A0C"/>
<path d="M107.808 90.6384H105.713V80.1812H107.539L112.424 86.9932H112.482V80.1812H114.576V90.6384H112.764L107.873 83.7901H107.808V90.6384Z" fill="#0A0A0C"/>
<path d="M3.2645 106.457H2.27893V96H3.2645V106.457Z" fill="#0A0A0C"/>
<path d="M5.06897 106.457V98.9205H5.97482V100.312H5.99656C6.38065 99.3988 7.26476 98.7973 8.48223 98.7973C10.1345 98.7973 11.1491 99.8626 11.1491 101.573V106.457H10.1925V101.725C10.1925 100.406 9.4678 99.6524 8.20685 99.6524C6.90242 99.6524 6.02555 100.595 6.02555 101.993V106.457H5.06897Z" fill="#0A0A0C"/>
<path d="M12.6129 100.935C12.6129 99.6886 13.7289 98.7973 15.3233 98.7973C16.8668 98.7973 17.9684 99.7031 18.0626 101.029H17.1422C17.0263 100.138 16.3378 99.5872 15.2943 99.5872C14.2652 99.5872 13.5623 100.131 13.5623 100.884C13.5623 101.5 14.0043 101.877 15.0116 102.124L16.1277 102.392C17.635 102.769 18.2003 103.319 18.2003 104.399C18.2003 105.675 17.0045 106.58 15.3015 106.58C13.6855 106.58 12.5187 105.675 12.3955 104.348H13.3521C13.4898 105.24 14.229 105.79 15.3595 105.79C16.49 105.79 17.2364 105.261 17.2364 104.472C17.2364 103.819 16.8596 103.472 15.8523 103.225L14.6276 102.921C13.2652 102.58 12.6129 101.935 12.6129 100.935Z" fill="#0A0A0C"/>
<path d="M23.0194 98.7973C24.9253 98.7973 26.2298 100.348 26.2298 102.689C26.2298 105.037 24.9326 106.58 23.0411 106.58C21.8237 106.58 20.8743 105.885 20.4758 104.906H20.4468V108.95H19.4902V98.9205H20.396V100.515H20.425C20.8381 99.5147 21.7947 98.7973 23.0194 98.7973ZM22.8527 105.733C24.3093 105.733 25.2514 104.53 25.2514 102.689C25.2514 100.855 24.3093 99.6452 22.8527 99.6452C21.4251 99.6452 20.4468 100.877 20.4468 102.689C20.4468 104.508 21.4251 105.733 22.8527 105.733Z" fill="#0A0A0C"/>
<path d="M30.4982 99.6379C29.1502 99.6379 28.2154 100.674 28.1357 102.16H32.7882C32.7664 100.674 31.8606 99.6379 30.4982 99.6379ZM32.7302 104.319H33.6795C33.4549 105.624 32.2302 106.58 30.5706 106.58C28.4545 106.58 27.1429 105.102 27.1429 102.711C27.1429 100.37 28.469 98.7973 30.5126 98.7973C32.5128 98.7973 33.7737 100.268 33.7737 102.515V102.921H28.1284V102.979C28.1284 104.682 29.0923 105.74 30.5924 105.74C31.7301 105.74 32.52 105.146 32.7302 104.319Z" fill="#0A0A0C"/>
<path d="M41.1873 101.305H40.2452C40.0423 100.377 39.2813 99.6452 38.0928 99.6452C36.6217 99.6452 35.6579 100.826 35.6579 102.689C35.6579 104.58 36.629 105.733 38.1001 105.733C39.2379 105.733 40.0278 105.102 40.2452 104.124H41.1945C40.9843 105.566 39.7596 106.58 38.0928 106.58C36.0347 106.58 34.6796 105.102 34.6796 102.689C34.6796 100.312 36.0347 98.7973 38.0856 98.7973C39.8611 98.7973 40.9988 99.9568 41.1873 101.305Z" fill="#0A0A0C"/>
<path d="M42.8033 97.0363H43.7599V98.9205H45.2455V99.7176H43.7599V104.559C43.7599 105.334 44.0643 105.667 44.76 105.667C44.8614 105.667 45.2237 105.653 45.2817 105.638V106.457C45.1803 106.479 44.7744 106.501 44.5715 106.501C43.3106 106.501 42.8033 105.964 42.8033 104.602V99.7176H41.68V98.9205H42.8033V97.0363Z" fill="#0A0A0C"/>
<path d="M46.6731 106.457V98.9205H47.6297V106.457H46.6731ZM47.1514 97.3986C46.8036 97.3986 46.5137 97.116 46.5137 96.7609C46.5137 96.4131 46.8036 96.1304 47.1514 96.1304C47.5065 96.1304 47.7964 96.4131 47.7964 96.7609C47.7964 97.116 47.5065 97.3986 47.1514 97.3986Z" fill="#0A0A0C"/>
<path d="M52.4054 106.58C50.3545 106.58 48.9704 105.08 48.9704 102.689C48.9704 100.29 50.3618 98.7973 52.4054 98.7973C54.4562 98.7973 55.8404 100.29 55.8404 102.689C55.8404 105.08 54.4562 106.58 52.4054 106.58ZM52.4054 105.733C53.8837 105.733 54.8693 104.602 54.8693 102.689C54.8693 100.776 53.8837 99.6452 52.4054 99.6452C50.927 99.6452 49.9487 100.776 49.9487 102.689C49.9487 104.602 50.927 105.733 52.4054 105.733Z" fill="#0A0A0C"/>
<path d="M57.1158 106.457V98.9205H58.0217V100.312H58.0434C58.4275 99.3988 59.3116 98.7973 60.5291 98.7973C62.1814 98.7973 63.1959 99.8626 63.1959 101.573V106.457H62.2393V101.725C62.2393 100.406 61.5147 99.6524 60.2537 99.6524C58.9493 99.6524 58.0724 100.595 58.0724 101.993V106.457H57.1158Z" fill="#0A0A0C"/>
<path d="M64.6598 100.935C64.6598 99.6886 65.7758 98.7973 67.3701 98.7973C68.9137 98.7973 70.0152 99.7031 70.1094 101.029H69.1891C69.0731 100.138 68.3847 99.5872 67.3411 99.5872C66.3121 99.5872 65.6091 100.131 65.6091 100.884C65.6091 101.5 66.0512 101.877 67.0585 102.124L68.1745 102.392C69.6819 102.769 70.2471 103.319 70.2471 104.399C70.2471 105.675 69.0514 106.58 67.3484 106.58C65.7323 106.58 64.5656 105.675 64.4424 104.348H65.399C65.5367 105.24 66.2758 105.79 67.4063 105.79C68.5369 105.79 69.2833 105.261 69.2833 104.472C69.2833 103.819 68.9064 103.472 67.8991 103.225L66.6744 102.921C65.312 102.58 64.6598 101.935 64.6598 100.935Z" fill="#0A0A0C"/>
<path d="M74.7329 96H78.1244C81.2551 96 83.0813 97.9204 83.0813 101.225C83.0813 104.537 81.2623 106.457 78.1244 106.457H74.7329V96ZM75.7257 96.8986V105.559H78.0665C80.6391 105.559 82.074 104.008 82.074 101.232C82.074 98.4494 80.6391 96.8986 78.0665 96.8986H75.7257Z" fill="#0A0A0C"/>
<path d="M87.5236 106.58C85.4727 106.58 84.0886 105.08 84.0886 102.689C84.0886 100.29 85.48 98.7973 87.5236 98.7973C89.5745 98.7973 90.9586 100.29 90.9586 102.689C90.9586 105.08 89.5745 106.58 87.5236 106.58ZM87.5236 105.733C89.002 105.733 89.9875 104.602 89.9875 102.689C89.9875 100.776 89.002 99.6452 87.5236 99.6452C86.0452 99.6452 85.0669 100.776 85.0669 102.689C85.0669 104.602 86.0452 105.733 87.5236 105.733Z" fill="#0A0A0C"/>
<path d="M98.3649 101.305H97.4228C97.2199 100.377 96.459 99.6452 95.2705 99.6452C93.7994 99.6452 92.8355 100.826 92.8355 102.689C92.8355 104.58 93.8066 105.733 95.2777 105.733C96.4155 105.733 97.2054 105.102 97.4228 104.124H98.3721C98.162 105.566 96.9373 106.58 95.2705 106.58C93.2124 106.58 91.8572 105.102 91.8572 102.689C91.8572 100.312 93.2124 98.7973 95.2632 98.7973C97.0387 98.7973 98.1765 99.9568 98.3649 101.305Z" fill="#0A0A0C"/>
<path d="M99.9809 97.0363H100.938V98.9205H102.423V99.7176H100.938V104.559C100.938 105.334 101.242 105.667 101.938 105.667C102.039 105.667 102.401 105.653 102.459 105.638V106.457C102.358 106.479 101.952 106.501 101.749 106.501C100.488 106.501 99.9809 105.964 99.9809 104.602V99.7176H98.8577V98.9205H99.9809V97.0363Z" fill="#0A0A0C"/>
<path d="M106.583 106.58C104.532 106.58 103.148 105.08 103.148 102.689C103.148 100.29 104.539 98.7973 106.583 98.7973C108.634 98.7973 110.018 100.29 110.018 102.689C110.018 105.08 108.634 106.58 106.583 106.58ZM106.583 105.733C108.061 105.733 109.047 104.602 109.047 102.689C109.047 100.776 108.061 99.6452 106.583 99.6452C105.104 99.6452 104.126 100.776 104.126 102.689C104.126 104.602 105.104 105.733 106.583 105.733Z" fill="#0A0A0C"/>
<path d="M111.293 106.457V98.9205H112.199V100.261H112.221C112.496 99.3408 113.199 98.7973 114.127 98.7973C114.38 98.7973 114.605 98.848 114.721 98.877V99.8191C114.598 99.7611 114.33 99.7104 114.004 99.7104C112.931 99.7104 112.25 100.544 112.25 101.761V106.457H111.293Z" fill="#0A0A0C"/>
<defs>
<filter id="filter0_d_1888_1684" x="22.5" y="0" width="70" height="71" filterUnits="userSpaceOnUse" color-interpolation-filters="sRGB">
<feFlood flood-opacity="0" result="BackgroundImageFix"/>
<feColorMatrix in="SourceAlpha" type="matrix" values="0 0 0 0 0 0 0 0 0 0 0 0 0 0 0 0 0 0 127 0" result="hardAlpha"/>
<feOffset dy="1"/>
<feComposite in2="hardAlpha" operator="out"/>
<feColorMatrix type="matrix" values="0 0 0 0 0.0392157 0 0 0 0 0.0392157 0 0 0 0 0.0470588 0 0 0 1 0"/>
<feBlend mode="normal" in2="BackgroundImageFix" result="effect1_dropShadow_1888_1684"/>
<feBlend mode="normal" in="SourceGraphic" in2="effect1_dropShadow_1888_1684" result="shape"/>
</filter>
</defs>
</svg>
