<svg width="39" height="30" viewBox="0 0 39 30" fill="none" xmlns="http://www.w3.org/2000/svg">
<g clip-path="url(#clip0_3457_660)">
<path d="M38.7879 23.8512C38.7879 27.1705 36.085 29.8733 32.7658 29.8733H0V6.02212C0 2.70288 2.70288 0 6.02212 0H38.7879V23.8512Z" fill="white"/>
<path d="M28.1188 17.7341H30.6082C30.6794 17.7341 30.8453 17.7104 30.9165 17.7104C31.3907 17.6156 31.7938 17.1888 31.7938 16.596C31.7938 16.0271 31.3907 15.6003 30.9165 15.4818C30.8453 15.458 30.7032 15.458 30.6083 15.458H28.1189V17.7341H28.1188Z" fill="url(#paint0_linear_3457_660)"/>
<path d="M30.3238 2.01562C27.9529 2.01562 26.0086 3.93623 26.0086 6.33078V10.8118H32.102C32.2442 10.8118 32.4101 10.8118 32.5286 10.8355C33.9038 10.9067 34.9233 11.6179 34.9233 12.8506C34.9233 13.8227 34.2357 14.6526 32.9554 14.8187V14.8659C34.3542 14.9608 35.4212 15.7432 35.4212 16.9523C35.4212 18.2564 34.2357 19.1099 32.6709 19.1099H25.985V27.8823H32.3153C34.6862 27.8823 36.6304 25.9618 36.6304 23.5671V2.01562H30.3238Z" fill="url(#paint1_linear_3457_660)"/>
<path d="M31.4854 13.1351C31.4854 12.566 31.0824 12.1866 30.6082 12.1154C30.5609 12.1154 30.4423 12.0918 30.3712 12.0918H28.1188V14.1782H30.3712C30.4424 14.1782 30.5845 14.1782 30.6083 14.1545C31.0826 14.0833 31.4856 13.7041 31.4856 13.135L31.4854 13.1351Z" fill="url(#paint2_linear_3457_660)"/>
<path d="M6.47258 2.01562C4.10167 2.01562 2.15743 3.93623 2.15743 6.33078V16.9762C3.36667 17.5688 4.62318 17.9482 5.87985 17.9482C7.37349 17.9482 8.17955 17.0473 8.17955 15.8144V10.788H11.8782V15.7906C11.8782 17.7347 10.6691 19.3234 6.56743 19.3234C4.07803 19.3234 2.13379 18.7779 2.13379 18.7779V27.8585H8.46409C10.835 27.8585 12.7792 25.938 12.7792 23.5434V2.01593H6.47242L6.47258 2.01562Z" fill="url(#paint3_linear_3457_660)"/>
<path d="M18.3982 2.01562C16.0273 2.01562 14.083 3.93623 14.083 6.33078V11.9735C15.1738 11.0488 17.0704 10.4561 20.1289 10.5984C21.7648 10.6696 23.5192 11.12 23.5192 11.12V12.9456C22.6419 12.4952 21.5989 12.092 20.2474 11.9971C17.9239 11.8312 16.5251 12.9693 16.5251 14.9608C16.5251 16.9761 17.9239 18.1141 20.2474 17.9244C21.5989 17.8296 22.6421 17.4029 23.5192 16.9761V18.8017C23.5192 18.8017 21.7885 19.2521 20.1289 19.3234C17.0704 19.4655 15.1738 18.8727 14.0832 17.9482V27.9059H20.4135C22.7844 27.9059 24.7285 25.9855 24.7285 23.5908V2.01593H18.3982V2.01562Z" fill="url(#paint4_linear_3457_660)"/>
</g>
<defs>
<linearGradient id="paint0_linear_3457_660" x1="26.0047" y1="16.5989" x2="36.6591" y2="16.5989" gradientUnits="userSpaceOnUse">
<stop stop-color="#007940"/>
<stop offset="0.2285" stop-color="#00873F"/>
<stop offset="0.7433" stop-color="#40A737"/>
<stop offset="1" stop-color="#5CB531"/>
</linearGradient>
<linearGradient id="paint1_linear_3457_660" x1="26.0045" y1="14.9386" x2="36.6595" y2="14.9386" gradientUnits="userSpaceOnUse">
<stop stop-color="#007940"/>
<stop offset="0.2285" stop-color="#00873F"/>
<stop offset="0.7433" stop-color="#40A737"/>
<stop offset="1" stop-color="#5CB531"/>
</linearGradient>
<linearGradient id="paint2_linear_3457_660" x1="26.0043" y1="13.132" x2="36.6594" y2="13.132" gradientUnits="userSpaceOnUse">
<stop stop-color="#007940"/>
<stop offset="0.2285" stop-color="#00873F"/>
<stop offset="0.7433" stop-color="#40A737"/>
<stop offset="1" stop-color="#5CB531"/>
</linearGradient>
<linearGradient id="paint3_linear_3457_660" x1="2.15253" y1="14.9386" x2="12.9717" y2="14.9386" gradientUnits="userSpaceOnUse">
<stop stop-color="#1F286F"/>
<stop offset="0.4751" stop-color="#004E94"/>
<stop offset="0.8261" stop-color="#0066B1"/>
<stop offset="1" stop-color="#006FBC"/>
</linearGradient>
<linearGradient id="paint4_linear_3457_660" x1="14.0217" y1="14.9385" x2="24.5297" y2="14.9385" gradientUnits="userSpaceOnUse">
<stop stop-color="#6C2C2F"/>
<stop offset="0.1735" stop-color="#882730"/>
<stop offset="0.5731" stop-color="#BE1833"/>
<stop offset="0.8585" stop-color="#DC0436"/>
<stop offset="1" stop-color="#E60039"/>
</linearGradient>
<clipPath id="clip0_3457_660">
<rect width="38.7879" height="30" fill="white"/>
</clipPath>
</defs>
</svg>
