<svg width="14" height="15" viewBox="0 0 14 15" fill="none" xmlns="http://www.w3.org/2000/svg">
<g clip-path="url(#clip0_436_1020)">
<path fill-rule="evenodd" clip-rule="evenodd" d="M5.625 1.25195H8.375C10.9676 1.25195 12.2642 1.25195 13.0692 2.0577C13.875 2.86277 13.875 5.15939 13.875 7.75195C13.875 10.3445 13.875 12.6411 13.0692 13.4462C12.2642 14.252 10.9676 14.252 8.375 14.252H5.625C3.03244 14.252 1.73581 14.252 0.93075 13.4462C0.125 12.6411 0.125 10.3445 0.125 7.75195C0.125 5.15939 0.125 2.86277 0.93075 2.0577C1.73581 1.25195 3.03244 1.25195 5.625 1.25195ZM7.85938 5.68945C7.85938 5.5527 7.9137 5.42155 8.0104 5.32485C8.1071 5.22815 8.23825 5.17383 8.375 5.17383H11.8125C11.9493 5.17383 12.0804 5.22815 12.1771 5.32485C12.2738 5.42155 12.3281 5.5527 12.3281 5.68945C12.3281 5.82621 12.2738 5.95736 12.1771 6.05405C12.0804 6.15075 11.9493 6.20508 11.8125 6.20508H8.375C8.23825 6.20508 8.1071 6.15075 8.0104 6.05405C7.9137 5.95736 7.85938 5.82621 7.85938 5.68945ZM8.54688 7.75195C8.54688 7.6152 8.6012 7.48405 8.6979 7.38735C8.7946 7.29065 8.92575 7.23633 9.0625 7.23633H11.8125C11.9493 7.23633 12.0804 7.29065 12.1771 7.38735C12.2738 7.48405 12.3281 7.6152 12.3281 7.75195C12.3281 7.88871 12.2738 8.01986 12.1771 8.11655C12.0804 8.21325 11.9493 8.26758 11.8125 8.26758H9.0625C8.92575 8.26758 8.7946 8.21325 8.6979 8.11655C8.6012 8.01986 8.54688 7.88871 8.54688 7.75195ZM9.23438 9.81445C9.23438 9.6777 9.2887 9.54655 9.3854 9.44985C9.4821 9.35315 9.61325 9.29883 9.75 9.29883H11.8125C11.9493 9.29883 12.0804 9.35315 12.1771 9.44985C12.2738 9.54655 12.3281 9.6777 12.3281 9.81445C12.3281 9.95121 12.2738 10.0824 12.1771 10.1791C12.0804 10.2758 11.9493 10.3301 11.8125 10.3301H9.75C9.61325 10.3301 9.4821 10.2758 9.3854 10.1791C9.2887 10.0824 9.23438 9.95121 9.23438 9.81445ZM6.3125 5.68945C6.3125 6.05413 6.16763 6.40386 5.90977 6.66172C5.65191 6.91959 5.30217 7.06445 4.9375 7.06445C4.57283 7.06445 4.22309 6.91959 3.96523 6.66172C3.70737 6.40386 3.5625 6.05413 3.5625 5.68945C3.5625 5.32478 3.70737 4.97504 3.96523 4.71718C4.22309 4.45932 4.57283 4.31445 4.9375 4.31445C5.30217 4.31445 5.65191 4.45932 5.90977 4.71718C6.16763 4.97504 6.3125 5.32478 6.3125 5.68945ZM4.9375 11.1895C7.6875 11.1895 7.6875 10.5741 7.6875 9.81445C7.6875 9.05477 6.45687 8.43945 4.9375 8.43945C3.41812 8.43945 2.1875 9.05477 2.1875 9.81445C2.1875 10.5741 2.1875 11.1895 4.9375 11.1895Z" fill="#0060F7"/>
</g>
<defs>
<clipPath id="clip0_436_1020">
<rect width="14" height="14" fill="white" transform="translate(0 0.751953)"/>
</clipPath>
</defs>
</svg>
