<svg width="71" height="71" viewBox="0 0 71 71" fill="none" xmlns="http://www.w3.org/2000/svg">
<g filter="url(#filter0_d_311_2835)">
<circle cx="35.5" cy="35" r="35" fill="white"/>
</g>
<defs>
<filter id="filter0_d_311_2835" x="0.5" y="0" width="70" height="71" filterUnits="userSpaceOnUse" color-interpolation-filters="sRGB">
<feFlood flood-opacity="0" result="BackgroundImageFix"/>
<feColorMatrix in="SourceAlpha" type="matrix" values="0 0 0 0 0 0 0 0 0 0 0 0 0 0 0 0 0 0 127 0" result="hardAlpha"/>
<feOffset dy="1"/>
<feComposite in2="hardAlpha" operator="out"/>
<feColorMatrix type="matrix" values="0 0 0 0 0 0 0 0 0 0.376471 0 0 0 0 0.968627 0 0 0 1 0"/>
<feBlend mode="normal" in2="BackgroundImageFix" result="effect1_dropShadow_311_2835"/>
<feBlend mode="normal" in="SourceGraphic" in2="effect1_dropShadow_311_2835" result="shape"/>
</filter>
</defs>
<path d="M10.5 35C10.5 48.8071 21.6929 60 35.5 60C37.5826 60 39.6056 59.7454 41.5398 59.2655C41.3082 58.6894 41.1807 58.0603 41.1807 57.4014C41.1807 54.6399 43.4193 52.4014 46.1807 52.4014C48.0578 52.4014 49.6933 53.4357 50.5483 54.9655C56.593 50.4023 60.5 43.1574 60.5 35C60.5 21.1929 49.3071 10 35.5 10C32.7234 10 30.0525 10.4526 27.5571 11.2882C27.924 11.9838 28.1317 12.7763 28.1317 13.6174C28.1317 16.3789 25.8931 18.6174 23.1317 18.6174C21.3563 18.6174 19.7971 17.6922 18.9099 16.2975C13.7509 20.8772 10.5 27.559 10.5 35Z" fill="#0060F7"/>
<path fill-rule="evenodd" clip-rule="evenodd" d="M34.6647 21.1419C35.1261 20.6806 35.874 20.6806 36.3354 21.1419L48.9922 33.7987C49.4535 34.2601 49.4535 35.008 48.9922 35.4694C48.5309 35.9307 47.7829 35.9307 47.3216 35.4694L35.5 23.6478L25.6945 33.4534C26.329 33.4738 26.8371 33.9946 26.8371 34.634V44.4783C26.8371 44.9109 27.009 45.3258 27.3149 45.6318C27.6209 45.9377 28.0358 46.1096 28.4685 46.1096H35.0781C35.7306 46.1096 36.2595 46.6385 36.2595 47.2909C36.2595 47.9433 35.7306 48.4722 35.0781 48.4722H28.4685C27.4092 48.4722 26.3933 48.0514 25.6443 47.3024C24.8953 46.5534 24.4745 45.5375 24.4745 44.4783V35.8154H22.8432C22.3654 35.8154 21.9347 35.5275 21.7518 35.0861C21.569 34.6447 21.67 34.1366 22.0079 33.7987L34.6647 21.1419Z" fill="white"/>
<path fill-rule="evenodd" clip-rule="evenodd" d="M34.0937 35.8719C33.6611 35.8719 33.2461 36.0438 32.9402 36.3497C32.6343 36.6556 32.4624 37.0706 32.4624 37.5032V47.2912C32.4624 47.9436 31.9335 48.4725 31.2811 48.4725C30.6287 48.4725 30.0998 47.9436 30.0998 47.2912V37.5032C30.0998 36.444 30.5206 35.4281 31.2696 34.6791C32.0186 33.9301 33.0345 33.5093 34.0937 33.5093H48.0444C48.6968 33.5093 49.2257 34.0382 49.2257 34.6906C49.2257 35.343 48.6968 35.8719 48.0444 35.8719H34.0937ZM37.7568 38.5786C38.7695 37.5659 40.1431 36.9969 41.5753 36.9969C43.0076 36.9969 44.3811 37.5659 45.3939 38.5786C46.4066 39.5914 46.9756 40.965 46.9756 42.3972C46.9756 43.4289 46.6804 44.4301 46.1367 45.288L48.0359 47.1871C48.4972 47.6485 48.4972 48.3964 48.0359 48.8578C47.5746 49.3191 46.8266 49.3191 46.3653 48.8578L44.4661 46.9586C43.6082 47.5022 42.607 47.7974 41.5753 47.7974C40.1431 47.7974 38.7695 47.2285 37.7568 46.2157C36.744 45.203 36.1751 43.8294 36.1751 42.3972C36.1751 40.965 36.744 39.5914 37.7568 38.5786ZM41.5753 39.3596C40.7697 39.3596 39.9971 39.6796 39.4274 40.2493C38.8577 40.8189 38.5377 41.5916 38.5377 42.3972C38.5377 43.2028 38.8577 43.9755 39.4274 44.5451C39.9971 45.1148 40.7697 45.4348 41.5753 45.4348C42.381 45.4348 43.1536 45.1148 43.7233 44.5451C44.2929 43.9755 44.613 43.2028 44.613 42.3972C44.613 41.5916 44.2929 40.8189 43.7233 40.2493C43.1536 39.6796 42.381 39.3596 41.5753 39.3596Z" fill="white"/>
</svg>
