<svg width="29" height="29" viewBox="0 0 29 29" fill="none" xmlns="http://www.w3.org/2000/svg">
<path d="M17.2074 4.83154C17.6617 4.83146 18.1036 4.97939 18.4663 5.25294C18.829 5.52648 19.0926 5.91074 19.2174 6.34754C20.0174 8.67054 21.4674 11.9765 22.5444 13.4705C22.7409 12.9378 22.8715 12.383 22.9334 11.8185C22.9534 11.6305 23.0854 10.4085 23.2694 9.86254C23.4904 9.20454 23.9474 8.63854 24.6334 8.41654C25.7504 8.05654 26.9634 8.71654 27.3434 9.89354C27.3784 10.0015 27.4054 10.1105 27.4234 10.2195C27.5534 10.7795 27.4634 11.2925 27.4094 11.6315C27.2707 12.5038 27.151 13.379 27.0504 14.2565C26.8968 15.8493 26.9388 17.4549 27.1754 19.0375C27.4754 20.4505 27.3944 21.9495 27.3154 22.5225C26.4554 28.8325 19.4684 29.3025 17.5034 28.3725C16.1644 27.9375 14.7454 26.9025 12.7934 24.9045C10.5104 22.5695 8.42539 19.9995 7.26439 18.2615C6.99979 17.9115 6.85345 17.4863 6.84657 17.0476C6.83968 16.6088 6.97261 16.1792 7.2261 15.8211C7.47959 15.4629 7.84049 15.1947 8.25656 15.0552C8.67262 14.9158 9.12227 14.9124 9.54039 15.0455C9.16339 14.3105 8.86039 13.6685 8.62339 12.9585C8.46594 12.5024 8.47304 12.0055 8.64346 11.5541C8.81389 11.1026 9.1369 10.725 9.55651 10.4867C9.97612 10.2484 10.4659 10.1644 10.9409 10.2493C11.4159 10.3342 11.8463 10.5826 12.1574 10.9515C12.0374 10.6845 11.3224 8.91954 11.1974 8.09754C11.1324 7.36872 11.3163 6.53894 12.1732 6.00378C12.8203 5.64435 13.3438 5.68879 13.6621 5.77213C13.8737 5.74767 14.5929 6.02947 15.0747 6.78167C15.2179 6.30044 15.4283 4.95023 17.2074 4.83154Z" fill="#F5BFAE"/>
<path d="M17.2074 4.83197C17.6617 4.83189 18.1036 4.97982 18.4663 5.25337C18.829 5.52691 19.0926 5.91117 19.2174 6.34797C20.0174 8.67097 21.4674 11.977 22.5444 13.471C22.7409 12.9382 22.8715 12.3834 22.9334 11.819C22.9534 11.631 23.0854 10.409 23.2694 9.86297C23.4904 9.20497 23.9474 8.63897 24.6334 8.41697C25.7504 8.05697 26.9634 8.71697 27.3434 9.89397C27.3784 10.002 27.4054 10.111 27.4234 10.22C27.5534 10.78 27.4634 11.293 27.4094 11.632C27.2707 12.5043 27.151 13.3795 27.0504 14.257C26.8968 15.8498 26.9388 17.4554 27.1754 19.038C27.4754 20.451 27.3944 21.95 27.3154 22.523C26.4554 28.833 19.4684 29.303 17.5034 28.373C16.1644 27.938 14.7454 26.903 12.7934 24.905C10.5104 22.57 8.42539 20 7.26439 18.262C6.99979 17.9119 6.85345 17.4867 6.84657 17.048C6.83968 16.6092 6.97261 16.1797 7.2261 15.8215C7.47959 15.4633 7.84049 15.1951 8.25656 15.0557C8.67262 14.9162 9.12227 14.9128 9.54039 15.046C9.16339 14.311 8.86039 13.669 8.62339 12.959C8.46594 12.5028 8.47304 12.006 8.64346 11.5545C8.81389 11.103 9.1369 10.7254 9.55651 10.4871C9.97612 10.2488 10.4659 10.1649 10.9409 10.2498C11.4159 10.3347 11.8463 10.5831 12.1574 10.952C12.0374 10.685 11.3224 8.91997 11.1974 8.09797C10.7643 7.301 10.6655 6.36462 10.9228 5.49482C11.1801 4.62503 11.7724 3.89307 12.5694 3.45997C13.3664 3.02688 14.3028 2.92811 15.1725 3.18541C16.0423 3.44271 16.7743 4.035 17.2074 4.83197Z" fill="url(#paint0_radial_1756_4146)"/>
<path d="M17.2074 4.83197C17.6617 4.83189 18.1036 4.97982 18.4663 5.25337C18.829 5.52691 19.0926 5.91117 19.2174 6.34797C20.0174 8.67097 21.4674 11.977 22.5444 13.471C22.7409 12.9382 22.8715 12.3834 22.9334 11.819C22.9534 11.631 23.0854 10.409 23.2694 9.86297C23.4904 9.20497 23.9474 8.63897 24.6334 8.41697C25.7504 8.05697 26.9634 8.71697 27.3434 9.89397C27.3784 10.002 27.4054 10.111 27.4234 10.22C27.5534 10.78 27.4634 11.293 27.4094 11.632C27.2707 12.5043 27.151 13.3795 27.0504 14.257C26.8968 15.8498 26.9388 17.4554 27.1754 19.038C27.4754 20.451 27.3944 21.95 27.3154 22.523C26.4554 28.833 19.4684 29.303 17.5034 28.373C16.1644 27.938 14.7454 26.903 12.7934 24.905C10.5104 22.57 8.42539 20 7.26439 18.262C6.99979 17.9119 6.85345 17.4867 6.84657 17.048C6.83968 16.6092 6.97261 16.1797 7.2261 15.8215C7.47959 15.4633 7.84049 15.1951 8.25656 15.0557C8.67262 14.9162 9.12227 14.9128 9.54039 15.046C9.16339 14.311 8.86039 13.669 8.62339 12.959C8.46594 12.5028 8.47304 12.006 8.64346 11.5545C8.81389 11.103 9.1369 10.7254 9.55651 10.4871C9.97612 10.2488 10.4659 10.1649 10.9409 10.2498C11.4159 10.3347 11.8463 10.5831 12.1574 10.952C12.0374 10.685 11.3224 8.91997 11.1974 8.09797C10.7643 7.301 10.6655 6.36462 10.9228 5.49482C11.1801 4.62503 11.7724 3.89307 12.5694 3.45997C13.3664 3.02688 14.3028 2.92811 15.1725 3.18541C16.0423 3.44271 16.7743 4.035 17.2074 4.83197Z" fill="url(#paint1_linear_1756_4146)"/>
<path d="M15.1184 6.89497C15.1474 7.14297 15.2204 7.46097 15.3704 7.85097C15.4354 8.02097 15.5144 8.23797 15.6074 8.49397C16.0264 9.72097 16.8134 11.802 17.8574 13.704C18.2504 14.42 18.9674 14.924 19.7844 14.885C20.8604 14.835 22.0964 14.48 22.5704 13.421L22.5674 13.411C22.5599 13.431 22.5522 13.451 22.5444 13.471C21.4674 11.977 20.0174 8.67097 19.2174 6.34797C19.0793 5.86585 18.7725 5.44947 18.3528 5.17481C17.9332 4.90015 17.4289 4.78553 16.9318 4.85187C16.4347 4.9182 15.978 5.16107 15.6451 5.53615C15.3122 5.91123 15.1253 6.39351 15.1184 6.89497Z" fill="url(#paint2_radial_1756_4146)"/>
<path d="M15.1184 6.89497C15.1474 7.14297 15.2204 7.46097 15.3704 7.85097C15.4354 8.02097 15.5144 8.23797 15.6074 8.49397C16.0264 9.72097 16.8134 11.802 17.8574 13.704C18.2504 14.42 18.9674 14.924 19.7844 14.885C20.8604 14.835 22.0964 14.48 22.5704 13.421L22.5674 13.411C22.5599 13.431 22.5522 13.451 22.5444 13.471C21.4674 11.977 20.0174 8.67097 19.2174 6.34797C19.0793 5.86585 18.7725 5.44947 18.3528 5.17481C17.9332 4.90015 17.4289 4.78553 16.9318 4.85187C16.4347 4.9182 15.978 5.16107 15.6451 5.53615C15.3122 5.91123 15.1253 6.39351 15.1184 6.89497Z" fill="url(#paint3_radial_1756_4146)"/>
<path d="M15.1184 6.89497C15.1474 7.14297 15.2204 7.46097 15.3704 7.85097C15.4354 8.02097 15.5144 8.23797 15.6074 8.49397C16.0264 9.72097 16.8134 11.802 17.8574 13.704C18.2504 14.42 18.9674 14.924 19.7844 14.885C20.8604 14.835 22.0964 14.48 22.5704 13.421L22.5674 13.411C22.5599 13.431 22.5522 13.451 22.5444 13.471C21.4674 11.977 20.0174 8.67097 19.2174 6.34797C19.0793 5.86585 18.7725 5.44947 18.3528 5.17481C17.9332 4.90015 17.4289 4.78553 16.9318 4.85187C16.4347 4.9182 15.978 5.16107 15.6451 5.53615C15.3122 5.91123 15.1253 6.39351 15.1184 6.89497Z" fill="url(#paint4_linear_1756_4146)"/>
<path d="M15.1184 6.89497C15.1474 7.14297 15.2204 7.46097 15.3704 7.85097C15.4354 8.02097 15.5144 8.23797 15.6074 8.49397C16.0264 9.72097 16.8134 11.802 17.8574 13.704C18.2504 14.42 18.9674 14.924 19.7844 14.885C20.8604 14.835 22.0964 14.48 22.5704 13.421L22.5674 13.411C22.5599 13.431 22.5522 13.451 22.5444 13.471C21.4674 11.977 20.0174 8.67097 19.2174 6.34797C19.0793 5.86585 18.7725 5.44947 18.3528 5.17481C17.9332 4.90015 17.4289 4.78553 16.9318 4.85187C16.4347 4.9182 15.978 5.16107 15.6451 5.53615C15.3122 5.91123 15.1253 6.39351 15.1184 6.89497Z" fill="url(#paint5_radial_1756_4146)"/>
<path d="M15.1184 6.89497C15.1474 7.14297 15.2204 7.46097 15.3704 7.85097C15.4354 8.02097 15.5144 8.23797 15.6074 8.49397C16.0264 9.72097 16.8134 11.802 17.8574 13.704C18.2504 14.42 18.9674 14.924 19.7844 14.885C20.8604 14.835 22.0964 14.48 22.5704 13.421L22.5674 13.411C22.5599 13.431 22.5522 13.451 22.5444 13.471C21.4674 11.977 20.0174 8.67097 19.2174 6.34797C19.0793 5.86585 18.7725 5.44947 18.3528 5.17481C17.9332 4.90015 17.4289 4.78553 16.9318 4.85187C16.4347 4.9182 15.978 5.16107 15.6451 5.53615C15.3122 5.91123 15.1253 6.39351 15.1184 6.89497Z" fill="url(#paint6_radial_1756_4146)"/>
<path d="M8.62733 12.9586C8.4709 12.505 8.47716 12.0111 8.64504 11.5616C8.81292 11.1121 9.13196 10.735 9.54745 10.495C9.96294 10.2549 10.449 10.1669 10.9223 10.2461C11.3955 10.3252 11.8265 10.5665 12.1413 10.9286C13.1753 13.0146 14.4503 15.4476 15.4173 16.8656C14.1873 18.5376 13.8913 19.3816 13.6373 20.1006C12.8553 19.0116 11.2213 16.7956 10.6373 16.0536C10.3233 15.6556 9.94133 15.1476 9.54733 15.0456C9.1805 14.3781 8.87267 13.6798 8.62733 12.9586Z" fill="url(#paint7_radial_1756_4146)"/>
<path d="M8.62733 12.9586C8.4709 12.505 8.47716 12.0111 8.64504 11.5616C8.81292 11.1121 9.13196 10.735 9.54745 10.495C9.96294 10.2549 10.449 10.1669 10.9223 10.2461C11.3955 10.3252 11.8265 10.5665 12.1413 10.9286C13.1753 13.0146 14.4503 15.4476 15.4173 16.8656C14.1873 18.5376 13.8913 19.3816 13.6373 20.1006C12.8553 19.0116 11.2213 16.7956 10.6373 16.0536C10.3233 15.6556 9.94133 15.1476 9.54733 15.0456C9.1805 14.3781 8.87267 13.6798 8.62733 12.9586Z" fill="url(#paint8_radial_1756_4146)"/>
<path d="M8.62733 12.9586C8.4709 12.505 8.47716 12.0111 8.64504 11.5616C8.81292 11.1121 9.13196 10.735 9.54745 10.495C9.96294 10.2549 10.449 10.1669 10.9223 10.2461C11.3955 10.3252 11.8265 10.5665 12.1413 10.9286C13.1753 13.0146 14.4503 15.4476 15.4173 16.8656C14.1873 18.5376 13.8913 19.3816 13.6373 20.1006C12.8553 19.0116 11.2213 16.7956 10.6373 16.0536C10.3233 15.6556 9.94133 15.1476 9.54733 15.0456C9.1805 14.3781 8.87267 13.6798 8.62733 12.9586Z" fill="url(#paint9_radial_1756_4146)"/>
<path d="M8.62733 12.9586C8.4709 12.505 8.47716 12.0111 8.64504 11.5616C8.81292 11.1121 9.13196 10.735 9.54745 10.495C9.96294 10.2549 10.449 10.1669 10.9223 10.2461C11.3955 10.3252 11.8265 10.5665 12.1413 10.9286C13.1753 13.0146 14.4503 15.4476 15.4173 16.8656C14.1873 18.5376 13.8913 19.3816 13.6373 20.1006C12.8553 19.0116 11.2213 16.7956 10.6373 16.0536C10.3233 15.6556 9.94133 15.1476 9.54733 15.0456C9.1805 14.3781 8.87267 13.6798 8.62733 12.9586Z" fill="url(#paint10_linear_1756_4146)"/>
<path d="M8.62733 12.9586C8.4709 12.505 8.47716 12.0111 8.64504 11.5616C8.81292 11.1121 9.13196 10.735 9.54745 10.495C9.96294 10.2549 10.449 10.1669 10.9223 10.2461C11.3955 10.3252 11.8265 10.5665 12.1413 10.9286C13.1753 13.0146 14.4503 15.4476 15.4173 16.8656C14.1873 18.5376 13.8913 19.3816 13.6373 20.1006C12.8553 19.0116 11.2213 16.7956 10.6373 16.0536C10.3233 15.6556 9.94133 15.1476 9.54733 15.0456C9.1805 14.3781 8.87267 13.6798 8.62733 12.9586Z" fill="url(#paint11_radial_1756_4146)"/>
<g filter="url(#filter0_f_1756_4146)">
<path d="M14.2394 18.1316C12.5384 15.3176 11.4434 13.2816 10.8294 12.2356C10.7551 12.1102 10.731 11.9613 10.762 11.8188C10.7929 11.6763 10.8767 11.5508 10.9964 11.4676C11.0596 11.4248 11.1308 11.3955 11.2058 11.3815C11.2807 11.3675 11.3578 11.3691 11.4321 11.3862C11.5064 11.4032 11.5764 11.4355 11.6377 11.4808C11.699 11.5261 11.7503 11.5836 11.7884 11.6496L13.1574 14.0266L14.8434 17.0846C14.6564 17.5846 14.4374 17.9746 14.2394 18.1316Z" fill="#FFD6C0"/>
</g>
<path d="M22.5404 13.4656L22.5444 13.4706C22.7344 12.9786 22.8734 12.3606 22.9334 11.8186L22.9354 11.8006C22.9614 11.5626 23.0914 10.3936 23.2694 9.86262C23.4904 9.20462 23.9474 8.63862 24.6334 8.41662C25.7504 8.05662 26.9634 8.71662 27.3434 9.89362C27.3784 10.0016 27.4054 10.1116 27.4234 10.2196C27.5494 10.7576 27.4704 11.2536 27.4164 11.5926L27.4104 11.6316C27.2714 12.5039 27.1513 13.3791 27.0504 14.2566C26.9564 15.1566 26.8974 16.5836 27.0704 18.2236C24.8004 18.6606 23.4064 17.2256 22.9354 16.3976C22.4264 15.5016 22.3214 13.7996 22.5404 13.4656Z" fill="url(#paint12_radial_1756_4146)"/>
<path d="M22.5404 13.4656L22.5444 13.4706C22.7344 12.9786 22.8734 12.3606 22.9334 11.8186L22.9354 11.8006C22.9614 11.5626 23.0914 10.3936 23.2694 9.86262C23.4904 9.20462 23.9474 8.63862 24.6334 8.41662C25.7504 8.05662 26.9634 8.71662 27.3434 9.89362C27.3784 10.0016 27.4054 10.1116 27.4234 10.2196C27.5494 10.7576 27.4704 11.2536 27.4164 11.5926L27.4104 11.6316C27.2714 12.5039 27.1513 13.3791 27.0504 14.2566C26.9564 15.1566 26.8974 16.5836 27.0704 18.2236C24.8004 18.6606 23.4064 17.2256 22.9354 16.3976C22.4264 15.5016 22.3214 13.7996 22.5404 13.4656Z" fill="url(#paint13_radial_1756_4146)"/>
<path d="M22.5404 13.4656L22.5444 13.4706C22.7344 12.9786 22.8734 12.3606 22.9334 11.8186L22.9354 11.8006C22.9614 11.5626 23.0914 10.3936 23.2694 9.86262C23.4904 9.20462 23.9474 8.63862 24.6334 8.41662C25.7504 8.05662 26.9634 8.71662 27.3434 9.89362C27.3784 10.0016 27.4054 10.1116 27.4234 10.2196C27.5494 10.7576 27.4704 11.2536 27.4164 11.5926L27.4104 11.6316C27.2714 12.5039 27.1513 13.3791 27.0504 14.2566C26.9564 15.1566 26.8974 16.5836 27.0704 18.2236C24.8004 18.6606 23.4064 17.2256 22.9354 16.3976C22.4264 15.5016 22.3214 13.7996 22.5404 13.4656Z" fill="url(#paint14_radial_1756_4146)"/>
<g filter="url(#filter1_f_1756_4146)">
<path d="M26.7751 10.9122C27.1458 10.7004 27.2006 10.0988 26.8976 9.56841C26.5946 9.03804 26.0485 8.77976 25.6778 8.99154C25.3071 9.20332 25.2522 9.80495 25.5552 10.3353C25.8582 10.8657 26.4044 11.124 26.7751 10.9122Z" fill="url(#paint15_radial_1756_4146)"/>
</g>
<g filter="url(#filter2_f_1756_4146)">
<path d="M26.2264 18.1157C25.2847 17.9031 24.4362 17.3936 23.8061 16.6623C23.1759 15.9309 22.7974 15.0165 22.7264 14.0537C22.2574 14.2617 21.7264 15.9137 22.0864 17.0227C22.7884 19.1927 25.0704 19.8457 25.6954 19.8657L26.2264 18.1157Z" fill="#FCC8B3"/>
</g>
<g filter="url(#filter3_f_1756_4146)">
<path d="M22.9074 15.5679C23.4134 16.3269 25.2084 17.1899 26.3124 17.4279C26.7704 18.6479 27.5314 24.2409 24.1564 26.4599C24.9414 25.0859 25.4924 20.0109 22.9074 15.5679Z" fill="url(#paint16_radial_1756_4146)"/>
</g>
<path d="M12.0564 10.7129C12.8014 12.3139 13.7274 14.3069 14.8884 16.0279C15.0954 16.3359 15.4684 16.4919 15.8124 16.3529C16.613 16.0182 17.3168 15.4881 17.8594 14.8109C18.0974 14.5139 18.0894 14.1009 17.9044 13.7689C17.0624 12.2639 15.8614 9.60294 15.1054 6.89294C14.8916 6.44558 14.5241 6.08999 14.0699 5.89102C13.6158 5.69204 13.1052 5.66295 12.6314 5.80905C12.1576 5.95515 11.7521 6.2667 11.4888 6.68687C11.2256 7.10705 11.1222 7.60785 11.1974 8.09794C11.3014 8.78594 11.8204 10.1349 12.0564 10.7129Z" fill="url(#paint17_radial_1756_4146)"/>
<path d="M12.0564 10.7129C12.8014 12.3139 13.7274 14.3069 14.8884 16.0279C15.0954 16.3359 15.4684 16.4919 15.8124 16.3529C16.613 16.0182 17.3168 15.4881 17.8594 14.8109C18.0974 14.5139 18.0894 14.1009 17.9044 13.7689C17.0624 12.2639 15.8614 9.60294 15.1054 6.89294C14.8916 6.44558 14.5241 6.08999 14.0699 5.89102C13.6158 5.69204 13.1052 5.66295 12.6314 5.80905C12.1576 5.95515 11.7521 6.2667 11.4888 6.68687C11.2256 7.10705 11.1222 7.60785 11.1974 8.09794C11.3014 8.78594 11.8204 10.1349 12.0564 10.7129Z" fill="url(#paint18_radial_1756_4146)"/>
<path d="M12.0564 10.7129C12.8014 12.3139 13.7274 14.3069 14.8884 16.0279C15.0954 16.3359 15.4684 16.4919 15.8124 16.3529C16.613 16.0182 17.3168 15.4881 17.8594 14.8109C18.0974 14.5139 18.0894 14.1009 17.9044 13.7689C17.0624 12.2639 15.8614 9.60294 15.1054 6.89294C14.8916 6.44558 14.5241 6.08999 14.0699 5.89102C13.6158 5.69204 13.1052 5.66295 12.6314 5.80905C12.1576 5.95515 11.7521 6.2667 11.4888 6.68687C11.2256 7.10705 11.1222 7.60785 11.1974 8.09794C11.3014 8.78594 11.8204 10.1349 12.0564 10.7129Z" fill="url(#paint19_linear_1756_4146)"/>
<path d="M12.0564 10.7129C12.8014 12.3139 13.7274 14.3069 14.8884 16.0279C15.0954 16.3359 15.4684 16.4919 15.8124 16.3529C16.613 16.0182 17.3168 15.4881 17.8594 14.8109C18.0974 14.5139 18.0894 14.1009 17.9044 13.7689C17.0624 12.2639 15.8614 9.60294 15.1054 6.89294C14.8916 6.44558 14.5241 6.08999 14.0699 5.89102C13.6158 5.69204 13.1052 5.66295 12.6314 5.80905C12.1576 5.95515 11.7521 6.2667 11.4888 6.68687C11.2256 7.10705 11.1222 7.60785 11.1974 8.09794C11.3014 8.78594 11.8204 10.1349 12.0564 10.7129Z" fill="url(#paint20_radial_1756_4146)"/>
<path d="M9.54039 15.0456C9.12227 14.9125 8.67262 14.9159 8.25656 15.0553C7.84049 15.1947 7.47959 15.463 7.2261 15.8211C6.97261 16.1793 6.83968 16.6089 6.84657 17.0476C6.85345 17.4864 6.99979 17.9116 7.26439 18.2616C8.26839 19.7646 9.96439 21.8906 11.8804 23.9486C14.2584 22.8346 14.0464 20.5686 13.6404 20.0876C13.6334 20.1096 11.6164 17.2976 10.6364 16.0536L10.5874 15.9916C10.2844 15.6046 9.92139 15.1416 9.54739 15.0456C9.40239 14.7806 9.40139 14.7736 9.54039 15.0456Z" fill="url(#paint21_radial_1756_4146)"/>
<path d="M9.54039 15.0456C9.12227 14.9125 8.67262 14.9159 8.25656 15.0553C7.84049 15.1947 7.47959 15.463 7.2261 15.8211C6.97261 16.1793 6.83968 16.6089 6.84657 17.0476C6.85345 17.4864 6.99979 17.9116 7.26439 18.2616C8.26839 19.7646 9.96439 21.8906 11.8804 23.9486C14.2584 22.8346 14.0464 20.5686 13.6404 20.0876C13.6334 20.1096 11.6164 17.2976 10.6364 16.0536L10.5874 15.9916C10.2844 15.6046 9.92139 15.1416 9.54739 15.0456C9.40239 14.7806 9.40139 14.7736 9.54039 15.0456Z" fill="url(#paint22_radial_1756_4146)"/>
<g filter="url(#filter4_f_1756_4146)">
<path d="M12.5774 21.2138C12.5487 21.3412 12.571 21.4747 12.6396 21.5859C12.7081 21.6971 12.8174 21.777 12.9442 21.8087C13.0709 21.8403 13.2049 21.821 13.3177 21.7551C13.4304 21.6891 13.5128 21.5817 13.5474 21.4558L12.5774 21.2138ZM20.9714 14.7708C21.0386 14.7687 21.1046 14.753 21.1657 14.7248C21.2267 14.6966 21.2814 14.6564 21.3265 14.6066C21.3716 14.5568 21.4062 14.4983 21.4282 14.4348C21.4502 14.3713 21.4592 14.304 21.4547 14.237C21.4501 14.1699 21.432 14.1045 21.4016 14.0445C21.3712 13.9846 21.3289 13.9314 21.2775 13.8882C21.226 13.845 21.1664 13.8125 21.1021 13.7929C21.0378 13.7732 20.9702 13.7667 20.9034 13.7738L20.9714 14.7708ZM13.5474 21.4558C13.8384 20.2908 14.6374 18.6788 15.9074 17.3258C17.1714 15.9758 18.8734 14.9158 20.9714 14.7708L20.9034 13.7738C18.4884 13.9398 16.5654 15.1608 15.1774 16.6408C13.7944 18.1158 12.9114 19.8788 12.5774 21.2138L13.5474 21.4558Z" fill="#F0BBA4"/>
</g>
<g filter="url(#filter5_f_1756_4146)">
<path d="M17.8754 6.02197C18.4054 8.30397 20.3904 12.101 21.5464 13.882" stroke="#FFE4C9" stroke-linecap="round"/>
</g>
<g filter="url(#filter6_f_1756_4146)">
<path d="M19.2024 9.06982C19.5464 9.87182 20.3724 11.9788 21.5464 13.6788" stroke="url(#paint23_linear_1756_4146)" stroke-width="0.7" stroke-linecap="round"/>
</g>
<g filter="url(#filter7_d_1756_4146)">
<path d="M18.8744 1.26074C20.6324 1.38574 23.5154 2.85874 23.4214 6.62374" stroke="#1B99E7" stroke-width="0.9" stroke-linecap="round"/>
<path d="M18.8744 1.26074C20.6324 1.38574 23.5154 2.85874 23.4214 6.62374" stroke="#0060F7" stroke-width="0.9" stroke-linecap="round"/>
</g>
<g filter="url(#filter8_d_1756_4146)">
<path d="M16.7024 2.83887C18.4524 2.89787 21.7184 4.41287 21.6014 8.45987" stroke="#1B99E7" stroke-width="0.9" stroke-linecap="round"/>
<path d="M16.7024 2.83887C18.4524 2.89787 21.7184 4.41287 21.6014 8.45987" stroke="#0060F7" stroke-width="0.9" stroke-linecap="round"/>
</g>
<path d="M2.4414 14.8267C2.2414 17.2967 3.6324 20.0467 7.1174 20.6237" stroke="url(#paint24_linear_1756_4146)" stroke-width="0.9" stroke-linecap="round"/>
<path d="M2.4414 14.8267C2.2414 17.2967 3.6324 20.0467 7.1174 20.6237" stroke="#0060F7" stroke-width="0.9" stroke-linecap="round"/>
<path d="M0.531378 16.6948C0.296378 19.1628 1.92938 21.6788 4.99138 22.0928" stroke="url(#paint25_linear_1756_4146)" stroke-width="0.9" stroke-linecap="round"/>
<path d="M0.531378 16.6948C0.296378 19.1628 1.92938 21.6788 4.99138 22.0928" stroke="#0060F7" stroke-width="0.9" stroke-linecap="round"/>
<g filter="url(#filter9_f_1756_4146)">
<path d="M12.8013 21.5247C11.5562 20.1471 10.3833 18.7058 9.28733 17.2067C9.18328 17.0605 9.13975 16.8797 9.16584 16.7021C9.19193 16.5245 9.28561 16.3639 9.42733 16.2537C9.57642 16.135 9.76649 16.0801 9.95594 16.1011C10.1454 16.1221 10.3188 16.2172 10.4383 16.3657L12.9423 19.4787C12.9543 20.3787 12.8533 21.2187 12.8013 21.5247Z" fill="#FFD6C0"/>
</g>
<g filter="url(#filter10_f_1756_4146)">
<path d="M14.0624 7.11572C14.3854 8.24072 15.8224 12.4807 17.3434 14.9127" stroke="#FDCBB6" stroke-linecap="round"/>
</g>
<defs>
<filter id="filter0_f_1756_4146" x="9.99878" y="10.6221" width="5.5946" height="8.25977" filterUnits="userSpaceOnUse" color-interpolation-filters="sRGB">
<feFlood flood-opacity="0" result="BackgroundImageFix"/>
<feBlend mode="normal" in="SourceGraphic" in2="BackgroundImageFix" result="shape"/>
<feGaussianBlur stdDeviation="0.375" result="effect1_foregroundBlur_1756_4146"/>
</filter>
<filter id="filter1_f_1756_4146" x="24.8595" y="8.41748" width="2.73389" height="3.06885" filterUnits="userSpaceOnUse" color-interpolation-filters="sRGB">
<feFlood flood-opacity="0" result="BackgroundImageFix"/>
<feBlend mode="normal" in="SourceGraphic" in2="BackgroundImageFix" result="shape"/>
<feGaussianBlur stdDeviation="0.25" result="effect1_foregroundBlur_1756_4146"/>
</filter>
<filter id="filter2_f_1756_4146" x="20.9678" y="13.0537" width="6.25854" height="7.81201" filterUnits="userSpaceOnUse" color-interpolation-filters="sRGB">
<feFlood flood-opacity="0" result="BackgroundImageFix"/>
<feBlend mode="normal" in="SourceGraphic" in2="BackgroundImageFix" result="shape"/>
<feGaussianBlur stdDeviation="0.5" result="effect1_foregroundBlur_1756_4146"/>
</filter>
<filter id="filter3_f_1756_4146" x="21.4073" y="14.0679" width="6.81604" height="13.8921" filterUnits="userSpaceOnUse" color-interpolation-filters="sRGB">
<feFlood flood-opacity="0" result="BackgroundImageFix"/>
<feBlend mode="normal" in="SourceGraphic" in2="BackgroundImageFix" result="shape"/>
<feGaussianBlur stdDeviation="0.75" result="effect1_foregroundBlur_1756_4146"/>
</filter>
<filter id="filter4_f_1756_4146" x="11.0652" y="12.271" width="11.8906" height="11.0527" filterUnits="userSpaceOnUse" color-interpolation-filters="sRGB">
<feFlood flood-opacity="0" result="BackgroundImageFix"/>
<feBlend mode="normal" in="SourceGraphic" in2="BackgroundImageFix" result="shape"/>
<feGaussianBlur stdDeviation="0.75" result="effect1_foregroundBlur_1756_4146"/>
</filter>
<filter id="filter5_f_1756_4146" x="16.1752" y="4.32197" width="7.07114" height="11.2599" filterUnits="userSpaceOnUse" color-interpolation-filters="sRGB">
<feFlood flood-opacity="0" result="BackgroundImageFix"/>
<feBlend mode="normal" in="SourceGraphic" in2="BackgroundImageFix" result="shape"/>
<feGaussianBlur stdDeviation="0.6" result="effect1_foregroundBlur_1756_4146"/>
</filter>
<filter id="filter6_f_1756_4146" x="18.1523" y="8.01973" width="4.44419" height="6.70908" filterUnits="userSpaceOnUse" color-interpolation-filters="sRGB">
<feFlood flood-opacity="0" result="BackgroundImageFix"/>
<feBlend mode="normal" in="SourceGraphic" in2="BackgroundImageFix" result="shape"/>
<feGaussianBlur stdDeviation="0.35" result="effect1_foregroundBlur_1756_4146"/>
</filter>
<filter id="filter7_d_1756_4146" x="18.0243" y="0.210547" width="6.44934" height="7.26318" filterUnits="userSpaceOnUse" color-interpolation-filters="sRGB">
<feFlood flood-opacity="0" result="BackgroundImageFix"/>
<feColorMatrix in="SourceAlpha" type="matrix" values="0 0 0 0 0 0 0 0 0 0 0 0 0 0 0 0 0 0 127 0" result="hardAlpha"/>
<feOffset dx="0.1" dy="-0.1"/>
<feGaussianBlur stdDeviation="0.25"/>
<feComposite in2="hardAlpha" operator="out"/>
<feColorMatrix type="matrix" values="0 0 0 0 0.0823529 0 0 0 0 0.337255 0 0 0 0 0.627451 0 0 0 1 0"/>
<feBlend mode="normal" in2="BackgroundImageFix" result="effect1_dropShadow_1756_4146"/>
<feBlend mode="normal" in="SourceGraphic" in2="effect1_dropShadow_1756_4146" result="shape"/>
</filter>
<filter id="filter8_d_1756_4146" x="15.8524" y="1.78867" width="6.802" height="7.521" filterUnits="userSpaceOnUse" color-interpolation-filters="sRGB">
<feFlood flood-opacity="0" result="BackgroundImageFix"/>
<feColorMatrix in="SourceAlpha" type="matrix" values="0 0 0 0 0 0 0 0 0 0 0 0 0 0 0 0 0 0 127 0" result="hardAlpha"/>
<feOffset dx="0.1" dy="-0.1"/>
<feGaussianBlur stdDeviation="0.25"/>
<feComposite in2="hardAlpha" operator="out"/>
<feColorMatrix type="matrix" values="0 0 0 0 0.0823529 0 0 0 0 0.337255 0 0 0 0 0.627451 0 0 0 1 0"/>
<feBlend mode="normal" in2="BackgroundImageFix" result="effect1_dropShadow_1756_4146"/>
<feBlend mode="normal" in="SourceGraphic" in2="effect1_dropShadow_1756_4146" result="shape"/>
</filter>
<filter id="filter9_f_1756_4146" x="8.40845" y="15.3467" width="5.28491" height="6.92822" filterUnits="userSpaceOnUse" color-interpolation-filters="sRGB">
<feFlood flood-opacity="0" result="BackgroundImageFix"/>
<feBlend mode="normal" in="SourceGraphic" in2="BackgroundImageFix" result="shape"/>
<feGaussianBlur stdDeviation="0.375" result="effect1_foregroundBlur_1756_4146"/>
</filter>
<filter id="filter10_f_1756_4146" x="12.5623" y="5.61572" width="6.28125" height="10.7969" filterUnits="userSpaceOnUse" color-interpolation-filters="sRGB">
<feFlood flood-opacity="0" result="BackgroundImageFix"/>
<feBlend mode="normal" in="SourceGraphic" in2="BackgroundImageFix" result="shape"/>
<feGaussianBlur stdDeviation="0.5" result="effect1_foregroundBlur_1756_4146"/>
</filter>
<radialGradient id="paint0_radial_1756_4146" cx="0" cy="0" r="1" gradientUnits="userSpaceOnUse" gradientTransform="translate(21.7124 13.127) rotate(99.3161) scale(16.791 18.7448)">
<stop offset="0.815" stop-color="#BA7D94" stop-opacity="0"/>
<stop offset="1" stop-color="#BA7D94"/>
</radialGradient>
<linearGradient id="paint1_linear_1756_4146" x1="12.8164" y1="21.259" x2="9.20039" y2="24.122" gradientUnits="userSpaceOnUse">
<stop stop-color="#BA7D94" stop-opacity="0"/>
<stop offset="1" stop-color="#BA7D94"/>
</linearGradient>
<radialGradient id="paint2_radial_1756_4146" cx="0" cy="0" r="1" gradientUnits="userSpaceOnUse" gradientTransform="translate(21.2851 9.85966) rotate(156.037) scale(4.10207 8.61847)">
<stop offset="0.719" stop-color="#E1A696" stop-opacity="0"/>
<stop offset="1" stop-color="#E1A696"/>
</radialGradient>
<radialGradient id="paint3_radial_1756_4146" cx="0" cy="0" r="1" gradientUnits="userSpaceOnUse" gradientTransform="translate(21.2844 9.85956) rotate(154.952) scale(5.1506 12.9593)">
<stop offset="0.769" stop-color="#DF9E84" stop-opacity="0"/>
<stop offset="1" stop-color="#DF9E84"/>
</radialGradient>
<linearGradient id="paint4_linear_1756_4146" x1="18.6094" y1="15.299" x2="18.2024" y2="13.194" gradientUnits="userSpaceOnUse">
<stop stop-color="#F5BFAE"/>
<stop offset="1" stop-color="#F5BFAE" stop-opacity="0"/>
</linearGradient>
<radialGradient id="paint5_radial_1756_4146" cx="0" cy="0" r="1" gradientUnits="userSpaceOnUse" gradientTransform="translate(22.5693 13.4912) rotate(-127.591) scale(3.72686 0.79712)">
<stop stop-color="#C8947A"/>
<stop offset="1" stop-color="#C8947A" stop-opacity="0"/>
</radialGradient>
<radialGradient id="paint6_radial_1756_4146" cx="0" cy="0" r="1" gradientUnits="userSpaceOnUse" gradientTransform="translate(17.6655 4.50064) rotate(84.463) scale(2.29203 2.86609)">
<stop stop-color="#E3B79C"/>
<stop offset="1" stop-color="#E3B79C" stop-opacity="0"/>
</radialGradient>
<radialGradient id="paint7_radial_1756_4146" cx="0" cy="0" r="1" gradientUnits="userSpaceOnUse" gradientTransform="translate(14.0311 14.2403) rotate(146.452) scale(3.50589 9.38314)">
<stop offset="0.425" stop-color="#E2A693" stop-opacity="0"/>
<stop offset="1" stop-color="#E2A693"/>
</radialGradient>
<radialGradient id="paint8_radial_1756_4146" cx="0" cy="0" r="1" gradientUnits="userSpaceOnUse" gradientTransform="translate(14.0313 14.2416) rotate(147.829) scale(4.57787 12.2522)">
<stop offset="0.625" stop-color="#E09E7E" stop-opacity="0"/>
<stop offset="1" stop-color="#E09E7E"/>
</radialGradient>
<radialGradient id="paint9_radial_1756_4146" cx="0" cy="0" r="1" gradientUnits="userSpaceOnUse" gradientTransform="translate(10.7273 16.1246) rotate(-32.6806) scale(3.93552 24.9102)">
<stop offset="0.692" stop-color="#D59271" stop-opacity="0"/>
<stop offset="1" stop-color="#D59271"/>
</radialGradient>
<linearGradient id="paint10_linear_1756_4146" x1="14.8753" y1="17.9906" x2="13.1563" y2="17.0846" gradientUnits="userSpaceOnUse">
<stop stop-color="#F5BFAE"/>
<stop offset="1" stop-color="#F5BFAE" stop-opacity="0"/>
</linearGradient>
<radialGradient id="paint11_radial_1756_4146" cx="0" cy="0" r="1" gradientUnits="userSpaceOnUse" gradientTransform="translate(10.8023 9.84964) rotate(83.1268) scale(2.30263 2.71948)">
<stop stop-color="#DAAA90"/>
<stop offset="1" stop-color="#DAAA90" stop-opacity="0"/>
</radialGradient>
<radialGradient id="paint12_radial_1756_4146" cx="0" cy="0" r="1" gradientUnits="userSpaceOnUse" gradientTransform="translate(23.5935 16.5542) rotate(-77.656) scale(5.26228 2.27148)">
<stop stop-color="#EBB5A5"/>
<stop offset="1" stop-color="#EBB5A5" stop-opacity="0"/>
</radialGradient>
<radialGradient id="paint13_radial_1756_4146" cx="0" cy="0" r="1" gradientUnits="userSpaceOnUse" gradientTransform="translate(22.8754 10.2716) rotate(5.44835) scale(0.97611 3.53411)">
<stop stop-color="#D3987E"/>
<stop offset="1" stop-color="#D3987E" stop-opacity="0"/>
</radialGradient>
<radialGradient id="paint14_radial_1756_4146" cx="0" cy="0" r="1" gradientUnits="userSpaceOnUse" gradientTransform="translate(23.8624 7.80162) rotate(58.3164) scale(2.09322 7.57878)">
<stop stop-color="#D3987E"/>
<stop offset="1" stop-color="#D3987E" stop-opacity="0"/>
</radialGradient>
<radialGradient id="paint15_radial_1756_4146" cx="0" cy="0" r="1" gradientUnits="userSpaceOnUse" gradientTransform="translate(26.7662 9.64691) rotate(137.305) scale(1.74385 2.42174)">
<stop stop-color="#FFE2C7"/>
<stop offset="1" stop-color="#FFE2C7" stop-opacity="0"/>
</radialGradient>
<radialGradient id="paint16_radial_1756_4146" cx="0" cy="0" r="1" gradientUnits="userSpaceOnUse" gradientTransform="translate(27.5637 17.6785) rotate(113.948) scale(12.2413 6.11907)">
<stop stop-color="#FFE2C8"/>
<stop offset="1" stop-color="#FFE2C8" stop-opacity="0"/>
</radialGradient>
<radialGradient id="paint17_radial_1756_4146" cx="0" cy="0" r="1" gradientUnits="userSpaceOnUse" gradientTransform="translate(17.0024 11.1199) rotate(149.999) scale(4.32353 10.2337)">
<stop offset="0.655" stop-color="#E2A085" stop-opacity="0"/>
<stop offset="1" stop-color="#E2A085"/>
</radialGradient>
<radialGradient id="paint18_radial_1756_4146" cx="0" cy="0" r="1" gradientUnits="userSpaceOnUse" gradientTransform="translate(16.8934 11.1206) rotate(155.961) scale(1.67667 10.6108)">
<stop stop-color="#E1A086"/>
<stop offset="1" stop-color="#E1A086" stop-opacity="0"/>
</radialGradient>
<linearGradient id="paint19_linear_1756_4146" x1="15.7184" y1="16.6009" x2="14.8594" y2="13.9599" gradientUnits="userSpaceOnUse">
<stop stop-color="#F5BFAE"/>
<stop offset="1" stop-color="#F5BFAE" stop-opacity="0"/>
</linearGradient>
<radialGradient id="paint20_radial_1756_4146" cx="0" cy="0" r="1" gradientUnits="userSpaceOnUse" gradientTransform="translate(13.5084 5.31194) rotate(83.5812) scale(2.51577 2.77818)">
<stop stop-color="#DDAD92"/>
<stop offset="1" stop-color="#DDAD92" stop-opacity="0"/>
</radialGradient>
<radialGradient id="paint21_radial_1756_4146" cx="0" cy="0" r="1" gradientUnits="userSpaceOnUse" gradientTransform="translate(12.3754 17.1786) rotate(140.042) scale(1.50844 5.11444)">
<stop stop-color="#F2B69C"/>
<stop offset="1" stop-color="#F2B69C" stop-opacity="0"/>
</radialGradient>
<radialGradient id="paint22_radial_1756_4146" cx="0" cy="0" r="1" gradientUnits="userSpaceOnUse" gradientTransform="translate(9.18239 14.5036) rotate(82.3931) scale(2.125 2.77166)">
<stop stop-color="#DCA990"/>
<stop offset="1" stop-color="#DCA990" stop-opacity="0"/>
</radialGradient>
<linearGradient id="paint23_linear_1756_4146" x1="21.5624" y1="13.4288" x2="19.0934" y2="9.02282" gradientUnits="userSpaceOnUse">
<stop stop-color="#FDCCB8"/>
<stop offset="1" stop-color="#FDCCB8" stop-opacity="0"/>
</linearGradient>
<linearGradient id="paint24_linear_1756_4146" x1="3.5314" y1="14.8267" x2="6.7184" y2="21.4597" gradientUnits="userSpaceOnUse">
<stop stop-color="#1679C5"/>
<stop offset="1" stop-color="#0D5194"/>
</linearGradient>
<linearGradient id="paint25_linear_1756_4146" x1="1.56738" y1="16.6948" x2="5.30938" y2="24.8148" gradientUnits="userSpaceOnUse">
<stop offset="0.298" stop-color="#1679C5"/>
<stop offset="1" stop-color="#0D5194"/>
</linearGradient>
</defs>
</svg>
