<svg width="14" height="14" viewBox="0 0 14 14" fill="none" xmlns="http://www.w3.org/2000/svg">
<path d="M10.5 5.12158L11.0536 5.30592C11.6311 5.49842 11.9198 5.59467 12.0849 5.82392C12.25 6.05317 12.25 6.35767 12.25 6.96608V10.2718C12.25 11.0243 12.25 11.4012 12.0517 11.6432C11.9846 11.7249 11.9029 11.7949 11.8107 11.8474C11.5395 12.0032 11.1679 11.9407 10.4253 11.8177C9.69267 11.6952 9.32633 11.6345 8.96292 11.6648C8.8354 11.6752 8.70873 11.6941 8.58375 11.7214C8.22792 11.7996 7.8925 11.967 7.22225 12.3024C6.34725 12.7399 5.90975 12.9587 5.44425 13.0257C5.30425 13.0462 5.1625 13.0561 5.02075 13.0561C4.55 13.0549 4.09033 12.9015 3.17042 12.5953L2.94642 12.5206C2.36892 12.3281 2.08017 12.2318 1.91508 12.0026C1.75 11.7733 1.75 11.4682 1.75 10.8604V7.98458C1.75 7.01683 1.75 6.53325 2.03467 6.27308C2.08455 6.22741 2.13955 6.18767 2.19858 6.15467C2.53575 5.96683 2.99483 6.11967 3.91242 6.42592" stroke="#0060F7" stroke-width="1.2"/>
<path d="M3.5 4.26885C3.5 2.43251 5.06683 0.943848 7 0.943848C8.93317 0.943848 10.5 2.43251 10.5 4.26885C10.5 6.09118 9.38292 9.04322 7.63992 9.80331C7.43797 9.89097 7.22016 9.9362 7 9.9362C6.77984 9.9362 6.56203 9.89097 6.36008 9.80331C4.61708 9.04381 3.5 6.09118 3.5 4.26885Z" stroke="#0060F7" stroke-width="1.2"/>
<path d="M7.00004 6.28841C7.64437 6.28841 8.16671 5.76608 8.16671 5.12174C8.16671 4.47741 7.64437 3.95508 7.00004 3.95508C6.35571 3.95508 5.83337 4.47741 5.83337 5.12174C5.83337 5.76608 6.35571 6.28841 7.00004 6.28841Z" stroke="#0060F7" stroke-width="1.2"/>
</svg>
