<svg width="44" height="32" viewBox="0 0 44 32" fill="none" xmlns="http://www.w3.org/2000/svg">
<g clip-path="url(#clip0_3069_7122)">
<path d="M12.9944 26.8907V25.4346C12.9944 24.8763 12.6545 24.5124 12.072 24.5124C11.7808 24.5124 11.4653 24.6094 11.2469 24.925C11.0771 24.658 10.8344 24.5124 10.4703 24.5124C10.2276 24.5124 9.98502 24.5851 9.79078 24.8521V24.5609H9.28113V26.8907H9.79078V25.6044C9.79078 25.1919 10.0092 24.9977 10.3491 24.9977C10.6887 24.9977 10.8587 25.2162 10.8587 25.6044V26.8907H11.3684V25.6044C11.3684 25.1919 11.6109 24.9977 11.9264 24.9977C12.2663 24.9977 12.4361 25.2162 12.4361 25.6044V26.8907H12.9944ZM20.5419 24.5609H19.7169V23.8571H19.2072V24.5609H18.7461V25.0219H19.2071V26.0898C19.2071 26.6238 19.4256 26.9392 20.0081 26.9392C20.2265 26.9392 20.4691 26.8665 20.6391 26.7694L20.4934 26.3325C20.3478 26.4296 20.178 26.4539 20.0566 26.4539C19.8139 26.4539 19.7169 26.3083 19.7169 26.0655V25.0219H20.5419V24.5609ZM24.8619 24.5123C24.5707 24.5123 24.3766 24.658 24.2552 24.8521V24.5609H23.7455V26.8907H24.2552V25.5802C24.2552 25.1919 24.425 24.9735 24.7405 24.9735C24.8376 24.9735 24.9589 24.9978 25.056 25.022L25.2016 24.5367C25.1045 24.5124 24.9589 24.5124 24.8619 24.5124V24.5123ZM18.3335 24.755C18.0907 24.5851 17.751 24.5124 17.387 24.5124C16.8046 24.5124 16.4163 24.8036 16.4163 25.2647C16.4163 25.6531 16.7075 25.8714 17.2172 25.9442L17.4598 25.9686C17.7268 26.017 17.8724 26.0898 17.8724 26.2112C17.8724 26.381 17.6783 26.5024 17.3384 26.5024C16.9987 26.5024 16.7317 26.381 16.5618 26.2598L16.3191 26.648C16.5861 26.8422 16.9502 26.9392 17.3141 26.9392C17.9937 26.9392 18.3821 26.6238 18.3821 26.1869C18.3821 25.7743 18.0665 25.5559 17.5811 25.4831L17.3384 25.4588C17.12 25.4345 16.9502 25.3861 16.9502 25.2405C16.9502 25.0706 17.12 24.9735 17.387 24.9735C17.6783 24.9735 17.9695 25.0948 18.1151 25.1676L18.3335 24.755ZM31.8757 24.5124C31.5844 24.5124 31.3902 24.658 31.2689 24.8521V24.5609H30.7592V26.8907H31.2689V25.5802C31.2689 25.1919 31.4388 24.9735 31.7542 24.9735C31.8514 24.9735 31.9727 24.9978 32.0698 25.022L32.2154 24.5367C32.1183 24.5124 31.9727 24.5124 31.8757 24.5124ZM25.3715 25.7258C25.3715 26.4296 25.8569 26.9392 26.6093 26.9392C26.949 26.9392 27.1917 26.8665 27.4343 26.6723L27.1917 26.2598C26.9975 26.4054 26.8034 26.4781 26.585 26.4781C26.1724 26.4781 25.8812 26.1869 25.8812 25.7258C25.8812 25.289 26.1724 24.9977 26.585 24.9735C26.8034 24.9735 26.9975 25.0462 27.1917 25.1919L27.4343 24.7794C27.1917 24.5851 26.949 24.5124 26.6093 24.5124C25.8569 24.5124 25.3715 25.022 25.3715 25.7258ZM30.0798 25.7258V24.5609H29.5701V24.8521C29.4002 24.6338 29.1575 24.5124 28.842 24.5124C28.1868 24.5124 27.6771 25.022 27.6771 25.7258C27.6771 26.4296 28.1868 26.9392 28.842 26.9392C29.1817 26.9392 29.4245 26.8179 29.5701 26.5995V26.8907H30.0798V25.7258ZM28.211 25.7258C28.211 25.3132 28.478 24.9735 28.9147 24.9735C29.3273 24.9735 29.6186 25.289 29.6186 25.7258C29.6186 26.1384 29.3273 26.4781 28.9147 26.4781C28.478 26.4538 28.211 26.1384 28.211 25.7258ZM22.1195 24.5124C21.4399 24.5124 20.9545 24.9977 20.9545 25.7258C20.9545 26.4539 21.4398 26.9392 22.1437 26.9392C22.4835 26.9392 22.8233 26.8422 23.0903 26.6238L22.8475 26.2598C22.6534 26.4054 22.4107 26.5024 22.168 26.5024C21.8525 26.5024 21.537 26.3568 21.4642 25.9441H23.1873V25.7501C23.2117 24.9977 22.7749 24.5124 22.1195 24.5124ZM22.1195 24.9492C22.4349 24.9492 22.6535 25.1434 22.7019 25.5075H21.4885C21.537 25.1919 21.7555 24.9492 22.1195 24.9492ZM34.7637 25.7258V23.6387H34.254V24.8521C34.0841 24.6338 33.8414 24.5124 33.5259 24.5124C32.8707 24.5124 32.361 25.022 32.361 25.7258C32.361 26.4296 32.8707 26.9392 33.5259 26.9392C33.8657 26.9392 34.1084 26.8179 34.254 26.5995V26.8907H34.7637V25.7258ZM32.895 25.7258C32.895 25.3132 33.1619 24.9735 33.5988 24.9735C34.0113 24.9735 34.3025 25.289 34.3025 25.7258C34.3025 26.1384 34.0113 26.4781 33.5988 26.4781C33.1619 26.4538 32.895 26.1384 32.895 25.7258ZM15.858 25.7258V24.5609H15.3484V24.8521C15.1785 24.6338 14.9358 24.5124 14.6203 24.5124C13.965 24.5124 13.4554 25.022 13.4554 25.7258C13.4554 26.4296 13.965 26.9392 14.6203 26.9392C14.9601 26.9392 15.2028 26.8179 15.3484 26.5995V26.8907H15.858V25.7258ZM13.965 25.7258C13.965 25.3132 14.232 24.9735 14.6688 24.9735C15.0814 24.9735 15.3727 25.289 15.3727 25.7258C15.3727 26.1384 15.0814 26.4781 14.6688 26.4781C14.232 26.4538 13.965 26.1384 13.965 25.7258Z" fill="black"/>
<path d="M18.1636 6.86914H25.8083V20.6054H18.1636V6.86914Z" fill="#FF5F00"/>
<path d="M18.649 13.7369C18.649 10.946 19.9595 8.47047 21.9738 6.86867C20.4935 5.70378 18.6248 5 16.5862 5C11.7565 5 7.84924 8.90726 7.84924 13.7369C7.84924 18.5664 11.7565 22.4737 16.5861 22.4737C18.6247 22.4737 20.4934 21.77 21.9738 20.605C19.9595 19.0275 18.649 16.5278 18.649 13.7369Z" fill="#EB001B"/>
<path d="M36.1227 13.7369C36.1227 18.5664 32.2154 22.4737 27.3858 22.4737C25.3472 22.4737 23.4785 21.77 21.9981 20.605C24.0367 19.0033 25.323 16.5278 25.323 13.7369C25.323 10.946 24.0124 8.47047 21.9981 6.86867C23.4784 5.70378 25.3472 5 27.3858 5C32.2154 5 36.1227 8.93159 36.1227 13.7369Z" fill="#F79E1B"/>
</g>
<rect x="0.15" y="0.15" width="43.7" height="31.7" rx="3.85" stroke="#797474" stroke-width="0.3"/>
<defs>
<clipPath id="clip0_3069_7122">
<rect width="28.3015" height="22" fill="white" transform="translate(7.84924 5)"/>
</clipPath>
</defs>
</svg>
