<svg width="14" height="15" viewBox="0 0 14 15" fill="none" xmlns="http://www.w3.org/2000/svg">
<g clip-path="url(#clip0_104_1089)">
<path d="M11.3336 2.57197C12.4589 3.69704 13.1024 5.21563 13.1282 6.80661C13.154 8.39759 12.56 9.93624 11.4719 11.0972L11.3336 11.2402L8.44423 14.1289C8.07761 14.4953 7.58543 14.7087 7.06739 14.7257C6.54935 14.7428 6.04419 14.5623 5.65424 14.2209L5.55618 14.1289L2.66608 11.2395C1.51669 10.0901 0.870972 8.53123 0.870972 6.90575C0.870972 5.28027 1.51669 3.72136 2.66608 2.57197C3.81547 1.42258 5.37438 0.776855 6.99987 0.776855C8.62535 0.776855 10.1843 1.42258 11.3336 2.57197ZM6.99987 4.8628C6.73158 4.8628 6.46592 4.91564 6.21806 5.01831C5.9702 5.12098 5.74499 5.27146 5.55528 5.46116C5.36557 5.65087 5.21509 5.87608 5.11242 6.12395C5.00976 6.37181 4.95691 6.63747 4.95691 6.90575C4.95691 7.17403 5.00976 7.43969 5.11242 7.68755C5.21509 7.93542 5.36557 8.16063 5.55528 8.35033C5.74499 8.54004 5.9702 8.69052 6.21806 8.79319C6.46592 8.89586 6.73158 8.9487 6.99987 8.9487C7.54169 8.9487 8.06132 8.73346 8.44445 8.35033C8.82758 7.96721 9.04282 7.44757 9.04282 6.90575C9.04282 6.36392 8.82758 5.84429 8.44445 5.46116C8.06132 5.07804 7.54169 4.8628 6.99987 4.8628Z" fill="#0060F7"/>
</g>
<defs>
<clipPath id="clip0_104_1089">
<rect width="14" height="14" fill="white" transform="translate(0 0.751953)"/>
</clipPath>
</defs>
</svg>
