<svg width="13" height="13" viewBox="0 0 13 13" fill="none" xmlns="http://www.w3.org/2000/svg">
<path fill-rule="evenodd" clip-rule="evenodd" d="M9.19698 8.68923L11.737 11.2292C12.1159 11.6216 12.1105 12.2453 11.7248 12.631C11.3391 13.0168 10.7154 13.0222 10.323 12.6432L7.78298 10.1032C5.6356 11.5245 2.76075 11.0885 1.13144 9.09429C-0.497856 7.10012 -0.352009 4.19604 1.46889 2.37514C3.28979 0.554241 6.19387 0.408394 8.18804 2.03769C10.1822 3.667 10.6183 6.54185 9.19698 8.68923ZM5.02998 2.93623C3.37312 2.93623 2.02998 4.27937 2.02998 5.93623C2.02998 7.59308 3.37312 8.93623 5.02998 8.93623C6.68683 8.93623 8.02998 7.59308 8.02998 5.93623C8.02998 4.27937 6.68683 2.93623 5.02998 2.93623Z" fill="#0060F7"/>
</svg>
