<svg width="20" height="21" viewBox="0 0 20 21" fill="none" xmlns="http://www.w3.org/2000/svg">
<rect x="2" y="2.90625" width="16" height="16" rx="2" stroke="#0060F7" stroke-width="4"/>
<path d="M8.81 12.4362L6.9825 10.6087C6.82667 10.4529 6.62833 10.375 6.3875 10.375C6.14667 10.375 5.94833 10.4529 5.7925 10.6087C5.63667 10.7646 5.55875 10.9629 5.55875 11.2037C5.55875 11.4446 5.63667 11.6429 5.7925 11.7987L8.215 14.2212C8.385 14.3912 8.58333 14.4762 8.81 14.4762C9.03667 14.4762 9.235 14.3912 9.405 14.2212L14.2075 9.41875C14.3633 9.26292 14.4412 9.06458 14.4412 8.82375C14.4412 8.58292 14.3633 8.38458 14.2075 8.22875C14.0517 8.07292 13.8533 7.995 13.6125 7.995C13.3717 7.995 13.1733 8.07292 13.0175 8.22875L8.81 12.4362ZM10 19.4062C8.82417 19.4062 7.71917 19.183 6.685 18.7364C5.65083 18.2899 4.75125 17.6844 3.98625 16.92C3.22125 16.155 2.61577 15.2554 2.1698 14.2212C1.72383 13.1871 1.50057 12.0821 1.5 10.9062C1.5 9.73042 1.72327 8.62542 2.1698 7.59125C2.61633 6.55708 3.22182 5.6575 3.98625 4.8925C4.75125 4.1275 5.65083 3.52202 6.685 3.07605C7.71917 2.63008 8.82417 2.40682 10 2.40625C11.1758 2.40625 12.2808 2.62952 13.315 3.07605C14.3492 3.52258 15.2487 4.12807 16.0137 4.8925C16.7787 5.6575 17.3845 6.55708 17.831 7.59125C18.2776 8.62542 18.5006 9.73042 18.5 10.9062C18.5 12.0821 18.2767 13.1871 17.8302 14.2212C17.3837 15.2554 16.7782 16.155 16.0137 16.92C15.2487 17.685 14.3492 18.2908 13.315 18.7373C12.2808 19.1838 11.1758 19.4068 10 19.4062Z" fill="#0060F7"/>
</svg>
