<svg width="26" height="26" viewBox="0 0 26 26" fill="none" xmlns="http://www.w3.org/2000/svg">
<path d="M21.5344 19.8211V13.0881C21.5344 12.5455 21.4241 12.0086 21.21 11.5101C20.996 11.0115 20.6828 10.5617 20.2894 10.1881L13.9124 4.13106C13.5407 3.77794 13.0476 3.58105 12.5349 3.58105C12.0222 3.58105 11.5291 3.77794 11.1574 4.13106L4.77942 10.1881C4.38608 10.5617 4.07286 11.0115 3.85883 11.5101C3.6448 12.0086 3.53442 12.5455 3.53442 13.0881V19.8211C3.53442 20.3515 3.74514 20.8602 4.12021 21.2353C4.49528 21.6103 5.00399 21.8211 5.53442 21.8211H19.5344C20.0649 21.8211 20.5736 21.6103 20.9486 21.2353C21.3237 20.8602 21.5344 20.3515 21.5344 19.8211Z" fill="#0A0A0C" stroke="#0A0A0C" stroke-width="2" stroke-linecap="round" stroke-linejoin="round"/>
<path d="M9.53442 16.821C9.53442 16.2906 9.74514 15.7819 10.1202 15.4068C10.4953 15.0318 11.004 14.821 11.5344 14.821H13.5344C14.0649 14.821 14.5736 15.0318 14.9486 15.4068C15.3237 15.7819 15.5344 16.2906 15.5344 16.821V22.821H9.53442V16.821Z" fill="#0A0A0C" stroke="white" stroke-width="2" stroke-linecap="round" stroke-linejoin="round"/>
</svg>
