<svg width="25" height="26" viewBox="0 0 25 26" fill="none" xmlns="http://www.w3.org/2000/svg">
<path d="M21.5 19.7673V13.0343C21.5 12.4918 21.3896 11.9549 21.1756 11.4564C20.9616 10.9578 20.6483 10.508 20.255 10.1343L13.878 4.07735C13.5063 3.72423 13.0132 3.52734 12.5005 3.52734C11.9878 3.52734 11.4947 3.72423 11.123 4.07735L4.745 10.1343C4.35165 10.508 4.03844 10.9578 3.8244 11.4564C3.61037 11.9549 3.5 12.4918 3.5 13.0343V19.7673C3.5 20.2978 3.71071 20.8065 4.08579 21.1816C4.46086 21.5566 4.96957 21.7673 5.5 21.7673H19.5C20.0304 21.7673 20.5391 21.5566 20.9142 21.1816C21.2893 20.8065 21.5 20.2978 21.5 19.7673Z" stroke="#0060F7" stroke-width="2" stroke-linecap="round" stroke-linejoin="round"/>
<path d="M9.5 15.7676C9.5 15.2371 9.71071 14.7284 10.0858 14.3534C10.4609 13.9783 10.9696 13.7676 11.5 13.7676H13.5C14.0304 13.7676 14.5391 13.9783 14.9142 14.3534C15.2893 14.7284 15.5 15.2371 15.5 15.7676V21.7676H9.5V15.7676Z" stroke="#1A4563" stroke-width="2" stroke-linecap="round" stroke-linejoin="round"/>
</svg>
