<svg width="25" height="25" viewBox="0 0 25 25" fill="none" xmlns="http://www.w3.org/2000/svg">
<path fill-rule="evenodd" clip-rule="evenodd" d="M20.0254 12.514C19.5382 12.6386 19.0373 12.7016 18.5344 12.7015H18.5194V13.027C18.5194 14.3905 18.7339 15.754 19.1824 17.0635L19.7389 18.733H5.29392V18.715L5.84892 17.0455C6.28289 15.7437 6.50719 14.3812 6.51342 13.009V9.70753C6.51342 8.86303 6.69342 8.03803 7.03392 7.28353C7.37442 6.51253 7.85892 5.83003 8.48742 5.27353C9.11592 4.70053 9.85242 4.26853 10.6414 4.01803C11.4484 3.74803 12.2914 3.65803 13.1164 3.74803L13.2964 3.77503C13.5693 3.28663 13.909 2.8388 14.3059 2.44453C13.9625 2.35306 13.6132 2.2854 13.2604 2.24203C12.2194 2.13403 11.1604 2.24203 10.1554 2.58253C9.15042 2.90503 8.23542 3.44353 7.46442 4.16203C6.68958 4.862 6.07199 5.71834 5.65242 6.67453C5.23077 7.63035 5.01069 8.66284 5.00592 9.70753V13.0075C5.00373 14.2155 4.80981 15.4154 4.43142 16.5625L3.53442 19.216L4.25292 20.203H9.51042C9.51042 20.992 9.83292 21.763 10.3894 22.321C10.9444 22.876 11.7169 23.2 12.5074 23.2C13.2964 23.2 14.0674 22.8775 14.6239 22.321C15.1804 21.7645 15.5044 20.992 15.5044 20.203H20.7619L21.4789 19.216L20.5999 16.561C20.2203 15.4085 20.0264 14.203 20.0254 12.9895V12.514ZM12.5074 21.7315C12.7049 21.7302 12.9002 21.6897 13.0819 21.6125C13.2637 21.5352 13.4284 21.4227 13.5664 21.2815C13.708 21.1451 13.8195 20.9805 13.8936 20.7984C13.9678 20.6162 14.003 20.4206 13.9969 20.224H10.9999C10.9999 20.6185 11.1604 20.995 11.4484 21.283C11.5867 21.4238 11.7515 21.536 11.9332 21.6129C12.1149 21.6899 12.3101 21.7302 12.5074 21.7315Z" fill="#0A0A0C" stroke="#0A0A0C" stroke-width="0.2"/>
<path fill-rule="evenodd" clip-rule="evenodd" d="M4.98794 12.5139C5.47514 12.6385 5.97606 12.7015 6.47894 12.7014H6.49394V13.0269C6.49394 14.3904 6.27944 15.7539 5.83094 17.0634L5.27444 18.7329H19.7194V18.7149L19.1644 17.0454C18.7305 15.7436 18.5062 14.3811 18.4999 13.0089V9.70741C18.4999 8.86291 18.3199 8.03791 17.9794 7.28341C17.6389 6.51241 17.1544 5.82991 16.5259 5.27341C15.8974 4.70041 15.1609 4.26841 14.3719 4.01791C13.5649 3.74791 12.7219 3.65791 11.8969 3.74791L11.7169 3.77491C11.4441 3.28651 11.1043 2.83868 10.7074 2.44441C11.0509 2.35294 11.4002 2.28528 11.7529 2.24191C12.7939 2.13391 13.8529 2.24191 14.8579 2.58241C15.8629 2.90491 16.7779 3.44341 17.5489 4.16191C18.3238 4.86188 18.9414 5.71821 19.3609 6.67441C19.7826 7.63023 20.0027 8.66272 20.0074 9.70741V13.0074C20.0096 14.2153 20.2036 15.4153 20.5819 16.5624L21.4789 19.2159L20.7604 20.2029H15.5029C15.5029 20.9919 15.1804 21.7629 14.6239 22.3209C14.0689 22.8759 13.2964 23.1999 12.5059 23.1999C11.7169 23.1999 10.9459 22.8774 10.3894 22.3209C9.83294 21.7644 9.50894 20.9919 9.50894 20.2029H4.25144L3.53444 19.2159L4.41344 16.5609C4.79306 15.4084 4.98698 14.2028 4.98794 12.9894V12.5139ZM12.5059 21.7314C12.3085 21.73 12.1132 21.6896 11.9314 21.6123C11.7497 21.5351 11.585 21.4226 11.4469 21.2814C11.3053 21.145 11.1939 20.9804 11.1197 20.7982C11.0456 20.6161 11.0104 20.4205 11.0164 20.2239H14.0134C14.0134 20.6184 13.8529 20.9949 13.5649 21.2829C13.4267 21.4237 13.2619 21.5358 13.0802 21.6128C12.8984 21.6898 12.7033 21.7301 12.5059 21.7314Z" fill="#0A0A0C" stroke="#0A0A0C" stroke-width="0.2"/>
<path d="M5.58643 12.4018L5.1508 17.3572L4.50983 18.7669L4.93297 19.3176H11.6854L18.71 19.8622L20.2348 19.3176V17.3572L19.2001 13.3821V11.2583L18.71 7.8277L17.6754 5.64951L15.715 3.68914L12.72 2.81775L10.2695 3.41676L7.16562 5.26821L5.58643 8.42664V12.4018Z" fill="#0A0A0C"/>
</svg>
