<svg width="25" height="25" viewBox="0 0 25 25" fill="none" xmlns="http://www.w3.org/2000/svg">
<path fill-rule="evenodd" clip-rule="evenodd" d="M19.5598 12.6479C19.0726 12.7725 18.5717 12.8355 18.0688 12.8354H18.0538V13.1609C18.0538 14.5244 18.2683 15.8879 18.7168 17.1974L19.2733 18.8669H4.82829V18.8489L5.38329 17.1794C5.81726 15.8776 6.04155 14.5151 6.04779 13.1429V9.84136C6.04779 8.99686 6.22779 8.17186 6.56829 7.41736C6.90879 6.64636 7.39329 5.96386 8.02179 5.40736C8.65029 4.83436 9.38679 4.40236 10.1758 4.15186C10.9828 3.88186 11.8258 3.79186 12.6508 3.88186L12.8308 3.90886C13.1036 3.42047 13.4434 2.97263 13.8403 2.57836C13.4969 2.48689 13.1475 2.41923 12.7948 2.37586C11.7538 2.26786 10.6948 2.37586 9.68979 2.71636C8.68479 3.03886 7.76979 3.57736 6.99879 4.29586C6.22394 4.99583 5.60636 5.85217 5.18679 6.80836C4.76513 7.76419 4.54505 8.79668 4.54029 9.84136V13.1414C4.53809 14.3493 4.34418 15.5492 3.96579 16.6964L3.06879 19.3499L3.78729 20.3369H9.04479C9.04479 21.1259 9.36729 21.8969 9.92379 22.4549C10.4788 23.0099 11.2513 23.3339 12.0418 23.3339C12.8308 23.3339 13.6018 23.0114 14.1583 22.4549C14.7148 21.8984 15.0388 21.1259 15.0388 20.3369H20.2963L21.0133 19.3499L20.1343 16.6949C19.7547 15.5423 19.5607 14.3368 19.5598 13.1234V12.6479ZM12.0418 21.8654C12.2393 21.864 12.4345 21.8235 12.6163 21.7463C12.7981 21.6691 12.9627 21.5566 13.1008 21.4154C13.2424 21.2789 13.3539 21.1143 13.428 20.9322C13.5021 20.7501 13.5373 20.5544 13.5313 20.3579H10.5343C10.5343 20.7524 10.6948 21.1289 10.9828 21.4169C11.1211 21.5577 11.2858 21.6698 11.4675 21.7468C11.6493 21.8237 11.8444 21.864 12.0418 21.8654Z" fill="#0060F7" stroke="#0060F7" stroke-width="0.2"/>
<path fill-rule="evenodd" clip-rule="evenodd" d="M9.04326 20.3367L10.5508 20.3577C10.5447 20.5543 10.5799 20.7499 10.6541 20.932C10.7282 21.1142 10.8397 21.2788 10.9813 21.4152C11.1193 21.5564 11.284 21.6689 11.4658 21.7461C11.6475 21.8234 11.8428 21.8638 12.0403 21.8652C12.2376 21.8639 12.4328 21.8236 12.6145 21.7466C12.7962 21.6696 12.961 21.5575 13.0993 21.4167C13.3873 21.1287 13.5478 20.7522 13.5478 20.3577L15.0373 20.3367C15.0373 21.1257 14.7148 21.8967 14.1583 22.4547C13.6033 23.0097 12.8308 23.3337 12.0403 23.3337C11.2513 23.3337 10.4803 23.0112 9.92376 22.4547C9.36726 21.8982 9.04326 21.1257 9.04326 20.3367Z" fill="#1A4563"/>
<path d="M10.5508 20.3577C10.5447 20.5543 10.5799 20.7499 10.6541 20.932C10.7282 21.1142 10.8397 21.2788 10.9813 21.4152C11.1193 21.5564 11.284 21.6689 11.4658 21.7461C11.6475 21.8234 11.8428 21.8638 12.0403 21.8652C12.2376 21.8639 12.4328 21.8236 12.6145 21.7466C12.7962 21.6696 12.961 21.5575 13.0993 21.4167C13.3873 21.1287 13.5478 20.7522 13.5478 20.3577M10.5508 20.3577H13.5478M10.5508 20.3577L9.04326 20.3367C9.04326 21.1257 9.36726 21.8982 9.92376 22.4547C10.4803 23.0112 11.2513 23.3337 12.0403 23.3337C12.8308 23.3337 13.6033 23.0097 14.1583 22.4547C14.7148 21.8967 15.0373 21.1257 15.0373 20.3367L13.5478 20.3577" stroke="#1A4563" stroke-width="0.2"/>
<path fill-rule="evenodd" clip-rule="evenodd" d="M6.01327 12.8352C5.51039 12.8353 5.00948 12.7723 4.52227 12.6477V13.1232C4.52131 14.3366 4.32739 15.5422 3.94777 16.6947L3.06877 19.3497L3.78577 20.3367H9.04327L10.5508 20.3577H13.5478L15.0373 20.3367H20.2948L21.0133 19.3497L20.1163 16.6962C19.7379 15.5491 19.544 14.3491 19.5418 13.1412V9.8412C19.537 8.79651 19.3169 7.76402 18.8953 6.8082C18.4757 5.852 17.8581 4.99566 17.0833 4.2957C16.3123 3.5772 15.3973 3.0387 14.3923 2.7162C13.3873 2.3757 12.3283 2.2677 11.2873 2.3757C10.9345 2.41906 10.5852 2.48673 10.2418 2.5782C10.6387 2.97246 10.9784 3.4203 11.2513 3.9087L11.4313 3.8817C12.2563 3.7917 13.0993 3.8817 13.9063 4.1517C14.6953 4.4022 15.4318 4.8342 16.0603 5.4072C16.6888 5.9637 17.1733 6.6462 17.5138 7.4172C17.8543 8.1717 18.0343 8.9967 18.0343 9.8412V13.1427C18.0405 14.5149 18.2648 15.8774 18.6988 17.1792L19.2538 18.8487V18.8667H4.80877L5.36527 17.1972C5.81377 15.8877 6.02827 14.5242 6.02827 13.1607V12.8352H6.01327Z" fill="#0060F7" stroke="#0060F7" stroke-width="0.2"/>
</svg>
