<svg width="18" height="19" viewBox="0 0 18 19" fill="none" xmlns="http://www.w3.org/2000/svg">
<g clip-path="url(#clip0_187_638)">
<path fill-rule="evenodd" clip-rule="evenodd" d="M16.8302 12.7212C17.2767 11.6871 17.5 10.5821 17.5 9.40625C17.5006 8.23042 17.2776 7.12542 16.831 6.09125C16.3845 5.05708 15.7787 4.1575 15.0137 3.3925C14.2487 2.62807 13.3492 2.02258 12.315 1.57605C11.2808 1.12952 10.1758 0.90625 9 0.90625C7.82417 0.906817 6.71917 1.13008 5.685 1.57605C4.65083 2.02202 3.75125 2.6275 2.98625 3.3925C2.22182 4.1575 1.61633 5.05708 1.1698 6.09125C0.723267 7.12542 0.5 8.23042 0.5 9.40625C0.500567 10.5821 0.723833 11.6871 1.1698 12.7212C1.61577 13.7554 2.22125 14.655 2.98625 15.42C3.75125 16.1844 4.65083 16.7899 5.685 17.2364C6.71917 17.683 7.82417 17.9062 9 17.9062C10.1758 17.9068 11.2808 17.6838 12.315 17.2373C13.3492 16.7908 14.2487 16.185 15.0137 15.42C15.7782 14.655 16.3837 13.7554 16.8302 12.7212ZM6.08098 2.49431C6.98461 2.10463 7.95426 1.90681 9 1.90625C10.0454 1.90631 11.0152 2.10406 11.9186 2.49412C12.8417 2.8927 13.6347 3.42818 14.3066 4.09961C14.9787 4.77163 15.5144 5.56459 15.913 6.48766C16.303 7.39102 16.5005 8.36033 16.5 9.40577C16.5 10.4514 16.3022 11.4213 15.9121 12.3248C15.5135 13.2479 14.9781 14.0409 14.3066 14.7129L13.6995 15.1982C13.4087 15.4306 13.4547 16.0902 13.1133 16.2049C12.9721 16.2523 12.8126 16.2495 12.6842 16.325V16.325C12.3412 16.5132 11.7323 16.7039 11.3633 16.8337L10.7248 17.0582C9.62721 17.4442 8.43193 17.4509 7.33008 17.0774C6.25359 16.8199 5.10934 16.2722 4.22446 15.564C4.02177 15.4018 3.87517 15.1822 3.78131 14.9401V14.9401C3.72314 14.7901 3.6334 14.6547 3.52344 14.5373C2.93058 13.904 2.45189 13.169 2.08806 12.3253C1.69838 11.4216 1.50056 10.4515 1.5 9.40577C1.50006 8.36036 1.69781 7.39103 2.08787 6.48766C2.48645 5.56456 3.0222 4.77133 3.69362 4.09934C4.36549 3.42754 5.15822 2.89223 6.08098 2.49431Z" fill="#0060F7"/>
<path fill-rule="evenodd" clip-rule="evenodd" d="M16.8302 6.09125C17.2767 7.12542 17.5 8.23042 17.5 9.40625C17.5006 10.5821 17.2776 11.6871 16.831 12.7213C16.3845 13.7554 15.7787 14.655 15.0137 15.42C14.2487 16.1844 13.3492 16.7899 12.315 17.2364C11.2808 17.683 10.1758 17.9062 9 17.9062C7.82417 17.9057 6.71917 17.6824 5.685 17.2364C4.65083 16.7905 3.75125 16.185 2.98625 15.42C2.22182 14.655 1.61633 13.7554 1.1698 12.7213C0.723267 11.6871 0.5 10.5821 0.5 9.40625C0.500567 8.23042 0.723833 7.12542 1.1698 6.09125C1.61577 5.05709 2.22125 4.1575 2.98625 3.3925C3.75125 2.62807 4.65083 2.02258 5.685 1.57605C6.71917 1.12952 7.82417 0.906252 9 0.906252C10.1758 0.905685 11.2808 1.12867 12.315 1.5752C13.3492 2.02174 14.2487 2.6275 15.0137 3.3925C15.7782 4.1575 16.3837 5.05709 16.8302 6.09125ZM6.08098 16.3182C6.98461 16.7079 7.95426 16.9057 9 16.9062C10.0454 16.9062 11.0152 16.7084 11.9186 16.3184C12.8417 15.9198 13.6347 15.3843 14.3066 14.7129C14.9787 14.0409 15.5144 13.2479 15.913 12.3248C16.303 11.4215 16.5005 10.4522 16.5 9.40673C16.5 8.36114 16.3022 7.39117 15.9121 6.48766C15.5135 5.56456 14.9781 4.7716 14.3066 4.09961L13.6995 3.61434C13.3557 3.3396 12.989 3.09501 12.6032 2.88328L12.4023 2.77305C12.0594 2.58483 11.7016 2.42503 11.3325 2.29526L10.694 2.07074C9.59647 1.6848 8.37958 1.5332 7.27773 1.90671C6.19343 2.16614 5.11663 2.64416 4.24417 3.34487C4.05516 3.49668 3.90772 3.69249 3.79472 3.90697V3.90697C3.72735 4.03484 3.64036 4.15113 3.54121 4.25629C2.94014 4.89387 2.45552 5.63511 2.08806 6.48723C1.69838 7.39087 1.50056 8.36099 1.5 9.40673C1.50006 10.4521 1.69781 11.4215 2.08787 12.3248C2.48645 13.2479 3.0222 14.0412 3.69362 14.7132C4.36549 15.385 5.15822 15.9203 6.08098 16.3182Z" fill="#0060F7"/>
<path d="M7.245 13.5516C7.7925 13.788 8.3775 13.9062 9 13.9062C9.6225 13.9065 10.2075 13.7885 10.755 13.5521C11.3025 13.3157 11.7787 12.995 12.1838 12.59C12.5884 12.185 12.909 11.7087 13.1454 11.1612C13.3818 10.6137 13.5 10.0287 13.5 9.40625C13.5003 8.78375 13.3822 8.19875 13.1458 7.65125C12.9094 7.10375 12.5887 6.6275 12.1838 6.2225C11.7787 5.8178 11.3025 5.49725 10.755 5.26085C10.2075 5.02445 9.6225 4.90625 9 4.90625C8.3775 4.90655 7.7925 5.02475 7.245 5.26085C6.6975 5.49695 6.22125 5.8175 5.81625 6.2225C5.41155 6.6275 5.091 7.10375 4.8546 7.65125C4.6182 8.19875 4.5 8.78375 4.5 9.40625C4.5003 10.0287 4.6185 10.6137 4.8546 11.1612C5.0907 11.7087 5.41125 12.185 5.81625 12.59C6.22125 12.9947 6.6975 13.3152 7.245 13.5516Z" fill="#0060F7"/>
<path fill-rule="evenodd" clip-rule="evenodd" d="M13.5 9.40625C13.5 10.0287 13.3818 10.6137 13.1454 11.1612C12.909 11.7087 12.5884 12.185 12.1838 12.59C11.7787 12.995 11.3025 13.3157 10.755 13.5521C10.2075 13.7885 9.6225 13.9065 9 13.9062C8.3775 13.9062 7.7925 13.788 7.245 13.5516C6.6975 13.3152 6.22125 12.9947 5.81625 12.59C5.41125 12.185 5.0907 11.7087 4.8546 11.1612C4.6185 10.6137 4.5003 10.0287 4.5 9.40625C4.5 8.78375 4.6182 8.19875 4.8546 7.65125C5.091 7.10375 5.41155 6.6275 5.81625 6.2225C6.22125 5.8175 6.6975 5.49695 7.245 5.26085C7.7925 5.02475 8.3775 4.90655 9 4.90625C9.6225 4.90625 10.2075 5.02445 10.755 5.26085C11.3025 5.49725 11.7787 5.8178 12.1838 6.2225C12.5887 6.6275 12.9094 7.10375 13.1458 7.65125C13.3822 8.19875 13.5003 8.78375 13.5 9.40625ZM11.4766 6.92961C11.4766 6.92952 11.4767 6.92969 11.4766 6.92961C11.7885 7.24157 12.0394 7.61138 12.2278 8.04766C12.4077 8.46435 12.5002 8.91366 12.5 9.40577C12.5 9.89803 12.4073 10.348 12.2273 10.7648C12.0389 11.2013 11.7883 11.5709 11.4766 11.8829C11.1646 12.1949 10.795 12.4456 10.3586 12.634C9.9419 12.8139 9.49259 12.9065 9.00048 12.9062C8.50822 12.9062 8.05826 12.8136 7.64141 12.6336C7.20486 12.4451 6.83514 12.1944 6.52309 11.8826C6.21129 11.5708 5.96092 11.2014 5.77286 10.7653C5.59305 10.3483 5.5003 9.89865 5.5 9.40625M11.4766 6.92961C11.1647 6.61792 10.795 6.36737 10.3586 6.17892C9.94188 5.999 9.49255 5.90631 9.00048 5.90625M9.00048 5.90625C8.50808 5.90655 8.05795 5.9993 7.64098 6.17911C7.20489 6.36717 6.83549 6.61754 6.52362 6.92934C6.52353 6.92943 6.52371 6.92926 6.52362 6.92934M5.5 9.40625C5.50006 8.91418 5.59275 8.46437 5.77267 8.04766C5.96112 7.61123 6.21193 7.24133 6.52362 6.92934" fill="#0060F7"/>
</g>
<defs>
<clipPath id="clip0_187_638">
<rect width="18" height="18" fill="white" transform="translate(0 0.40625)"/>
</clipPath>
</defs>
</svg>
