<svg width="25" height="26" viewBox="0 0 25 26" fill="none" xmlns="http://www.w3.org/2000/svg">
<g clip-path="url(#clip0_324_483)">
<path d="M18.5 2.95703H13.5C13.5 3.50703 13.05 3.95703 12.5 3.95703C11.95 3.95703 11.5 3.50703 11.5 2.95703H6.5C5.4 2.95703 4.5 3.85703 4.5 4.95703V20.957C4.5 22.057 5.4 22.957 6.5 22.957H18.5C19.6 22.957 20.5 22.057 20.5 20.957V4.95703C20.5 3.85703 19.6 2.95703 18.5 2.95703Z" fill="#0060F7"/>
<path d="M18.5 21.457H6.5C6.2 21.457 6 21.257 6 20.957V4.95703C6 4.65703 6.2 4.45703 6.5 4.45703H18.5C18.8 4.45703 19 4.65703 19 4.95703V20.957C19 21.257 18.8 21.457 18.5 21.457Z" fill="white"/>
<path d="M13.5 2.95703C13.5 3.50703 13.05 3.95703 12.5 3.95703C11.95 3.95703 11.5 3.50703 11.5 2.95703H8V4.95703C8 5.50703 8.45 5.95703 9 5.95703H16C16.55 5.95703 17 5.50703 17 4.95703V2.95703H13.5Z" fill="#1A4563"/>
<path d="M12.5 0.957031C11.4 0.957031 10.5 1.85703 10.5 2.95703C10.5 4.05703 11.4 4.95703 12.5 4.95703C13.6 4.95703 14.5 4.05703 14.5 2.95703C14.5 1.85703 13.6 0.957031 12.5 0.957031ZM12.5 3.95703C11.95 3.95703 11.5 3.50703 11.5 2.95703C11.5 2.40703 11.95 1.95703 12.5 1.95703C13.05 1.95703 13.5 2.40703 13.5 2.95703C13.5 3.50703 13.05 3.95703 12.5 3.95703Z" fill="#1A4563"/>
<path d="M16.425 10.8818C16.0798 10.5367 15.5202 10.5367 15.175 10.8818L11.3 14.7568L9.81896 13.2405C9.47831 12.8918 8.91838 12.8885 8.57365 13.2332C8.22997 13.5769 8.23204 14.1347 8.57825 14.4758L10.6429 16.5102C11.0343 16.8958 11.6634 16.8934 12.0519 16.5049L16.425 12.1318C16.7702 11.7867 16.7702 11.227 16.425 10.8818Z" fill="#1A4563"/>
</g>
<defs>
<clipPath id="clip0_324_483">
<rect width="25" height="25" fill="white" transform="translate(0 0.457031)"/>
</clipPath>
</defs>
</svg>
