<svg width="26" height="26" viewBox="0 0 26 26" fill="none" xmlns="http://www.w3.org/2000/svg">
<g clip-path="url(#clip0_1835_950)">
<path d="M18.5344 2.70166H13.5344C13.5344 3.25166 13.0844 3.70166 12.5344 3.70166C11.9844 3.70166 11.5344 3.25166 11.5344 2.70166H6.53442C5.43442 2.70166 4.53442 3.60166 4.53442 4.70166V20.7017C4.53442 21.8017 5.43442 22.7017 6.53442 22.7017H18.5344C19.6344 22.7017 20.5344 21.8017 20.5344 20.7017V4.70166C20.5344 3.60166 19.6344 2.70166 18.5344 2.70166Z" fill="#0A0A0C"/>
<path d="M13.5344 2.70166C13.5344 3.25166 13.0844 3.70166 12.5344 3.70166C11.9844 3.70166 11.5344 3.25166 11.5344 2.70166H8.03442V4.70166C8.03442 5.25166 8.48442 5.70166 9.03442 5.70166H16.0344C16.5844 5.70166 17.0344 5.25166 17.0344 4.70166V2.70166H13.5344Z" fill="#0A0A0C"/>
<path d="M12.5344 0.70166C11.4344 0.70166 10.5344 1.60166 10.5344 2.70166C10.5344 3.80166 11.4344 4.70166 12.5344 4.70166C13.6344 4.70166 14.5344 3.80166 14.5344 2.70166C14.5344 1.60166 13.6344 0.70166 12.5344 0.70166ZM12.5344 3.70166C11.9844 3.70166 11.5344 3.25166 11.5344 2.70166C11.5344 2.15166 11.9844 1.70166 12.5344 1.70166C13.0844 1.70166 13.5344 2.15166 13.5344 2.70166C13.5344 3.25166 13.0844 3.70166 12.5344 3.70166Z" fill="#0A0A0C"/>
<path d="M16.4594 10.6267C16.1143 10.2815 15.5546 10.2815 15.2094 10.6267L11.3344 14.5017L9.85339 12.9854C9.51273 12.6366 8.95281 12.6333 8.60807 12.9781C8.2644 13.3217 8.26646 13.8796 8.61268 14.2207L10.6774 16.255C11.0687 16.6406 11.6978 16.6383 12.0863 16.2498L16.4594 11.8767C16.8046 11.5315 16.8046 10.9719 16.4594 10.6267Z" fill="white"/>
</g>
<defs>
<clipPath id="clip0_1835_950">
<rect width="25" height="25" fill="white" transform="translate(0.0344238 0.20166)"/>
</clipPath>
</defs>
</svg>
