<svg width="25" height="26" viewBox="0 0 25 26" fill="none" xmlns="http://www.w3.org/2000/svg">
<path fill-rule="evenodd" clip-rule="evenodd" d="M18.623 11.9688C18.291 11.7812 17.9414 11.6328 17.5742 11.5234L16.4375 12.8477C17.5859 12.9023 18.4668 13.4688 19.0801 14.5469C19.6934 15.625 20 17.0977 20 18.9648C20 19.7617 19.7559 20.4395 19.2676 20.998C18.7793 21.5566 18.1914 21.8359 17.5039 21.8359H7.49609C6.80859 21.8359 6.2207 21.5566 5.73242 20.998C5.24414 20.4395 5 19.7617 5 18.9648C5 17.0977 5.30664 15.625 5.91992 14.5469C6.5332 13.4688 7.41406 12.9023 8.5625 12.8477L7.42578 11.5234C7.05859 11.6328 6.70898 11.7812 6.37695 11.9688C6.04492 12.1562 5.69727 12.4414 5.33398 12.8242C4.9707 13.207 4.66016 13.6582 4.40234 14.1777C4.14453 14.6973 3.92969 15.3691 3.75781 16.1934C3.58594 17.0176 3.5 17.9414 3.5 18.9648C3.5 20.168 3.89062 21.1973 4.67187 22.0527C5.45312 22.9082 6.39453 23.3359 7.49609 23.3359H17.5039C18.6055 23.3359 19.5469 22.9082 20.3281 22.0527C21.1094 21.1973 21.5 20.168 21.5 18.9648C21.5 17.9414 21.4141 17.0176 21.2422 16.1934C21.0703 15.3691 20.8555 14.6973 20.5977 14.1777C20.3398 13.6582 20.0293 13.207 19.666 12.8242C19.3027 12.4414 18.9551 12.1562 18.623 11.9688Z" fill="#0060F7"/>
<path d="M16.4375 12.8477C17.5859 12.9023 18.4668 13.4688 19.0801 14.5469C19.6934 15.625 20 17.0977 20 18.9648C20 19.7617 19.7559 20.4395 19.2676 20.998C18.7793 21.5566 18.1914 21.8359 17.5039 21.8359H7.49609C6.80859 21.8359 6.2207 21.5566 5.73242 20.998C5.24414 20.4395 5 19.7617 5 18.9648C5 17.0977 5.30664 15.625 5.91992 14.5469C6.5332 13.4688 7.41406 12.9023 8.5625 12.8477M16.4375 12.8477C15.3047 13.8398 13.9922 14.3359 12.5 14.3359C11.0078 14.3359 9.69531 13.8398 8.5625 12.8477M16.4375 12.8477L17.5742 11.5234C17.9414 11.6328 18.291 11.7812 18.623 11.9688C18.9551 12.1562 19.3027 12.4414 19.666 12.8242C20.0293 13.207 20.3398 13.6582 20.5977 14.1777C20.8555 14.6973 21.0703 15.3691 21.2422 16.1934C21.4141 17.0176 21.5 17.9414 21.5 18.9648C21.5 20.168 21.1094 21.1973 20.3281 22.0527C19.5469 22.9082 18.6055 23.3359 17.5039 23.3359H7.49609C6.39453 23.3359 5.45312 22.9082 4.67187 22.0527C3.89062 21.1973 3.5 20.168 3.5 18.9648C3.5 17.9414 3.58594 17.0176 3.75781 16.1934C3.92969 15.3691 4.14453 14.6973 4.40234 14.1777C4.66016 13.6582 4.9707 13.207 5.33398 12.8242C5.69727 12.4414 6.04492 12.1562 6.37695 11.9688C6.70898 11.7812 7.05859 11.6328 7.42578 11.5234L8.5625 12.8477" stroke="#0060F7" stroke-width="0.2"/>
<path fill-rule="evenodd" clip-rule="evenodd" d="M17.5742 11.5234C18.1914 10.5469 18.5 9.48438 18.5 8.33594C18.5 7.52344 18.3418 6.74805 18.0254 6.00977C17.709 5.27148 17.2812 4.63281 16.7422 4.09375C16.2031 3.55469 15.5645 3.12695 14.8262 2.81055C14.0879 2.49414 13.3125 2.33594 12.5 2.33594C11.6875 2.33594 10.9121 2.49414 10.1738 2.81055C9.43555 3.12695 8.79687 3.55469 8.25781 4.09375C7.71875 4.63281 7.29102 5.27148 6.97461 6.00977C6.6582 6.74805 6.5 7.52344 6.5 8.33594C6.5 9.48438 6.80859 10.5469 7.42578 11.5234L8.5625 12.8477C9.69531 13.8398 11.0078 14.3359 12.5 14.3359C13.9922 14.3359 15.3047 13.8398 16.4375 12.8477L17.5742 11.5234ZM9.31836 5.1543C10.1973 4.27539 11.2578 3.83594 12.5 3.83594C13.7422 3.83594 14.8027 4.27539 15.6816 5.1543C16.5605 6.0332 17 7.09375 17 8.33594C17 9.57812 16.5605 10.6387 15.6816 11.5176C14.8027 12.3965 13.7422 12.8359 12.5 12.8359C11.2578 12.8359 10.1973 12.3965 9.31836 11.5176C8.43945 10.6387 8 9.57812 8 8.33594C8 7.09375 8.43945 6.0332 9.31836 5.1543Z" fill="#1A4563" stroke="#1A4563" stroke-width="0.2"/>
</svg>
