<svg width="187" height="164" viewBox="0 0 187 164" fill="none" xmlns="http://www.w3.org/2000/svg">
<rect x="43.5" y="2.87598" width="100" height="100" rx="50" fill="#0060F7"/>
<rect x="58.7634" y="0.11084" width="20" height="20" rx="10" fill="white"/>
<rect x="104.861" y="87.6787" width="20" height="20" rx="10" fill="white"/>
<path fill-rule="evenodd" clip-rule="evenodd" d="M91.8294 25.1603C92.7521 24.2376 94.248 24.2376 95.1707 25.1603L120.484 50.4739C121.407 51.3966 121.407 52.8925 120.484 53.8152C119.562 54.7378 118.066 54.7378 117.143 53.8152L93.5 30.1721L73.889 49.7832C75.158 49.824 76.1742 50.8656 76.1742 52.1446V71.833C76.1742 72.6983 76.518 73.5281 77.1298 74.14C77.7417 74.7519 78.5716 75.0956 79.4369 75.0956H92.6562C93.9611 75.0956 95.0189 76.1534 95.0189 77.4582C95.0189 78.7631 93.9611 79.8208 92.6562 79.8208H79.4369C77.3184 79.8208 75.2866 78.9793 73.7886 77.4813C72.2906 75.9832 71.449 73.9515 71.449 71.833V54.5072H68.1864C67.2308 54.5072 66.3693 53.9315 66.0036 53.0487C65.6379 52.1658 65.84 51.1496 66.5157 50.4739L91.8294 25.1603Z" fill="white"/>
<path fill-rule="evenodd" clip-rule="evenodd" d="M90.6874 54.6198C89.8221 54.6198 88.9922 54.9635 88.3804 55.5754C87.7685 56.1872 87.4248 57.0171 87.4248 57.8824V77.4583C87.4248 78.7632 86.367 79.8209 85.0621 79.8209C83.7573 79.8209 82.6995 78.7632 82.6995 77.4583V57.8824C82.6995 55.7639 83.5411 53.7321 85.0391 52.2341C86.5371 50.7361 88.5689 49.8945 90.6874 49.8945H118.589C119.894 49.8945 120.951 50.9523 120.951 52.2571C120.951 53.562 119.894 54.6198 118.589 54.6198H90.6874ZM98.0135 60.0333C100.039 58.0078 102.786 56.8699 105.651 56.8699C108.515 56.8699 111.262 58.0078 113.288 60.0333C115.313 62.0587 116.451 64.8059 116.451 67.6704C116.451 69.7337 115.861 71.7362 114.773 73.4519L118.572 77.2503C119.494 78.1729 119.494 79.6688 118.572 80.5915C117.649 81.5142 116.153 81.5142 115.231 80.5915L111.432 76.7932C109.716 77.8804 107.714 78.4709 105.651 78.4709C102.786 78.4709 100.039 77.333 98.0135 75.3075C95.988 73.282 94.8501 70.5348 94.8501 67.6704C94.8501 64.8059 95.988 62.0587 98.0135 60.0333ZM105.651 61.5951C104.039 61.5951 102.494 62.2352 101.355 63.3745C100.215 64.5138 99.5753 66.0591 99.5753 67.6704C99.5753 69.2816 100.215 70.8269 101.355 71.9662C102.494 73.1056 104.039 73.7456 105.651 73.7456C107.262 73.7456 108.807 73.1056 109.946 71.9662C111.086 70.8269 111.726 69.2816 111.726 67.6704C111.726 66.0591 111.086 64.5138 109.946 63.3745C108.807 62.2352 107.262 61.5951 105.651 61.5951Z" fill="white"/>
<path d="M8.88281 134.417C6.41406 134.417 4.46094 133.64 3.02344 132.085C1.59375 130.523 0.878906 128.382 0.878906 125.664C0.878906 122.953 1.59766 120.82 3.03516 119.265C4.47266 117.703 6.42188 116.921 8.88281 116.921C10.2266 116.921 11.4453 117.187 12.5391 117.718C13.6406 118.25 14.5234 119 15.1875 119.968C15.8516 120.937 16.2266 122.042 16.3125 123.285H12.8672C12.7031 122.246 12.2539 121.414 11.5195 120.789C10.793 120.164 9.91406 119.851 8.88281 119.851C7.54688 119.851 6.48047 120.375 5.68359 121.421C4.88672 122.468 4.48828 123.878 4.48828 125.652C4.48828 127.457 4.88281 128.882 5.67188 129.929C6.46094 130.968 7.53516 131.488 8.89453 131.488C9.94141 131.488 10.8203 131.199 11.5312 130.621C12.2422 130.042 12.6914 129.253 12.8789 128.253H16.3242C16.1289 130.136 15.3594 131.636 14.0156 132.753C12.6719 133.863 10.9609 134.417 8.88281 134.417ZM20.1797 119.277C21.6484 117.707 23.6367 116.921 26.1445 116.921C28.6523 116.921 30.6367 117.707 32.0977 119.277C33.5664 120.847 34.3008 122.98 34.3008 125.675C34.3008 128.363 33.5664 130.492 32.0977 132.062C30.6289 133.632 28.6445 134.417 26.1445 134.417C23.6367 134.417 21.6484 133.632 20.1797 132.062C18.7188 130.492 17.9883 128.363 17.9883 125.675C17.9883 122.98 18.7188 120.847 20.1797 119.277ZM29.4492 121.445C28.6289 120.398 27.5273 119.875 26.1445 119.875C24.7617 119.875 23.6562 120.398 22.8281 121.445C22.0078 122.492 21.5977 123.902 21.5977 125.675C21.5977 127.441 22.0078 128.847 22.8281 129.894C23.6484 130.933 24.7539 131.453 26.1445 131.453C27.5273 131.453 28.6289 130.933 29.4492 129.894C30.2695 128.847 30.6797 127.441 30.6797 125.675C30.6797 123.902 30.2695 122.492 29.4492 121.445ZM39.9727 134.125H36.5859V117.214H39.5391L47.4375 128.23H47.5312V117.214H50.918V134.125H47.9883L40.0781 123.05H39.9727V134.125ZM53.1094 129.308H56.5195C56.5977 129.996 56.9609 130.554 57.6094 130.984C58.2656 131.406 59.0664 131.617 60.0117 131.617C60.9492 131.617 61.7109 131.417 62.2969 131.019C62.8906 130.613 63.1875 130.097 63.1875 129.472C63.1875 128.925 62.9688 128.484 62.5312 128.148C62.0938 127.812 61.3633 127.531 60.3398 127.304L58.1367 126.824C55.0352 126.16 53.4844 124.585 53.4844 122.101C53.4844 120.554 54.0859 119.304 55.2891 118.351C56.5 117.398 58.0547 116.921 59.9531 116.921C61.9062 116.921 63.4648 117.386 64.6289 118.316C65.793 119.238 66.3906 120.468 66.4219 122.007H63.1055C63.0508 121.296 62.7344 120.738 62.1562 120.332C61.5859 119.917 60.8555 119.71 59.9648 119.71C59.0898 119.71 58.3828 119.902 57.8438 120.285C57.3125 120.667 57.0469 121.171 57.0469 121.796C57.0469 122.312 57.2617 122.73 57.6914 123.05C58.1289 123.371 58.8359 123.644 59.8125 123.871L61.8633 124.304C63.5586 124.664 64.793 125.226 65.5664 125.992C66.3398 126.75 66.7266 127.773 66.7266 129.062C66.7266 130.703 66.1094 132.007 64.875 132.976C63.6406 133.937 61.9727 134.417 59.8711 134.417C57.832 134.417 56.207 133.964 54.9961 133.058C53.793 132.144 53.1641 130.894 53.1094 129.308ZM76.4883 134.125H72.9492V120.132H68.0625V117.214H81.3867V120.132H76.4883V134.125ZM86.8828 119.98V125.371H89.9297C90.8203 125.371 91.5117 125.132 92.0039 124.656C92.5039 124.179 92.7539 123.519 92.7539 122.675C92.7539 121.855 92.4961 121.203 91.9805 120.718C91.4648 120.226 90.7695 119.98 89.8945 119.98H86.8828ZM86.8828 127.937V134.125H83.3438V117.214H90.2695C92.1992 117.214 93.6992 117.695 94.7695 118.656C95.8477 119.609 96.3867 120.925 96.3867 122.605C96.3867 123.707 96.1133 124.691 95.5664 125.558C95.0273 126.417 94.2773 127.035 93.3164 127.41L96.8789 134.125H92.8711L89.7188 127.937H86.8828ZM102.258 117.214V127.796C102.258 128.898 102.566 129.773 103.184 130.421C103.809 131.062 104.684 131.382 105.809 131.382C106.926 131.382 107.793 131.062 108.41 130.421C109.035 129.773 109.348 128.898 109.348 127.796V117.214H112.887V128.148C112.887 130.023 112.242 131.539 110.953 132.695C109.672 133.843 107.957 134.417 105.809 134.417C103.652 134.417 101.93 133.843 100.641 132.695C99.3594 131.539 98.7188 130.023 98.7188 128.148V117.214H102.258ZM123.188 134.417C120.719 134.417 118.766 133.64 117.328 132.085C115.898 130.523 115.184 128.382 115.184 125.664C115.184 122.953 115.902 120.82 117.34 119.265C118.777 117.703 120.727 116.921 123.188 116.921C124.531 116.921 125.75 117.187 126.844 117.718C127.945 118.25 128.828 119 129.492 119.968C130.156 120.937 130.531 122.042 130.617 123.285H127.172C127.008 122.246 126.559 121.414 125.824 120.789C125.098 120.164 124.219 119.851 123.188 119.851C121.852 119.851 120.785 120.375 119.988 121.421C119.191 122.468 118.793 123.878 118.793 125.652C118.793 127.457 119.188 128.882 119.977 129.929C120.766 130.968 121.84 131.488 123.199 131.488C124.246 131.488 125.125 131.199 125.836 130.621C126.547 130.042 126.996 129.253 127.184 128.253H130.629C130.434 130.136 129.664 131.636 128.32 132.753C126.977 133.863 125.266 134.417 123.188 134.417ZM139.863 134.125H136.324V120.132H131.438V117.214H144.762V120.132H139.863V134.125ZM150.258 134.125H146.719V117.214H150.258V134.125ZM154.734 119.277C156.203 117.707 158.191 116.921 160.699 116.921C163.207 116.921 165.191 117.707 166.652 119.277C168.121 120.847 168.855 122.98 168.855 125.675C168.855 128.363 168.121 130.492 166.652 132.062C165.184 133.632 163.199 134.417 160.699 134.417C158.191 134.417 156.203 133.632 154.734 132.062C153.273 130.492 152.543 128.363 152.543 125.675C152.543 122.98 153.273 120.847 154.734 119.277ZM164.004 121.445C163.184 120.398 162.082 119.875 160.699 119.875C159.316 119.875 158.211 120.398 157.383 121.445C156.562 122.492 156.152 123.902 156.152 125.675C156.152 127.441 156.562 128.847 157.383 129.894C158.203 130.933 159.309 131.453 160.699 131.453C162.082 131.453 163.184 130.933 164.004 129.894C164.824 128.847 165.234 127.441 165.234 125.675C165.234 123.902 164.824 122.492 164.004 121.445ZM174.527 134.125H171.141V117.214H174.094L181.992 128.23H182.086V117.214H185.473V134.125H182.543L174.633 123.05H174.527V134.125Z" fill="#1A4563"/>
<path d="M40.1758 157.124H38.582V140.214H40.1758V157.124ZM43.0938 157.124V144.937H44.5586V147.187H44.5938C45.2148 145.71 46.6445 144.737 48.6133 144.737C51.2852 144.737 52.9258 146.46 52.9258 149.226V157.124H51.3789V149.472C51.3789 147.339 50.207 146.12 48.168 146.12C46.0586 146.12 44.6406 147.644 44.6406 149.905V157.124H43.0938ZM55.293 148.194C55.293 146.179 57.0977 144.737 59.6758 144.737C62.1719 144.737 63.9531 146.202 64.1055 148.347H62.6172C62.4297 146.905 61.3164 146.015 59.6289 146.015C57.9648 146.015 56.8281 146.894 56.8281 148.112C56.8281 149.108 57.543 149.718 59.1719 150.116L60.9766 150.55C63.4141 151.159 64.3281 152.05 64.3281 153.796C64.3281 155.858 62.3945 157.323 59.6406 157.323C57.0273 157.323 55.1406 155.858 54.9414 153.714H56.4883C56.7109 155.155 57.9062 156.046 59.7344 156.046C61.5625 156.046 62.7695 155.19 62.7695 153.913C62.7695 152.858 62.1602 152.296 60.5312 151.897L58.5508 151.405C56.3477 150.854 55.293 149.812 55.293 148.194ZM72.1211 144.737C75.2031 144.737 77.3125 147.245 77.3125 151.03C77.3125 154.827 75.2148 157.323 72.1562 157.323C70.1875 157.323 68.6523 156.198 68.0078 154.616H67.9609V161.155H66.4141V144.937H67.8789V147.515H67.9258C68.5938 145.897 70.1406 144.737 72.1211 144.737ZM71.8516 155.952C74.207 155.952 75.7305 154.007 75.7305 151.03C75.7305 148.065 74.207 146.108 71.8516 146.108C69.543 146.108 67.9609 148.101 67.9609 151.03C67.9609 153.972 69.543 155.952 71.8516 155.952ZM84.2148 146.097C82.0352 146.097 80.5234 147.772 80.3945 150.175H87.918C87.8828 147.772 86.418 146.097 84.2148 146.097ZM87.8242 153.667H89.3594C88.9961 155.776 87.0156 157.323 84.332 157.323C80.9102 157.323 78.7891 154.933 78.7891 151.065C78.7891 147.28 80.9336 144.737 84.2383 144.737C87.4727 144.737 89.5117 147.116 89.5117 150.749V151.405H80.3828V151.499C80.3828 154.253 81.9414 155.964 84.3672 155.964C86.207 155.964 87.4844 155.003 87.8242 153.667ZM101.5 148.792H99.9766C99.6484 147.292 98.418 146.108 96.4961 146.108C94.1172 146.108 92.5586 148.019 92.5586 151.03C92.5586 154.089 94.1289 155.952 96.5078 155.952C98.3477 155.952 99.625 154.933 99.9766 153.351H101.512C101.172 155.683 99.1914 157.323 96.4961 157.323C93.168 157.323 90.9766 154.933 90.9766 151.03C90.9766 147.187 93.168 144.737 96.4844 144.737C99.3555 144.737 101.195 146.612 101.5 148.792ZM104.113 141.89H105.66V144.937H108.062V146.226H105.66V154.054C105.66 155.308 106.152 155.847 107.277 155.847C107.441 155.847 108.027 155.823 108.121 155.8V157.124C107.957 157.159 107.301 157.194 106.973 157.194C104.934 157.194 104.113 156.327 104.113 154.124V146.226H102.297V144.937H104.113V141.89ZM110.371 157.124V144.937H111.918V157.124H110.371ZM111.145 142.476C110.582 142.476 110.113 142.019 110.113 141.444C110.113 140.882 110.582 140.425 111.145 140.425C111.719 140.425 112.188 140.882 112.188 141.444C112.188 142.019 111.719 142.476 111.145 142.476ZM119.641 157.323C116.324 157.323 114.086 154.897 114.086 151.03C114.086 147.151 116.336 144.737 119.641 144.737C122.957 144.737 125.195 147.151 125.195 151.03C125.195 154.897 122.957 157.323 119.641 157.323ZM119.641 155.952C122.031 155.952 123.625 154.124 123.625 151.03C123.625 147.937 122.031 146.108 119.641 146.108C117.25 146.108 115.668 147.937 115.668 151.03C115.668 154.124 117.25 155.952 119.641 155.952ZM127.258 157.124V144.937H128.723V147.187H128.758C129.379 145.71 130.809 144.737 132.777 144.737C135.449 144.737 137.09 146.46 137.09 149.226V157.124H135.543V149.472C135.543 147.339 134.371 146.12 132.332 146.12C130.223 146.12 128.805 147.644 128.805 149.905V157.124H127.258ZM139.457 148.194C139.457 146.179 141.262 144.737 143.84 144.737C146.336 144.737 148.117 146.202 148.27 148.347H146.781C146.594 146.905 145.48 146.015 143.793 146.015C142.129 146.015 140.992 146.894 140.992 148.112C140.992 149.108 141.707 149.718 143.336 150.116L145.141 150.55C147.578 151.159 148.492 152.05 148.492 153.796C148.492 155.858 146.559 157.323 143.805 157.323C141.191 157.323 139.305 155.858 139.105 153.714H140.652C140.875 155.155 142.07 156.046 143.898 156.046C145.727 156.046 146.934 155.19 146.934 153.913C146.934 152.858 146.324 152.296 144.695 151.897L142.715 151.405C140.512 150.854 139.457 149.812 139.457 148.194Z" fill="#1A4563"/>
</svg>
