<svg width="14" height="15" viewBox="0 0 14 15" fill="none" xmlns="http://www.w3.org/2000/svg">
<rect y="0.5" width="14" height="14" rx="2" fill="#F78500"/>
<path d="M5.57638 4.20401C6.20989 3.068 6.52639 2.5 6.99989 2.5C7.47339 2.5 7.78989 3.068 8.42339 4.20401L8.58739 4.49801C8.76739 4.82101 8.85739 4.98251 8.99739 5.08901C9.13739 5.19551 9.3124 5.23501 9.6624 5.31401L9.9804 5.38601C11.2104 5.66451 11.8249 5.80351 11.9714 6.27401C12.1174 6.74401 11.6984 7.23451 10.8599 8.21502L10.6429 8.46852C10.4049 8.74702 10.2854 8.88652 10.2319 9.05852C10.1784 9.23102 10.1964 9.41702 10.2324 9.78852L10.2654 10.127C10.3919 11.4355 10.4554 12.0895 10.0724 12.38C9.6894 12.671 9.11339 12.4055 7.96239 11.8755L7.66389 11.7385C7.33689 11.5875 7.17339 11.5125 6.99989 11.5125C6.82639 11.5125 6.66289 11.5875 6.33539 11.7385L6.03789 11.8755C4.88638 12.4055 4.31038 12.6705 3.92788 12.3805C3.54438 12.0895 3.60788 11.4355 3.73438 10.127L3.76738 9.78902C3.80338 9.41702 3.82138 9.23102 3.76738 9.05902C3.71438 8.88652 3.59488 8.74702 3.35688 8.46902L3.13988 8.21502C2.30137 7.23501 1.88237 6.74451 2.02837 6.27401C2.17487 5.80351 2.78988 5.66401 4.01988 5.38601L4.33788 5.31401C4.68738 5.23501 4.86188 5.19551 5.00238 5.08901C5.14238 4.98251 5.23238 4.82101 5.41238 4.49801L5.57638 4.20401Z" fill="white"/>
</svg>
