<svg width="18" height="18" viewBox="0 0 18 18" fill="none" xmlns="http://www.w3.org/2000/svg">
<path d="M9 17H9.00024C10.1109 17.0005 11.148 16.7903 12.1168 16.372C13.0954 15.9495 13.9417 15.3787 14.6602 14.6602C15.3781 13.9417 15.9486 13.0954 16.3712 12.1168C16.7895 11.148 17 10.1107 17 9V8.99976C17.0005 7.88912 16.7903 6.85197 16.372 5.8832C15.9495 4.90465 15.3788 4.05842 14.6603 3.33993C13.9418 2.62194 13.0955 2.05142 12.1168 1.62884C11.148 1.21054 10.1109 1.00003 9.00024 1L9 17ZM9 17C7.88929 17 6.85205 16.7895 5.8832 16.3712M9 17L5.8832 16.3712M5.8832 16.3712C4.90451 15.9486 4.05819 15.3781 3.33967 14.6601C2.62127 13.9416 2.05087 13.0955 1.62893 12.117C1.21111 11.1481 1.00057 10.1108 1 9L5.8832 16.3712ZM5.88299 1.62893C6.85189 1.21111 7.88921 1.00057 9 1L1 8.99976C1.00003 7.88913 1.21054 6.85197 1.62884 5.8832C2.05142 4.90451 2.62194 4.05819 3.33993 3.33967C4.05837 2.62127 4.90453 2.05087 5.88299 1.62893Z" stroke="#B3BAC6"/>
</svg>
