<svg width="39" height="24" viewBox="0 0 39 24" fill="none" xmlns="http://www.w3.org/2000/svg">
<g clip-path="url(#clip0_3457_655)">
<path d="M7.92868 0H17.4954C18.8308 0 19.6614 1.08855 19.35 2.4285L14.8959 21.5512C14.5816 22.8865 13.2444 23.976 11.9082 23.976H2.34223C1.00873 23.976 0.17623 22.8865 0.48778 21.5512L4.94368 2.4285C5.25523 1.08855 6.59158 0 7.92868 0Z" fill="#E21836"/>
<path d="M16.6991 0H27.7007C29.0358 0 28.4339 1.08855 28.1198 2.4285L23.6663 21.5512C23.354 22.8865 23.4513 23.976 22.1133 23.976H11.1119C9.77388 23.976 8.94588 22.8865 9.26013 21.5512L13.7132 2.4285C14.0294 1.08855 15.363 0 16.6991 0Z" fill="#00447C"/>
<path d="M27.2643 0H36.831C38.1684 0 38.999 1.08855 38.685 2.4285L34.2315 21.5512C33.9173 22.8865 32.5793 23.976 31.242 23.976H21.6798C20.3418 23.976 19.5119 22.8865 19.8254 21.5512L24.2793 2.4285C24.5909 1.08855 25.9263 0 27.2643 0Z" fill="#007B84"/>
<path d="M9.77272 7.76617C8.78902 7.77622 8.49847 7.76617 8.40562 7.74427C8.36992 7.91377 7.70602 10.9762 7.70422 10.9787C7.56127 11.5982 7.45732 12.04 7.10392 12.3251C6.90352 12.4909 6.66937 12.571 6.39787 12.571C5.96167 12.571 5.70742 12.3542 5.66482 11.9434L5.65657 11.8024C5.65657 11.8024 5.78947 10.9724 5.78947 10.9678C5.78947 10.9678 6.48622 8.17702 6.61102 7.80817C6.61762 7.78717 6.61942 7.77622 6.62107 7.76617C5.26492 7.77817 5.02447 7.76617 5.00797 7.74427C4.99882 7.77427 4.96522 7.94737 4.96522 7.94737L4.25377 11.0929L4.19272 11.3596L4.07452 12.2321C4.07452 12.4909 4.12537 12.7022 4.22647 12.8809C4.55062 13.4473 5.47522 13.5322 5.99827 13.5322C6.67207 13.5322 7.30432 13.3889 7.73152 13.1275C8.47297 12.6895 8.66707 12.0046 8.84002 11.3959L8.92027 11.0837C8.92027 11.0837 9.63802 8.18527 9.75997 7.80817C9.76447 7.78717 9.76642 7.77622 9.77272 7.76617ZM12.2147 10.1044C12.0418 10.1044 11.7257 10.1464 11.4416 10.2856C11.3386 10.3385 11.2411 10.3996 11.1382 10.4605L11.231 10.1254L11.1802 10.069C10.5779 10.1909 10.4431 10.2073 9.88672 10.2856L9.84022 10.3166C9.77557 10.8521 9.71812 11.2549 9.47872 12.3077C9.38699 12.6972 9.29339 13.0862 9.19792 13.4747L9.22342 13.5238C9.79372 13.4938 9.96667 13.4938 10.4623 13.5019L10.5023 13.4584C10.5653 13.1359 10.5734 13.0603 10.7129 12.407C10.7785 12.0974 10.9151 11.417 10.9825 11.1748C11.1062 11.1173 11.2285 11.0609 11.345 11.0609C11.6228 11.0609 11.5889 11.3032 11.5783 11.3998C11.5663 11.5618 11.4652 12.0911 11.3614 12.5456L11.2921 12.8389C11.2439 13.0556 11.191 13.2661 11.1427 13.4809L11.1637 13.5238C11.7256 13.4938 11.897 13.4938 12.3769 13.5019L12.4333 13.4584C12.5201 12.9547 12.5455 12.8198 12.6994 12.0865L12.7768 11.7496C12.9272 11.09 13.0028 10.7557 12.889 10.4833C12.7687 10.178 12.4798 10.1044 12.2147 10.1044ZM14.9429 10.7948C14.6441 10.8523 14.4536 10.8904 14.2643 10.9151C14.0767 10.9451 13.8935 10.9726 13.6049 11.0126L13.582 11.0333L13.561 11.0498C13.531 11.2649 13.51 11.4508 13.4701 11.6693C13.4363 11.8952 13.3843 12.152 13.2997 12.5209C13.2341 12.8032 13.2004 12.9016 13.163 13.0009C13.1266 13.1003 13.0865 13.1969 13.0129 13.4746L13.0301 13.5002L13.0445 13.5238C13.3144 13.511 13.4909 13.5019 13.6723 13.5002C13.8535 13.4938 14.0413 13.5002 14.3317 13.5017L14.3572 13.4812L14.3845 13.4582C14.4265 13.2077 14.4326 13.1404 14.4583 13.0183C14.4838 12.8872 14.5276 12.7058 14.6351 12.2212C14.686 11.9936 14.7425 11.7667 14.7953 11.5345C14.8501 11.3032 14.9074 11.0755 14.962 10.8478L14.9539 10.8203L14.9429 10.7948ZM14.9492 9.86392C14.6777 9.70372 14.2015 9.75457 13.8808 9.97582C13.5611 10.1927 13.5247 10.5005 13.7953 10.6628C14.062 10.8185 14.5402 10.7722 14.858 10.549C15.1771 10.3274 15.217 10.0225 14.9492 9.86392ZM16.5907 13.574C17.1398 13.574 17.7028 13.4225 18.1265 12.9736C18.4525 12.6094 18.602 12.0674 18.6538 11.8442C18.8222 11.1046 18.691 10.7593 18.5263 10.549C18.2758 10.2283 17.8331 10.1254 17.374 10.1254C17.098 10.1254 16.4404 10.1527 15.9266 10.6264C15.5576 10.9679 15.3872 11.4316 15.2845 11.8759C15.1807 12.3289 15.0613 13.144 15.811 13.4474C16.0423 13.5467 16.3757 13.574 16.5907 13.574ZM16.5478 11.9098C16.6744 11.3497 16.8239 10.8796 17.2054 10.8796C17.5043 10.8796 17.5261 11.2294 17.3932 11.7913C17.3693 11.9161 17.2603 12.3799 17.1127 12.5773C17.0095 12.7231 16.8877 12.8114 16.7527 12.8114C16.7126 12.8114 16.4741 12.8114 16.4704 12.4573C16.4686 12.2824 16.5043 12.1037 16.5478 11.9098ZM20.0264 13.502L20.0693 13.4584C20.1302 13.1359 20.1403 13.0601 20.275 12.4072C20.3425 12.0974 20.482 11.4172 20.5474 11.1748C20.6714 11.1172 20.7916 11.0608 20.9119 11.0608C21.1877 11.0608 21.1541 11.303 21.1432 11.3996C21.1331 11.5619 21.0319 12.091 20.9263 12.5455L20.8607 12.8387C20.8106 13.0556 20.756 13.2659 20.7077 13.481L20.7287 13.5239C21.2927 13.4939 21.4574 13.4939 21.9401 13.502L21.9985 13.4584C22.0831 12.9544 22.106 12.8197 22.2646 12.0865L22.34 11.7494C22.4912 11.0899 22.5677 10.7558 22.4557 10.4834C22.3319 10.1782 22.0414 10.1045 21.7799 10.1045C21.6067 10.1045 21.289 10.1462 21.0065 10.2857C20.9056 10.3385 20.8043 10.3994 20.705 10.4606L20.7916 10.1255L20.7451 10.0688C20.143 10.1909 20.0056 10.2073 19.4498 10.2857L19.4071 10.3166C19.3397 10.8523 19.285 11.2547 19.0456 12.3079C18.9538 12.6972 18.8602 13.0862 18.7649 13.4747L18.7904 13.5239C19.3615 13.4939 19.5319 13.4939 20.0264 13.502ZM24.1691 13.5238C24.2045 13.3507 24.4151 12.3253 24.4169 12.3253C24.4169 12.3253 24.5962 11.5727 24.6073 11.5454C24.6073 11.5454 24.6637 11.4671 24.7201 11.4361H24.803C25.5863 11.4361 26.4709 11.4361 27.164 10.9261C27.6358 10.5763 27.9583 10.0598 28.1021 9.43207C28.1395 9.27817 28.1669 9.09517 28.1669 8.91217C28.1669 8.67172 28.1188 8.43382 27.9793 8.24797C27.6257 7.75342 26.9218 7.74427 26.1091 7.74052L25.7086 7.74427C24.6683 7.75717 24.2512 7.75342 24.0797 7.73242C24.0653 7.80817 24.038 7.94302 24.038 7.94302C24.038 7.94302 23.6654 9.66997 23.6654 9.67267L22.7317 13.5175C23.6399 13.5065 24.0124 13.5065 24.1691 13.5238ZM24.8596 10.456C24.8596 10.456 25.2556 8.73247 25.2538 8.73907L25.2667 8.65057L25.2722 8.58337L25.4306 8.59957C25.4306 8.59957 26.2477 8.66977 26.2667 8.67157C26.5892 8.79637 26.7221 9.11797 26.6294 9.53767C26.5447 9.92137 26.296 10.2439 25.9762 10.3996C25.7129 10.5316 25.3904 10.5425 25.0582 10.5425H24.8432L24.8596 10.456ZM27.3262 11.9417C27.2215 12.388 27.1012 13.2032 27.8471 13.4938C28.085 13.5949 28.2982 13.625 28.5146 13.6141C28.7435 13.6018 28.9555 13.487 29.1518 13.3219L29.0986 13.5257L29.1325 13.5692C29.669 13.5467 29.8355 13.5467 30.4168 13.5512L30.4696 13.511C30.5543 13.012 30.6344 12.5275 30.8551 11.5727C30.9625 11.1155 31.0697 10.6627 31.18 10.2073L31.1627 10.1572C30.5626 10.2683 30.4022 10.2922 29.8247 10.3739L29.7809 10.4096C29.7751 10.4561 29.7689 10.5007 29.7634 10.5452C29.6737 10.4002 29.5435 10.2763 29.3428 10.1992C29.086 10.0981 28.483 10.2283 27.9647 10.7002C27.6004 11.0372 27.4255 11.4989 27.3262 11.9417ZM28.5868 11.969C28.7153 11.4188 28.8628 10.9535 29.2453 10.9535C29.4871 10.9535 29.6144 11.1766 29.5885 11.5571C29.5663 11.66 29.5433 11.7627 29.5195 11.8652C29.4812 12.0287 29.4398 12.1907 29.3995 12.353C29.3584 12.464 29.3105 12.5687 29.2582 12.6385C29.1598 12.778 28.9256 12.8644 28.7908 12.8644C28.7525 12.8644 28.5166 12.8644 28.5085 12.5164C28.5065 12.3433 28.5422 12.1649 28.5868 11.969ZM35.1697 10.1527L35.1232 10.0997C34.5293 10.22 34.4218 10.2392 33.8762 10.3129L33.836 10.3529C33.8342 10.3595 33.8326 10.3694 33.8297 10.3786L33.8279 10.3696C33.4217 11.3068 33.4336 11.1046 33.103 11.8423C33.101 11.8087 33.101 11.7878 33.0992 11.7521L33.0164 10.1527L32.9645 10.0997C32.3423 10.22 32.3276 10.2392 31.7531 10.3129L31.7083 10.3529C31.702 10.3721 31.702 10.3931 31.6982 10.4159L31.702 10.4242C31.7738 10.7911 31.7566 10.7092 31.8286 11.2885C31.8622 11.5727 31.907 11.8586 31.9405 12.1394C31.9972 12.6092 32.029 12.8405 32.0981 13.5577C31.7102 14.1979 31.6183 14.4403 31.2446 15.0022L31.2473 15.0077L30.9842 15.4238C30.9542 15.4676 30.9269 15.4976 30.8887 15.5105C30.8467 15.5312 30.7921 15.535 30.7163 15.535H30.5705L30.3539 16.2556L31.0972 16.2683C31.5334 16.2665 31.8076 16.0625 31.9552 15.7883L32.4226 14.9875H32.4151L32.4643 14.9311C32.7787 14.2544 35.1697 10.1527 35.1697 10.1527Z" fill="#FEFEFE"/>
</g>
<defs>
<clipPath id="clip0_3457_655">
<rect width="38.4" height="24" fill="white" transform="translate(0.422119)"/>
</clipPath>
</defs>
</svg>
