<svg width="25" height="26" viewBox="0 0 25 26" fill="none" xmlns="http://www.w3.org/2000/svg">
<path d="M21.5 19.8357V13.1027C21.5 12.5602 21.3896 12.0233 21.1756 11.5247C20.9616 11.0262 20.6483 10.5764 20.255 10.2027L13.878 4.14571C13.5063 3.79259 13.0132 3.5957 12.5005 3.5957C11.9878 3.5957 11.4947 3.79259 11.123 4.14571L4.745 10.2027C4.35165 10.5764 4.03844 11.0262 3.8244 11.5247C3.61037 12.0233 3.5 12.5602 3.5 13.1027V19.8357C3.5 20.3661 3.71071 20.8748 4.08579 21.2499C4.46086 21.625 4.96957 21.8357 5.5 21.8357H19.5C20.0304 21.8357 20.5391 21.625 20.9142 21.2499C21.2893 20.8748 21.5 20.3661 21.5 19.8357Z" stroke="#757F8E" stroke-width="2" stroke-linecap="round" stroke-linejoin="round"/>
<path d="M9.5 15.8359C9.5 15.3055 9.71071 14.7968 10.0858 14.4217C10.4609 14.0467 10.9696 13.8359 11.5 13.8359H13.5C14.0304 13.8359 14.5391 14.0467 14.9142 14.4217C15.2893 14.7968 15.5 15.3055 15.5 15.8359V21.8359H9.5V15.8359Z" stroke="#757F8E" stroke-width="2" stroke-linecap="round" stroke-linejoin="round"/>
</svg>
