<svg width="25" height="26" viewBox="0 0 25 26" fill="none" xmlns="http://www.w3.org/2000/svg">
<g clip-path="url(#clip0_228_3864)">
<path d="M18.5 2.64844H13.5C13.5 3.19844 13.05 3.64844 12.5 3.64844C11.95 3.64844 11.5 3.19844 11.5 2.64844H6.5C5.4 2.64844 4.5 3.54844 4.5 4.64844V20.6484C4.5 21.7484 5.4 22.6484 6.5 22.6484H18.5C19.6 22.6484 20.5 21.7484 20.5 20.6484V4.64844C20.5 3.54844 19.6 2.64844 18.5 2.64844Z" fill="#757F8E"/>
<path d="M18.5 21.1484H6.5C6.2 21.1484 6 20.9484 6 20.6484V4.64844C6 4.34844 6.2 4.14844 6.5 4.14844H18.5C18.8 4.14844 19 4.34844 19 4.64844V20.6484C19 20.9484 18.8 21.1484 18.5 21.1484Z" fill="white"/>
<path d="M13.5 2.64844C13.5 3.19844 13.05 3.64844 12.5 3.64844C11.95 3.64844 11.5 3.19844 11.5 2.64844H8V4.64844C8 5.19844 8.45 5.64844 9 5.64844H16C16.55 5.64844 17 5.19844 17 4.64844V2.64844H13.5Z" fill="#757F8E"/>
<path d="M12.5 0.648438C11.4 0.648438 10.5 1.54844 10.5 2.64844C10.5 3.74844 11.4 4.64844 12.5 4.64844C13.6 4.64844 14.5 3.74844 14.5 2.64844C14.5 1.54844 13.6 0.648438 12.5 0.648438ZM12.5 3.64844C11.95 3.64844 11.5 3.19844 11.5 2.64844C11.5 2.09844 11.95 1.64844 12.5 1.64844C13.05 1.64844 13.5 2.09844 13.5 2.64844C13.5 3.19844 13.05 3.64844 12.5 3.64844Z" fill="#757F8E"/>
<path d="M16.425 10.5732C16.0798 10.2281 15.5202 10.2281 15.175 10.5732L11.3 14.4482L9.81896 12.9319C9.47831 12.5832 8.91838 12.5799 8.57365 12.9246C8.22997 13.2683 8.23204 13.8261 8.57825 14.1672L10.6429 16.2016C11.0343 16.5872 11.6634 16.5848 12.0519 16.1964L16.425 11.8232C16.7702 11.4781 16.7702 10.9184 16.425 10.5732Z" fill="#757F8E"/>
</g>
<defs>
<clipPath id="clip0_228_3864">
<rect width="25" height="25" fill="white" transform="translate(0 0.148438)"/>
</clipPath>
</defs>
</svg>
