<svg width="25" height="25" viewBox="0 0 25 25" fill="none" xmlns="http://www.w3.org/2000/svg">
<path fill-rule="evenodd" clip-rule="evenodd" d="M19.5598 12.1478C19.0726 12.2724 18.5717 12.3354 18.0688 12.3353H18.0538V12.6608C18.0538 14.0243 18.2683 15.3878 18.7168 16.6973L19.2733 18.3668H4.82829V18.3488L5.38329 16.6793C5.81726 15.3775 6.04155 14.015 6.04779 12.6428V9.34132C6.04779 8.49682 6.22779 7.67182 6.56829 6.91732C6.90879 6.14632 7.39329 5.46382 8.02179 4.90732C8.65029 4.33432 9.38679 3.90232 10.1758 3.65182C10.9828 3.38182 11.8258 3.29182 12.6508 3.38182L12.8308 3.40882C13.1036 2.92042 13.4434 2.47259 13.8403 2.07832C13.4969 1.98685 13.1475 1.91919 12.7948 1.87582C11.7538 1.76782 10.6948 1.87582 9.68979 2.21632C8.68479 2.53882 7.76979 3.07732 6.99879 3.79582C6.22394 4.49579 5.60636 5.35213 5.18679 6.30832C4.76513 7.26414 4.54505 8.29663 4.54029 9.34132V12.6413C4.53809 13.8493 4.34418 15.0492 3.96579 16.1963L3.06879 18.8498L3.78729 19.8368H9.04479C9.04479 20.6258 9.36729 21.3968 9.92379 21.9548C10.4788 22.5098 11.2513 22.8338 12.0418 22.8338C12.8308 22.8338 13.6018 22.5113 14.1583 21.9548C14.7148 21.3983 15.0388 20.6258 15.0388 19.8368H20.2963L21.0133 18.8498L20.1343 16.1948C19.7547 15.0423 19.5607 13.8367 19.5598 12.6233V12.1478ZM12.0418 21.3653C12.2393 21.364 12.4345 21.3235 12.6163 21.2462C12.7981 21.169 12.9627 21.0565 13.1008 20.9153C13.2424 20.7789 13.3539 20.6143 13.428 20.4321C13.5021 20.25 13.5373 20.0544 13.5313 19.8578H10.5343C10.5343 20.2523 10.6948 20.6288 10.9828 20.9168C11.1211 21.0576 11.2858 21.1697 11.4675 21.2467C11.6493 21.3237 11.8444 21.364 12.0418 21.3653Z" fill="#B5B5B5" stroke="#B5B5B5" stroke-width="0.2"/>
<path fill-rule="evenodd" clip-rule="evenodd" d="M4.5223 12.1477C5.00951 12.2723 5.51042 12.3353 6.0133 12.3352H6.02831V12.6607C6.02831 14.0242 5.8138 15.3877 5.3653 16.6972L4.8088 18.3667H19.2538V18.3487L18.6988 16.6792C18.2648 15.3774 18.0405 14.0149 18.0343 12.6427V9.3412C18.0343 8.4967 17.8543 7.6717 17.5138 6.9172C17.1733 6.1462 16.6888 5.4637 16.0603 4.9072C15.4318 4.3342 14.6953 3.9022 13.9063 3.6517C13.0993 3.3817 12.2563 3.2917 11.4313 3.3817L11.2513 3.4087C10.9785 2.9203 10.6387 2.47246 10.2418 2.0782C10.5852 1.98673 10.9346 1.91906 11.2873 1.8757C12.3283 1.7677 13.3873 1.8757 14.3923 2.2162C15.3973 2.5387 16.3123 3.0772 17.0833 3.7957C17.8582 4.49566 18.4757 5.352 18.8953 6.3082C19.317 7.26402 19.537 8.29651 19.5418 9.3412V12.6412C19.544 13.8491 19.7379 15.0491 20.1163 16.1962L21.0133 18.8497L20.2948 19.8367H15.0373C15.0373 20.6257 14.7148 21.3967 14.1583 21.9547C13.6033 22.5097 12.8308 22.8337 12.0403 22.8337C11.2513 22.8337 10.4803 22.5112 9.92381 21.9547C9.3673 21.3982 9.04331 20.6257 9.04331 19.8367H3.7858L3.0688 18.8497L3.94781 16.1947C4.32743 15.0422 4.52135 13.8366 4.5223 12.6232V12.1477ZM12.0403 21.3652C11.8428 21.3638 11.6476 21.3234 11.4658 21.2461C11.284 21.1689 11.1194 21.0564 10.9813 20.9152C10.8397 20.7787 10.7282 20.6142 10.6541 20.432C10.58 20.2499 10.5448 20.0543 10.5508 19.8577H13.5478C13.5478 20.2522 13.3873 20.6287 13.0993 20.9167C12.961 21.0575 12.7963 21.1696 12.6145 21.2466C12.4328 21.3236 12.2377 21.3639 12.0403 21.3652Z" fill="#B5B5B5" stroke="#B5B5B5" stroke-width="0.2"/>
<path d="M5.1208 12.0356L4.68516 16.991L4.04419 18.4007L4.46734 18.9514H11.2197L18.2444 19.496L19.7691 18.9514V16.991L18.7345 13.0159V10.8921L18.2444 7.46149L17.2097 5.2833L15.2494 3.32293L12.2544 2.45154L9.8039 3.05055L6.69998 4.902L5.1208 8.06043V12.0356Z" fill="#B5B5B5"/>
</svg>
