<svg width="25" height="25" viewBox="0 0 25 25" fill="none" xmlns="http://www.w3.org/2000/svg">
<path fill-rule="evenodd" clip-rule="evenodd" d="M19.991 12.4607C19.5038 12.5853 19.0029 12.6483 18.5 12.6482H18.485V12.9737C18.485 14.3372 18.6995 15.7007 19.148 17.0102L19.7045 18.6797H5.2595V18.6617L5.8145 16.9922C6.24847 15.6904 6.47277 14.3279 6.479 12.9557V9.65418C6.479 8.80968 6.659 7.98468 6.9995 7.23018C7.34 6.45918 7.8245 5.77668 8.453 5.22018C9.0815 4.64718 9.818 4.21518 10.607 3.96468C11.414 3.69468 12.257 3.60468 13.082 3.69468L13.262 3.72168C13.5348 3.23329 13.8746 2.78545 14.2715 2.39118C13.9281 2.29971 13.5787 2.23205 13.226 2.18868C12.185 2.08068 11.126 2.18868 10.121 2.52918C9.116 2.85168 8.201 3.39018 7.43 4.10868C6.65516 4.80865 6.03757 5.66499 5.618 6.62118C5.19635 7.57701 4.97627 8.6095 4.9715 9.65418V12.9542C4.9693 14.1621 4.77539 15.362 4.397 16.5092L3.5 19.1627L4.2185 20.1497H9.476C9.476 20.9387 9.7985 21.7097 10.355 22.2677C10.91 22.8227 11.6825 23.1467 12.473 23.1467C13.262 23.1467 14.033 22.8242 14.5895 22.2677C15.146 21.7112 15.47 20.9387 15.47 20.1497H20.7275L21.4445 19.1627L20.5655 16.5077C20.1859 15.3552 19.992 14.1496 19.991 12.9362V12.4607ZM12.473 21.6782C12.6705 21.6768 12.8657 21.6363 13.0475 21.5591C13.2293 21.4819 13.3939 21.3694 13.532 21.2282C13.6736 21.0917 13.7851 20.9271 13.8592 20.745C13.9334 20.5629 13.9685 20.3672 13.9625 20.1707H10.9655C10.9655 20.5652 11.126 20.9417 11.414 21.2297C11.5523 21.3705 11.717 21.4826 11.8988 21.5596C12.0805 21.6365 12.2756 21.6768 12.473 21.6782Z" fill="#757F8E" stroke="#757F8E" stroke-width="0.2"/>
<path fill-rule="evenodd" clip-rule="evenodd" d="M4.9535 12.4607C5.4407 12.5853 5.94162 12.6483 6.4445 12.6482H6.4595V12.9737C6.4595 14.3372 6.245 15.7007 5.7965 17.0102L5.24 18.6797H19.685V18.6617L19.13 16.9922C18.696 15.6904 18.4717 14.3279 18.4655 12.9557V9.65418C18.4655 8.80968 18.2855 7.98468 17.945 7.23018C17.6045 6.45918 17.12 5.77668 16.4915 5.22018C15.863 4.64718 15.1265 4.21518 14.3375 3.96468C13.5305 3.69468 12.6875 3.60468 11.8625 3.69468L11.6825 3.72168C11.4097 3.23329 11.0699 2.78545 10.673 2.39118C11.0164 2.29971 11.3658 2.23205 11.7185 2.18868C12.7595 2.08068 13.8185 2.18868 14.8235 2.52918C15.8285 2.85168 16.7435 3.39018 17.5145 4.10868C18.2893 4.80865 18.9069 5.66499 19.3265 6.62118C19.7482 7.57701 19.9682 8.6095 19.973 9.65418V12.9542C19.9752 14.1621 20.1691 15.362 20.5475 16.5092L21.4445 19.1627L20.726 20.1497H15.4685C15.4685 20.9387 15.146 21.7097 14.5895 22.2677C14.0345 22.8227 13.262 23.1467 12.4715 23.1467C11.6825 23.1467 10.9115 22.8242 10.355 22.2677C9.7985 21.7112 9.4745 20.9387 9.4745 20.1497H4.217L3.5 19.1627L4.379 16.5077C4.75862 15.3552 4.95254 14.1496 4.9535 12.9362V12.4607ZM12.4715 21.6782C12.274 21.6768 12.0788 21.6363 11.897 21.5591C11.7152 21.4819 11.5506 21.3694 11.4125 21.2282C11.2709 21.0917 11.1594 20.9271 11.0853 20.745C11.0111 20.5629 10.976 20.3672 10.982 20.1707H13.979C13.979 20.5652 13.8185 20.9417 13.5305 21.2297C13.3922 21.3705 13.2275 21.4826 13.0457 21.5596C12.864 21.6365 12.6689 21.6768 12.4715 21.6782Z" fill="#757F8E" stroke="#757F8E" stroke-width="0.2"/>
</svg>
