<svg width="26" height="26" viewBox="0 0 26 26" fill="none" xmlns="http://www.w3.org/2000/svg">
<path d="M22.0688 20.4548V13.7218C22.0688 13.1793 21.9584 12.6424 21.7444 12.1439C21.5304 11.6453 21.2171 11.1955 20.8238 10.8218L14.4468 4.76485C14.0751 4.41173 13.582 4.21484 13.0693 4.21484C12.5566 4.21484 12.0635 4.41173 11.6918 4.76485L5.31379 10.8218C4.92044 11.1955 4.60722 11.6453 4.39319 12.1439C4.17916 12.6424 4.06879 13.1793 4.06879 13.7218V20.4548C4.06879 20.9853 4.2795 21.494 4.65457 21.8691C5.02965 22.2441 5.53835 22.4548 6.06879 22.4548H20.0688C20.5992 22.4548 21.1079 22.2441 21.483 21.8691C21.8581 21.494 22.0688 20.9853 22.0688 20.4548Z" fill="#B5B5B5" stroke="#B5B5B5" stroke-width="2" stroke-linecap="round" stroke-linejoin="round"/>
<path d="M10.0688 17.4548C10.0688 16.9244 10.2795 16.4157 10.6546 16.0406C11.0296 15.6655 11.5384 15.4548 12.0688 15.4548H14.0688C14.5992 15.4548 15.1079 15.6655 15.483 16.0406C15.8581 16.4157 16.0688 16.9244 16.0688 17.4548V23.4548H10.0688V17.4548Z" fill="#B5B5B5" stroke="white" stroke-width="2" stroke-linecap="round" stroke-linejoin="round"/>
</svg>
