<svg width="25" height="26" viewBox="0 0 25 26" fill="none" xmlns="http://www.w3.org/2000/svg">
<path d="M17.5742 11.3359C17.9414 11.4453 18.291 11.5938 18.623 11.7812C18.9551 11.9688 19.3027 12.2539 19.666 12.6367C20.0293 13.0195 20.3398 13.4707 20.5977 13.9902C20.8555 14.5098 21.0703 15.1816 21.2422 16.0059C21.4141 16.8301 21.5 17.7539 21.5 18.7773C21.5 19.9805 21.1094 21.0098 20.3281 21.8652C19.5469 22.7207 18.6055 23.1484 17.5039 23.1484H7.49609C6.39453 23.1484 5.45312 22.7207 4.67187 21.8652C3.89062 21.0098 3.5 19.9805 3.5 18.7773C3.5 17.7539 3.58594 16.8301 3.75781 16.0059C3.92969 15.1816 4.14453 14.5098 4.40234 13.9902C4.66016 13.4707 4.9707 13.0195 5.33398 12.6367C5.69727 12.2539 6.04492 11.9688 6.37695 11.7812C6.70898 11.5938 7.05859 11.4453 7.42578 11.3359C6.80859 10.3594 6.5 9.29688 6.5 8.14844C6.5 7.33594 6.6582 6.56055 6.97461 5.82227C7.29102 5.08398 7.71875 4.44531 8.25781 3.90625C8.79687 3.36719 9.43555 2.93945 10.1738 2.62305C10.9121 2.30664 11.6875 2.14844 12.5 2.14844C13.3125 2.14844 14.0879 2.30664 14.8262 2.62305C15.5645 2.93945 16.2031 3.36719 16.7422 3.90625C17.2812 4.44531 17.709 5.08398 18.0254 5.82227C18.3418 6.56055 18.5 7.33594 18.5 8.14844C18.5 9.29688 18.1914 10.3594 17.5742 11.3359ZM12.5 3.64844C11.2578 3.64844 10.1973 4.08789 9.31836 4.9668C8.43945 5.8457 8 6.90625 8 8.14844C8 9.39062 8.43945 10.4512 9.31836 11.3301C10.1973 12.209 11.2578 12.6484 12.5 12.6484C13.7422 12.6484 14.8027 12.209 15.6816 11.3301C16.5605 10.4512 17 9.39062 17 8.14844C17 6.90625 16.5605 5.8457 15.6816 4.9668C14.8027 4.08789 13.7422 3.64844 12.5 3.64844ZM17.5039 21.6484C18.1914 21.6484 18.7793 21.3691 19.2676 20.8105C19.7559 20.252 20 19.5742 20 18.7773C20 16.9102 19.6934 15.4375 19.0801 14.3594C18.4668 13.2812 17.5859 12.7148 16.4375 12.6602C15.3047 13.6523 13.9922 14.1484 12.5 14.1484C11.0078 14.1484 9.69531 13.6523 8.5625 12.6602C7.41406 12.7148 6.5332 13.2812 5.91992 14.3594C5.30664 15.4375 5 16.9102 5 18.7773C5 19.5742 5.24414 20.252 5.73242 20.8105C6.2207 21.3691 6.80859 21.6484 7.49609 21.6484H17.5039Z" fill="#757F8E" stroke="#757F8E" stroke-width="0.2"/>
</svg>
