<svg width="26" height="26" viewBox="0 0 26 26" fill="none" xmlns="http://www.w3.org/2000/svg">
<path d="M19.0688 3.33545H14.0688C14.0688 3.88545 13.6188 4.33545 13.0688 4.33545C12.5188 4.33545 12.0688 3.88545 12.0688 3.33545H7.06879C5.96879 3.33545 5.06879 4.23545 5.06879 5.33545V21.3354C5.06879 22.4354 5.96879 23.3354 7.06879 23.3354H19.0688C20.1688 23.3354 21.0688 22.4354 21.0688 21.3354V5.33545C21.0688 4.23545 20.1688 3.33545 19.0688 3.33545Z" fill="#B5B5B5"/>
<path d="M14.0688 3.33545C14.0688 3.88545 13.6188 4.33545 13.0688 4.33545C12.5188 4.33545 12.0688 3.88545 12.0688 3.33545H8.56879V5.33545C8.56879 5.88545 9.01879 6.33545 9.56879 6.33545H16.5688C17.1188 6.33545 17.5688 5.88545 17.5688 5.33545V3.33545H14.0688Z" fill="#B5B5B5"/>
<path d="M13.0688 1.33545C11.9688 1.33545 11.0688 2.23545 11.0688 3.33545C11.0688 4.43545 11.9688 5.33545 13.0688 5.33545C14.1688 5.33545 15.0688 4.43545 15.0688 3.33545C15.0688 2.23545 14.1688 1.33545 13.0688 1.33545ZM13.0688 4.33545C12.5188 4.33545 12.0688 3.88545 12.0688 3.33545C12.0688 2.78545 12.5188 2.33545 13.0688 2.33545C13.6188 2.33545 14.0688 2.78545 14.0688 3.33545C14.0688 3.88545 13.6188 4.33545 13.0688 4.33545Z" fill="#B5B5B5"/>
<path d="M16.9938 11.2605C16.6486 10.9153 16.089 10.9153 15.7438 11.2605L11.8688 15.1355L10.3877 13.6192C10.0471 13.2704 9.48717 13.2671 9.14244 13.6119C8.79876 13.9555 8.80083 14.5134 9.14704 14.8545L11.2117 16.8888C11.6031 17.2744 12.2322 17.2721 12.6207 16.8836L16.9938 12.5105C17.339 12.1653 17.339 11.6057 16.9938 11.2605Z" fill="white"/>
</svg>
