<svg width="41" height="40" viewBox="0 0 41 40" fill="none" xmlns="http://www.w3.org/2000/svg">
<path d="M4.5 10.5C4.5 8.77609 5.18482 7.12279 6.40381 5.90381C7.62279 4.68482 9.27609 4 11 4H13.692C14.0898 4 14.4714 4.15804 14.7527 4.43934C15.034 4.72064 15.192 5.10218 15.192 5.5C15.192 5.89782 15.034 6.27936 14.7527 6.56066C14.4714 6.84196 14.0898 7 13.692 7H11C10.0717 7 9.1815 7.36875 8.52513 8.02513C7.86875 8.6815 7.5 9.57174 7.5 10.5V13.192C7.5 13.5898 7.34196 13.9714 7.06066 14.2527C6.77936 14.534 6.39782 14.692 6 14.692C5.60218 14.692 5.22064 14.534 4.93934 14.2527C4.65804 13.9714 4.5 13.5898 4.5 13.192V10.5ZM25.808 5.5C25.808 5.10218 25.966 4.72064 26.2473 4.43934C26.5286 4.15804 26.9102 4 27.308 4H30C31.7239 4 33.3772 4.68482 34.5962 5.90381C35.8152 7.12279 36.5 8.77609 36.5 10.5V13.192C36.5 13.5898 36.342 13.9714 36.0607 14.2527C35.7794 14.534 35.3978 14.692 35 14.692C34.6022 14.692 34.2206 14.534 33.9393 14.2527C33.658 13.9714 33.5 13.5898 33.5 13.192V10.5C33.5 9.57174 33.1313 8.6815 32.4749 8.02513C31.8185 7.36875 30.9283 7 30 7H27.308C26.9102 7 26.5286 6.84196 26.2473 6.56066C25.966 6.27936 25.808 5.89782 25.808 5.5ZM6 25.308C6.39782 25.308 6.77936 25.466 7.06066 25.7473C7.34196 26.0286 7.5 26.4102 7.5 26.808V29.5C7.5 31.432 9.068 33 11 33H13.692C14.0898 33 14.4714 33.158 14.7527 33.4393C15.034 33.7206 15.192 34.1022 15.192 34.5C15.192 34.8978 15.034 35.2794 14.7527 35.5607C14.4714 35.842 14.0898 36 13.692 36H11C9.27609 36 7.62279 35.3152 6.40381 34.0962C5.18482 32.8772 4.5 31.2239 4.5 29.5V26.808C4.5 26.4102 4.65804 26.0286 4.93934 25.7473C5.22064 25.466 5.60218 25.308 6 25.308ZM35 25.308C35.3978 25.308 35.7794 25.466 36.0607 25.7473C36.342 26.0286 36.5 26.4102 36.5 26.808V29.5C36.5 31.2239 35.8152 32.8772 34.5962 34.0962C33.3772 35.3152 31.7239 36 30 36H27.308C26.9102 36 26.5286 35.842 26.2473 35.5607C25.966 35.2794 25.808 34.8978 25.808 34.5C25.808 34.1022 25.966 33.7206 26.2473 33.4393C26.5286 33.158 26.9102 33 27.308 33H30C30.9283 33 31.8185 32.6313 32.4749 31.9749C33.1313 31.3185 33.5 30.4283 33.5 29.5V26.808C33.5 26.4102 33.658 26.0286 33.9393 25.7473C34.2206 25.466 34.6022 25.308 35 25.308ZM20.5 22C21.0304 22 21.5391 21.7893 21.9142 21.4142C22.2893 21.0391 22.5 20.5304 22.5 20C22.5 19.4696 22.2893 18.9609 21.9142 18.5858C21.5391 18.2107 21.0304 18 20.5 18C19.9696 18 19.4609 18.2107 19.0858 18.5858C18.7107 18.9609 18.5 19.4696 18.5 20C18.5 20.5304 18.7107 21.0391 19.0858 21.4142C19.4609 21.7893 19.9696 22 20.5 22ZM12.5 24V18C12.5 17.4696 12.7107 16.9609 13.0858 16.5858C13.4609 16.2107 13.9696 16 14.5 16H16.5L17.906 13.89C18.0887 13.6162 18.3362 13.3917 18.6264 13.2364C18.9167 13.0812 19.2408 13 19.57 13H21.43C21.7592 13 22.0833 13.0812 22.3736 13.2364C22.6638 13.3917 22.9113 13.6162 23.094 13.89L24.5 16H26.5C27.0304 16 27.5391 16.2107 27.9142 16.5858C28.2893 16.9609 28.5 17.4696 28.5 18V24C28.5 24.5304 28.2893 25.0391 27.9142 25.4142C27.5391 25.7893 27.0304 26 26.5 26H14.5C13.9696 26 13.4609 25.7893 13.0858 25.4142C12.7107 25.0391 12.5 24.5304 12.5 24ZM24.5 20C24.5 18.9391 24.0786 17.9217 23.3284 17.1716C22.5783 16.4214 21.5609 16 20.5 16C19.4391 16 18.4217 16.4214 17.6716 17.1716C16.9214 17.9217 16.5 18.9391 16.5 20C16.5 21.0609 16.9214 22.0783 17.6716 22.8284C18.4217 23.5786 19.4391 24 20.5 24C21.5609 24 22.5783 23.5786 23.3284 22.8284C24.0786 22.0783 24.5 21.0609 24.5 20Z" fill="white"/>
</svg>
