<svg width="24" height="25" viewBox="0 0 24 25" fill="none" xmlns="http://www.w3.org/2000/svg">
<path d="M8.534 12.3259C8.65695 12.2734 8.78916 12.2461 8.92283 12.2456C9.0565 12.2452 9.18891 12.2715 9.31223 12.323C9.43555 12.3746 9.54728 12.4504 9.64082 12.5459C9.73436 12.6414 9.8078 12.7546 9.85681 12.879C9.90582 13.0034 9.9294 13.1363 9.92615 13.2699C9.92291 13.4035 9.8929 13.5352 9.83792 13.657C9.78293 13.7788 9.70408 13.8884 9.60602 13.9792C9.50796 14.0701 9.39268 14.1403 9.267 14.1859C8.59854 14.4492 8.02483 14.9077 7.6205 15.5016C7.21618 16.0955 6.99997 16.7974 7 17.5159V19.2559C7 19.5211 7.10536 19.7754 7.29289 19.963C7.48043 20.1505 7.73478 20.2559 8 20.2559H16C16.2652 20.2559 16.5196 20.1505 16.7071 19.963C16.8946 19.7754 17 19.5211 17 19.2559V17.6089C17.0001 16.8673 16.7749 16.1433 16.3541 15.5327C15.9334 14.9221 15.337 14.4538 14.644 14.1899C14.5175 14.146 14.4012 14.0771 14.3018 13.9875C14.2024 13.8978 14.1221 13.789 14.0655 13.6677C14.009 13.5464 13.9773 13.415 13.9725 13.2812C13.9677 13.1474 13.9897 13.014 14.0374 12.889C14.0851 12.7639 14.1574 12.6496 14.25 12.553C14.3427 12.4564 14.4538 12.3794 14.5767 12.3265C14.6997 12.2736 14.832 12.2459 14.9659 12.2451C15.0998 12.2443 15.2324 12.2704 15.356 12.3219C16.4276 12.73 17.3499 13.4542 18.0006 14.3984C18.6514 15.3425 18.9999 16.4621 19 17.6089V19.2559C19 20.0515 18.6839 20.8146 18.1213 21.3772C17.5587 21.9398 16.7956 22.2559 16 22.2559H8C7.20435 22.2559 6.44129 21.9398 5.87868 21.3772C5.31607 20.8146 5 20.0515 5 19.2559V17.5159C5.00014 16.396 5.33728 15.3021 5.96756 14.3765C6.59785 13.4509 7.4921 12.7363 8.534 12.3259ZM12 2.25586C13.0609 2.25586 14.0783 2.67729 14.8284 3.42743C15.5786 4.17758 16 5.19499 16 6.25586V8.25586C16 9.31673 15.5786 10.3341 14.8284 11.0843C14.0783 11.8344 13.0609 12.2559 12 12.2559C10.9391 12.2559 9.92172 11.8344 9.17157 11.0843C8.42143 10.3341 8 9.31673 8 8.25586V6.25586C8 5.19499 8.42143 4.17758 9.17157 3.42743C9.92172 2.67729 10.9391 2.25586 12 2.25586ZM12 4.25586C11.4696 4.25586 10.9609 4.46657 10.5858 4.84165C10.2107 5.21672 10 5.72543 10 6.25586V8.25586C10 8.78629 10.2107 9.295 10.5858 9.67007C10.9609 10.0451 11.4696 10.2559 12 10.2559C12.5304 10.2559 13.0391 10.0451 13.4142 9.67007C13.7893 9.295 14 8.78629 14 8.25586V6.25586C14 5.72543 13.7893 5.21672 13.4142 4.84165C13.0391 4.46657 12.5304 4.25586 12 4.25586Z" fill="#0A0A0C"/>
</svg>
