<svg width="44" height="32" viewBox="0 0 44 32" fill="none" xmlns="http://www.w3.org/2000/svg">
<g clip-path="url(#clip0_3069_7106)">
<path d="M18.2172 9.1793L14.1011 18.9987H11.4158L9.39017 11.1619C9.26737 10.6804 9.16065 10.5032 8.78695 10.2995C8.1761 9.96772 7.16737 9.65739 6.2807 9.46433L6.34051 9.1793H10.6638C11.214 9.1793 11.7094 9.54563 11.8354 10.1799L12.9056 15.8626L15.548 9.1793H18.2172ZM21.8474 9.1793L19.747 18.9987H17.2064L19.307 9.1793H21.8474ZM28.7388 15.7927C28.7493 13.2016 25.156 13.0578 25.1795 11.9001C25.1881 11.5481 25.5233 11.1734 26.2572 11.0776C26.6207 11.0306 27.6251 10.9932 28.7626 11.5173L29.2077 9.43375C28.5965 9.2127 27.8099 9 26.8315 9C24.3201 9 22.5535 10.3339 22.5394 12.2455C22.5229 13.6595 23.8012 14.4476 24.7625 14.9186C25.7527 15.3995 26.0848 15.7086 26.0803 16.1384C26.0731 16.7973 25.2894 17.0889 24.5608 17.0997C23.2831 17.12 22.5424 16.7544 21.9516 16.4792L21.4905 18.6318C22.0849 18.9041 23.1803 19.1408 24.3149 19.1528C26.9847 19.1528 28.7309 17.8341 28.7388 15.7927ZM35.3704 18.9987H37.7193L35.6672 9.1793H33.5C33.0112 9.1793 32.6005 9.46298 32.4182 9.89907L28.6063 18.9987H31.274L31.8032 17.5319H35.0625L35.3704 18.9987ZM32.5348 15.5197L33.8724 11.8322L34.6408 15.5197H32.5346H32.5348ZM25.0988 21.7016H24.0665V22.6623H25.2211V22.9511H23.7187V20.286H25.1619V20.5748H24.0665V21.4169H25.0987V21.7018L25.0988 21.7016ZM25.7545 20.1436H26.1022V22.951H25.7545V20.1436ZM26.9798 22.0573C26.9877 22.5281 27.2844 22.7217 27.6361 22.7217C27.8854 22.7217 28.0395 22.6782 28.1663 22.623L28.2294 22.8722C28.1068 22.9274 27.8934 22.9946 27.5887 22.9946C26.9997 22.9946 26.6479 22.6032 26.6479 22.0258C26.6479 21.4486 26.9877 20.9976 27.5453 20.9976C28.1741 20.9976 28.3362 21.5435 28.3362 21.8954C28.3362 21.9665 28.3322 22.0178 28.3242 22.0575L26.9798 22.0573ZM28 21.8083C28.004 21.5909 27.9091 21.2468 27.5176 21.2468C27.1617 21.2468 27.0114 21.5671 26.9836 21.8083H28ZM30.2294 22.8838C30.1385 22.9274 29.9368 22.9947 29.6799 22.9947C29.1025 22.9947 28.7269 22.6032 28.7269 22.0179C28.7269 21.4287 29.1301 20.9978 29.7549 20.9978C29.9605 20.9978 30.1423 21.049 30.2373 21.1005L30.1584 21.3654C30.0751 21.322 29.9446 21.2743 29.7549 21.2743C29.3159 21.2743 29.0788 21.6026 29.0788 21.9983C29.0788 22.441 29.3635 22.7139 29.7431 22.7139C29.9408 22.7139 30.0712 22.6665 30.1701 22.623L30.2294 22.8838ZM31.2055 20.5785V21.0372H31.7036V21.3019H31.2055V22.3341C31.2055 22.5716 31.2728 22.7059 31.4665 22.7059C31.5613 22.7059 31.6168 22.6981 31.6682 22.6821L31.6841 22.9473C31.6168 22.9709 31.5101 22.9946 31.3756 22.9946C31.2133 22.9946 31.0828 22.9392 30.9999 22.8485C30.905 22.7415 30.8654 22.5716 30.8654 22.3462V21.3019H30.5687V21.0372H30.8654V20.6814L31.2056 20.5786L31.2055 20.5785ZM32.1895 21.6344C32.1895 21.4089 32.1854 21.2152 32.1737 21.0372H32.4783L32.4942 21.4166H32.5058C32.593 21.1599 32.8063 20.9976 33.0395 20.9976C33.0752 20.9976 33.103 21.0017 33.1347 21.0055V21.3339C33.0991 21.3258 33.0636 21.3258 33.0158 21.3258C32.7709 21.3258 32.5966 21.5076 32.5494 21.7689C32.5412 21.8225 32.5372 21.8767 32.5375 21.931V22.9512H32.1895V21.6344ZM35.2733 21.9782C35.2733 22.6861 34.7789 22.9946 34.3204 22.9946C33.8062 22.9946 33.403 22.6149 33.403 22.0101C33.403 21.3733 33.8261 20.9978 34.3521 20.9978C34.9016 20.9978 35.2733 21.3968 35.2733 21.9782ZM33.7588 21.9981C33.7588 22.4173 33.996 22.7338 34.3361 22.7338C34.6684 22.7338 34.9173 22.4211 34.9173 21.9902C34.9173 21.6659 34.7552 21.2585 34.3439 21.2585C33.9368 21.2585 33.7588 21.6383 33.7588 21.9981ZM35.8066 21.5552C35.8066 21.3536 35.8024 21.1954 35.7906 21.0373H36.0991L36.1189 21.3536H36.1267C36.2217 21.1756 36.4431 20.9978 36.7594 20.9978C37.0242 20.9978 37.4356 21.1559 37.4356 21.8121V22.9511H37.0877V21.8478C37.0877 21.5396 36.973 21.2823 36.6449 21.2823C36.4194 21.2823 36.2413 21.4445 36.1783 21.6382C36.1623 21.6818 36.1545 21.741 36.1545 21.8004V22.9511H35.8066V21.5552Z" fill="#1A1F71"/>
</g>
<rect x="0.15" y="0.15" width="43.7" height="31.7" rx="3.85" stroke="#797474" stroke-width="0.3"/>
<defs>
<clipPath id="clip0_3069_7106">
<rect width="31.4386" height="14" fill="white" transform="translate(6.2807 9)"/>
</clipPath>
</defs>
</svg>
