<svg width="275" height="80" viewBox="0 0 275 80" fill="none" xmlns="http://www.w3.org/2000/svg">
<path d="M30.2074 5.83154C30.6617 5.83146 31.1036 5.97939 31.4663 6.25294C31.829 6.52648 32.0926 6.91074 32.2174 7.34754C33.0174 9.67054 34.4674 12.9765 35.5444 14.4705C35.7409 13.9378 35.8715 13.383 35.9334 12.8185C35.9534 12.6305 36.0854 11.4085 36.2694 10.8625C36.4904 10.2045 36.9474 9.63854 37.6334 9.41654C38.7504 9.05654 39.9634 9.71654 40.3434 10.8935C40.3784 11.0015 40.4054 11.1105 40.4234 11.2195C40.5534 11.7795 40.4634 12.2925 40.4094 12.6315C40.2707 13.5038 40.151 14.379 40.0504 15.2565C39.8968 16.8493 39.9388 18.4549 40.1754 20.0375C40.4754 21.4505 40.3944 22.9495 40.3154 23.5225C39.4554 29.8325 32.4684 30.3025 30.5034 29.3725C29.1644 28.9375 27.7454 27.9025 25.7934 25.9045C23.5104 23.5695 21.4254 20.9995 20.2644 19.2615C19.9998 18.9115 19.8535 18.4863 19.8466 18.0476C19.8397 17.6088 19.9726 17.1792 20.2261 16.8211C20.4796 16.4629 20.8405 16.1947 21.2566 16.0552C21.6726 15.9158 22.1223 15.9124 22.5404 16.0455C22.1634 15.3105 21.8604 14.6685 21.6234 13.9585C21.4659 13.5024 21.473 13.0055 21.6435 12.5541C21.8139 12.1026 22.1369 11.725 22.5565 11.4867C22.9761 11.2484 23.4659 11.1644 23.9409 11.2493C24.4159 11.3342 24.8463 11.5826 25.1574 11.9515C25.0374 11.6845 24.3224 9.91954 24.1974 9.09754C24.1324 8.36872 24.3163 7.53894 25.1732 7.00378C25.8203 6.64435 26.3438 6.68879 26.6621 6.77213C26.8737 6.74767 27.5929 7.02947 28.0747 7.78167C28.2179 7.30044 28.4283 5.95023 30.2074 5.83154Z" fill="#F5BFAE"/>
<path d="M30.2074 5.83197C30.6617 5.83189 31.1036 5.97982 31.4663 6.25337C31.829 6.52691 32.0926 6.91117 32.2174 7.34797C33.0174 9.67097 34.4674 12.977 35.5444 14.471C35.7409 13.9382 35.8715 13.3834 35.9334 12.819C35.9534 12.631 36.0854 11.409 36.2694 10.863C36.4904 10.205 36.9474 9.63897 37.6334 9.41697C38.7504 9.05697 39.9634 9.71697 40.3434 10.894C40.3784 11.002 40.4054 11.111 40.4234 11.22C40.5534 11.78 40.4634 12.293 40.4094 12.632C40.2707 13.5043 40.151 14.3795 40.0504 15.257C39.8968 16.8498 39.9388 18.4554 40.1754 20.038C40.4754 21.451 40.3944 22.95 40.3154 23.523C39.4554 29.833 32.4684 30.303 30.5034 29.373C29.1644 28.938 27.7454 27.903 25.7934 25.905C23.5104 23.57 21.4254 21 20.2644 19.262C19.9998 18.9119 19.8535 18.4867 19.8466 18.048C19.8397 17.6092 19.9726 17.1797 20.2261 16.8215C20.4796 16.4633 20.8405 16.1951 21.2566 16.0557C21.6726 15.9162 22.1223 15.9128 22.5404 16.046C22.1634 15.311 21.8604 14.669 21.6234 13.959C21.4659 13.5028 21.473 13.006 21.6435 12.5545C21.8139 12.103 22.1369 11.7254 22.5565 11.4871C22.9761 11.2488 23.4659 11.1649 23.9409 11.2498C24.4159 11.3347 24.8463 11.5831 25.1574 11.952C25.0374 11.685 24.3224 9.91997 24.1974 9.09797C23.7643 8.301 23.6655 7.36462 23.9228 6.49482C24.1801 5.62503 24.7724 4.89307 25.5694 4.45997C26.3664 4.02688 27.3028 3.92811 28.1725 4.18541C29.0423 4.44271 29.7743 5.035 30.2074 5.83197Z" fill="url(#paint0_radial_85_243)"/>
<path d="M30.2074 5.83197C30.6617 5.83189 31.1036 5.97982 31.4663 6.25337C31.829 6.52691 32.0926 6.91117 32.2174 7.34797C33.0174 9.67097 34.4674 12.977 35.5444 14.471C35.7409 13.9382 35.8715 13.3834 35.9334 12.819C35.9534 12.631 36.0854 11.409 36.2694 10.863C36.4904 10.205 36.9474 9.63897 37.6334 9.41697C38.7504 9.05697 39.9634 9.71697 40.3434 10.894C40.3784 11.002 40.4054 11.111 40.4234 11.22C40.5534 11.78 40.4634 12.293 40.4094 12.632C40.2707 13.5043 40.151 14.3795 40.0504 15.257C39.8968 16.8498 39.9388 18.4554 40.1754 20.038C40.4754 21.451 40.3944 22.95 40.3154 23.523C39.4554 29.833 32.4684 30.303 30.5034 29.373C29.1644 28.938 27.7454 27.903 25.7934 25.905C23.5104 23.57 21.4254 21 20.2644 19.262C19.9998 18.9119 19.8535 18.4867 19.8466 18.048C19.8397 17.6092 19.9726 17.1797 20.2261 16.8215C20.4796 16.4633 20.8405 16.1951 21.2566 16.0557C21.6726 15.9162 22.1223 15.9128 22.5404 16.046C22.1634 15.311 21.8604 14.669 21.6234 13.959C21.4659 13.5028 21.473 13.006 21.6435 12.5545C21.8139 12.103 22.1369 11.7254 22.5565 11.4871C22.9761 11.2488 23.4659 11.1649 23.9409 11.2498C24.4159 11.3347 24.8463 11.5831 25.1574 11.952C25.0374 11.685 24.3224 9.91997 24.1974 9.09797C23.7643 8.301 23.6655 7.36462 23.9228 6.49482C24.1801 5.62503 24.7724 4.89307 25.5694 4.45997C26.3664 4.02688 27.3028 3.92811 28.1725 4.18541C29.0423 4.44271 29.7743 5.035 30.2074 5.83197Z" fill="url(#paint1_linear_85_243)"/>
<path d="M28.1184 7.89497C28.1474 8.14297 28.2204 8.46097 28.3704 8.85097C28.4354 9.02097 28.5144 9.23797 28.6074 9.49397C29.0264 10.721 29.8134 12.802 30.8574 14.704C31.2504 15.42 31.9674 15.924 32.7844 15.885C33.8604 15.835 35.0964 15.48 35.5704 14.421L35.5674 14.411C35.5599 14.431 35.5522 14.451 35.5444 14.471C34.4674 12.977 33.0174 9.67097 32.2174 7.34797C32.0793 6.86585 31.7725 6.44947 31.3528 6.17481C30.9332 5.90015 30.4289 5.78553 29.9318 5.85187C29.4347 5.9182 28.978 6.16107 28.6451 6.53615C28.3122 6.91123 28.1253 7.39351 28.1184 7.89497Z" fill="url(#paint2_radial_85_243)"/>
<path d="M28.1184 7.89497C28.1474 8.14297 28.2204 8.46097 28.3704 8.85097C28.4354 9.02097 28.5144 9.23797 28.6074 9.49397C29.0264 10.721 29.8134 12.802 30.8574 14.704C31.2504 15.42 31.9674 15.924 32.7844 15.885C33.8604 15.835 35.0964 15.48 35.5704 14.421L35.5674 14.411C35.5599 14.431 35.5522 14.451 35.5444 14.471C34.4674 12.977 33.0174 9.67097 32.2174 7.34797C32.0793 6.86585 31.7725 6.44947 31.3528 6.17481C30.9332 5.90015 30.4289 5.78553 29.9318 5.85187C29.4347 5.9182 28.978 6.16107 28.6451 6.53615C28.3122 6.91123 28.1253 7.39351 28.1184 7.89497Z" fill="url(#paint3_radial_85_243)"/>
<path d="M28.1184 7.89497C28.1474 8.14297 28.2204 8.46097 28.3704 8.85097C28.4354 9.02097 28.5144 9.23797 28.6074 9.49397C29.0264 10.721 29.8134 12.802 30.8574 14.704C31.2504 15.42 31.9674 15.924 32.7844 15.885C33.8604 15.835 35.0964 15.48 35.5704 14.421L35.5674 14.411C35.5599 14.431 35.5522 14.451 35.5444 14.471C34.4674 12.977 33.0174 9.67097 32.2174 7.34797C32.0793 6.86585 31.7725 6.44947 31.3528 6.17481C30.9332 5.90015 30.4289 5.78553 29.9318 5.85187C29.4347 5.9182 28.978 6.16107 28.6451 6.53615C28.3122 6.91123 28.1253 7.39351 28.1184 7.89497Z" fill="url(#paint4_linear_85_243)"/>
<path d="M28.1184 7.89497C28.1474 8.14297 28.2204 8.46097 28.3704 8.85097C28.4354 9.02097 28.5144 9.23797 28.6074 9.49397C29.0264 10.721 29.8134 12.802 30.8574 14.704C31.2504 15.42 31.9674 15.924 32.7844 15.885C33.8604 15.835 35.0964 15.48 35.5704 14.421L35.5674 14.411C35.5599 14.431 35.5522 14.451 35.5444 14.471C34.4674 12.977 33.0174 9.67097 32.2174 7.34797C32.0793 6.86585 31.7725 6.44947 31.3528 6.17481C30.9332 5.90015 30.4289 5.78553 29.9318 5.85187C29.4347 5.9182 28.978 6.16107 28.6451 6.53615C28.3122 6.91123 28.1253 7.39351 28.1184 7.89497Z" fill="url(#paint5_radial_85_243)"/>
<path d="M28.1184 7.89497C28.1474 8.14297 28.2204 8.46097 28.3704 8.85097C28.4354 9.02097 28.5144 9.23797 28.6074 9.49397C29.0264 10.721 29.8134 12.802 30.8574 14.704C31.2504 15.42 31.9674 15.924 32.7844 15.885C33.8604 15.835 35.0964 15.48 35.5704 14.421L35.5674 14.411C35.5599 14.431 35.5522 14.451 35.5444 14.471C34.4674 12.977 33.0174 9.67097 32.2174 7.34797C32.0793 6.86585 31.7725 6.44947 31.3528 6.17481C30.9332 5.90015 30.4289 5.78553 29.9318 5.85187C29.4347 5.9182 28.978 6.16107 28.6451 6.53615C28.3122 6.91123 28.1253 7.39351 28.1184 7.89497Z" fill="url(#paint6_radial_85_243)"/>
<path d="M21.6274 13.9586C21.471 13.505 21.4772 13.0111 21.6451 12.5616C21.813 12.1121 22.132 11.735 22.5475 11.495C22.963 11.2549 23.4491 11.1669 23.9223 11.2461C24.3956 11.3252 24.8266 11.5665 25.1414 11.9286C26.1754 14.0146 27.4504 16.4476 28.4174 17.8656C27.1874 19.5376 26.8914 20.3816 26.6374 21.1006C25.8554 20.0116 24.2214 17.7956 23.6374 17.0536C23.3234 16.6556 22.9414 16.1476 22.5474 16.0456C22.1806 15.3781 21.8727 14.6798 21.6274 13.9586Z" fill="url(#paint7_radial_85_243)"/>
<path d="M21.6274 13.9586C21.471 13.505 21.4772 13.0111 21.6451 12.5616C21.813 12.1121 22.132 11.735 22.5475 11.495C22.963 11.2549 23.4491 11.1669 23.9223 11.2461C24.3956 11.3252 24.8266 11.5665 25.1414 11.9286C26.1754 14.0146 27.4504 16.4476 28.4174 17.8656C27.1874 19.5376 26.8914 20.3816 26.6374 21.1006C25.8554 20.0116 24.2214 17.7956 23.6374 17.0536C23.3234 16.6556 22.9414 16.1476 22.5474 16.0456C22.1806 15.3781 21.8727 14.6798 21.6274 13.9586Z" fill="url(#paint8_radial_85_243)"/>
<path d="M21.6274 13.9586C21.471 13.505 21.4772 13.0111 21.6451 12.5616C21.813 12.1121 22.132 11.735 22.5475 11.495C22.963 11.2549 23.4491 11.1669 23.9223 11.2461C24.3956 11.3252 24.8266 11.5665 25.1414 11.9286C26.1754 14.0146 27.4504 16.4476 28.4174 17.8656C27.1874 19.5376 26.8914 20.3816 26.6374 21.1006C25.8554 20.0116 24.2214 17.7956 23.6374 17.0536C23.3234 16.6556 22.9414 16.1476 22.5474 16.0456C22.1806 15.3781 21.8727 14.6798 21.6274 13.9586Z" fill="url(#paint9_radial_85_243)"/>
<path d="M21.6274 13.9586C21.471 13.505 21.4772 13.0111 21.6451 12.5616C21.813 12.1121 22.132 11.735 22.5475 11.495C22.963 11.2549 23.4491 11.1669 23.9223 11.2461C24.3956 11.3252 24.8266 11.5665 25.1414 11.9286C26.1754 14.0146 27.4504 16.4476 28.4174 17.8656C27.1874 19.5376 26.8914 20.3816 26.6374 21.1006C25.8554 20.0116 24.2214 17.7956 23.6374 17.0536C23.3234 16.6556 22.9414 16.1476 22.5474 16.0456C22.1806 15.3781 21.8727 14.6798 21.6274 13.9586Z" fill="url(#paint10_linear_85_243)"/>
<path d="M21.6274 13.9586C21.471 13.505 21.4772 13.0111 21.6451 12.5616C21.813 12.1121 22.132 11.735 22.5475 11.495C22.963 11.2549 23.4491 11.1669 23.9223 11.2461C24.3956 11.3252 24.8266 11.5665 25.1414 11.9286C26.1754 14.0146 27.4504 16.4476 28.4174 17.8656C27.1874 19.5376 26.8914 20.3816 26.6374 21.1006C25.8554 20.0116 24.2214 17.7956 23.6374 17.0536C23.3234 16.6556 22.9414 16.1476 22.5474 16.0456C22.1806 15.3781 21.8727 14.6798 21.6274 13.9586Z" fill="url(#paint11_radial_85_243)"/>
<g filter="url(#filter0_f_85_243)">
<path d="M27.2394 19.1316C25.5384 16.3176 24.4434 14.2816 23.8294 13.2356C23.755 13.1102 23.7309 12.9613 23.7619 12.8188C23.7929 12.6763 23.8767 12.5508 23.9964 12.4676C24.0595 12.4248 24.1308 12.3955 24.2057 12.3815C24.2807 12.3675 24.3577 12.3691 24.432 12.3862C24.5063 12.4032 24.5763 12.4355 24.6376 12.4808C24.6989 12.5261 24.7503 12.5836 24.7884 12.6496L26.1574 15.0266L27.8434 18.0846C27.6564 18.5846 27.4374 18.9746 27.2394 19.1316Z" fill="#FFD6C0"/>
</g>
<path d="M35.5404 14.4656L35.5444 14.4706C35.7344 13.9786 35.8734 13.3606 35.9334 12.8186L35.9354 12.8006C35.9614 12.5626 36.0914 11.3936 36.2694 10.8626C36.4904 10.2046 36.9474 9.63862 37.6334 9.41662C38.7504 9.05662 39.9634 9.71662 40.3434 10.8936C40.3784 11.0016 40.4054 11.1116 40.4234 11.2196C40.5494 11.7576 40.4704 12.2536 40.4164 12.5926L40.4104 12.6316C40.2714 13.5039 40.1513 14.3791 40.0504 15.2566C39.9564 16.1566 39.8974 17.5836 40.0704 19.2236C37.8004 19.6606 36.4064 18.2256 35.9354 17.3976C35.4264 16.5016 35.3214 14.7996 35.5404 14.4656Z" fill="url(#paint12_radial_85_243)"/>
<path d="M35.5404 14.4656L35.5444 14.4706C35.7344 13.9786 35.8734 13.3606 35.9334 12.8186L35.9354 12.8006C35.9614 12.5626 36.0914 11.3936 36.2694 10.8626C36.4904 10.2046 36.9474 9.63862 37.6334 9.41662C38.7504 9.05662 39.9634 9.71662 40.3434 10.8936C40.3784 11.0016 40.4054 11.1116 40.4234 11.2196C40.5494 11.7576 40.4704 12.2536 40.4164 12.5926L40.4104 12.6316C40.2714 13.5039 40.1513 14.3791 40.0504 15.2566C39.9564 16.1566 39.8974 17.5836 40.0704 19.2236C37.8004 19.6606 36.4064 18.2256 35.9354 17.3976C35.4264 16.5016 35.3214 14.7996 35.5404 14.4656Z" fill="url(#paint13_radial_85_243)"/>
<path d="M35.5404 14.4656L35.5444 14.4706C35.7344 13.9786 35.8734 13.3606 35.9334 12.8186L35.9354 12.8006C35.9614 12.5626 36.0914 11.3936 36.2694 10.8626C36.4904 10.2046 36.9474 9.63862 37.6334 9.41662C38.7504 9.05662 39.9634 9.71662 40.3434 10.8936C40.3784 11.0016 40.4054 11.1116 40.4234 11.2196C40.5494 11.7576 40.4704 12.2536 40.4164 12.5926L40.4104 12.6316C40.2714 13.5039 40.1513 14.3791 40.0504 15.2566C39.9564 16.1566 39.8974 17.5836 40.0704 19.2236C37.8004 19.6606 36.4064 18.2256 35.9354 17.3976C35.4264 16.5016 35.3214 14.7996 35.5404 14.4656Z" fill="url(#paint14_radial_85_243)"/>
<g filter="url(#filter1_f_85_243)">
<path d="M39.775 11.9122C40.1457 11.7004 40.2006 11.0988 39.8975 10.5684C39.5945 10.038 39.0484 9.77976 38.6777 9.99154C38.307 10.2033 38.2522 10.805 38.5552 11.3353C38.8582 11.8657 39.4043 12.124 39.775 11.9122Z" fill="url(#paint15_radial_85_243)"/>
</g>
<g filter="url(#filter2_f_85_243)">
<path d="M39.2264 19.1157C38.2847 18.9031 37.4362 18.3936 36.8061 17.6623C36.1759 16.9309 35.7974 16.0165 35.7264 15.0537C35.2574 15.2617 34.7264 16.9137 35.0864 18.0227C35.7884 20.1927 38.0704 20.8457 38.6954 20.8657L39.2264 19.1157Z" fill="#FCC8B3"/>
</g>
<g filter="url(#filter3_f_85_243)">
<path d="M35.9074 16.5679C36.4134 17.3269 38.2084 18.1899 39.3124 18.4279C39.7704 19.6479 40.5314 25.2409 37.1564 27.4599C37.9414 26.0859 38.4924 21.0109 35.9074 16.5679Z" fill="url(#paint16_radial_85_243)"/>
</g>
<path d="M25.0564 11.7129C25.8014 13.3139 26.7274 15.3069 27.8884 17.0279C28.0954 17.3359 28.4684 17.4919 28.8124 17.3529C29.613 17.0182 30.3168 16.4881 30.8594 15.8109C31.0974 15.5139 31.0894 15.1009 30.9044 14.7689C30.0624 13.2639 28.8614 10.6029 28.1054 7.89294C27.8916 7.44558 27.5241 7.08999 27.0699 6.89102C26.6158 6.69204 26.1052 6.66295 25.6314 6.80905C25.1576 6.95515 24.7521 7.2667 24.4888 7.68687C24.2256 8.10705 24.1222 8.60785 24.1974 9.09794C24.3014 9.78594 24.8204 11.1349 25.0564 11.7129Z" fill="url(#paint17_radial_85_243)"/>
<path d="M25.0564 11.7129C25.8014 13.3139 26.7274 15.3069 27.8884 17.0279C28.0954 17.3359 28.4684 17.4919 28.8124 17.3529C29.613 17.0182 30.3168 16.4881 30.8594 15.8109C31.0974 15.5139 31.0894 15.1009 30.9044 14.7689C30.0624 13.2639 28.8614 10.6029 28.1054 7.89294C27.8916 7.44558 27.5241 7.08999 27.0699 6.89102C26.6158 6.69204 26.1052 6.66295 25.6314 6.80905C25.1576 6.95515 24.7521 7.2667 24.4888 7.68687C24.2256 8.10705 24.1222 8.60785 24.1974 9.09794C24.3014 9.78594 24.8204 11.1349 25.0564 11.7129Z" fill="url(#paint18_radial_85_243)"/>
<path d="M25.0564 11.7129C25.8014 13.3139 26.7274 15.3069 27.8884 17.0279C28.0954 17.3359 28.4684 17.4919 28.8124 17.3529C29.613 17.0182 30.3168 16.4881 30.8594 15.8109C31.0974 15.5139 31.0894 15.1009 30.9044 14.7689C30.0624 13.2639 28.8614 10.6029 28.1054 7.89294C27.8916 7.44558 27.5241 7.08999 27.0699 6.89102C26.6158 6.69204 26.1052 6.66295 25.6314 6.80905C25.1576 6.95515 24.7521 7.2667 24.4888 7.68687C24.2256 8.10705 24.1222 8.60785 24.1974 9.09794C24.3014 9.78594 24.8204 11.1349 25.0564 11.7129Z" fill="url(#paint19_linear_85_243)"/>
<path d="M25.0564 11.7129C25.8014 13.3139 26.7274 15.3069 27.8884 17.0279C28.0954 17.3359 28.4684 17.4919 28.8124 17.3529C29.613 17.0182 30.3168 16.4881 30.8594 15.8109C31.0974 15.5139 31.0894 15.1009 30.9044 14.7689C30.0624 13.2639 28.8614 10.6029 28.1054 7.89294C27.8916 7.44558 27.5241 7.08999 27.0699 6.89102C26.6158 6.69204 26.1052 6.66295 25.6314 6.80905C25.1576 6.95515 24.7521 7.2667 24.4888 7.68687C24.2256 8.10705 24.1222 8.60785 24.1974 9.09794C24.3014 9.78594 24.8204 11.1349 25.0564 11.7129Z" fill="url(#paint20_radial_85_243)"/>
<path d="M22.5404 16.0456C22.1223 15.9125 21.6726 15.9159 21.2566 16.0553C20.8405 16.1947 20.4796 16.463 20.2261 16.8211C19.9726 17.1793 19.8397 17.6089 19.8466 18.0476C19.8535 18.4864 19.9998 18.9116 20.2644 19.2616C21.2684 20.7646 22.9644 22.8906 24.8804 24.9486C27.2584 23.8346 27.0464 21.5686 26.6404 21.0876C26.6334 21.1096 24.6164 18.2976 23.6364 17.0536L23.5874 16.9916C23.2844 16.6046 22.9214 16.1416 22.5474 16.0456C22.4024 15.7806 22.4014 15.7736 22.5404 16.0456Z" fill="url(#paint21_radial_85_243)"/>
<path d="M22.5404 16.0456C22.1223 15.9125 21.6726 15.9159 21.2566 16.0553C20.8405 16.1947 20.4796 16.463 20.2261 16.8211C19.9726 17.1793 19.8397 17.6089 19.8466 18.0476C19.8535 18.4864 19.9998 18.9116 20.2644 19.2616C21.2684 20.7646 22.9644 22.8906 24.8804 24.9486C27.2584 23.8346 27.0464 21.5686 26.6404 21.0876C26.6334 21.1096 24.6164 18.2976 23.6364 17.0536L23.5874 16.9916C23.2844 16.6046 22.9214 16.1416 22.5474 16.0456C22.4024 15.7806 22.4014 15.7736 22.5404 16.0456Z" fill="url(#paint22_radial_85_243)"/>
<g filter="url(#filter4_f_85_243)">
<path d="M25.5774 22.2138C25.5487 22.3412 25.571 22.4747 25.6396 22.5859C25.7081 22.6971 25.8174 22.777 25.9442 22.8087C26.0709 22.8403 26.2049 22.821 26.3177 22.7551C26.4304 22.6891 26.5128 22.5817 26.5474 22.4558L25.5774 22.2138ZM33.9714 15.7708C34.0386 15.7687 34.1046 15.753 34.1657 15.7248C34.2267 15.6966 34.2814 15.6564 34.3265 15.6066C34.3716 15.5568 34.4062 15.4983 34.4282 15.4348C34.4502 15.3713 34.4592 15.304 34.4547 15.237C34.4501 15.1699 34.432 15.1045 34.4016 15.0445C34.3712 14.9846 34.3289 14.9314 34.2775 14.8882C34.226 14.845 34.1664 14.8125 34.1021 14.7929C34.0378 14.7732 33.9702 14.7667 33.9034 14.7738L33.9714 15.7708ZM26.5474 22.4558C26.8384 21.2908 27.6374 19.6788 28.9074 18.3258C30.1714 16.9758 31.8734 15.9158 33.9714 15.7708L33.9034 14.7738C31.4884 14.9398 29.5654 16.1608 28.1774 17.6408C26.7944 19.1158 25.9114 20.8788 25.5774 22.2138L26.5474 22.4558Z" fill="#F0BBA4"/>
</g>
<g filter="url(#filter5_f_85_243)">
<path d="M30.8754 7.02197C31.4054 9.30397 33.3904 13.101 34.5464 14.882" stroke="#FFE4C9" stroke-linecap="round"/>
</g>
<g filter="url(#filter6_f_85_243)">
<path d="M32.2024 10.0698C32.5464 10.8718 33.3724 12.9788 34.5464 14.6788" stroke="url(#paint23_linear_85_243)" stroke-width="0.7" stroke-linecap="round"/>
</g>
<g filter="url(#filter7_d_85_243)">
<path d="M31.8744 2.26074C33.6324 2.38574 36.5154 3.85874 36.4214 7.62374" stroke="#1B99E7" stroke-width="0.9" stroke-linecap="round"/>
<path d="M31.8744 2.26074C33.6324 2.38574 36.5154 3.85874 36.4214 7.62374" stroke="#0060F7" stroke-width="0.9" stroke-linecap="round"/>
</g>
<g filter="url(#filter8_d_85_243)">
<path d="M29.7024 3.83887C31.4524 3.89787 34.7184 5.41287 34.6014 9.45987" stroke="#1B99E7" stroke-width="0.9" stroke-linecap="round"/>
<path d="M29.7024 3.83887C31.4524 3.89787 34.7184 5.41287 34.6014 9.45987" stroke="#0060F7" stroke-width="0.9" stroke-linecap="round"/>
</g>
<path d="M15.4414 15.8267C15.2414 18.2967 16.6324 21.0467 20.1174 21.6237" stroke="url(#paint24_linear_85_243)" stroke-width="0.9" stroke-linecap="round"/>
<path d="M15.4414 15.8267C15.2414 18.2967 16.6324 21.0467 20.1174 21.6237" stroke="#0060F7" stroke-width="0.9" stroke-linecap="round"/>
<path d="M13.5314 17.6948C13.2964 20.1628 14.9294 22.6788 17.9914 23.0928" stroke="url(#paint25_linear_85_243)" stroke-width="0.9" stroke-linecap="round"/>
<path d="M13.5314 17.6948C13.2964 20.1628 14.9294 22.6788 17.9914 23.0928" stroke="#0060F7" stroke-width="0.9" stroke-linecap="round"/>
<g filter="url(#filter9_f_85_243)">
<path d="M25.8014 22.5247C24.5563 21.1471 23.3834 19.7058 22.2874 18.2067C22.1833 18.0605 22.1398 17.8797 22.1659 17.7021C22.192 17.5245 22.2857 17.3639 22.4274 17.2537C22.5765 17.135 22.7665 17.0801 22.956 17.1011C23.1455 17.1221 23.3189 17.2172 23.4384 17.3657L25.9424 20.4787C25.9544 21.3787 25.8534 22.2187 25.8014 22.5247Z" fill="#FFD6C0"/>
</g>
<g filter="url(#filter10_f_85_243)">
<path d="M27.0624 8.11572C27.3854 9.24072 28.8224 13.4807 30.3434 15.9127" stroke="#FDCBB6" stroke-linecap="round"/>
</g>
<path d="M65.3469 25L62.1309 12.952L58.9149 25H55.2189L50.8029 7.768H54.3549L57.1389 19.456L60.3069 7.768H64.0269L67.0989 19.504L69.9069 7.768H73.4829L69.0429 25H65.3469ZM80.7725 25.216C76.9325 25.216 74.3645 22.552 74.3645 18.544C74.3645 14.728 77.0285 11.944 80.7245 11.944C84.7805 11.944 87.4685 15.232 86.8685 19.408H77.7725C77.9885 21.496 78.9965 22.648 80.7005 22.648C82.1645 22.648 83.1485 21.928 83.5325 20.656H86.8445C86.1245 23.56 83.8925 25.216 80.7725 25.216ZM80.6525 14.392C79.0925 14.392 78.1085 15.4 77.8205 17.296H83.3405C83.2445 15.52 82.2365 14.392 80.6525 14.392ZM93.423 25H90.063V7.768H93.423V25ZM102.775 25.24C99.0785 25.24 96.5345 22.504 96.5345 18.592C96.5345 14.752 99.1745 11.944 102.775 11.944C106.111 11.944 108.583 14.2 108.991 17.656H105.487C105.319 15.952 104.287 14.896 102.775 14.896C101.047 14.896 99.9425 16.312 99.9425 18.592C99.9425 20.896 101.023 22.288 102.775 22.288C104.311 22.288 105.295 21.28 105.487 19.528H108.991C108.607 23.056 106.207 25.24 102.775 25.24ZM117.709 25.24C113.989 25.24 111.205 22.312 111.205 18.592C111.205 14.848 113.989 11.944 117.709 11.944C121.429 11.944 124.213 14.848 124.213 18.592C124.213 22.312 121.429 25.24 117.709 25.24ZM117.709 22.288C119.365 22.288 120.781 20.968 120.781 18.592C120.781 16.216 119.365 14.92 117.709 14.92C116.053 14.92 114.637 16.216 114.637 18.592C114.637 20.968 116.053 22.288 117.709 22.288ZM130.638 25H127.302V12.184H130.374V14.008C131.31 12.712 132.51 11.944 134.214 11.944C135.966 11.944 137.31 12.76 137.958 14.224C138.966 12.808 140.262 11.944 142.182 11.944C144.774 11.944 146.526 13.648 146.526 16.72V25H143.214V17.776C143.214 15.976 142.446 14.896 140.982 14.896C139.662 14.896 138.582 15.928 138.582 17.848V25H135.27V17.776C135.27 15.976 134.502 14.896 133.038 14.896C131.694 14.896 130.638 15.928 130.638 17.848V25ZM155.908 25.216C152.068 25.216 149.5 22.552 149.5 18.544C149.5 14.728 152.164 11.944 155.86 11.944C159.916 11.944 162.604 15.232 162.004 19.408H152.908C153.124 21.496 154.132 22.648 155.836 22.648C157.3 22.648 158.284 21.928 158.668 20.656H161.98C161.26 23.56 159.028 25.216 155.908 25.216ZM155.788 14.392C154.228 14.392 153.244 15.4 152.956 17.296H158.476C158.38 15.52 157.372 14.392 155.788 14.392ZM179.143 21.76V24.664C178.327 25.072 177.559 25.24 176.575 25.24C173.935 25.24 172.279 23.728 172.279 20.848V15.04H169.687V12.184H172.279V8.392H175.591V12.184H179.263V15.04H175.591V20.08C175.591 21.568 176.263 22.168 177.463 22.168C178.087 22.168 178.663 22.024 179.143 21.76ZM187.642 25.24C183.922 25.24 181.138 22.312 181.138 18.592C181.138 14.848 183.922 11.944 187.642 11.944C191.362 11.944 194.146 14.848 194.146 18.592C194.146 22.312 191.362 25.24 187.642 25.24ZM187.642 22.288C189.298 22.288 190.714 20.968 190.714 18.592C190.714 16.216 189.298 14.92 187.642 14.92C185.986 14.92 184.57 16.216 184.57 18.592C184.57 20.968 185.986 22.288 187.642 22.288ZM206.571 25H203.211V7.768H206.571V25ZM216.186 25.24C212.466 25.24 209.682 22.312 209.682 18.592C209.682 14.848 212.466 11.944 216.186 11.944C219.906 11.944 222.69 14.848 222.69 18.592C222.69 22.312 219.906 25.24 216.186 25.24ZM216.186 22.288C217.842 22.288 219.258 20.968 219.258 18.592C219.258 16.216 217.842 14.92 216.186 14.92C214.53 14.92 213.114 16.216 213.114 18.592C213.114 20.968 214.53 22.288 216.186 22.288ZM230.993 29.872C227.537 29.872 225.233 28 225.089 25.048H228.305C228.449 26.512 229.385 27.28 230.969 27.28C232.817 27.28 233.777 26.296 233.777 24.448V22.576C233.081 23.8 231.761 24.52 230.201 24.52C227.057 24.52 224.705 21.856 224.705 18.232C224.705 14.512 226.913 11.944 230.081 11.944C231.809 11.944 233.105 12.616 234.041 13.936V12.184H237.089V24.4C237.089 27.808 234.785 29.872 230.993 29.872ZM228.041 18.232C228.041 20.32 229.121 21.64 230.849 21.64C232.601 21.64 233.753 20.272 233.753 18.256C233.753 16.168 232.601 14.824 230.849 14.824C229.145 14.824 228.041 16.144 228.041 18.232ZM244.924 9.208C244.924 10.336 244.012 11.176 242.692 11.176C241.396 11.176 240.484 10.336 240.484 9.208C240.484 8.032 241.396 7.192 242.692 7.192C244.012 7.192 244.924 8.032 244.924 9.208ZM244.396 25H241.06V12.184H244.396V25ZM251.66 18.016V25H248.324V12.184H251.396V14.008C252.332 12.736 253.652 11.944 255.332 11.944C257.9 11.944 259.676 13.624 259.676 16.72V25H256.364V17.848C256.364 15.952 255.62 14.896 254.108 14.896C252.788 14.896 251.66 15.952 251.66 18.016Z" fill="#1A4563"/>
<path d="M5.79429 53.5H3.84829V57H2.30829V46.948H5.79429C8.04829 46.948 9.50429 48.096 9.50429 50.196C9.50429 52.31 8.04829 53.5 5.79429 53.5ZM5.78029 48.25H3.84829V52.198H5.78029C7.13829 52.198 7.96429 51.456 7.96429 50.21C7.96429 48.964 7.13829 48.25 5.78029 48.25ZM12.9206 57H11.4926V46.948H12.9206V57ZM18.4952 57.14C16.3532 57.14 14.9112 55.586 14.9112 53.248C14.9112 51.05 16.4092 49.44 18.4532 49.44C20.6652 49.44 22.1352 51.232 21.8832 53.64H16.3532C16.4652 55.152 17.2212 56.034 18.4672 56.034C19.5172 56.034 20.2452 55.46 20.4832 54.494H21.8832C21.5192 56.146 20.2452 57.14 18.4952 57.14ZM18.4252 50.504C17.2912 50.504 16.5212 51.316 16.3672 52.702H20.3852C20.3152 51.33 19.5732 50.504 18.4252 50.504ZM28.4406 57V55.852C27.9786 56.678 27.1526 57.14 26.0606 57.14C24.5206 57.14 23.5126 56.258 23.5126 54.9C23.5126 53.444 24.6746 52.688 26.8866 52.688C27.3206 52.688 27.6706 52.702 28.2726 52.772V52.226C28.2726 51.162 27.6986 50.56 26.7186 50.56C25.6826 50.56 25.0526 51.176 25.0106 52.212H23.7226C23.7926 50.546 24.9826 49.44 26.7186 49.44C28.5526 49.44 29.6166 50.476 29.6166 52.24V57H28.4406ZM24.8566 54.858C24.8566 55.628 25.4306 56.132 26.3406 56.132C27.5306 56.132 28.2726 55.39 28.2726 54.256V53.654C27.7266 53.584 27.3346 53.57 26.9706 53.57C25.5566 53.57 24.8566 53.99 24.8566 54.858ZM37.9472 54.788C37.9472 56.244 36.8132 57.14 34.8392 57.14C32.8792 57.14 31.7172 56.174 31.5772 54.578H32.9352C32.9912 55.502 33.7332 56.076 34.8672 56.076C35.8612 56.076 36.5192 55.726 36.5192 55.026C36.5192 54.41 36.1412 54.144 35.2172 53.962L34.0132 53.738C32.6412 53.472 31.8712 52.772 31.8712 51.652C31.8712 50.35 33.0052 49.44 34.7272 49.44C36.5052 49.44 37.7092 50.392 37.8352 51.918H36.4772C36.3932 51.022 35.7352 50.504 34.7412 50.504C33.8452 50.504 33.2432 50.882 33.2432 51.526C33.2432 52.128 33.6212 52.408 34.5172 52.576L35.7772 52.814C37.2472 53.08 37.9472 53.724 37.9472 54.788ZM43.103 57.14C40.961 57.14 39.519 55.586 39.519 53.248C39.519 51.05 41.017 49.44 43.061 49.44C45.273 49.44 46.743 51.232 46.491 53.64H40.961C41.073 55.152 41.829 56.034 43.075 56.034C44.125 56.034 44.853 55.46 45.091 54.494H46.491C46.127 56.146 44.853 57.14 43.103 57.14ZM43.033 50.504C41.899 50.504 41.129 51.316 40.975 52.702H44.993C44.923 51.33 44.181 50.504 43.033 50.504ZM54.1261 57H52.7121V50.784H51.0741V49.58H52.7121V49.034C52.7121 47.606 53.4821 46.822 54.8821 46.822C55.3021 46.822 55.6381 46.892 55.9181 47.004V48.152C55.6941 48.054 55.4421 48.026 55.1901 48.026C54.5181 48.026 54.1261 48.334 54.1261 49.048V49.58H56.1981V50.784H54.1261V57ZM58.9841 47.858C58.9841 48.39 58.5641 48.796 57.9621 48.796C57.3601 48.796 56.9401 48.39 56.9401 47.858C56.9401 47.312 57.3601 46.92 57.9621 46.92C58.5641 46.92 58.9841 47.312 58.9841 47.858ZM58.6761 57H57.2621V49.58H58.6761V57ZM62.6277 57H61.1997V46.948H62.6277V57ZM66.5784 57H65.1504V46.948H66.5784V57ZM75.6948 57.14C73.5948 57.14 72.0548 55.488 72.0548 53.29C72.0548 51.092 73.5948 49.44 75.6948 49.44C77.7948 49.44 79.3348 51.092 79.3348 53.29C79.3348 55.488 77.7948 57.14 75.6948 57.14ZM75.6948 55.894C76.9128 55.894 77.8788 54.914 77.8788 53.29C77.8788 51.666 76.9128 50.7 75.6948 50.7C74.4768 50.7 73.5248 51.666 73.5248 53.29C73.5248 54.914 74.4768 55.894 75.6948 55.894ZM85.9702 53.948V49.58H87.3842V57H86.0682V55.824C85.6762 56.594 84.8082 57.14 83.8002 57.14C82.3022 57.14 81.2662 56.258 81.2662 54.354V49.58H82.6802V54.074C82.6802 55.362 83.3242 55.894 84.2482 55.894C85.2002 55.894 85.9702 55.11 85.9702 53.948ZM94.0939 55.628V56.874C93.6599 57.07 93.2819 57.14 92.8339 57.14C91.4619 57.14 90.5099 56.398 90.5099 54.76V50.784H88.8719V49.58H90.5099V47.382H91.9239V49.58H94.1639V50.784H91.9239V54.438C91.9239 55.46 92.4139 55.824 93.1699 55.824C93.5059 55.824 93.7999 55.768 94.0939 55.628ZM103.745 55.628V56.874C103.311 57.07 102.933 57.14 102.485 57.14C101.113 57.14 100.161 56.398 100.161 54.76V50.784H98.5232V49.58H100.161V47.382H101.575V49.58H103.815V50.784H101.575V54.438C101.575 55.46 102.065 55.824 102.821 55.824C103.157 55.824 103.451 55.768 103.745 55.628ZM107.139 52.814V57H105.725V46.948H107.139V50.77C107.629 49.972 108.385 49.44 109.407 49.44C110.933 49.44 111.941 50.42 111.941 52.198V57H110.527V52.674C110.527 51.4 109.967 50.686 108.917 50.686C107.951 50.686 107.139 51.498 107.139 52.814ZM117.43 57.14C115.288 57.14 113.846 55.586 113.846 53.248C113.846 51.05 115.344 49.44 117.388 49.44C119.6 49.44 121.07 51.232 120.818 53.64H115.288C115.4 55.152 116.156 56.034 117.402 56.034C118.452 56.034 119.18 55.46 119.418 54.494H120.818C120.454 56.146 119.18 57.14 117.43 57.14ZM117.36 50.504C116.226 50.504 115.456 51.316 115.302 52.702H119.32C119.25 51.33 118.508 50.504 117.36 50.504ZM133.452 53.29C133.452 55.516 132.164 57.14 130.162 57.14C129.112 57.14 128.216 56.608 127.684 55.67V57H126.368V46.948H127.782V50.854C128.3 49.944 129.154 49.44 130.162 49.44C132.15 49.44 133.452 51.036 133.452 53.29ZM131.982 53.29C131.982 51.61 131.1 50.686 129.882 50.686C128.706 50.686 127.782 51.596 127.782 53.262C127.782 54.9 128.678 55.88 129.882 55.88C131.1 55.88 131.982 54.942 131.982 53.29ZM138.497 57.14C136.355 57.14 134.913 55.586 134.913 53.248C134.913 51.05 136.411 49.44 138.455 49.44C140.667 49.44 142.137 51.232 141.885 53.64H136.355C136.467 55.152 137.223 56.034 138.469 56.034C139.519 56.034 140.247 55.46 140.485 54.494H141.885C141.521 56.146 140.247 57.14 138.497 57.14ZM138.427 50.504C137.293 50.504 136.523 51.316 136.369 52.702H140.387C140.317 51.33 139.575 50.504 138.427 50.504ZM145.376 57H143.948V46.948H145.376V57ZM151.007 57.14C148.907 57.14 147.367 55.488 147.367 53.29C147.367 51.092 148.907 49.44 151.007 49.44C153.107 49.44 154.647 51.092 154.647 53.29C154.647 55.488 153.107 57.14 151.007 57.14ZM151.007 55.894C152.225 55.894 153.191 54.914 153.191 53.29C153.191 51.666 152.225 50.7 151.007 50.7C149.789 50.7 148.837 51.666 148.837 53.29C148.837 54.914 149.789 55.894 151.007 55.894ZM162.617 57L160.937 51.484L159.243 57H157.815L155.673 49.58H157.059L158.557 54.984L160.237 49.58H161.637L163.289 54.998L164.787 49.58H166.187L164.031 57H162.617ZM170.854 53.29C170.854 51.036 172.142 49.44 174.144 49.44C175.138 49.44 176.006 49.944 176.524 50.854V46.948H177.938V57H176.622V55.67C176.09 56.608 175.194 57.14 174.144 57.14C172.142 57.14 170.854 55.516 170.854 53.29ZM172.324 53.29C172.324 54.942 173.192 55.88 174.424 55.88C175.628 55.88 176.524 54.9 176.524 53.262C176.524 51.596 175.6 50.686 174.424 50.686C173.192 50.686 172.324 51.61 172.324 53.29ZM183.515 57.14C181.373 57.14 179.931 55.586 179.931 53.248C179.931 51.05 181.429 49.44 183.473 49.44C185.685 49.44 187.155 51.232 186.903 53.64H181.373C181.485 55.152 182.241 56.034 183.487 56.034C184.537 56.034 185.265 55.46 185.503 54.494H186.903C186.539 56.146 185.265 57.14 183.515 57.14ZM183.445 50.504C182.311 50.504 181.541 51.316 181.387 52.702H185.405C185.335 51.33 184.593 50.504 183.445 50.504ZM193.125 55.628V56.874C192.691 57.07 192.313 57.14 191.865 57.14C190.493 57.14 189.541 56.398 189.541 54.76V50.784H187.903V49.58H189.541V47.382H190.955V49.58H193.195V50.784H190.955V54.438C190.955 55.46 191.445 55.824 192.201 55.824C192.537 55.824 192.831 55.768 193.125 55.628ZM199.599 57V55.852C199.137 56.678 198.311 57.14 197.219 57.14C195.679 57.14 194.671 56.258 194.671 54.9C194.671 53.444 195.833 52.688 198.045 52.688C198.479 52.688 198.829 52.702 199.431 52.772V52.226C199.431 51.162 198.857 50.56 197.877 50.56C196.841 50.56 196.211 51.176 196.169 52.212H194.881C194.951 50.546 196.141 49.44 197.877 49.44C199.711 49.44 200.775 50.476 200.775 52.24V57H199.599ZM196.015 54.858C196.015 55.628 196.589 56.132 197.499 56.132C198.689 56.132 199.431 55.39 199.431 54.256V53.654C198.885 53.584 198.493 53.57 198.129 53.57C196.715 53.57 196.015 53.99 196.015 54.858ZM204.947 47.858C204.947 48.39 204.527 48.796 203.925 48.796C203.323 48.796 202.889 48.39 202.889 47.858C202.889 47.312 203.323 46.92 203.925 46.92C204.527 46.92 204.947 47.312 204.947 47.858ZM204.639 57H203.225V49.58H204.639V57ZM208.59 57H207.162V46.948H208.59V57ZM216.993 54.788C216.993 56.244 215.859 57.14 213.885 57.14C211.925 57.14 210.763 56.174 210.623 54.578H211.981C212.037 55.502 212.779 56.076 213.913 56.076C214.907 56.076 215.565 55.726 215.565 55.026C215.565 54.41 215.187 54.144 214.263 53.962L213.059 53.738C211.687 53.472 210.917 52.772 210.917 51.652C210.917 50.35 212.051 49.44 213.773 49.44C215.551 49.44 216.755 50.392 216.881 51.918H215.523C215.439 51.022 214.781 50.504 213.787 50.504C212.891 50.504 212.289 50.882 212.289 51.526C212.289 52.128 212.667 52.408 213.563 52.576L214.823 52.814C216.293 53.08 216.993 53.724 216.993 54.788ZM226.769 55.628V56.874C226.335 57.07 225.957 57.14 225.509 57.14C224.137 57.14 223.185 56.398 223.185 54.76V50.784H221.547V49.58H223.185V47.382H224.599V49.58H226.839V50.784H224.599V54.438C224.599 55.46 225.089 55.824 225.845 55.824C226.181 55.824 226.475 55.768 226.769 55.628ZM231.651 57.14C229.551 57.14 228.011 55.488 228.011 53.29C228.011 51.092 229.551 49.44 231.651 49.44C233.751 49.44 235.291 51.092 235.291 53.29C235.291 55.488 233.751 57.14 231.651 57.14ZM231.651 55.894C232.869 55.894 233.835 54.914 233.835 53.29C233.835 51.666 232.869 50.7 231.651 50.7C230.433 50.7 229.481 51.666 229.481 53.29C229.481 54.914 230.433 55.894 231.651 55.894ZM242.206 57H240.778V46.948H242.206V57ZM247.837 57.14C245.737 57.14 244.197 55.488 244.197 53.29C244.197 51.092 245.737 49.44 247.837 49.44C249.937 49.44 251.477 51.092 251.477 53.29C251.477 55.488 249.937 57.14 247.837 57.14ZM247.837 55.894C249.055 55.894 250.021 54.914 250.021 53.29C250.021 51.666 249.055 50.7 247.837 50.7C246.619 50.7 245.667 51.666 245.667 53.29C245.667 54.914 246.619 55.894 247.837 55.894ZM256.31 59.856C254.364 59.856 253.104 58.82 253.02 57.14H254.392C254.476 58.176 255.148 58.736 256.296 58.736C257.57 58.736 258.242 58.05 258.242 56.776V55.432C257.822 56.328 256.982 56.846 255.974 56.846C254.126 56.846 252.81 55.32 252.81 53.136C252.81 50.924 254.07 49.44 255.932 49.44C256.996 49.44 257.836 49.958 258.34 50.896V49.58H259.656V56.748C259.656 58.694 258.41 59.856 256.31 59.856ZM254.238 53.136C254.238 54.676 254.994 55.614 256.226 55.614C257.43 55.614 258.242 54.648 258.242 53.178C258.242 51.638 257.444 50.658 256.226 50.658C255.008 50.658 254.238 51.61 254.238 53.136ZM263.895 47.858C263.895 48.39 263.475 48.796 262.873 48.796C262.271 48.796 261.837 48.39 261.837 47.858C261.837 47.312 262.271 46.92 262.873 46.92C263.475 46.92 263.895 47.312 263.895 47.858ZM263.587 57H262.173V49.58H263.587V57ZM267.524 52.814V57H266.11V49.58H267.426V50.812C267.93 49.986 268.77 49.44 269.792 49.44C271.318 49.44 272.326 50.42 272.326 52.198V57H270.912V52.674C270.912 51.4 270.352 50.686 269.302 50.686C268.336 50.686 267.524 51.498 267.524 52.814ZM97.2907 68.58L93.5807 78.702H92.0407L93.1047 75.902L90.1787 68.58H91.7047L93.8607 74.236L95.8627 68.58H97.2907ZM101.73 76.14C99.6304 76.14 98.0904 74.488 98.0904 72.29C98.0904 70.092 99.6304 68.44 101.73 68.44C103.83 68.44 105.37 70.092 105.37 72.29C105.37 74.488 103.83 76.14 101.73 76.14ZM101.73 74.894C102.948 74.894 103.914 73.914 103.914 72.29C103.914 70.666 102.948 69.7 101.73 69.7C100.512 69.7 99.5604 70.666 99.5604 72.29C99.5604 73.914 100.512 74.894 101.73 74.894ZM112.006 72.948V68.58H113.42V76H112.104V74.824C111.712 75.594 110.844 76.14 109.836 76.14C108.338 76.14 107.302 75.258 107.302 73.354V68.58H108.716V73.074C108.716 74.362 109.36 74.894 110.284 74.894C111.236 74.894 112.006 74.11 112.006 72.948ZM117.358 72.206V76H115.944V68.58H117.26V70.148C117.778 69.126 118.898 68.482 120.116 68.482V69.952C118.52 69.868 117.358 70.568 117.358 72.206ZM129.774 76V74.852C129.312 75.678 128.486 76.14 127.394 76.14C125.854 76.14 124.846 75.258 124.846 73.9C124.846 72.444 126.008 71.688 128.22 71.688C128.654 71.688 129.004 71.702 129.606 71.772V71.226C129.606 70.162 129.032 69.56 128.052 69.56C127.016 69.56 126.386 70.176 126.344 71.212H125.056C125.126 69.546 126.316 68.44 128.052 68.44C129.886 68.44 130.95 69.476 130.95 71.24V76H129.774ZM126.19 73.858C126.19 74.628 126.764 75.132 127.674 75.132C128.864 75.132 129.606 74.39 129.606 73.256V72.654C129.06 72.584 128.668 72.57 128.304 72.57C126.89 72.57 126.19 72.99 126.19 73.858ZM136.327 76.154C134.297 76.154 132.869 74.558 132.869 72.29C132.869 70.05 134.325 68.44 136.327 68.44C138.161 68.44 139.491 69.658 139.757 71.59H138.273C138.119 70.4 137.377 69.686 136.341 69.686C135.123 69.686 134.325 70.722 134.325 72.29C134.325 73.872 135.123 74.894 136.341 74.894C137.391 74.894 138.119 74.194 138.287 72.99H139.757C139.505 74.95 138.189 76.154 136.327 76.154ZM144.598 76.154C142.568 76.154 141.14 74.558 141.14 72.29C141.14 70.05 142.596 68.44 144.598 68.44C146.432 68.44 147.762 69.658 148.028 71.59H146.544C146.39 70.4 145.648 69.686 144.612 69.686C143.394 69.686 142.596 70.722 142.596 72.29C142.596 73.872 143.394 74.894 144.612 74.894C145.662 74.894 146.39 74.194 146.558 72.99H148.028C147.776 74.95 146.46 76.154 144.598 76.154ZM153.051 76.14C150.951 76.14 149.411 74.488 149.411 72.29C149.411 70.092 150.951 68.44 153.051 68.44C155.151 68.44 156.691 70.092 156.691 72.29C156.691 74.488 155.151 76.14 153.051 76.14ZM153.051 74.894C154.269 74.894 155.235 73.914 155.235 72.29C155.235 70.666 154.269 69.7 153.051 69.7C151.833 69.7 150.881 70.666 150.881 72.29C150.881 73.914 151.833 74.894 153.051 74.894ZM163.326 72.948V68.58H164.74V76H163.424V74.824C163.032 75.594 162.164 76.14 161.156 76.14C159.658 76.14 158.622 75.258 158.622 73.354V68.58H160.036V73.074C160.036 74.362 160.68 74.894 161.604 74.894C162.556 74.894 163.326 74.11 163.326 72.948ZM168.678 71.814V76H167.264V68.58H168.58V69.812C169.084 68.986 169.924 68.44 170.946 68.44C172.472 68.44 173.48 69.42 173.48 71.198V76H172.066V71.674C172.066 70.4 171.506 69.686 170.456 69.686C169.49 69.686 168.678 70.498 168.678 71.814ZM180.076 74.628V75.874C179.642 76.07 179.264 76.14 178.816 76.14C177.444 76.14 176.492 75.398 176.492 73.76V69.784H174.854V68.58H176.492V66.382H177.906V68.58H180.146V69.784H177.906V73.438C177.906 74.46 178.396 74.824 179.152 74.824C179.488 74.824 179.782 74.768 180.076 74.628ZM184.111 74.992C184.111 75.622 183.677 76.07 183.033 76.07C182.403 76.07 181.955 75.622 181.955 74.992C181.955 74.334 182.403 73.886 183.033 73.886C183.677 73.886 184.111 74.334 184.111 74.992Z" fill="#757F8E"/>
<defs>
<filter id="filter0_f_85_243" x="22.9987" y="11.6221" width="5.59467" height="8.25977" filterUnits="userSpaceOnUse" color-interpolation-filters="sRGB">
<feFlood flood-opacity="0" result="BackgroundImageFix"/>
<feBlend mode="normal" in="SourceGraphic" in2="BackgroundImageFix" result="shape"/>
<feGaussianBlur stdDeviation="0.375" result="effect1_foregroundBlur_85_243"/>
</filter>
<filter id="filter1_f_85_243" x="37.8594" y="9.41748" width="2.73383" height="3.06885" filterUnits="userSpaceOnUse" color-interpolation-filters="sRGB">
<feFlood flood-opacity="0" result="BackgroundImageFix"/>
<feBlend mode="normal" in="SourceGraphic" in2="BackgroundImageFix" result="shape"/>
<feGaussianBlur stdDeviation="0.25" result="effect1_foregroundBlur_85_243"/>
</filter>
<filter id="filter2_f_85_243" x="33.9678" y="14.0537" width="6.25861" height="7.81201" filterUnits="userSpaceOnUse" color-interpolation-filters="sRGB">
<feFlood flood-opacity="0" result="BackgroundImageFix"/>
<feBlend mode="normal" in="SourceGraphic" in2="BackgroundImageFix" result="shape"/>
<feGaussianBlur stdDeviation="0.5" result="effect1_foregroundBlur_85_243"/>
</filter>
<filter id="filter3_f_85_243" x="34.4073" y="15.0679" width="6.81604" height="13.8921" filterUnits="userSpaceOnUse" color-interpolation-filters="sRGB">
<feFlood flood-opacity="0" result="BackgroundImageFix"/>
<feBlend mode="normal" in="SourceGraphic" in2="BackgroundImageFix" result="shape"/>
<feGaussianBlur stdDeviation="0.75" result="effect1_foregroundBlur_85_243"/>
</filter>
<filter id="filter4_f_85_243" x="24.0652" y="13.271" width="11.8906" height="11.0527" filterUnits="userSpaceOnUse" color-interpolation-filters="sRGB">
<feFlood flood-opacity="0" result="BackgroundImageFix"/>
<feBlend mode="normal" in="SourceGraphic" in2="BackgroundImageFix" result="shape"/>
<feGaussianBlur stdDeviation="0.75" result="effect1_foregroundBlur_85_243"/>
</filter>
<filter id="filter5_f_85_243" x="29.1752" y="5.32197" width="7.0712" height="11.2599" filterUnits="userSpaceOnUse" color-interpolation-filters="sRGB">
<feFlood flood-opacity="0" result="BackgroundImageFix"/>
<feBlend mode="normal" in="SourceGraphic" in2="BackgroundImageFix" result="shape"/>
<feGaussianBlur stdDeviation="0.6" result="effect1_foregroundBlur_85_243"/>
</filter>
<filter id="filter6_f_85_243" x="31.1523" y="9.01973" width="4.44413" height="6.70908" filterUnits="userSpaceOnUse" color-interpolation-filters="sRGB">
<feFlood flood-opacity="0" result="BackgroundImageFix"/>
<feBlend mode="normal" in="SourceGraphic" in2="BackgroundImageFix" result="shape"/>
<feGaussianBlur stdDeviation="0.35" result="effect1_foregroundBlur_85_243"/>
</filter>
<filter id="filter7_d_85_243" x="31.0244" y="1.21055" width="6.44928" height="7.26318" filterUnits="userSpaceOnUse" color-interpolation-filters="sRGB">
<feFlood flood-opacity="0" result="BackgroundImageFix"/>
<feColorMatrix in="SourceAlpha" type="matrix" values="0 0 0 0 0 0 0 0 0 0 0 0 0 0 0 0 0 0 127 0" result="hardAlpha"/>
<feOffset dx="0.1" dy="-0.1"/>
<feGaussianBlur stdDeviation="0.25"/>
<feComposite in2="hardAlpha" operator="out"/>
<feColorMatrix type="matrix" values="0 0 0 0 0.0823529 0 0 0 0 0.337255 0 0 0 0 0.627451 0 0 0 1 0"/>
<feBlend mode="normal" in2="BackgroundImageFix" result="effect1_dropShadow_85_243"/>
<feBlend mode="normal" in="SourceGraphic" in2="effect1_dropShadow_85_243" result="shape"/>
</filter>
<filter id="filter8_d_85_243" x="28.8524" y="2.78867" width="6.80206" height="7.521" filterUnits="userSpaceOnUse" color-interpolation-filters="sRGB">
<feFlood flood-opacity="0" result="BackgroundImageFix"/>
<feColorMatrix in="SourceAlpha" type="matrix" values="0 0 0 0 0 0 0 0 0 0 0 0 0 0 0 0 0 0 127 0" result="hardAlpha"/>
<feOffset dx="0.1" dy="-0.1"/>
<feGaussianBlur stdDeviation="0.25"/>
<feComposite in2="hardAlpha" operator="out"/>
<feColorMatrix type="matrix" values="0 0 0 0 0.0823529 0 0 0 0 0.337255 0 0 0 0 0.627451 0 0 0 1 0"/>
<feBlend mode="normal" in2="BackgroundImageFix" result="effect1_dropShadow_85_243"/>
<feBlend mode="normal" in="SourceGraphic" in2="effect1_dropShadow_85_243" result="shape"/>
</filter>
<filter id="filter9_f_85_243" x="21.4085" y="16.3467" width="5.28485" height="6.92822" filterUnits="userSpaceOnUse" color-interpolation-filters="sRGB">
<feFlood flood-opacity="0" result="BackgroundImageFix"/>
<feBlend mode="normal" in="SourceGraphic" in2="BackgroundImageFix" result="shape"/>
<feGaussianBlur stdDeviation="0.375" result="effect1_foregroundBlur_85_243"/>
</filter>
<filter id="filter10_f_85_243" x="25.5623" y="6.61572" width="6.28119" height="10.7969" filterUnits="userSpaceOnUse" color-interpolation-filters="sRGB">
<feFlood flood-opacity="0" result="BackgroundImageFix"/>
<feBlend mode="normal" in="SourceGraphic" in2="BackgroundImageFix" result="shape"/>
<feGaussianBlur stdDeviation="0.5" result="effect1_foregroundBlur_85_243"/>
</filter>
<radialGradient id="paint0_radial_85_243" cx="0" cy="0" r="1" gradientUnits="userSpaceOnUse" gradientTransform="translate(34.7124 14.127) rotate(99.3161) scale(16.791 18.7448)">
<stop offset="0.815" stop-color="#BA7D94" stop-opacity="0"/>
<stop offset="1" stop-color="#BA7D94"/>
</radialGradient>
<linearGradient id="paint1_linear_85_243" x1="25.8164" y1="22.259" x2="22.2004" y2="25.122" gradientUnits="userSpaceOnUse">
<stop stop-color="#BA7D94" stop-opacity="0"/>
<stop offset="1" stop-color="#BA7D94"/>
</linearGradient>
<radialGradient id="paint2_radial_85_243" cx="0" cy="0" r="1" gradientUnits="userSpaceOnUse" gradientTransform="translate(34.2851 10.8597) rotate(156.037) scale(4.10207 8.61847)">
<stop offset="0.719" stop-color="#E1A696" stop-opacity="0"/>
<stop offset="1" stop-color="#E1A696"/>
</radialGradient>
<radialGradient id="paint3_radial_85_243" cx="0" cy="0" r="1" gradientUnits="userSpaceOnUse" gradientTransform="translate(34.2844 10.8596) rotate(154.952) scale(5.1506 12.9593)">
<stop offset="0.769" stop-color="#DF9E84" stop-opacity="0"/>
<stop offset="1" stop-color="#DF9E84"/>
</radialGradient>
<linearGradient id="paint4_linear_85_243" x1="31.6094" y1="16.299" x2="31.2024" y2="14.194" gradientUnits="userSpaceOnUse">
<stop stop-color="#F5BFAE"/>
<stop offset="1" stop-color="#F5BFAE" stop-opacity="0"/>
</linearGradient>
<radialGradient id="paint5_radial_85_243" cx="0" cy="0" r="1" gradientUnits="userSpaceOnUse" gradientTransform="translate(35.5693 14.4912) rotate(-127.591) scale(3.72686 0.79712)">
<stop stop-color="#C8947A"/>
<stop offset="1" stop-color="#C8947A" stop-opacity="0"/>
</radialGradient>
<radialGradient id="paint6_radial_85_243" cx="0" cy="0" r="1" gradientUnits="userSpaceOnUse" gradientTransform="translate(30.6655 5.50064) rotate(84.463) scale(2.29203 2.86609)">
<stop stop-color="#E3B79C"/>
<stop offset="1" stop-color="#E3B79C" stop-opacity="0"/>
</radialGradient>
<radialGradient id="paint7_radial_85_243" cx="0" cy="0" r="1" gradientUnits="userSpaceOnUse" gradientTransform="translate(27.0312 15.2403) rotate(146.452) scale(3.50589 9.38314)">
<stop offset="0.425" stop-color="#E2A693" stop-opacity="0"/>
<stop offset="1" stop-color="#E2A693"/>
</radialGradient>
<radialGradient id="paint8_radial_85_243" cx="0" cy="0" r="1" gradientUnits="userSpaceOnUse" gradientTransform="translate(27.0314 15.2416) rotate(147.829) scale(4.57787 12.2522)">
<stop offset="0.625" stop-color="#E09E7E" stop-opacity="0"/>
<stop offset="1" stop-color="#E09E7E"/>
</radialGradient>
<radialGradient id="paint9_radial_85_243" cx="0" cy="0" r="1" gradientUnits="userSpaceOnUse" gradientTransform="translate(23.7274 17.1246) rotate(-32.6806) scale(3.93552 24.9102)">
<stop offset="0.692" stop-color="#D59271" stop-opacity="0"/>
<stop offset="1" stop-color="#D59271"/>
</radialGradient>
<linearGradient id="paint10_linear_85_243" x1="27.8754" y1="18.9906" x2="26.1564" y2="18.0846" gradientUnits="userSpaceOnUse">
<stop stop-color="#F5BFAE"/>
<stop offset="1" stop-color="#F5BFAE" stop-opacity="0"/>
</linearGradient>
<radialGradient id="paint11_radial_85_243" cx="0" cy="0" r="1" gradientUnits="userSpaceOnUse" gradientTransform="translate(23.8024 10.8496) rotate(83.1268) scale(2.30263 2.71948)">
<stop stop-color="#DAAA90"/>
<stop offset="1" stop-color="#DAAA90" stop-opacity="0"/>
</radialGradient>
<radialGradient id="paint12_radial_85_243" cx="0" cy="0" r="1" gradientUnits="userSpaceOnUse" gradientTransform="translate(36.5935 17.5542) rotate(-77.656) scale(5.26228 2.27148)">
<stop stop-color="#EBB5A5"/>
<stop offset="1" stop-color="#EBB5A5" stop-opacity="0"/>
</radialGradient>
<radialGradient id="paint13_radial_85_243" cx="0" cy="0" r="1" gradientUnits="userSpaceOnUse" gradientTransform="translate(35.8754 11.2716) rotate(5.44835) scale(0.97611 3.53411)">
<stop stop-color="#D3987E"/>
<stop offset="1" stop-color="#D3987E" stop-opacity="0"/>
</radialGradient>
<radialGradient id="paint14_radial_85_243" cx="0" cy="0" r="1" gradientUnits="userSpaceOnUse" gradientTransform="translate(36.8624 8.80162) rotate(58.3164) scale(2.09322 7.57878)">
<stop stop-color="#D3987E"/>
<stop offset="1" stop-color="#D3987E" stop-opacity="0"/>
</radialGradient>
<radialGradient id="paint15_radial_85_243" cx="0" cy="0" r="1" gradientUnits="userSpaceOnUse" gradientTransform="translate(39.7662 10.6469) rotate(137.305) scale(1.74385 2.42174)">
<stop stop-color="#FFE2C7"/>
<stop offset="1" stop-color="#FFE2C7" stop-opacity="0"/>
</radialGradient>
<radialGradient id="paint16_radial_85_243" cx="0" cy="0" r="1" gradientUnits="userSpaceOnUse" gradientTransform="translate(40.5637 18.6785) rotate(113.948) scale(12.2413 6.11907)">
<stop stop-color="#FFE2C8"/>
<stop offset="1" stop-color="#FFE2C8" stop-opacity="0"/>
</radialGradient>
<radialGradient id="paint17_radial_85_243" cx="0" cy="0" r="1" gradientUnits="userSpaceOnUse" gradientTransform="translate(30.0024 12.1199) rotate(149.999) scale(4.32353 10.2337)">
<stop offset="0.655" stop-color="#E2A085" stop-opacity="0"/>
<stop offset="1" stop-color="#E2A085"/>
</radialGradient>
<radialGradient id="paint18_radial_85_243" cx="0" cy="0" r="1" gradientUnits="userSpaceOnUse" gradientTransform="translate(29.8934 12.1206) rotate(155.961) scale(1.67667 10.6108)">
<stop stop-color="#E1A086"/>
<stop offset="1" stop-color="#E1A086" stop-opacity="0"/>
</radialGradient>
<linearGradient id="paint19_linear_85_243" x1="28.7184" y1="17.6009" x2="27.8594" y2="14.9599" gradientUnits="userSpaceOnUse">
<stop stop-color="#F5BFAE"/>
<stop offset="1" stop-color="#F5BFAE" stop-opacity="0"/>
</linearGradient>
<radialGradient id="paint20_radial_85_243" cx="0" cy="0" r="1" gradientUnits="userSpaceOnUse" gradientTransform="translate(26.5084 6.31194) rotate(83.5812) scale(2.51577 2.77818)">
<stop stop-color="#DDAD92"/>
<stop offset="1" stop-color="#DDAD92" stop-opacity="0"/>
</radialGradient>
<radialGradient id="paint21_radial_85_243" cx="0" cy="0" r="1" gradientUnits="userSpaceOnUse" gradientTransform="translate(25.3754 18.1786) rotate(140.042) scale(1.50844 5.11444)">
<stop stop-color="#F2B69C"/>
<stop offset="1" stop-color="#F2B69C" stop-opacity="0"/>
</radialGradient>
<radialGradient id="paint22_radial_85_243" cx="0" cy="0" r="1" gradientUnits="userSpaceOnUse" gradientTransform="translate(22.1824 15.5036) rotate(82.3931) scale(2.125 2.77166)">
<stop stop-color="#DCA990"/>
<stop offset="1" stop-color="#DCA990" stop-opacity="0"/>
</radialGradient>
<linearGradient id="paint23_linear_85_243" x1="34.5624" y1="14.4288" x2="32.0934" y2="10.0228" gradientUnits="userSpaceOnUse">
<stop stop-color="#FDCCB8"/>
<stop offset="1" stop-color="#FDCCB8" stop-opacity="0"/>
</linearGradient>
<linearGradient id="paint24_linear_85_243" x1="16.5314" y1="15.8267" x2="19.7184" y2="22.4597" gradientUnits="userSpaceOnUse">
<stop stop-color="#1679C5"/>
<stop offset="1" stop-color="#0D5194"/>
</linearGradient>
<linearGradient id="paint25_linear_85_243" x1="14.5674" y1="17.6948" x2="18.3094" y2="25.8148" gradientUnits="userSpaceOnUse">
<stop offset="0.298" stop-color="#1679C5"/>
<stop offset="1" stop-color="#0D5194"/>
</linearGradient>
</defs>
</svg>
